<?xml version="1.0" encoding="UTF-8"?>
<svg width="155px" height="50px" viewBox="0 0 155 50" version="1.1" xmlns="http://www.w3.org/2000/svg" xmlns:xlink="http://www.w3.org/1999/xlink">
    <!-- Generator: Sketch 46.2 (44496) - http://www.bohemiancoding.com/sketch -->
    <title>Logo/TESL</title>
    <desc>Created with Sketch.</desc>
    <defs>
        <linearGradient x1="-7.42189781%" y1="86.7872739%" x2="119.534672%" y2="-35.1780528%" id="linearGradient-1">
            <stop stop-color="#E49228" offset="2.16825%"></stop>
            <stop stop-color="#E5591A" offset="63.44%"></stop>
        </linearGradient>
        <linearGradient x1="36.0471708%" y1="61.3839713%" x2="454.172177%" y2="-56.0162679%" id="linearGradient-2">
            <stop stop-color="#E49228" offset="2.16825%"></stop>
            <stop stop-color="#E5591A" offset="63.44%"></stop>
        </linearGradient>
        <linearGradient x1="-0.0629489603%" y1="50.046093%" x2="99.9323251%" y2="50.046093%" id="linearGradient-3">
            <stop stop-color="#919192" offset="0%"></stop>
            <stop stop-color="#474342" offset="63.44%"></stop>
        </linearGradient>
        <linearGradient x1="0.390199783%" y1="50.1620192%" x2="100.392397%" y2="50.1620192%" id="linearGradient-4">
            <stop stop-color="#919192" offset="0%"></stop>
            <stop stop-color="#474342" offset="63.44%"></stop>
        </linearGradient>
        <linearGradient x1="0.026440678%" y1="50.0322072%" x2="100.061017%" y2="50.0322072%" id="linearGradient-5">
            <stop stop-color="#919192" offset="0%"></stop>
            <stop stop-color="#474342" offset="63.44%"></stop>
        </linearGradient>
        <linearGradient x1="0.165%" y1="49.9497788%" x2="100.156667%" y2="49.9497788%" id="linearGradient-6">
            <stop stop-color="#E49228" offset="2.16825%"></stop>
            <stop stop-color="#E5591A" offset="63.44%"></stop>
        </linearGradient>
    </defs>
    <g id="Page-1" stroke="none" stroke-width="1" fill="none" fill-rule="evenodd">
        <g id="Desktop/暫時頁面" transform="translate(-642.000000, -1860.000000)" fill-rule="nonzero">
            <g id="Section/Intro" transform="translate(235.000000, 951.000000)">
                <g id="Logo/TESL" transform="translate(407.000000, 909.000000)">
                    <g id="XMLID_127_" transform="translate(64.197531, 11.111111)" fill="#4F4B4A">
                        <polygon id="XMLID_134_" points="14.3209877 27.7777778 7.96296296 27.7777778 7.96296296 5.86419753 0.432098765 5.86419753 0.432098765 0.987654321 22.1604938 0.987654321 21.5432099 5.86419753 14.3209877 5.86419753"></polygon>
                        <polygon id="XMLID_132_" points="32.7160494 11.9753086 42.037037 11.9753086 42.037037 16.4197531 32.7160494 16.4197531 32.7160494 23.2716049 43.8888889 23.2716049 43.8888889 27.7777778 26.3580247 27.7777778 26.3580247 0.987654321 43.8888889 0.987654321 43.2098765 5.49382716 32.7160494 5.49382716"></polygon>
                        <path d="M57.037037,28.4567901 C51.9753086,28.4567901 48.7037037,26.7901235 46.4197531,24.5679012 L49.6296296,20.9876543 C51.6049383,22.7160494 54.0123457,23.7037037 56.8518519,23.7037037 C59.5061728,23.7037037 61.2962963,22.5308642 61.2962963,20.4320988 C61.2962963,18.5185185 60.1851852,17.5925926 56.4814815,16.4197531 C50.1851852,14.5061728 47.7777778,12.0987654 47.7777778,8.08641975 C47.7777778,3.14814815 52.2839506,0.24691358 57.9012346,0.24691358 C61.9753086,0.24691358 65.1851852,1.54320988 67.5308642,3.7037037 L64.5679012,7.16049383 C62.7777778,5.67901235 60.5555556,4.9382716 58.3950617,4.9382716 C55.9876543,4.9382716 54.382716,5.80246914 54.382716,7.59259259 C54.382716,9.32098765 55.5555556,10 59.8148148,11.2962963 C64.9382716,12.8395062 67.9012346,15 67.9012346,19.9382716 C67.962963,25 63.9506173,28.4567901 57.037037,28.4567901 Z" id="XMLID_130_"></path>
                        <polygon id="XMLID_128_" points="72.8395062 0.987654321 79.1975309 0.987654321 79.1975309 22.7777778 90.8024691 22.7777778 90.1851852 27.8395062 72.8395062 27.8395062"></polygon>
                    </g>
                    <g id="Group">
                        <g id="XMLID_124_" transform="translate(0.000000, 0.617284)">
                            <path d="M30.9876543,2.77777778 L33.8271605,1.2345679 C27.4691358,-0.617283951 20.4320988,-0.12345679 14.0740741,3.14814815 C5.67901235,7.5308642 0.679012346,15.8024691 0,24.6296296 L3.02469136,25 C4.32098765,17.037037 9.19753086,9.81481481 16.8518519,5.80246914 C21.3580247,3.39506173 26.2962963,2.4691358 30.9876543,2.77777778 Z" id="XMLID_126_" fill="url(#linearGradient-1)"></path>
                            <path d="M9.44444444,18.8888889 C9.50617284,18.8271605 9.62962963,18.8271605 9.69135802,18.7654321 L7.77777778,16.6666667 C7.16049383,16.7901235 6.60493827,17.037037 6.04938272,17.2839506 C1.04938272,19.9382716 -0.12345679,27.7160494 3.51851852,34.6296296 C5.49382716,38.3950617 8.51851852,41.1728395 11.6666667,42.4691358 C9.38271605,41.1111111 7.40740741,38.9506173 5.98765432,36.2345679 C2.40740741,29.5061728 3.95061728,21.7283951 9.44444444,18.8888889 Z" id="XMLID_125_" fill="url(#linearGradient-2)"></path>
                        </g>
                        <g id="XMLID_121_" transform="translate(17.901235, 6.790123)">
                            <path d="M3.14814815,39.1975309 L0.308641975,40.617284 C6.48148148,42.5925926 13.5185185,42.2839506 19.5679012,39.0740741 C27.654321,34.8148148 32.4074074,26.7283951 32.962963,17.962963 L30,17.5925926 C28.8888889,25.4320988 24.2592593,32.5925926 16.8518519,36.4814815 C12.4691358,38.7654321 7.77777778,39.6296296 3.14814815,39.1975309 Z" id="XMLID_123_" fill="url(#linearGradient-3)"></path>
                            <path d="M23.8271605,23.5185185 C23.7654321,23.5802469 23.6419753,23.5802469 23.5802469,23.6419753 L25.4320988,25.7407407 C25.9876543,25.617284 26.5432099,25.4320988 27.0987654,25.1234568 C31.9753086,22.5925926 32.962963,14.8765432 29.382716,7.96296296 C27.4074074,4.19753086 24.4444444,1.41975309 21.3580247,0.0617283951 C23.5802469,1.48148148 25.5555556,3.58024691 26.9753086,6.2962963 C30.5555556,13.0864198 29.1358025,20.8024691 23.8271605,23.5185185 Z" id="XMLID_122_" fill="url(#linearGradient-4)"></path>
                        </g>
                        <polygon id="XMLID_120_" fill="url(#linearGradient-5)" points="21.5432099 15.3703704 21.1728395 27.4074074 38.6419753 12.5925926 39.382716 0"></polygon>
                        <polygon id="XMLID_111_" fill="url(#linearGradient-6)" points="13.0246914 37.654321 12.654321 49.9382716 30.4938272 34.8148148 31.1728395 22.037037"></polygon>
                    </g>
                </g>
            </g>
        </g>
    </g>
</svg>