<?xml version="1.0" encoding="UTF-8"?>
<svg width="148px" height="50px" viewBox="0 0 148 50" version="1.1" xmlns="http://www.w3.org/2000/svg" xmlns:xlink="http://www.w3.org/1999/xlink">
    <!-- Generator: Sketch 46.2 (44496) - http://www.bohemiancoding.com/sketch -->
    <title>Logo/Twitch</title>
    <desc>Created with Sketch.</desc>
    <defs></defs>
    <g id="Page-1" stroke="none" stroke-width="1" fill="none" fill-rule="evenodd">
        <g id="Desktop/暫時頁面" transform="translate(-646.000000, -1750.000000)" fill-rule="nonzero" fill="#6441A4">
            <g id="Section/Intro" transform="translate(235.000000, 951.000000)">
                <g id="Logo/Twitch" transform="translate(411.000000, 799.000000)">
                    <path d="M141.035294,8.13953488 L131.74902,8.13953488 L131.74902,0.581395349 L115.498039,0.581395349 L107.952941,8.13953488 L99.827451,8.13953488 L95.1843137,12.2093023 L95.1843137,8.13953488 L87.6392157,8.13953488 L87.6392157,0 L58.6196078,0 L58.6196078,8.13953488 L23.7960784,8.13953488 L15.6705882,0 L0,0 L0,34.3023256 L7.54509804,41.8604651 L20.8941176,50 L31.3411765,50 L31.3411765,47.6744186 L35.4039216,50 L56.2980392,50 L59.7803922,45.3488372 L60.3607843,50 L73.7098039,50 L74.2901961,45.3488372 L78.9333333,50 L91.1215686,50 L91.7019608,45.3488372 L95.7647059,50 L109.113725,50 L114.337255,45.3488372 L114.337255,50 L121.238118,50 L127.686275,45.3488372 L127.686275,50 L135.811765,50 L148,40.6976744 L148,15.1162791 L141.035294,8.13953488 Z M20.3137255,20.9302326 L12.1882353,20.9302326 L12.1882353,29.0697674 L20.3137255,29.0697674 L20.3137255,38.4360465 L9.28627451,38.4360465 L3.48235294,32.5581395 L3.48235294,3.48837209 L12.1882353,3.48837209 L12.1882353,11.627907 L20.3137255,11.627907 L20.3137255,20.9302326 Z M58.6196078,31.9767442 L52.8156863,38.372093 L23.7322353,38.4360465 L23.7960784,11.627907 L33.0823529,11.627907 L33.0823529,29.0697674 L36.5647059,29.0697674 L36.5647059,11.627907 L45.8509804,11.627907 L45.8509804,29.0697674 L49.3333333,29.0697674 L49.3333333,11.627907 L58.6196078,11.627907 L58.6196078,31.9767442 Z M71.3882353,38.372093 L62.1019608,38.372093 L62.1019608,11.627907 L71.3882353,11.627907 L71.3882353,38.372093 Z M71.3882353,8.13953488 L62.1019608,8.13953488 L62.1019608,3.48837209 L71.3882353,3.48837209 L71.3882353,8.13953488 Z M91.7019608,20.9302326 L84.1568627,20.9302326 L84.1568627,29.0697674 L91.7019608,29.0697674 L91.7019608,38.372093 L80.6745098,38.372093 L74.8705882,32.5581395 L74.8705882,3.48837209 L84.1568627,3.48837209 L84.1568627,11.627907 L91.7019608,11.627907 L91.7019608,20.9302326 Z M115.498039,20.9302326 L103.890196,20.9302326 L103.890196,29.0697674 L115.498039,29.0697674 L115.498039,38.372093 L100.988235,38.372093 L95.1843137,32.5581395 L95.1843137,17.4418605 L100.988235,11.627907 L115.498039,11.627907 L115.498039,20.9302326 Z M144.517647,38.372093 L136.392157,38.372093 L136.392157,20.9302326 L127.686275,20.9302326 L127.686275,38.372093 L118.980392,38.372093 L118.980392,4.06976744 L128.266667,4.06976744 L128.266667,11.627907 L139.294118,11.627907 L144.517647,17.4418605 L144.517647,38.372093 Z" id="Shape"></path>
                </g>
            </g>
        </g>
    </g>
</svg>