<?xml version="1.0" encoding="utf-8"?>
<svg version="1.1" id="wegamers_logo+type" xmlns="http://www.w3.org/2000/svg" xmlns:xlink="http://www.w3.org/1999/xlink" x="0px" y="0px"
	 viewBox="0 0 176 30" style="enable-background:new 0 0 176 30;" xml:space="preserve">
  <style type="text/css">
    .color{fill:#FFFFFF;}
  </style>
  <title>wegamers_logo+type</title>
  <g>
    <path class="color" d="M52.8,20.3l-0.3-1.6c-0.1-0.3-0.2-0.9-0.3-1.5l-1.3-6.3l-0.5-2.1c0.8,0,1.2,0,1.8,0s1.1,0,1.8,0
      c0.2,0.9,0.2,1.6,0.3,2l0.8,3.4c0.2,0.8,0.3,1.6,0.5,2.7l0.2-1.2l1-3.9l0.7-3c0.8,0,1.4,0,1.9,0c0.6,0,1.2,0,1.9,0l0.5,3.6l0.8,4.5
      l0.3-1.2c0.1-0.2,0.2-0.4,0.2-0.7c0.1-0.2,0.2-0.7,0.4-1.3l1-3.2l0.5-1.7c0.7,0,1.2,0,1.7,0c0.5,0,1.1,0,1.7,0L65,18.6l-0.5,1.8
      c-0.8,0-1.6,0-2.2,0c-0.7,0-1.4,0-2.2,0l-0.2-1.2l-0.8-4c0-0.2-0.1-0.5-0.1-0.8s-0.1-0.7-0.2-1.2l-0.3,1.3
      c-0.1,0.3-0.2,0.6-0.2,0.9L57,20.4c-0.8,0-1.6,0-2.1,0C54.3,20.2,53.7,20.2,52.8,20.3z"/>
    <path class="color" d="M69.2,20.3c0.2-1.4,0.2-2.7,0.3-3.7c0.1-1,0.2-2.2,0.2-3.9c0.1-1.6,0.1-2.7,0.1-3.2V8.8
      c1.3,0,2.9,0,4.8,0c1.8,0,3.2,0,4.6,0V9c0,0.1,0,0.3-0.1,0.8v1c0,0.2,0,0.4,0,0.6c-1.1-0.1-2-0.1-2.8-0.1c-0.8,0-1.3,0-1.7,0
      c-0.2,0-0.8,0-1.3,0l-0.1,2c0.7,0,1.4,0,2.3,0c0.3,0,1.2,0,2.5-0.1c-0.1,0.8-0.1,1.6-0.2,2.6c-1,0-1.8,0-2.2,0
      c-0.8,0-1.7,0-2.6,0.1l-0.1,2.1h1c0.2,0,0.9,0,1.8,0l1.8-0.1c0.2,0,0.7,0,1.3-0.1c-0.1,0.8-0.1,1.7-0.2,2.6c-1.3,0-2.8,0-4.5,0
      h-3.8H69.2z"/>
    <path class="color" d="M87.4,13.6c0.8,0,1.5,0,2.2,0c1.2,0,2.1,0,2.8,0c-0.1,0.8-0.2,1.8-0.2,3.2
      c-0.1,1.4-0.1,2.5-0.2,3.2c-0.7,0.1-1.2,0.2-1.6,0.2c-0.4,0.1-0.9,0.1-1.5,0.2c-0.6,0.1-1.2,0.1-1.6,0.1c-0.8,0-1.5-0.1-2.2-0.2
      c-0.8-0.1-1.4-0.3-2-0.6c-0.6-0.2-1.1-0.7-1.4-1.1c-0.4-0.5-0.7-1-0.9-1.7c-0.2-0.7-0.3-1.3-0.3-2c0-1.2,0.2-2.2,0.8-3.2
      s1.4-1.8,2.4-2.3c1.1-0.6,2.4-0.8,4.2-0.8c1.2,0,2.6,0.2,4.1,0.4c0,0.8,0,1.8,0.1,2.8c-0.4-0.2-0.8-0.2-1-0.3
      c-0.2-0.1-0.6-0.2-0.9-0.2c-0.3-0.1-0.7-0.1-0.9-0.2c-0.3,0-0.6-0.1-0.8-0.1c-0.6,0-1.2,0.1-1.8,0.2c-0.6,0.2-1,0.4-1.4,0.8
      c-0.4,0.3-0.7,0.8-0.9,1.3s-0.3,1.1-0.3,1.6c0,0.6,0.1,1.1,0.3,1.6c0.2,0.4,0.6,0.8,1.1,1c0.5,0.2,1,0.3,1.7,0.3
      c0.5,0,1.1-0.1,1.7-0.2l0.1-1.8c-0.3,0-0.6,0-0.7,0h-0.9l0.1-1c0-0.1,0-0.2,0-0.5C87.4,14.2,87.4,13.9,87.4,13.6z"/>
    <path class="color" d="M92.7,20.3l0.7-1.2l4.3-8.2l0.5-0.9c0.2-0.2,0.3-0.7,0.6-1.2c1,0,1.8,0,2.2,0c0.8,0,1.5,0,2.2,0
      l1.2,3.5l2.5,6.7l0.5,1.2c-1,0-1.6,0-1.8,0c-0.5,0-1.2,0-2.1,0c-0.2-0.9-0.6-2-1.1-3.2h-4.2c-0.5,1-1,2.1-1.5,3.2
      c-1.1,0-1.7,0-1.9,0C94.2,20.2,93.6,20.2,92.7,20.3z M99.2,14.6h2.6c-0.7-2-1-3.1-1.1-3.2c-0.3,0.8-0.7,1.5-0.9,2L99.2,14.6z"/>
    <path class="color" d="M108,20.3l0.2-1.7l0.5-5.9l0.2-3.9c1,0,1.8,0,2.4,0c0.5,0,1.2,0,2.2,0c0.1,0.5,0.2,0.8,0.2,1.1
      c0.1,0.2,0.2,0.8,0.3,1.5c0.2,0.8,0.3,1.3,0.5,1.9c0.1,0.5,0.3,1.4,0.6,2.7c0.2-0.9,0.5-1.7,0.7-2.2c0.2-0.7,0.4-1.3,0.8-2.2
      c0.3-0.8,0.5-1.3,0.6-1.6s0.2-0.7,0.3-1.2c0.8,0,1.7,0,2.5,0c0.6,0,1.3,0,2.3,0c-0.1,1.9-0.2,3.5-0.2,4.9c-0.1,2.7-0.1,4.5-0.1,5.5
      c0,0.2,0,0.6,0,1.2c-0.8,0-1.2,0-1.6,0c-0.4,0-1,0-1.6,0c0.1-0.5,0.1-1.8,0.2-3.6c0.1-1.9,0.1-3.1,0.1-3.7c0-0.2,0-0.6,0-1
      l-1.1,3.4l-1.6,4.8c-0.8,0-1.2,0-1.5,0c-0.3,0-0.9,0-1.6,0l-1-4.7l-0.6-2.5c0-0.1-0.1-0.2-0.1-0.3c0-0.2-0.1-0.4-0.2-0.8l-0.2,2.3
      l-0.2,4.8v1.1c-0.8,0-1.2,0-1.5,0C109.2,20.2,108.8,20.2,108,20.3z"/>
    <path class="color" d="M124.1,20.3c0.2-1.4,0.2-2.7,0.3-3.7c0.1-1,0.2-2.2,0.2-3.9c0.1-1.6,0.1-2.7,0.1-3.2V8.8
      c1.3,0,2.9,0,4.8,0c1.8,0,3.2,0,4.6,0V9c0,0.1,0,0.3-0.1,0.8l-0.1,0.9c0,0.2,0,0.4,0,0.6c-1.1-0.1-2-0.1-2.8-0.1
      c-0.8,0-1.3,0-1.7,0c-0.2,0-0.8,0-1.3,0l-0.1,1.9c0.7,0,1.4,0,2.3,0c0.3,0,1.2,0,2.5-0.1c-0.1,0.8-0.1,1.6-0.2,2.6
      c-1,0-1.8,0-2.2,0c-0.8,0-1.7,0-2.6,0.1l-0.1,2.1h1c0.2,0,0.9,0,1.8,0l1.8-0.1c0.2,0,0.7,0,1.3-0.1c-0.1,0.8-0.1,1.7-0.2,2.6
      c-1.3,0-2.8,0-4.5,0h-3.8L124.1,20.3z"/>
    <path class="color" d="M135.4,20.3c0.1-1,0.2-1.9,0.2-2.7c0.1-0.8,0.1-1.8,0.2-2.8c0.1-1.1,0.1-2.2,0.1-3.3
      s0-2.1,0-2.8c0.7,0,1.2,0,1.7,0c0.4,0,1,0,1.7,0s1.2,0,1.9,0c0.8,0,1.3,0,1.9,0.1c0.4,0,0.8,0.1,1.2,0.2c0.3,0.1,0.7,0.2,0.8,0.4
      c0.2,0.2,0.4,0.4,0.6,0.6c0.2,0.2,0.2,0.5,0.3,0.8c0.1,0.3,0.2,0.6,0.2,0.9c0,0.4-0.1,0.8-0.2,1.1c-0.1,0.3-0.2,0.7-0.4,0.9
      c-0.2,0.2-0.5,0.5-0.8,0.8c-0.3,0.2-0.8,0.4-1.3,0.7l0.4,1.1c0.1,0.3,0.2,0.6,0.4,0.9l1.2,2.5c0.1,0.1,0.2,0.3,0.2,0.7
      c-0.9,0-1.6,0-1.8,0c-0.4,0-1.1,0-2,0c-0.1-0.3-0.2-0.8-0.5-1.7c-0.1-0.3-0.2-0.6-0.2-0.8c-0.2-0.4-0.3-0.9-0.6-1.7l-0.8-2.4
      c0.3,0.1,0.6,0.1,0.9,0.1c0.4,0,0.8-0.1,1.1-0.2s0.6-0.3,0.8-0.6s0.2-0.5,0.2-0.8c0-0.2-0.1-0.4-0.2-0.7c-0.2-0.2-0.3-0.3-0.6-0.4
      s-0.7-0.2-1.2-0.2c-0.2,0-0.4,0-0.6,0c-0.2,0-0.4,0-0.8,0c-0.1,1.2-0.2,2.6-0.2,4.2c-0.1,1.7-0.1,3.2-0.1,4.9c-0.9,0-1.6,0-1.8,0
      C136.9,20.2,136.3,20.2,135.4,20.3z"/>
    <path class="color" d="M147.4,20.1c-0.1-1.2-0.2-2.2-0.2-2.8c0.7,0.2,1.2,0.5,1.7,0.6c0.5,0.1,0.9,0.2,1.3,0.2
      c0.5,0,0.9-0.1,1.2-0.2c0.2-0.2,0.4-0.3,0.4-0.7c0-0.1,0-0.2-0.1-0.2c0-0.1-0.1-0.2-0.2-0.3c-0.1-0.1-0.2-0.2-0.3-0.3l-1.6-1.4
      c-0.3-0.3-0.7-0.6-0.8-0.7c-0.3-0.2-0.5-0.6-0.7-0.8c-0.2-0.2-0.2-0.5-0.3-0.8c-0.1-0.2-0.1-0.5-0.1-0.8c0-0.3,0.1-0.7,0.2-1
      c0.1-0.3,0.3-0.7,0.6-0.9s0.6-0.5,1-0.8c0.4-0.2,0.8-0.3,1.2-0.4s0.9-0.1,1.4-0.1c0.9,0,2,0.1,3.1,0.3c0,0.4,0,0.8,0.1,1.1
      c0,0.3,0.1,0.9,0.2,1.7c-0.5-0.2-1-0.3-1.4-0.4c-0.4-0.1-0.8-0.1-1.1-0.1c-0.4,0-0.8,0.1-1.1,0.2s-0.4,0.3-0.4,0.6
      c0,0.1,0,0.2,0.1,0.3c0.1,0.1,0.2,0.2,0.2,0.4c0.1,0.2,0.2,0.3,0.5,0.5c0.2,0.2,0.5,0.4,0.9,0.8l0.6,0.5c0.2,0.2,0.3,0.3,0.6,0.5
      c0.2,0.2,0.4,0.4,0.5,0.6c0.2,0.2,0.2,0.4,0.3,0.6c0.1,0.2,0.2,0.3,0.2,0.5c0,0.2,0.1,0.3,0.1,0.6c0,0.5-0.1,1-0.3,1.4
      c-0.2,0.4-0.6,0.8-1,1.2c-0.4,0.3-0.9,0.5-1.5,0.6c-0.5,0.1-1.1,0.2-1.7,0.2C150,20.5,148.8,20.4,147.4,20.1z"/>
    <polygon class="color" points="164.2,9.1 164.2,12.2 160,14.5 164.2,16.8 164.2,19.8 156.8,15.8 156.8,13.2 	"/>
    <path class="color" d="M166,20.1c-0.1-1.2-0.2-2.1-0.2-2.8c1.2,0.4,2.4,0.7,3.4,0.7c0.6,0,1.2-0.1,1.5-0.4
      c0.4-0.2,0.6-0.6,0.6-1c0-0.4-0.2-0.7-0.6-0.9c-0.4-0.2-1-0.2-1.8-0.2c-0.5,0-1,0-1.5,0.1c0.1-0.9,0.2-1.8,0.2-2.6
      c0.4,0.1,0.8,0.1,1.2,0.1c0.5,0,0.9,0,1.2-0.1c0.3-0.1,0.6-0.2,0.8-0.4c0.2-0.2,0.2-0.4,0.2-0.6c0-0.2-0.1-0.3-0.2-0.5
      c-0.2-0.2-0.3-0.2-0.6-0.3s-0.6-0.1-1-0.1c-0.3,0-0.8,0-1.2,0.1c-0.4,0-0.9,0.2-1.7,0.2l0.4-2c0-0.2,0.1-0.3,0.1-0.6
      c1.2-0.2,2.3-0.2,3.3-0.2c0.7,0,1.3,0.1,1.9,0.2c0.6,0.1,1.2,0.2,1.6,0.5s0.8,0.6,1,0.9c0.2,0.4,0.3,0.8,0.3,1.2
      c0,0.2,0,0.6-0.1,0.8s-0.2,0.5-0.3,0.8c-0.2,0.2-0.3,0.4-0.6,0.6c-0.2,0.2-0.4,0.3-0.6,0.4c-0.2,0.1-0.5,0.2-0.8,0.3
      c0.3,0.1,0.7,0.2,0.8,0.2c0.2,0.1,0.4,0.2,0.6,0.3c0.2,0.2,0.3,0.3,0.5,0.5c0.2,0.2,0.2,0.4,0.3,0.7c0.1,0.2,0.1,0.5,0.1,0.8
      c0,0.6-0.2,1.1-0.4,1.6s-0.7,0.8-1.2,1.2c-0.5,0.3-1.1,0.5-1.8,0.7c-0.7,0.2-1.2,0.2-1.9,0.2s-1.2,0-1.8-0.1
      C167.5,20.3,166.8,20.2,166,20.1z"/>
  </g>
  <g>
    <path class="color" d="M21.7,0c3.1,0,6.1,0,9.2,0C33,0,35,0.7,36.7,2.1c1.8,1.5,2.9,3.4,3.3,5.8
      c0.9,4.9,1.8,9.8,2.8,14.7c0.6,3.3-1.2,6.3-4.5,7c-2.3,0.5-4.2-0.2-5.8-2.1c-0.6-0.8-1.1-1.5-1.7-2.2c-0.2-0.4-0.3-0.8-0.1-1.2
      s0.6-0.6,1-0.5c0.3,0.1,0.7,0.3,0.8,0.6c0.5,0.7,0.9,1.3,1.4,2c0.9,1.2,2.2,1.8,3.8,1.4c1.6-0.3,2.5-1.3,2.9-2.8
      c0.2-0.8,0-1.7-0.2-2.6c-0.9-4.8-1.8-9.4-2.7-14.2c-0.7-3.2-3.2-5.5-6.5-5.8c-0.4,0-0.8-0.1-1.2-0.1c-5.7,0-11.3,0-17,0
      c-2,0-3.8,0.6-5.3,2C6.4,5.2,5.8,6.8,5.5,8.5C4.7,13.2,3.8,18,2.8,22.7c-0.4,2.2,0.7,4,2.8,4.6c1.4,0.4,3-0.2,3.9-1.3
      c0.5-0.7,1-1.3,1.5-2c0.5-0.7,1.2-0.7,1.8-0.1c0.2,0.3,0.3,0.8,0.1,1.1c-0.8,1.2-1.5,2.5-2.7,3.3c-2,1.4-4.1,1.7-6.2,0.5
      c-2.2-1.1-3.2-3-3.1-5.4c0.1-1.5,0.4-2.9,0.8-4.4c0.7-3.5,1.3-7.2,2.1-11s2.8-6.3,6.6-7.5C11.2,0.2,12.2,0,13.1,0
      C15.9,0,18.8,0,21.7,0z"/>
    <path class="color" d="M14.7,9.3c0,0.6,0,1.2,0,1.8c0,0.7-0.4,1.2-1,1.2c-0.6,0-1.1-0.5-1.1-1.2c0-0.6,0-1.2,0-1.8
      c-0.6,0-1.1,0-1.6,0c-0.2,0-0.5,0-0.8-0.1C9.8,9.1,9.6,8.6,9.7,8.2c0.1-0.5,0.5-0.8,1-0.8c0.6,0,1.2,0,1.9,0c0-0.6,0-1.2,0-1.8
      s0.3-1.1,0.8-1.2c0.7-0.2,1.2,0.3,1.2,1c0,0.6,0,1.2,0,1.9c0.6,0,1.2,0,1.7,0c0.8,0,1.2,0.4,1.2,1.1c0,0.7-0.5,1.1-1.2,1.1
      C15.8,9.3,15.2,9.3,14.7,9.3z"/>
    <path class="color" d="M27.3,9.9c-0.8,0-1.4-0.6-1.4-1.4c0-0.8,0.6-1.4,1.4-1.4c0.8,0,1.4,0.7,1.4,1.4
      S28.1,9.9,27.3,9.9z"/>
    <path class="color" d="M30.2,12.8c-0.8,0-1.4-0.7-1.4-1.4s0.7-1.4,1.4-1.4s1.4,0.7,1.4,1.4S31,12.8,30.2,12.8z"/>
    <path class="color" d="M30.2,7c-0.8,0-1.4-0.7-1.4-1.4s0.7-1.4,1.4-1.4s1.4,0.7,1.4,1.4S31,7,30.2,7z"/>
    <path class="color" d="M33.1,9.9c-0.8,0-1.4-0.6-1.4-1.4c0-0.8,0.7-1.4,1.4-1.4s1.4,0.7,1.4,1.4S33.9,9.9,33.1,9.9z"
      />
    <g transform="translate(12.500000, 19.166667)">
      <path class="color" d="M2.6,8.8h-1c-0.1,0-0.2-0.1-0.2-0.2c0-0.1,0.1-0.2,0.2-0.2h0.8l0.2-1.8c0-0.1,0.1-0.2,0.2-0.2
        c0.1,0,0.2,0.1,0.2,0.2l-0.2,2C2.8,8.7,2.7,8.8,2.6,8.8z"/>
      <path class="color" d="M5.2,8.8H4.4c-0.1,0-0.2-0.1-0.2-0.2V6.3c0-0.1,0.1-0.2,0.2-0.2c0.1,0,0.2,0.1,0.2,0.2v2h0.5
        c0.1,0,0.2,0.1,0.2,0.2C5.4,8.7,5.3,8.8,5.2,8.8z"/>
      <path class="color" d="M3.7,6.9c-1.8,0-3.2-1.4-3.2-3.2s1.4-3.2,3.2-3.2S6.8,2,6.8,3.8S5.4,6.9,3.7,6.9z M3.7,2.8
        c-0.5,0-0.9,0.4-0.9,0.9s0.4,0.9,0.9,0.9s0.9-0.4,0.9-0.9C4.7,3.2,4.2,2.8,3.7,2.8z"/>
    </g>
    <g transform="translate(24.166667, 20.000000)">
      <path class="color" d="M2.4,8H1.5C1.4,8,1.3,7.9,1.3,7.8c0-0.1,0.1-0.2,0.2-0.2h0.8L2.5,6c0-0.1,0.1-0.2,0.2-0.2
        c0.1,0,0.2,0.1,0.2,0.2L2.7,7.9C2.6,7.9,2.5,8,2.4,8z"/>
      <path class="color" d="M4.8,8H4.2C4.1,8,4,7.9,4,7.8v-2c0-0.1,0.1-0.2,0.2-0.2c0.1,0,0.2,0.1,0.2,0.2v1.8h0.5C4.9,7.6,5,7.7,5,7.8
        S4.9,8,4.8,8z"/>
      <path class="color" d="M3.4,6.2c-1.7,0-3-1.3-3-3s1.3-3,3-3s3,1.3,3,3S5.1,6.2,3.4,6.2z M3.4,2.4c-0.5,0-0.9,0.4-0.9,0.9
        s0.4,0.9,0.9,0.9s0.9-0.4,0.9-0.9S3.9,2.4,3.4,2.4z"/>
    </g>
    <g transform="translate(19.166667, 20.833333)">
      <path class="color" d="M2.2,7.1H1.3C1.2,7.1,1.2,7,1.2,6.9c0-0.1,0.1-0.2,0.2-0.2H2l0.2-1.4c0-0.1,0.1-0.2,0.2-0.2
        c0.1,0,0.2,0.1,0.2,0.2L2.3,6.9C2.2,7.1,2.2,7.1,2.2,7.1z"/>
      <path class="color" d="M4.2,7.1H3.7C3.6,7.1,3.5,7,3.5,6.9V5.2c0-0.1,0.1-0.2,0.2-0.2c0.1,0,0.2,0.1,0.2,0.2v1.5h0.4
        c0.1,0,0.2,0.1,0.2,0.2C4.4,7.1,4.3,7.1,4.2,7.1z"/>
      <path class="color" d="M3,5.7c-1.4,0-2.5-1.2-2.5-2.5S1.7,0.7,3,0.7s2.5,1.2,2.5,2.5S4.4,5.7,3,5.7z M3,2.3c-0.4,0-0.8,0.3-0.8,0.8
        S2.6,3.8,3,3.8s0.8-0.3,0.8-0.8C3.8,2.8,3.4,2.3,3,2.3z"/>
    </g>
  </g>
</svg>
