<?xml version="1.0" encoding="utf-8"?>
<svg version="1.1" id="webackers" xmlns="http://www.w3.org/2000/svg" xmlns:xlink="http://www.w3.org/1999/xlink" x="0px" y="0px" viewBox="0 0 253.5 50" style="enable-background:new 0 0 253.5 50;" xml:space="preserve">
	<style type="text/css">
		.webackers-black{fill:#231815;}
		.webackers-orange{fill:#E7380D;}
	</style>
	<g>
		<g>
			<g>
				<path class="webackers-black" d="M19.9,33.2l0.7,15.4c0,0.8,0.7,1.4,1.5,1.4h4.3c0.8,0,1.5-0.7,1.5-1.5S27.2,47,26.4,47h-2.8L23,33.2H19.9z"></path>
				<path class="webackers-black" d="M15.4,36.3l-1.7,12.4c0,0.7-0.7,1.3-1.5,1.3H8c-0.8,0-1.5-0.7-1.5-1.5S7.2,47,8,47h3l1.5-11L15.4,36.3z"></path>
				<path class="webackers-black" d="M57.2,47h-2.9l-0.7-9.4c-0.3,0.1-2.9,1-3,1l0.8,10c0.1,0.8,0.7,1.4,1.5,1.4h4.3c0.8,0,1.5-0.7,1.5-1.5
			C58.7,47.7,58,47,57.2,47z"></path>
				<path class="webackers-black" d="M45.9,37.9L45.2,47h-2.9c-0.8,0-1.5,0.7-1.5,1.5s0.7,1.5,1.5,1.5h4.3c0.8,0,1.4-0.6,1.5-1.4l0.9-10
			C48.9,38.6,45.9,37.9,45.9,37.9z"></path>
				<path class="webackers-black" d="M80.2,39.3l3.2,9.6c0.2,0.6,0.8,1,1.4,1h3.9c0.8,0,1.5-0.7,1.5-1.5s-0.7-1.5-1.5-1.5h-2.8l-2.5-7.6
			C83.4,39.4,80.2,39.3,80.2,39.3z"></path>
				<path class="webackers-black" d="M74.9,38.1l0.3,8.9H72c-0.8,0-1.5,0.7-1.5,1.5S71.2,50,72,50h4.8c0.4,0,0.8-0.1,1.1-0.5
			c0.3-0.3,0.4-0.7,0.4-1.1l-0.2-9.6L74.9,38.1z"></path>
			</g>
			<g>
				<path class="webackers-orange" d="M37.2,20.8L37.2,20.8c-0.1-0.2-0.1-0.4-0.1-0.6H37c0-0.2,0-0.3,0-0.6l0,0c0-0.2,0-0.5,0-0.7h-0.1
			c0-0.2,0-0.5,0-0.7h-0.1c0-0.2,0-0.3,0-0.6h-0.1c0-0.2,0-0.4,0-0.6h-0.1c0-0.1,0-0.2,0-0.3h-0.1c0-0.4-0.1-0.8-0.1-1.3h-0.1
			c0-0.1,0-0.3,0-0.3h-0.1c0-0.2-0.1-0.5-0.1-0.7H36c0-0.3-0.1-0.6-0.1-0.8h-0.1c0-0.1,0-0.1,0-0.1h-0.1c0-0.1,0-0.2,0-0.3H36
			c0-0.1,0-0.1,0-0.1h-0.1c-0.1-0.2-0.1-0.5-0.1-0.7h-0.1c0-0.1,0-0.1,0-0.2h-0.1c0-0.1,0-0.1,0-0.1h-0.1c-0.1-0.3-0.1-0.5-0.1-0.8
			h-0.1c0-0.2,0-0.3,0-0.6h-0.1c0-0.1,0-0.1,0-0.1h-0.1c0-0.1,0-0.1,0-0.2H35c0-0.1,0-0.1,0-0.1h-0.1c0-0.1,0-0.1,0-0.2H35
			c0-0.1,0-0.3,0-0.3h-0.1c0-0.1-0.1-0.3-0.1-0.5h-0.1c0-0.1,0-0.1,0-0.2h-0.1c-0.1-0.1-0.1-0.3-0.1-0.5h-0.1c0-0.1,0-0.1,0-0.1
			h-0.1c0-0.1-0.1-0.2-0.1-0.3c-0.1,0-0.1-0.1-0.1-0.1C34.1,8,34,7.9,34,7.8c-0.1,0-0.1-0.1-0.1-0.1c0-0.1,0-0.1,0-0.1
			c-0.1,0-0.1-0.1-0.1-0.1c0-0.1,0-0.1,0-0.1c-0.1,0-0.1-0.1-0.1-0.1c0-0.1,0-0.1,0-0.1c-0.1,0-0.1-0.1-0.1-0.1c0-0.1,0-0.1,0-0.1
			c-0.2-0.2-0.5-0.4-0.7-0.6c0-0.1,0-0.1,0-0.1c-0.3-0.2-0.5-0.5-0.8-0.7c-0.1-0.1-0.2-0.3-0.3-0.3c-0.1,0-0.1,0-0.1,0
			c0-0.1-0.1-0.3-0.2-0.3s-0.1,0-0.1,0c-0.1-0.1-0.1-0.2-0.2-0.3c-0.1,0-0.1,0-0.1,0c0-0.1-0.1-0.1-0.1-0.1c-0.1,0-0.1,0-0.1,0
			c-0.5-0.3-0.6-0.4-0.6-0.5C30.2,4.1,30,4,29.9,4c0-0.1-0.1-0.1-0.1-0.1c-0.1,0-0.1,0-0.1,0c-0.1-0.1-0.1-0.1-0.1-0.2
			c-0.1,0-0.1,0-0.1,0l-0.1-0.1c-0.1,0-0.1,0-0.1,0V3.4c-0.1,0-0.1,0-0.1,0l0,0c-0.1,0-0.1,0-0.1,0c0-0.1-0.1-0.1-0.1-0.1
			c-0.1,0-0.3-0.1-0.3-0.1c0-0.1-0.1-0.1-0.1-0.1c-0.6-0.2-1-0.3-1.4-0.5C27,2.3,27,2.4,26.9,2.3c-0.1-0.1,0-0.1-0.1-0.1
			s-0.2,0-0.3,0V2.1c-0.1,0-0.1,0-0.1,0l0,0c-0.1,0-0.1,0-0.2,0V2c0,0-0.2,0-0.2,0V1.9c-0.1,0-0.1,0-0.1,0l0,0c-0.1,0-0.1,0-0.2,0
			c0-0.1-0.1-0.1-0.1-0.1c-0.1,0-0.1,0-0.2,0V1.7c-0.1,0-0.1,0-0.2,0V1.6c-0.4-0.1-0.7-0.1-1-0.1V1.4c-0.1,0-0.2-0.1-0.3-0.1V1.2
			c-0.1,0-0.1,0-0.1,0c0-0.1-0.1-0.1-0.1-0.1c-0.1,0-0.1,0-0.1,0C23.5,1,23.5,1,23.5,1c-0.1,0-0.1,0-0.1,0c0-0.1-0.1-0.1-0.1-0.1
			c-0.1,0-0.1,0-0.1,0V0.8c-0.1,0-0.1,0-0.1,0V0.7c-0.1,0-0.2,0-0.3,0c0-0.1-0.1-0.1-0.1-0.1c-0.1,0-0.1,0-0.2,0V0.5
			c-0.1,0-0.1,0-0.1,0V0.4c-0.3,0-0.5-0.1-0.8-0.1l0,0c-0.1,0-0.1,0-0.2,0V0.2c-0.3,0-0.8,0-1.1,0v0.1c-0.1,0-0.2,0.1-0.3,0.1v0.1
			c-0.3,0-0.8,0.1-1.1,0.1c-0.3-0.1-0.3,0.1-0.3,0.1c-0.2,0.1-0.3,0.2-0.6,0.1c-0.1,0-0.5-0.1-0.7-0.1c-0.1,0-0.5,0.1-0.7,0.1
			s-1.7-0.2-1.9-0.1v0.1c-0.1,0-0.3,0.1-0.3,0.1C14.4,1,14.3,1,14.3,1C14.1,1,14,1,14,1s-0.1,0-0.1,0.1c-0.1,0-0.3,0-0.3,0v0.1
			c-0.1,0-0.1,0-0.1,0v0.1c-0.1,0-0.1,0-0.2,0v0.1c-0.1,0-0.1,0-0.1,0v0.1c-0.1,0-0.1,0-0.2,0v0.1c-0.1,0-0.1,0-0.2,0v0.1
			c-0.1,0-0.1,0-0.1,0v0.1c-0.1,0-0.3,0.1-0.3,0.1V2c-0.1,0-0.2,0-0.3,0v0.1c-0.1,0-0.1,0-0.1,0v0.1c-0.1,0-0.2,0-0.3,0v0.1
			c-0.1,0-0.1,0-0.1,0V2c-0.1,0-0.1,0-0.2,0v0.1c-0.1,0-0.2,0.1-0.3,0.1v0.1c-0.1,0-0.2,0.1-0.3,0.1c0,0.1-0.1,0.1-0.1,0.1
			c-0.1,0-0.3,0.1-0.3,0.1v0.1c-0.1,0-0.1,0-0.1,0v0.1c-0.1,0-0.1,0-0.1,0v0.1c-0.1,0-0.1,0-0.1,0L9.6,2.8c-0.1,0-0.2,0.1-0.3,0.1
			c0,0.1,0,0.1-0.1,0.2c-0.1,0-0.1,0-0.1,0L8.9,3.2c-0.1,0-0.1,0-0.1,0v0.1c-0.1,0-0.1,0-0.1,0v0.1c-0.1,0-0.1,0-0.1,0v0.1
			c-0.1,0-0.1,0-0.1,0c0,0.1-0.1,0.1-0.1,0.1c-0.1,0-0.1,0-0.1,0L8,3.7c-0.1,0-0.1,0-0.1,0v0.1c-0.1,0-0.1,0-0.1,0
			c0,0.1-0.1,0.1-0.1,0.1C7.6,3.9,7.4,4,7.4,4c0,0.1,0,0.1,0,0.1c-0.8,0.3-1,0.4-1.2,0.5v0.1c-0.1,0-0.1,0-0.1,0
			C6.1,4.8,6,4.8,6,4.9c-0.1,0-0.1,0-0.1,0L5.6,5c0,0,0,0-0.1,0v0.1c-0.1,0-0.1,0-0.1,0v0.1c-0.1,0-0.1,0-0.2,0v0.1
			C4.8,5.5,5.1,5.4,4.9,5.6c-0.1,0-0.1,0.1-0.2,0.1c0,0-0.1,0.2-0.2,0.2s-0.1,0-0.1,0V6C4.3,6,4.3,6,4.3,6C4.2,6.1,4.2,6.2,4.1,6.3
			C4,6.3,4,6.3,4,6.3v0.1c-0.1,0-0.1,0.1-0.1,0.1c0,0.1,0,0.1,0,0.1c-0.1,0-0.1,0-0.1,0C3.6,6.7,3.5,6.9,3.4,7.1
			c-0.1,0-0.1,0.1-0.1,0.1c0,0.1,0,0.1,0,0.2H3.2c0,0.1-0.1,0.1-0.1,0.2c-0.2,0-0.4,0-0.4,0c0,0.1,0,0.1,0,0.1
			C2.5,7.9,2.4,8,2.3,8.1v0.1c-0.1,0-0.1,0-0.1,0L2,8.3c0,0.1,0,0.1,0,0.1C1.8,8.7,1.5,8.9,1.3,9.1c0,0.1,0,0.1,0,0.1
			C1.2,9.3,1.2,9.3,1.1,9.4c-0.1,0,0.1,0,0.1,0v0.1H1.1c0,0.1,0,0.2,0,0.3H1v0.1c0-0.1,0-0.1-0.1-0.1c-0.1,0.1,0,0.2-0.1,0.3H0.7
			c0,0.1,0,0.2,0,0.3l0,0c0,0.1,0,0.1,0,0.1H0.6c0,0.1,0,0.2,0,0.3H0.5c0,0.3-0.1,0.6-0.1,0.8l0,0c0,0.1,0,0.3,0,0.3H0.3
			c0,0.1,0,0.3,0,0.3l0,0c0,0.1,0,0.3,0,0.5H0.2c0,0.1,0,0.2,0,0.3H0.1C0,13.3-0.1,15,0,15.3h0.1c0,0.3,0.1,0.8,0.1,1.1h0.1
			c0,0.3,0,0.6,0,0.8h0.1c0,0.2,0,0.3,0,0.6h0.1c0,0.8,0,1.4,0,2.2c0,1.1,0,2.1,0.2,2.8c0.1,0.6,0.1,1,0.1,1.6h0.1
			c0,0.1,0,0.1,0,0.2H1c0,0.1,0,0.1,0,0.2l0,0c0,0.1,0,0.2,0,0.3l0,0c0.1,0.1,0.1,0.3,0.1,0.5h0.1c0,0.1,0,0.1,0,0.1h0.1
			c0.1,0.2,0.1,0.5,0.2,0.7c0.1,0,0.1,0.1,0.1,0.1c0,0.1,0,0.1,0,0.2c0.1,0,0.1,0.1,0.1,0.1c0,0.1,0,0.1,0,0.2h0.1
			c0,0.1,0,0.1,0,0.1c0.1,0,0.1,0.1,0.1,0.1c0,0.1,0,0.1,0,0.2C2,27.4,2,27.5,2,27.5c0,0.1,0.1,0.2,0.1,0.3c0.1,0,0.1,0.1,0.1,0.1
			c0,0.1,0,0.1,0,0.1c0.2,0,0.2,0,0.3,0c0,0.1,0,0.1,0,0.1c0.1,0,0.1,0.1,0.1,0.1c0,0.1,0,0.1,0,0.1c0.1,0,0.1,0.1,0.1,0.1
			c0,0.1,0,0.1,0,0.1c0.1,0,0.1,0.1,0.1,0.1c0,0.1,0,0.1,0,0.1C3,28.8,3,28.9,3,28.9V29h0.1c0,0.1,0.1,0.1,0.1,0.2
			c0.1,0,0.1,0.1,0.1,0.1c0,0.1,0,0.1,0,0.1c0.1,0.1,0.2,0.1,0.3,0.2c0,0.1,0,0.1,0,0.1c0.3,0.6,0.4,0.6,0.5,0.7c0,0.1,0,0.1,0,0.1
			c0.1,0.1,0.1,0.1,0.2,0.1c0,0.1,0.1,0.2,0.1,0.3c0.1,0,0.1,0.1,0.1,0.1c0,0.1,0.1,0.1,0.1,0.2h0.1c0,0.1,0.1,0.2,0.1,0.3h0.1
			c0,0.1,0.1,0.1,0.1,0.2c0.1,0,0.1,0.1,0.1,0.1C4.9,31.9,5,32,5,32.1c0.1,0.1,0.1,0.1,0.2,0.1c0,0.1,0,0.1,0,0.1
			c0.1,0.1,0.1,0.1,0.2,0.1c0,0.1,0,0.1,0,0.1c0.1,0.1,0.3,0.3,0.5,0.3C6,33,6,33,6.1,33c0.2,0.2,0.4,0.5,0.6,0.7
			c0.1,0,0.1,0,0.1,0c0.1,0,0.1,0.2,0.2,0.3c0.1,0,0.1,0,0.1,0c0,0.1,0.1,0.1,0.1,0.1h0.1c0,0.1,0.1,0.1,0.1,0.1c0.1,0,0.1,0,0.1,0
			c0,0.1,0.1,0.1,0.1,0.1c0.1,0,0.1,0.1,0.2,0.1v0.1c0.1,0,0.1,0,0.1,0c0,0.1,0.1,0.1,0.1,0.1c0.1,0,0.1,0.1,0.2,0.1v0.1
			c0.1,0,0.3,0.1,0.3,0.1C8.5,35,8.6,35,8.6,35c0.1,0,0.1,0,0.1,0v0.1c0.1,0,0.1,0,0.1,0v0.1c0.1,0,0.1,0,0.2,0
			c0,0.1,0.1,0.1,0.1,0.1c0.2,0.1,0.5,0.1,0.7,0.1v0.1c0.1,0,0.1,0,0.1,0v0.1c0.1,0,0.1,0,0.2,0v0.1c0.1,0,0.3,0,0.5,0
			c0,0.1,0.1,0.1,0.1,0.1c0.1,0,0.3,0,0.5,0v0.1c0.1,0,0.1,0,0.1,0V36c0.3,0,0.6,0.1,0.8,0.1V36c0.1,0,0.3,0,0.5,0v0.1
			c0.1,0,0.1,0,0.2,0v0.1c0.2,0,0.5,0,0.7,0v0.1c0.1,0,0.3,0,0.5,0v0.1c0.3,0,0.6,0,0.9,0v0.1c0.2,0,0.4-0.1,0.6-0.1
			c0.4,0.1,0.8,0.3,1.1,0.6c0-0.1,0-0.1,0-0.1c0.4,0,0.8,0.1,1.1,0.1c0.5,0.1,1.7-0.1,2.1-0.1c0.1,0,0.1,0.1,0.2,0.1v-0.1h0.1V37
			h0.1v-0.1c0.1,0,0.3,0,0.3,0v-0.1c0.2,0,0.4,0,0.6,0v-0.1c0.1,0,0.1,0,0.2,0v-0.1c0.2,0,0.5,0,0.7,0v-0.1c0.1,0,0.2,0,0.3,0v-0.1
			c0.1,0,0.3,0,0.3,0v-0.1c0.1,0,0.1,0,0.2,0v-0.1c0.3-0.1,0.8-0.1,1.1-0.1V36c0.1,0,0.1,0,0.2,0l0,0c0.1,0,0.1,0,0.1,0v-0.1
			c0.1,0,0.2,0,0.3,0v-0.1c0.1,0,0.2,0,0.3,0c0-0.1,0.1-0.1,0.1-0.1c0.1,0,0.1,0,0.1,0v-0.1c0.1,0,0.2,0,0.3,0v-0.1
			c0.1,0,0.1,0,0.1,0v-0.1c0.1,0,0.3-0.1,0.3-0.1c0-0.1,0.1-0.1,0.1-0.1c0.1,0,0.2,0,0.3,0c0-0.1,0.1-0.1,0.1-0.1
			c0.1-0.1,0.5-0.1,0.6-0.1c0-0.1,0.1-0.1,0.1-0.1c0.1,0,0.1,0,0.2,0v-0.1c0.1-0.1,0.3-0.1,0.5-0.1v-0.1c0.1,0,0.2-0.1,0.3-0.1
			c0-0.1,0.1-0.1,0.1-0.1c0.1-0.1,0.3-0.1,0.5-0.1c0-0.1,0.1-0.1,0.1-0.1c0.1,0,0.2-0.1,0.3-0.1C28.9,34,29,34,29,34
			c0.1,0,0.1,0,0.1,0c0-0.1,0.1-0.1,0.1-0.1c0.1-0.1,0.3-0.3,0.6-0.3c0-0.1,0-0.1,0-0.1c0.2-0.1,0.4-0.2,0.6-0.3c0-0.1,0-0.1,0-0.1
			c0.1,0,0.1,0,0.1,0V33c0.3-0.1,0.5-0.3,0.8-0.5c0-0.1,0-0.1,0-0.1c0.2-0.1,0.3-0.1,0.6-0.2c0-0.1,0.1-0.1,0.1-0.1
			c0.1,0,0.1,0,0.1,0c0.1-0.1,0.1-0.2,0.2-0.3c0.1,0,0.1,0,0.1,0c0.1-0.1,0.1-0.2,0.2-0.3c0.1,0,0.1,0,0.1,0
			c0.1-0.1,0.1-0.2,0.2-0.3c0.1,0,0.1-0.1,0.1-0.1c0-0.1,0-0.1,0-0.1c0.1,0,0.1-0.1,0.1-0.1v-0.1c0.1-0.1,0.3-0.3,0.5-0.3
			c0-0.1,0-0.1,0-0.1h0.1c0.1-0.1,0.2-0.2,0.2-0.3c0.1,0,0.1,0,0.1,0c0.1-0.3,0.2-0.3,0.3-0.5c0-0.1,0.1-0.1,0.1-0.2
			c0.1-0.1,0.1-0.1,0.2-0.1c0-0.1,0.1-0.3,0.1-0.3c0.1-0.1,0.1-0.1,0.2-0.1c0-0.1,0-0.1,0-0.1c0.1-0.1,0.1-0.1,0.2-0.1
			c0-0.1,0-0.1,0-0.1c0.1,0,0.1-0.1,0.1-0.1c0-0.1,0.1-0.2,0.1-0.3c0.1,0,0.1-0.1,0.1-0.1c0.3-1,0.6-1.9,0.8-3c0-0.3,0-0.5,0-0.8
			h0.1V24h-0.1c0-0.1,0.1-0.1,0.1-0.2h-0.1c0-0.1,0-0.3,0-0.3h0.1c0.1-0.3,0-1.2-0.1-1.5C37.2,21.3,37.2,21.1,37.2,20.8z M1.6,17.1
			c0,0.1,0,0.3-0.1,0.4l0,0c0,0,0,0,0,0.1l0,0v0.1l0,0v0.1l0,0c0,0.1,0,0.1,0,0.1l0,0c0,0,0,0,0,0.1l0,0v0l0,0c0,0,0,0,0,0.1l0,0
			c0,0,0,0-0.1,0.1l0,0l0,0l0,0c0,0,0,0,0,0.1c0,0,0,0-0.1,0l0,0l0,0c0,0,0,0,0,0.1l0,0l0,0l0,0l0,0l0,0l0,0l0,0l0,0c0,0,0,0,0-0.1
			l0,0c0,0,0,0-0.1,0l0,0l-0.1-0.1l0,0C1.3,18,1.2,18,1.2,18l0,0c0,0,0,0-0.1-0.1v-0.1c0,0,0,0,0-0.1v-0.1L1,17.5l0,0l0,0l0,0l0,0
			v-0.1l0,0c0,0,0,0,0-0.1s0-0.1,0-0.1v-0.1l0,0c0-0.1,0-0.3,0-0.5c0-0.1,0-0.5,0.1-0.6l0,0v-0.1l0,0c0,0,0,0,0-0.1l0,0
			c0,0,0,0,0-0.1c0,0,0.1,0,0.1-0.1s0.1-0.1,0.1-0.1v-0.1l0,0l0,0l0,0l0,0l0,0v-0.1l0,0l0,0l0,0l0,0c0,0,0,0,0,0.1
			c0-0.1,0-0.1,0.1-0.1l0,0v-0.1c0,0,0,0,0.1,0l0,0l0,0l0,0c0,0,0,0,0.1,0.1l0,0l0.1,0.1l0,0l0,0l0,0c0,0,0,0.1,0.1,0.1l0,0
			c0,0,0,0.1,0.1,0.1l0,0c0,0,0,0,0.1,0.1l0,0c0,0,0,0.1,0.1,0.1l0,0v0.1l0,0l0,0V16v0.1v0.1l0,0c0,0,0,0,0,0.1l0,0c0,0,0,0,0,0.1
			l0,0c0,0.1,0,0.1,0,0.1l0,0c0,0.1,0,0.1,0,0.1l0,0c0,0,0,0,0,0.1l0,0v0.1l0,0c0,0,0,0,0,0.1l0,0C1.6,16.9,1.6,17,1.6,17.1
			L1.6,17.1z M23.1,19.4L23.1,19.4C23,19.5,23,19.6,23,19.7l0,0c0,0.1,0,0.1,0,0.1h-0.1c0,0.1,0,0.1,0,0.1
			c-0.1,0.1-0.3,0.3-0.5,0.3c-0.2,0.3-0.3,0.6-0.7,0.8c0,0.1,0,0.1,0,0.2c-0.3,0.1-0.1,0.1-0.2,0.2h-0.1v0.1c-0.1,0-0.1,0-0.1,0
			c-0.1,0.1-0.1,0.1-0.1,0.1c0,0.1,0,0.1,0,0.2C21.1,22,21.1,22,21,22c0,0.1,0,0.1,0,0.1c-0.1,0.1-0.1,0.1-0.2,0.1v0.1
			c-0.1,0-0.1,0-0.2,0c-0.1,0.1-0.3,0.3-0.3,0.5c-0.1,0-0.1,0-0.1,0c0,0.1,0,0.1,0,0.1c-0.1,0-0.3,0.1-0.3,0.1v0.1
			c-0.1,0-0.1,0-0.1,0v0.1c-0.1,0-0.3,0-0.3,0v0.1c-0.2,0.1-0.7-0.1-0.8-0.1v0.1h-0.1v-0.1c-0.2,0-0.3,0-0.6,0v-0.1
			c-0.1,0-0.3,0-0.5,0V23c-0.1,0-0.3,0-0.3,0v0c-0.1,0-0.3-0.1-0.5-0.1v-0.1c-0.1,0-0.2-0.1-0.3-0.1v-0.1c-0.1,0-0.1,0-0.1,0
			c0-0.1-0.1-0.1-0.1-0.1c-0.1,0-0.2-0.1-0.3-0.1c0-0.1-0.1-0.1-0.1-0.2h-0.1c0-0.1,0-0.1,0-0.1h-0.1c0-0.1,0-0.1,0-0.1
			c-0.1,0-0.1-0.1-0.1-0.1c0-0.1-0.1-0.3-0.1-0.5h-0.1c0-0.1-0.1-0.3-0.1-0.3h-0.1c0-0.1,0-0.1,0-0.1H15c0-0.1,0-0.1,0-0.2h-0.1
			c0-0.1,0-0.1,0-0.1H15c0-0.3-0.1-0.8-0.1-1.1h-0.1c0-0.5,0-0.9,0-1.4h0.1c0-0.1-0.1-0.1-0.1-0.1h0.1c0-0.1,0-0.2,0-0.3H15
			c0-0.1,0-0.2,0-0.3h0.1c0-0.1,0.1-0.3,0.1-0.3h0.1c0-0.1,0-0.1,0-0.1h0.1c0-0.1,0-0.1,0-0.2h0.1c0-0.1,0-0.1,0-0.1h0.1
			c0.1-0.1,0.2-0.2,0.3-0.5c0.1-0.1,0.2-0.1,0.3-0.1V16c0.1,0,0.1,0,0.1,0c0-0.1,0.1-0.1,0.1-0.1c0.1-0.1,0.3-0.1,0.5-0.1v-0.1
			c0.1,0,0.1-0.1,0.2-0.1c0-0.1,0.1-0.1,0.1-0.1c0.1,0,0.2-0.1,0.3-0.1c0-0.1,0.1-0.1,0.1-0.1c0.1,0,0.1,0,0.2,0v-0.1
			c0.1,0,0.2-0.1,0.3-0.1V15c0.1,0,0.1,0,0.2,0v-0.1c0.1,0,0.2,0,0.3,0c0-0.1,0.1-0.1,0.1-0.1c0.1,0,0.3-0.1,0.3-0.1v-0.1
			c0.3-0.1,0.6,0.1,0.8,0.1v-0.1c0.3,0.1,0.6,0.1,0.9,0.1v0.1c0.1,0,0.3,0,0.3,0c0,0.1,0.1,0.1,0.1,0.1c0.1,0,0.2,0,0.3,0
			c0,0.1,0.1,0.1,0.1,0.1c0.2,0,0.5,0.1,0.7,0.1v0.1c0.1,0,0.1,0,0.1,0v0.1c0.1,0,0.1,0,0.1,0c0,0.1,0.1,0.1,0.1,0.1
			c0.1,0,0.1,0,0.2,0c0,0.1,0.1,0.1,0.1,0.1c0.1,0.1,0.3,0.2,0.3,0.3s0,0.1,0,0.1h0.1c0.1,0.6,0.1,1,0.1,1.6
			C23.1,17.8,23.2,19.1,23.1,19.4z M30.7,6.2C30.7,6.2,30.7,6.3,30.7,6.2L30.7,6.2c-0.1,0.1-0.1,0.1-0.1,0.1l0,0c0,0,0,0,0,0.1l0,0
			v0.1l0,0l0,0l0,0l0,0l0,0l0,0l0,0h-0.1l0,0l0,0c-0.1-0.1-0.1-0.1-0.2-0.1c0,0-0.2-0.1-0.3-0.1l0,0c0,0,0,0-0.1,0l0,0l0,0l0,0l0,0
			c0,0,0-0.1-0.1-0.1C29.9,6.1,29.9,6,29.9,6l0,0c0-0.1,0,0,0-0.1l0,0l0,0l0,0l0,0l0,0c0,0,0,0,0-0.1l0,0c0,0,0,0,0-0.1l0,0l0,0
			l-0.1-0.1l0,0l0,0v0l0,0l0,0l0,0c0,0,0,0,0-0.1l0,0l0,0l0,0l0,0l0,0V5.4l0,0l0,0l0,0V5.3l0,0V5.2l0,0l0,0l0,0l0,0l0,0l0,0l0,0
			l0,0l0,0l0,0l0,0l0,0h0.1l0,0H30l0,0l0,0l0,0l0,0l0,0l0,0l0,0c0.1,0,0.1,0.1,0.1,0.1l0,0c0.1,0.1,0.1,0.1,0.2,0.1l0,0l0,0l0,0
			c0,0,0,0,0.1,0l0,0c0,0,0,0,0.1,0l0,0c0,0,0,0,0.1,0.1l0,0l0,0l0,0l0,0l0,0l0,0l0,0c0,0,0,0.1,0.1,0.1c0,0,0,0,0,0.1l0,0l0,0l0,0
			v0.1l0,0l0,0l0,0c0,0,0,0,0,0.1l0,0l0,0l0,0c0,0,0,0,0,0.1l0,0l0,0l0,0c0,0,0,0,0,0.1l0,0V6l0,0C30.7,6.1,30.6,6.2,30.7,6.2
			C30.6,6.2,30.6,6.2,30.7,6.2z"></path>
				<path class="webackers-orange" d="M98.9,22.5c0-0.8,0-1.7-0.2-2.4c0-0.1,0-0.3,0-0.4c-0.1-0.3-0.1-0.6-0.2-0.9c0-0.1,0-0.2,0-0.3h-0.1v-0.1
			h-0.1c0-0.1,0-0.2,0-0.3h-0.1c0-0.1,0-0.1,0-0.1s0,0-0.1,0c0-0.1,0-0.1,0-0.3H98c0-0.1-0.1-0.3-0.1-0.4c-0.1,0-0.1-0.1-0.1-0.1
			c0-0.1,0-0.3-0.1-0.5h-0.1c0-0.1,0-0.1,0-0.1s0,0-0.1,0c-0.1-0.1-0.1-0.4-0.1-0.6c-0.1,0-0.1,0-0.1,0c0-0.1-0.1-0.3-0.1-0.3
			c0-0.1,0-0.1,0-0.1c-0.1,0-0.1-0.1-0.1-0.1v-0.1H97c0-0.1,0-0.1,0-0.1h-0.1c0-0.1-0.1-0.1-0.1-0.2c0,0,0,0-0.1,0
			c0-0.1,0-0.1,0-0.1H97v-0.1l0,0v-0.1c-0.1,0-0.1,0-0.1-0.1s0-0.1,0-0.2c0,0-0.1,0-0.1-0.1s0-0.1,0-0.1s0,0-0.1,0
			c0-0.1,0-0.1-0.1-0.2c0,0,0,0-0.1,0c0-0.1,0-0.1,0-0.2c-0.1,0-0.1-0.1-0.1-0.1c0-0.1,0-0.1,0-0.1s0,0-0.1,0c0-0.1,0-0.1,0-0.1
			h-0.1c0-0.1,0-0.1,0-0.1h-0.1c0-0.1,0-0.1,0-0.1c-0.1-0.3-0.3-0.4-0.3-0.8c-0.1,0-0.1,0-0.1,0c0-0.3-0.3-0.4-0.3-0.7
			c-0.2-0.1-0.1,0-0.1-0.1c0,0,0,0-0.1,0v-0.1c-0.1,0-0.1-0.1-0.1-0.1v-0.1c0,0,0,0-0.1,0v-0.1c-0.1-0.1-0.1-0.1-0.2-0.1
			c0-0.1,0-0.1,0-0.1s0,0-0.1,0c-0.1-0.1,0-0.1-0.1-0.1c-0.1-0.3-0.3-0.4-0.4-0.7h-0.1c-0.1-0.2-0.3-0.3-0.3-0.5
			c-0.2-0.1-0.1-0.1-0.3-0.1c-0.1-0.2-0.1-0.2-0.3-0.3c-0.1-0.1-0.1-0.3-0.3-0.3c0-0.1,0-0.1-0.1-0.1v0H93C93,9,92.9,9,92.9,8.9
			c-0.1,0-0.1-0.1-0.2-0.1c0,0,0,0,0-0.1h-0.1c0,0,0-0.1-0.1-0.1s-0.1,0-0.1,0c0-0.1-0.1-0.1-0.1-0.1h-0.1l-0.1-0.1H92v0.1
			c-0.1,0-0.1,0-0.1,0s0-0.1-0.1-0.1s-0.1-0.1-0.1-0.1v0h-0.1l-0.1-0.1h-0.1V8.1c-0.1,0-0.1,0-0.1,0s0,0,0-0.1c-0.1,0-0.1,0-0.1,0
			s0,0,0-0.1c-0.1,0-0.1,0-0.1,0s0-0.1-0.1-0.1s-0.1,0-0.1,0c0-0.1,0-0.1-0.1-0.1s-0.1,0-0.1,0s0,0,0-0.1H91v0.1
			c-0.1-0.1-0.2-0.1-0.3-0.1c0,0,0,0,0-0.1c-0.1,0-0.1,0-0.1,0V7.4c-0.1,0-0.1,0-0.1,0l0,0c-0.1,0-0.1,0-0.3,0V7.3
			c-0.1,0-0.1,0-0.1,0s0,0,0-0.1H90v0c-0.2,0-0.3-0.1-0.5-0.1c0,0,0,0,0-0.1c-0.1,0-0.2,0-0.3-0.1l0,0c-0.1,0-0.1,0-0.1,0V6.8
			c-0.1,0-0.1,0-0.2,0c0,0,0,0,0-0.1c-0.1,0-0.3,0-0.4-0.1c0,0,0,0,0-0.1c-0.1,0-0.3,0-0.4,0v0c-0.1,0-0.1,0-0.3,0c0,0,0,0,0-0.1
			c-0.1,0-0.2,0-0.3,0c0,0,0,0,0-0.1c-0.1,0-0.3,0-0.4,0c0,0,0,0,0-0.1c-0.2,0-0.4,0-0.7,0v0.1c-0.1,0-0.3,0-0.5,0V6.2
			c-0.2,0-0.3,0-0.5,0c0,0,0,0,0-0.1c-0.1,0-0.3,0-0.5,0c0,0,0,0,0-0.1c-0.1,0-0.3,0-0.5,0l0,0c-0.2,0-0.3,0-0.6,0V5.9
			c-0.3,0-0.7,0-1,0l0,0c-0.1,0-0.1,0-0.2,0c0,0,0,0,0-0.1c-0.1,0-0.3,0-0.4,0c-0.3-0.1-0.8-0.1-1.1-0.1c-0.3,0-0.6-0.1-0.9-0.1
			v0.1c-0.1,0-0.3,0-0.4,0c0,0,0,0,0,0.1c-0.2,0-0.3,0-0.6,0c0,0,0,0,0,0.1c-0.1,0-0.3,0-0.4,0V6c-0.5,0-1,0-1.4,0.1
			c-0.9,0.1-1.8,0.3-2.6,0.4v0.1c-0.1,0-0.1,0-0.1,0s0,0,0,0.1c-0.1,0-0.1,0-0.1,0s0,0,0,0.1c-0.1,0-0.1,0-0.3,0
			c0,0.1,0,0.1-0.1,0.1s-0.1,0-0.2,0c0,0,0,0,0,0.1c-0.1,0-0.1,0-0.1,0v0.1c-0.1,0-0.1,0-0.1,0v0.1c-0.1,0-0.1,0-0.1,0V7h-0.1
			c0,0,0,0,0,0.1c-0.1,0-0.1,0-0.1,0v0.1c-0.1,0.1-0.2,0.1-0.3,0.1c0,0,0,0,0,0.1H73c0,0,0,0,0,0.1c-0.1,0-0.1,0.1-0.2,0.1
			c0,0,0,0.1-0.1,0.1s-0.1,0-0.2,0.1c0,0.1-0.1,0.1-0.1,0.1c-0.1,0-0.1,0-0.1,0s0,0,0,0.1c-0.1,0-0.1,0.1-0.1,0.1h-0.1
			c0,0.1-0.1,0.1-0.1,0.1c-0.1,0-0.1,0-0.1,0s0,0.1-0.1,0.1s0-0.3-0.1-0.3c0,0,0,0,0,0.1c-0.1,0-0.1,0-0.2,0.1v0.1
			c-0.1,0-0.1,0.1-0.1,0.1l-0.1,0.1c-0.1,0-0.1,0.1-0.2,0.1c0,0,0,0.1-0.1,0.1s-0.1,0-0.1,0.1S70.8,8.9,70.8,9h-0.1
			c-0.1,0.1-0.1,0.1-0.1,0.2h-0.1c-0.1,0.1-0.1,0.1-0.1,0.2h-0.1C70.1,9.6,70,9.8,69.7,10c-0.1,0.1-0.2,0.1-0.3,0.2v0.1
			c-0.1,0.1-0.1,0.1-0.1,0.1v0.1c-0.1,0-0.1,0.1-0.1,0.1c-0.1,0.2-0.5,0.4-0.5,0.7c-0.1,0-0.1,0-0.1,0.1c0,0,0,0-0.1,0
			c0,0.1,0,0.1,0,0.1h-0.1c0,0.1-0.1,0.1-0.1,0.2c0,0,0,0-0.1,0c0,0.1,0,0.1,0,0.1c-0.1,0.1-0.1,0.1-0.3,0.2c0.1-0.2,0.3-0.2,0.1,0
			c0,0,0,0,0,0.1c-0.1,0-0.1,0-0.1,0l-0.1,0.1h-0.1c0,0.1-0.1,0.1-0.1,0.1h-0.1c0,0.1,0,0.1,0,0.1c-0.1,0.1-0.2,0.3-0.3,0.3
			c0,0.1,0,0.1,0,0.1h-0.1c0,0.2-0.1,0.3-0.1,0.4c-0.1,0-0.1,0-0.1,0.1s0,0.1-0.1,0.1s-0.1,0.1-0.1,0.1v0.1l-0.1,0.1
			c0,0.1,0,0.1,0,0.1c-0.1,0-0.1,0.1-0.1,0.1c0,0.1-0.1,0.3-0.1,0.5c-0.1,0-0.1,0-0.1,0.1s0,0.1,0,0.1c-0.1,0.1-0.1,0.1-0.3,0.2
			v0.1c-0.1,0.1-0.2,0.1-0.3,0.3c-0.3,0.3-0.5,0.6-0.7,0.9h-0.1c0,0.2-0.1,0.3-0.2,0.4l-0.1,0.1c-0.1,0.1-0.1,0.3-0.1,0.5
			c0,0-0.1,0-0.1,0.1c-0.1,0.1-0.1,0.2-0.1,0.3c0,0,0,0-0.1,0c0,0.1-0.1,0.1-0.1,0.2H64c0,0.1,0,0.3,0,0.4c0,0,0,0-0.1,0
			c0,0.1,0,0.1,0,0.1s0,0-0.1,0c0,0.1,0,0.1,0,0.1h-0.1c0,0.1,0.1,0.3,0.1,0.4c0,0.2,0,0.5,0,0.7c0,0,0,0-0.1,0c0,0.1,0,0.1,0,0.1
			h-0.1c0,0.1,0,0.2,0,0.3c0,0,0,0,0.1,0v0.1l0.1,0.1c0,0.2,0.1,0.3,0.1,0.6c-0.1,0-0.1,0-0.1,0.1s0,0.2,0,0.3c0,0,0,0-0.1,0
			c0,0.1,0,0.1,0,0.1H64c0,0.1,0,0.3,0,0.4l0,0c0,0.1,0,0.3-0.1,0.5c0,0,0,0-0.1,0v0.1c-0.1,0-0.1,0-0.1,0.1s0,0.1,0,0.1s0,0-0.1,0
			c0,0.1,0,0.1,0,0.2c0,0,0,0-0.1,0c0,0.1,0,0.2,0,0.3c0,0,0,0-0.1,0c0,0.1,0,0.1,0,0.1h-0.1c0,0.1,0,0.3,0,0.4c0,0,0,0-0.1,0
			c0,0.1,0,0.1,0,0.1s0,0-0.1,0l0,0c-0.1-0.3-0.2-0.7-0.3-1c0,0-0.1,0-0.1,0.1c0-0.1,0-0.1,0-0.2c-0.1-0.3-0.2-0.5-0.3-0.7h-0.1
			c-0.1-0.1,0.1-0.2-0.1-0.3c0,0-0.1,0-0.1,0.1c-0.3-0.4-0.2-1-0.6-1.3c-0.1,0-0.1,0-0.2,0c-0.1-0.3-0.2-0.6-0.3-0.8h-0.1
			c-0.1-0.1-0.1-0.1-0.1-0.2h-0.1c-0.1-0.1-0.1-0.3-0.1-0.4c-0.3-0.4-0.7-0.8-1.1-1.2c-0.4,0.1-0.1,0-0.3-0.2c-0.1,0-0.1,0-0.2,0
			c0-0.1-0.1-0.1-0.1-0.2c-0.1,0-0.1,0-0.2,0c-0.1-0.1-0.1-0.1-0.2-0.2h-0.1c0-0.1-0.1-0.1-0.1-0.2c-0.1,0-0.2-0.1-0.3-0.1
			c0-0.1-0.1-0.1-0.1-0.1c-0.1,0-0.2-0.1-0.3-0.1c-0.1-0.1-0.1-0.1-0.2-0.2c-0.1,0-0.1,0.1-0.1,0.1c-0.3-0.5-0.4-0.1-0.7-0.3
			c0-0.1-0.1-0.1-0.1-0.1h-0.1c-0.1-0.1-0.1-0.1-0.3-0.2c-0.1,0-0.1,0.1-0.1,0.1c-0.1-0.1-0.2-0.1-0.3-0.2c-0.1,0-0.1,0.1-0.1,0.1
			v-0.1c-0.1,0.1-0.2,0.1-0.3,0.1c-0.1-0.1-0.1-0.1-0.1-0.1c-0.1,0.1-0.1,0.1-0.2,0.2c-0.1-0.1-0.2-0.1-0.3-0.2
			c-0.1,0-0.1,0.1-0.1,0.1c-0.1-0.1-0.2-0.1-0.3-0.2c-0.1,0-0.1,0.1-0.1,0.1v-0.1c-0.1,0-0.2,0-0.3,0c-0.1-0.1-0.1-0.1-0.3-0.2
			c-0.1,0-0.1,0.1-0.1,0.1v-0.1c-0.1,0-0.1,0.1-0.1,0.1v-0.1c-0.1,0-0.1,0.1-0.3,0.1c-0.1-0.1-0.1-0.1-0.2-0.2h-0.1
			c-0.3-0.1,0,0-0.3-0.1c0,0,0-0.1-0.1-0.1s-0.1,0.1-0.2,0.1V14c-0.1,0-0.2,0-0.3,0.1V14c-0.1,0.1-0.2,0.1-0.3,0.1V14
			c-0.3,0.1-0.5,0.1-0.8,0.2v-0.1c-0.2,0.1-0.3,0.1-0.6,0.2c0,0,0-0.1-0.1-0.1H50c0,0,0,0.1-0.1,0.1v-0.1c-0.3,0.1-0.5,0.1-0.8,0.2
			c0,0,0-0.1-0.1-0.1s-0.1,0.1-0.2,0.1v-0.1c-0.1,0-0.1,0.1-0.3,0.1v-0.1c-0.1,0.1-0.2,0.1-0.3,0.1c-0.1-0.1-0.1-0.1-0.1-0.1
			c-0.1,0.1-0.3,0.1-0.5,0.2v-0.1c0,0-0.1,0-0.1,0.1v0.1h-0.1v-0.1c-0.4,0.1-0.8,0.3-1.2,0.4V15c-0.1,0.1-0.2,0.1-0.3,0.1v0.1
			c-0.1,0.1-0.3,0.1-0.5,0.2v0.1c-0.1,0.1-0.3,0.1-0.5,0.2c0,0,0,0.1,0.1,0.1c-0.1,0.1-0.2,0.1-0.3,0.1V16
			c-0.1,0.1-0.2,0.1-0.3,0.1v0.1c-0.1,0.1-0.3,0.1-0.4,0.1v0.1c-0.1,0-0.1,0.1-0.1,0.1v0.1c-0.2,0.1-0.3,0.2-0.6,0.3V17
			c-0.1,0-0.1,0.1-0.3,0.1v0.1c-0.1,0-0.1,0.1-0.1,0.1v0.1c-0.3,0.2-0.6,0.3-0.9,0.6c0,0,0,0.1,0.1,0.1c-0.1,0-0.1,0.1-0.1,0.1
			c0,0.1,0,0.1,0,0.2c-0.1,0-0.1,0.1-0.3,0.1c0,0,0,0.1,0.1,0.1c-0.1,0-0.1,0.1-0.1,0.1s0,0.1,0.1,0.1c-0.1,0-0.1,0.1-0.2,0.1V19
			c-0.1,0.1-0.3,0.2-0.4,0.3c0,0,0,0.1,0.1,0.1c-0.1,0-0.1,0.1-0.1,0.1s0,0.1,0.1,0.1c-0.1,0.1-0.1,0.1-0.2,0.1
			c0,0.1-0.1,0.2-0.1,0.3h0c0,0.1,0,0.1,0,0.2c-0.1,0-0.1,0.1-0.1,0.1c-0.1,0.2-0.1,0.3-0.1,0.6c-0.1,0.2-0.3,0.3-0.4,0.6
			c0,0.1,0.1,0.1,0.1,0.1c-0.1,0-0.1,0.1-0.1,0.1c0,0.1-0.1,0.2-0.1,0.3c-0.1,0-0.1,0.1-0.1,0.1c0,0.1-0.1,0.2-0.1,0.3H40
			C39.9,22,40,22,40,22c-0.1,0.1-0.1,0.3-0.2,0.3c0,0.1,0.1,0.1,0.1,0.1c-0.1,0.1-0.2,0.3-0.3,0.5c0,0.1,0.1,0.1,0.1,0.1
			c-0.1,0.1-0.1,0.1-0.1,0.1c0,0.1,0,0.2,0,0.3c-0.1,0.1-0.2,0.3-0.3,0.5c0,0.1,0,0.1,0,0.2c-0.1,0-0.1,0.1-0.1,0.1
			c0,0.1-0.1,0.2-0.1,0.3c0,0-0.1,0-0.1,0.1s0.1,0.1,0.1,0.1c-0.1,0.1-0.2,0.2-0.3,0.3c0,0.1,0.1,0.1,0.1,0.1
			c-0.1,0.1-0.1,0.2-0.2,0.3c0,0.1,0,0.2,0,0.3c-0.1,0.1-0.1,0.1-0.1,0.1c0,0.1,0.1,0.1,0.1,0.1C38.6,26,38.6,26,38.6,26
			c0,0.1,0.1,0.1,0.1,0.1c-0.1,0.1-0.1,0.1-0.1,0.1c0,0.1,0.1,0.3,0.1,0.4c-0.1,0.1-0.1,0.1-0.1,0.1c0,0.1,0.1,0.1,0.1,0.3h-0.1
			c0,0.1,0.1,0.1,0.1,0.2c-0.1,0.1-0.1,0.1-0.1,0.1c0.1,0.1,0.1,0.1,0.1,0.2c0,0-0.1,0-0.1,0.1s0.1,0.1,0.1,0.1h-0.1
			c0.1,0.1,0.1,0.1,0.1,0.3h-0.1c0,0.1,0.1,0.1,0.1,0.3h-0.1c0,0.1,0.1,0.1,0.1,0.2c0,0-0.1,0-0.1,0.1c0.1,0.2,0.1,0.4,0.2,0.7
			h-0.1c0.1,0.1,0.1,0.1,0.1,0.2c0,0-0.1,0-0.1,0.1c0.1,0.1,0.1,0.1,0.1,0.2h-0.1c0,0.1,0.1,0.1,0.1,0.2c0,0-0.1,0-0.1,0.1
			c0.1,0.3,0.2,0.7,0.3,1c0,0-0.1,0-0.1,0.1c0.1,0.1,0.1,0.3,0.1,0.4h-0.1c0.1,0.3,0.2,0.5,0.3,0.7h-0.1c0.1,0.1,0.2,0.3,0.3,0.4
			c0.1,0.2,0,0.4,0.2,0.7h0.1c0.1,0.1-0.1,0-0.1,0.1c0.1,0.1,0.1,0.2,0.1,0.3h0.1c0.1,0.1,0,0.3,0.1,0.3H40c0,0.1,0.1,0.1,0.1,0.1
			h0.1c0.1,0.1,0.3,0.3,0.4,0.5c0.1,0,0.1-0.1,0.1-0.1c0.1,0.2,0.2,0.3,0.3,0.4c0.1,0,0.1,0,0.2,0c0.1,0.1-0.1,0.2-0.1,0.2
			c0.4,0.6,0.8,1,1.2,1.6c0.1,0,0.1-0.1,0.1-0.1c0.1,0.1,0.1,0.1,0.2,0.2c0.1,0,0.2,0.1,0.3,0.1c0.1,0.1,0.1,0.1,0.1,0.3h0.1
			c0.1,0.1,0.1,0.1,0.2,0.2c0.1,0,0.1,0,0.2,0c0,0.1,0.1,0.1,0.1,0.1l0.2,0.1c0,0.1,0.1,0.1,0.1,0.1c0.1,0,0.1,0,0.2,0
			c0,0.1,0.1,0.1,0.1,0.1H44c0.3,0.2,0.3,0.3,0.7,0.3c0,0.1,0.1,0.1,0.1,0.1c0.1,0,0.1-0.1,0.1-0.1c0,0.1,0.1,0.1,0.1,0.1
			c0.6-0.1,0.8,0.3,1.3,0.3c0,0.1,0.1,0.1,0.1,0.1c0.4-0.1,0.6,0.2,1,0.1c0,0.1,0.1,0.1,0.1,0.1c0.1,0,0.2,0,0.3,0
			C47.9,39,48,39,48.1,39s0.1-0.1,0.1-0.1c0.1,0.1,0.3,0.1,0.3,0.2c0.1,0,0.1-0.1,0.1-0.1v0.1c0.1-0.1,0.1-0.1,0.2-0.2
			c0.1,0.1,0.3,0.1,0.3,0.2c0.1,0,0.1-0.1,0.1-0.1c0.1,0.1,0.1,0.1,0.1,0.1c0.2-0.1,0.4-0.1,0.6-0.1c0,0,0,0.1,0.1,0.1
			s0.1-0.1,0.3-0.1v0.1c0.3-0.1,0.6-0.1,0.9-0.1v0.1c0.1-0.1,0.2-0.1,0.3-0.1c0.6,0,1.2-0.1,1.7-0.1c0.4-0.1,0.9-0.3,1.3-0.5V39
			h0.1v-0.1c0.1-0.1,0.2-0.1,0.3-0.1v0.1c0.1-0.1,0.3-0.1,0.3-0.3v0.1c0.1-0.1,0.1-0.1,0.1-0.1c0.1-0.1,0,0,0.1,0.1
			c0.1-0.1,0.1-0.1,0.1-0.1v0.1c0,0,0.1,0,0.1-0.1v-0.1c0.1-0.1,0.2-0.1,0.3-0.1v-0.1c0.1,0,0.2,0,0.3,0v-0.1
			c0.1-0.1,0.3-0.1,0.5-0.2v-0.1c0.1-0.1,0.2-0.1,0.3-0.1v-0.1c0.1-0.1,0.2,0.1,0.3-0.1v-0.1c0.3-0.1,0.6-0.3,0.8-0.4V37
			c0.1-0.1,0.2-0.1,0.3-0.1v-0.1c0.1,0,0.1-0.1,0.3-0.1c0,0,0-0.1-0.1-0.1c0.3-0.1,0.6-0.3,0.9-0.5C60,36,60,35.8,60,35.6
			c0.1,0,0.1-0.1,0.1-0.1c0-0.1,0-0.1,0-0.2c0.1,0,0.1-0.1,0.1-0.1c0-0.1,0-0.1,0-0.2c0.1,0,0.1-0.1,0.1-0.1s0-0.1-0.1-0.1
			c0.1-0.1,0.2-0.1,0.3-0.2v-0.1c0.1-0.1,0.2-0.1,0.3-0.1v-0.1c0.1,0,0.1-0.1,0.1-0.1v-0.1C61,34,61.1,34,61.2,34v-0.1
			c0.1,0,0.1-0.1,0.1-0.1V34c0.1-0.1,0.3-0.2,0.4-0.3c0-0.1,0-0.1,0-0.2c0.1,0,0.1-0.1,0.1-0.1c0-0.1,0-0.1,0-0.2
			c0.1,0,0.1-0.1,0.2-0.1V33c0.1,0,0.1-0.1,0.1-0.1v-0.1c0.1-0.1,0.1-0.1,0.2-0.2c0-0.1-0.1-0.1-0.1-0.1c0.1-0.1,0.1-0.1,0.2-0.2
			c0-0.1-0.1-0.1-0.1-0.1c0.1-0.1,0.1-0.1,0.1-0.1V32c0.1,0,0.1-0.1,0.1-0.1c0.1-0.3,0.1-0.5,0.1-0.8c0-0.1-0.1-0.1-0.1-0.1
			c0.1-0.1,0.1-0.1,0.1-0.1c0-0.1-0.1-0.1-0.1-0.1s0.1,0,0.1-0.1c0.1-0.1,0.1-0.2,0-0.4c0.1,0,0.1-0.1,0.1-0.1
			c-0.1-0.4,0.1-0.4,0.3-0.7c0.1-0.1,0-0.3,0-0.5c0.1-0.1,0.1-0.3,0.2-0.3c-0.1-0.1-0.1-0.1-0.1-0.2c0.1-0.1,0.1-0.1,0.1-0.1
			c0-0.1-0.1-0.1-0.1-0.3C64,28,64,28,64,28c-0.1-0.1-0.1-0.2-0.1-0.3c0.1-0.1,0.1-0.1,0.1-0.1c0-0.1,0-0.2-0.1-0.3
			c0.1-0.1,0.1-0.1,0.1-0.1c0-0.1-0.1-0.2-0.1-0.3l0.1-0.1c0,0,0,0,0,0.1h0.1c0,0.1,0,0.1,0,0.3h0.1c0,0.1,0,0.1,0,0.3h0.1
			c0,0.1,0,0.1,0,0.1s0,0,0.1,0c0,0.1,0,0.1,0,0.1s0,0,0.1,0c0,0.1,0,0.3,0.1,0.5c0,0,0,0,0.1,0c0,0.1,0,0.1,0,0.1l0.1,0.1
			c0,0.1,0,0.3,0.1,0.4H65c0,0.1,0,0.1,0,0.1s0,0,0.1,0c0,0.1,0,0.1,0,0.1s0,0,0.1,0c0,0.1,0,0.2,0,0.3H65c0,0.1,0,0.1,0,0.2h0.1
			c0,0.1,0,0.1,0,0.1h0.1c0,0.1,0,0.1,0,0.1s0,0,0.1,0c0,0.1,0.1,0.3,0.1,0.4h0.1c0,0.1,0,0.1,0,0.1h0.1c0,0.1,0,0.1,0,0.1
			s0,0,0.1,0c0,0.1,0,0.1,0,0.2h0.1v0.1h0.1c0,0.1,0.1,0.3,0.1,0.4c0,0,0,0,0.1,0c0,0.1,0,0.1,0,0.1h0.1c0,0.1,0.1,0.2,0.1,0.3
			c0,0,0,0,0.1,0c0,0.1,0,0.1,0.1,0.2c0,0,0,0,0.1,0c0,0.2,0.1,0.4,0.1,0.6l0.1,0.1c0,0.1,0,0.1,0,0.1c0.1,0,0.1,0,0.1,0.1v0.1
			c0.1,0.1,0.1,0.1,0.1,0.3c0.1,0,0.1,0,0.1,0c0,0.1,0,0.1,0.1,0.2h0.1c0,0.1,0,0.1,0,0.1c0.1,0,0.1,0.1,0.1,0.1
			c0,0.1,0,0.1,0.1,0.3c0,0,0,0,0.1,0c0,0.1,0,0.1,0,0.1c0.1,0,0.1,0.1,0.1,0.1c0,0.1,0.1,0.1,0.1,0.1h0.1c0,0.1,0,0.1,0,0.1
			c0.1,0.1,0.1,0.1,0.1,0.1c0.1,0.3,0.1,0.5,0.5,0.6c0.1,0.1,0,0.1,0.1,0.1c0,0.2,0.1,0.2,0.1,0.3h0.1c0.1,0.2,0.1,0.3,0.2,0.4v0.1
			l0.1,0.1c0,0.1,0,0.1,0,0.1c0.1,0.1,0.1,0.1,0.2,0.1c0,0.1,0,0.1,0,0.1c0.1,0.1,0.1,0.1,0.3,0.2c0,0.1,0,0.1,0,0.1l0.1,0.1
			c0,0.1,0,0.1,0,0.1c0.1,0,0.1,0.1,0.1,0.1c0.1,0.1,0.1,0.1,0.1,0.3C70,36.9,70,37,70,37c0.1,0,0-0.1,0.1-0.1V37
			c0.1,0.1,0.1,0.1,0.3,0.1c0,0.1,0,0.1,0,0.1h0.1c-0.1,0.1,0,0-0.1,0.1c0.1,0.1,0.3,0.3,0.5,0.3c0,0.1,0,0.1,0,0.1
			c0.1,0,0.1,0.1,0.2,0.1v0.1c0.1,0,0.1,0,0.1,0V38c0.1,0,0.1,0,0.1,0s0,0,0,0.1c0.1,0,0.1,0,0.1,0c0,0.1,0,0.1,0.1,0.1
			c0,0,0.1,0,0.1-0.1V38h0.1v0.1c0.1,0,0.1,0,0.3,0.1c0,0.1,0.1,0.1,0.1,0.1c0.1,0,0.1,0,0.1,0s0,0,0,0.1c0.1,0,0.1,0,0.1,0
			s0,0,0,0.1h0.1v0.1c0.1,0,0.1,0,0.1,0v0.1c0.1,0,0.1,0,0.1,0s0,0,0,0.1c0.1,0,0.1,0,0.2,0.1c0,0,0,0,0,0.1c0.1,0,0.1,0.1,0.3,0.1
			c0,0,0,0,0,0.1c0.1,0,0.1,0,0.1,0s0,0,0,0.1c0.1,0,0.1,0,0.1,0s0,0,0,0.1h0.1V39c0.1,0,0.1,0,0.1,0v0.1c0.1,0,0.2,0.1,0.3,0.1
			v0.1c0.1,0,0.1,0,0.1,0v0.1c0.1,0,0.2,0,0.3,0v0.1c0.1,0,0.1,0,0.1,0s0,0,0,0.1c0.1,0,0.1,0,0.1,0v0.1c0.1,0,0.1,0,0.3,0
			c0.3,0.1,0.8,0.1,1.2,0.3c0.3,0,0.5,0,0.8,0c0,0,0,0,0,0.1c0.1,0,0.1,0,0.3,0c0,0,0,0,0,0.1c0.2,0,0.3,0,0.6,0c0,0,0,0.1,0.1,0.1
			c0,0,0-0.1,0.1-0.1V40c0.1,0,0.2,0,0.3,0v0.1c0.1,0,0.1,0,0.3,0c0,0,0,0,0,0.1c0.1,0,0.1,0,0.3,0c0,0,0,0,0,0.1
			c0.1,0,0.1,0,0.3,0c0,0,0,0,0,0.1c0.1,0,0.1,0,0.2,0v0.1c0.1,0,0.3,0,0.4,0.1c0,0,0,0,0,0.1c0.1,0,0.1,0,0.2,0c0,0,0,0,0,0.1
			c0.1,0,0.1,0,0.2,0v0.1c0.1,0,0.1,0,0.2,0V41c0.1,0,0.3,0,0.5,0.1c0,0,0,0,0,0.1c0.2,0,0.3,0.1,0.6,0.1V41c0.1,0,0.2,0,0.3,0
			c0,0,0,0,0,0.1c0.3,0,0.5,0.1,0.8,0.1v0.1c0.2,0,0.4,0,0.7,0v0.1c0.6,0,1.2,0,1.9,0.1v-0.1c0.1,0,0.1,0,0.1,0.1v-0.1
			c0.1,0,0.2,0,0.3,0v-0.1c0.1,0,0.2,0,0.3,0c0,0,0,0,0-0.1c0.1,0,0.2,0,0.3,0c0,0,0,0,0-0.1c0.1,0,0.1,0,0.2,0V41
			c0.1,0,0.1,0,0.2,0v-0.1c0.1,0,0.1,0,0.1,0s0,0,0-0.1c0.1,0,0.3,0,0.5-0.1c0,0,0,0,0-0.1c0.1,0,0.1,0,0.1,0v-0.1
			c0.1,0,0.1,0,0.1,0s0,0,0-0.1c0.1,0,0.1,0,0.1,0s0,0,0-0.1c0.1,0,0.2,0,0.3,0c0,0,0,0,0-0.1c0.1-0.1,0.3-0.1,0.5-0.1
			c0,0,0,0,0-0.1h0.1c0,0,0,0,0-0.1c0.1,0,0.1,0,0.1,0v-0.1c0.1,0,0.1,0,0.2,0V40c0.1,0,0.1,0,0.1,0s0,0,0-0.1h0.1v-0.1
			c0.1,0,0.1,0,0.1,0v-0.1c0.1,0,0.1,0,0.2,0c0-0.1,0-0.1,0.1-0.1s0.1,0,0.2,0v-0.1c0.1,0,0.1,0,0.1,0v-0.1c0.1,0,0.1-0.1,0.3-0.1
			c0,0,0,0,0-0.1H89c0,0,0,0,0-0.1c0.1,0,0.1,0,0.1,0c0-0.1,0-0.1,0.1-0.1s0.1,0,0.1,0s0,0,0-0.1c0.1,0,0.1,0,0.1,0s0,0,0-0.1
			c0.1,0,0.2-0.1,0.3-0.1c0,0,0,0,0-0.1c0.1,0,0.1,0,0.1,0s0,0,0-0.1h0.1c0,0,0,0,0-0.1c0.1,0,0.1,0,0.1,0v-0.1h0.1c0,0,0,0,0-0.1
			c0.1,0,0.1,0,0.1,0s0,0,0-0.1c0.1,0,0.1,0,0.1,0V38c0.1,0,0.1,0,0.1,0v-0.1c0.1,0,0.1,0,0.1,0v-0.1c0.1,0,0.1,0,0.1,0s0,0,0-0.1
			c0.1-0.1,0.3-0.1,0.5-0.1c0,0,0,0,0-0.1c0.1,0,0.1,0,0.2,0V38c0.1,0,0.1,0,0.1,0v-0.1c0.1,0,0.1,0,0.2-0.1c0,0,0,0,0-0.1
			c0.1,0,0.2,0,0.3-0.1c0-0.1,0.1-0.1,0.1-0.1c0.1-0.1,0.3-0.1,0.3-0.1c0-0.1,0-0.1,0-0.1c0.1,0,0.1,0,0.1-0.1
			c0.1-0.1,0.1-0.1,0.1-0.1c0.1,0,0.1,0,0.1,0l0.1-0.1h0.1c0.1-0.1,0.1-0.1,0.1-0.1H93c0,0.1,0,0.1,0,0.1h0.1c0,0,0,0,0-0.1
			c0.1-0.1,0.2-0.1,0.3-0.2v-0.1c0.1,0,0.1-0.1,0.1-0.1c0.1-0.1,0.1-0.1,0.1-0.1h0.1c0-0.1,0-0.1,0.1-0.1c0.1-0.1,0.3-0.3,0.5-0.5
			c0-0.1,0-0.1,0-0.1c0.2-0.1,0.1-0.1,0.3-0.3c0.1-0.1,0.2-0.2,0.3-0.3V35c0.1-0.1,0.1-0.1,0.2-0.1c0-0.1,0-0.1,0-0.1h0.1
			c0.1-0.1,0.1-0.1,0.1-0.3h0.1c0.1-0.1,0.1-0.2,0.1-0.3h0.1c0.1-0.3,0.3-0.3,0.3-0.7H96c0-0.1,0-0.1,0.1-0.2H96c0-0.1,0-0.1,0-0.2
			c0.1,0,0.1-0.1,0.1-0.1c0-0.1,0-0.1,0-0.1h0.1v-0.1c0,0,0,0,0.1,0c0-0.1,0-0.1,0-0.1s0.1,0,0.1-0.1c0.1-0.1,0.1-0.3,0.1-0.4h0.1
			c0-0.1,0.1-0.3,0.1-0.5l0.1-0.1c0-0.1,0.1-0.2,0.1-0.3c0,0,0,0,0.1,0v-0.1c0,0,0,0,0.1,0c0-0.1,0.1-0.1,0.1-0.3H97
			c0.1-0.1,0.1-0.3,0.1-0.5c0.1,0,0.1,0,0.1-0.1c0.1-0.2,0.1-0.3,0.1-0.6c0.1,0,0.1,0,0.1,0c0-0.2,0.1-0.4,0.1-0.6h0.1V29h0.1
			c0-0.1,0-0.1,0-0.3c0,0,0,0,0.1,0c0-0.1,0-0.1,0-0.1s0,0,0.1,0c0-0.1,0-0.1,0-0.1s0,0,0.1,0v-0.1h0.1c0.1-0.1,0.1-0.1,0.2-0.3
			c0.2-0.1,0.1,0,0.1-0.1s0.1,0,0.1-0.1h0.1c-0.1-0.1-0.1-0.2-0.1-0.3h0.1c0-0.1,0-0.1,0-0.3c0,0,0,0,0.1,0c0-0.1,0-0.1,0-0.1h0.1
			c0-0.1,0-0.1,0-0.1h0.1c0-0.1,0-0.1,0-0.1s0,0,0.1,0v-0.1c0,0,0,0,0.1,0c0-0.1,0-0.1,0-0.2c0,0,0,0,0.1,0c0-0.1,0.1-0.1,0.1-0.2
			c0,0,0,0,0.1,0c0-0.1,0-0.2,0-0.3c0,0,0,0,0.1,0c0-0.1,0-0.1,0-0.2H99c0-0.1,0-0.2,0-0.3l0,0c0-0.1,0-0.1,0-0.2c0,0,0,0,0.1,0
			c0-0.1,0-0.2,0-0.3c0,0,0,0,0.1,0c0-0.2,0-0.3,0-0.6c0,0,0,0,0.1,0c0-0.1,0-0.3,0-0.5h0.1c0-0.1,0-0.1,0-0.2c0,0,0,0,0.1,0
			c0-0.3,0-0.7,0-1C99,23.6,98.9,22.9,98.9,22.5z M47.2,24C47.2,24,47.3,24,47.2,24c0.1,0.1,0,0.1-0.1,0.3c-0.1,0-0.1,0.1-0.1,0.1
			v-0.1C47.1,24.2,47.2,24.1,47.2,24z M46.7,24.7c0.2-0.1,0.2-0.1,0.1-0.3h0.1c0.1,0.3-0.2,0.9-0.4,1.1v0.1h-0.1
			C46.5,25.3,46.8,25.1,46.7,24.7z M46.5,25.8c-0.2,0-0.1,0.1-0.2,0C46.5,25.7,46.4,25.7,46.5,25.8z M46.3,26L46.3,26
			c0.1,0,0,0.2,0,0.2S46.3,26.1,46.3,26z M55,26.8L55,26.8c-0.1,0.1,0,0.1,0,0.2h-0.1c0,0.1,0.1,0.1,0.1,0.1h-0.1
			c0,0.1,0.1,0.1,0.1,0.2c-0.1,0.2-0.2,0.3-0.3,0.6c0,0.1,0.1,0.1,0.1,0.1c-0.1,0.1-0.1,0.3-0.3,0.4c0,0.1,0,0.1,0,0.3
			c-0.1,0-0.1,0.1-0.1,0.1c0.1,0.3-0.1,0.5-0.2,0.8c-0.1,0-0.1,0.1-0.1,0.1c0,0.1,0.1,0.1,0.1,0.1c-0.1,0.1-0.1,0.1-0.1,0.1V30
			C54,30,54,30.1,54,30.1c0,0.1-0.1,0.3-0.1,0.4c-0.1,0.1-0.2,0.1-0.3,0.2v0.1c-0.1,0-0.1,0.1-0.1,0.1c0,0.1,0,0.1,0,0.2
			c-0.1,0.1-0.2,0.1-0.3,0.2c0,0.1-0.1,0.2-0.1,0.3c-0.1,0-0.1,0.1-0.1,0.1c0,0.1,0,0.1,0,0.2C52.9,32,52.8,32,52.7,32v0h-0.1v-0.1
			h-0.1V32h-0.1v-0.1C52.3,32,52.1,32,52.1,32c0.1,0.1,0.1,0.1,0.1,0.1c-0.1,0.1-0.3,0.1-0.5,0.1c0,0.1,0.1,0.1,0.1,0.1
			c-0.1,0-0.1,0-0.3,0.1c0-0.1-0.1-0.1-0.1-0.1c-0.5,0.1-0.9,0.2-1.4,0.3c-0.1-0.1-0.2-0.1-0.3-0.2c-0.1,0-0.1,0.1-0.1,0.1
			c-0.2-0.1-0.4-0.2-0.6-0.3c-0.1,0-0.2-0.1-0.3-0.1c0-0.1-0.1-0.1-0.1-0.1c-0.1,0-0.2-0.1-0.3-0.1c-0.1-0.1-0.2-0.3-0.3-0.3
			s-0.1,0-0.2,0c0-0.1-0.1-0.1-0.1-0.1c-0.1,0-0.1,0-0.2,0c-0.1-0.1-0.1-0.2-0.2-0.3h-0.1c0-0.1-0.1-0.1-0.1-0.1
			c-0.1,0-0.1,0-0.2,0c-0.1-0.1-0.7-1-0.7-1.3h0.1c-0.1-0.1-0.1-0.2-0.1-0.3h0.1c-0.1-0.1-0.1-0.3-0.1-0.3c0.1-0.1,0.1-0.1,0.1-0.1
			c0-0.1-0.1-0.1-0.1-0.2h0.1c-0.1-0.1-0.1-0.2-0.1-0.3c0.1-0.1,0.1-0.1,0.1-0.1c0-0.3,0-0.5-0.1-0.8c0.1-0.1,0.1-0.3,0.3-0.4
			c0-0.1-0.1-0.2-0.1-0.3c0.1,0,0.1,0,0.2,0c0-0.1-0.1-0.1-0.1-0.1c0.4-0.2,0.2-0.4,0.5-0.6c0-0.1-0.1-0.1-0.1-0.1
			c0.1-0.1,0.2-0.2,0.3-0.3v-0.1c0.1,0,0.1-0.1,0.1-0.1v-0.1c0.1-0.1,0.1-0.2,0.2-0.3c0-0.1,0-0.1,0-0.2c0.1,0,0.1-0.1,0.1-0.1
			v-0.1c0.1-0.1,0.1-0.1,0.1-0.2c0,0,0.3-0.1,0.1-0.1c-0.1,0-0.1,0.1-0.1,0.1v-0.1c0.1-0.1,0.3-0.1,0.3-0.1c0-0.1,0-0.1,0-0.2
			c0.1,0,0.1-0.1,0.2-0.1c0-0.1,0-0.1,0-0.2c0.1,0,0.1-0.1,0.2-0.1v-0.1c0.1-0.1,0.2-0.1,0.3-0.2v-0.1c0.1-0.1,0.2-0.1,0.3-0.1
			v-0.1c0.1-0.1,0.3-0.1,0.4-0.3v0.1h0.1V23c0.3-0.3,0.8-0.3,1.2-0.5c0.2,0.1,0.2,0,0.3,0c0.1,0.1,0.1,0.1,0.2,0.1
			c0.1,0,0.1,0,0.3,0c0,0.1,0.1,0.1,0.1,0.1c0.1,0,0.3,0.1,0.4,0.1c0.1,0.1,0.2,0.3,0.3,0.3s0.3,0.1,0.4,0.1c0,0.1,0.1,0.1,0.1,0.1
			c0.1,0,0.1,0,0.2,0c0,0.1,0.1,0.1,0.1,0.1c0.1,0,0.1,0,0.2,0c0,0.1,0.1,0.1,0.1,0.1l0.2,0.1c0,0.1,0.1,0.1,0.1,0.1h0.1
			c0,0.1,0.1,0.1,0.1,0.1H54c0,0.1,0.1,0.1,0.1,0.1h0.1c0,0.1,0.1,0.1,0.1,0.1c0.3,0.2,0.8,0.6,1,1.2h-0.1c0.1,0.1,0.1,0.2,0.1,0.3
			h-0.1c0.1,0.1,0.1,0.2,0.1,0.3h-0.1c0,0.1,0.1,0.1,0.1,0.2h-0.1c0,0.1,0.1,0.1,0.1,0.2h-0.1C55,26.6,55,26.7,55,26.8z M85.3,24.6
			c0,0.1,0,0.1,0,0.3c-0.1,0-0.1,0-0.1,0.1s-0.1,0.2-0.1,0.3c0,0,0,0-0.1,0c0,0.1-0.1,0.1-0.1,0.3h-0.1v0.1h-0.1
			c0,0.1,0.1,0.1,0.1,0.1c-0.1,0-0.1,0.1-0.1,0.1c0,0.1,0,0.1,0,0.1h-0.1c0,0.1,0,0.1,0,0.1h-0.1V26l-0.1,0.1c0,0.1,0,0.1,0,0.1
			s-0.1,0-0.1,0.1v0.1c0,0-0.1,0-0.1,0.1v0.1c0,0,0,0-0.1,0C84,26.7,84,26.7,84,26.8c-0.1,0.1-0.2,0.1-0.3,0.3V27
			c-0.1,0-0.1,0-0.1,0s0,0,0,0.1h-0.1v0.1c-0.1,0-0.1,0-0.2,0v0.1c-0.1,0-0.1,0-0.2,0v0.1c-0.1,0-0.1,0-0.2,0c0,0,0,0,0,0.1
			c-0.1,0-0.1,0-0.2,0c0,0,0,0,0,0.1c-0.1,0-0.2,0-0.3,0c-0.7,0.2-1.6,0.1-2.2-0.1c-0.1,0-0.2,0-0.3,0v-0.1c-0.1,0-0.1,0-0.2,0
			v-0.1c-0.1,0-0.1,0-0.2,0c0,0,0,0,0-0.1c-0.1,0-0.1,0-0.1,0v-0.1c-0.1,0-0.1,0-0.1,0V27c-0.1,0-0.1,0-0.1,0v-0.1
			c-0.1,0-0.1,0-0.1,0L79,26.8c-0.1,0-0.1-0.1-0.3-0.1c0-0.1-0.1-0.1-0.1-0.1c-0.1,0-0.1,0-0.1-0.1v-0.1c-0.1,0-0.1,0-0.1,0
			s0-0.1-0.1-0.1h-0.1c-0.1-0.1-0.1-0.1-0.1-0.2c-0.1,0-0.1,0-0.1,0l0,0.1c0-0.1,0-0.1,0-0.1V26c0-0.1,0-0.1,0-0.1s-0.1,0-0.1-0.1
			s-0.1-0.1-0.1-0.2h-0.1c0-0.1,0-0.2-0.1-0.3c0,0-0.1,0-0.1-0.1c-0.1-0.2-0.1-0.3-0.1-0.6c0,0-0.1,0-0.1-0.1s-0.1-0.3-0.1-0.4
			h-0.1c0-0.1,0-0.1,0-0.1s0,0-0.1,0c0-0.1,0-0.1,0-0.1s0,0-0.1,0c0-0.1,0-0.1,0-0.3h-0.1c0-0.1,0-0.1,0-0.2h-0.1
			c0-0.2,0-0.4-0.1-0.6c0,0,0,0-0.1,0v-0.1h-0.1c0-0.2-0.1-0.4-0.1-0.7h0.1c0-0.1,0-0.1,0-0.1l0.1-0.1c0-0.1,0.1-0.3,0.1-0.4h0.1
			c0-0.1,0-0.1,0-0.1l0.1-0.1c0-0.1,0.1-0.3,0.1-0.5c0,0,0.1,0,0.1-0.1s0.1-0.2,0.1-0.3c0.1-0.1,0.1-0.1,0.1-0.1c0-0.1,0-0.1,0-0.1
			h0.1c0-0.1,0.1-0.1,0.1-0.1h0.1c0-0.1,0.1-0.1,0.1-0.3c0.1-0.1,0.1-0.1,0.1-0.1c0-0.1,0.1-0.1,0.1-0.2c0.1-0.1,0.1-0.1,0.2-0.1
			v-0.1c0.1,0,0.1-0.1,0.1-0.1V19c0.1,0,0.1,0,0.1-0.1v-0.1c0.1,0,0.1-0.1,0.1-0.1c0.1-0.1,0.1-0.1,0.1-0.1c0.1,0,0.1-0.1,0.3-0.1
			c0,0,0,0,0-0.1c0.2-0.1,0.8,0,1,0.1c0.4,0.1,0.8,0.1,1.2,0.1c0,0,0,0,0,0.1c0.1,0,0.1,0,0.3,0v0.1c0.1,0,0.1,0,0.2,0v0.1
			c0.1,0,0.1,0,0.3,0c0,0,0,0,0,0.1c0.1,0,0.1,0,0.1,0s0,0,0,0.1c0.1,0,0.1,0,0.1,0s0,0,0,0.1c0.1,0,0.1,0,0.2,0v0.1
			c0.1,0,0.2,0.1,0.3,0.1v0.1c0.3,0.1,0.2,0.1,0.3,0.3c0.1,0.1,0.1,0.1,0.1,0.1c0,0.1,0,0.1,0,0.1c0.1,0.1,0.1,0.1,0.2,0.1
			c0,0.1,0.1,0.1,0.1,0.2c0.1,0.1,0.1,0.1,0.3,0.1c0,0.1,0,0.1,0,0.1c0.1,0.1,0.1,0.1,0.2,0.1V21H84c0,0.2,0.1,0.2,0.1,0.3
			c0,0,0,0,0.1,0c0,0.1,0,0.1,0,0.1c0.1,0.1,0.1,0.2,0.3,0.2c0,0.2,0,0.2,0.1,0.3h0.1c0,0.1,0.1,0.1,0.1,0.1l0.1,0.1
			c0,0.1,0,0.1,0,0.1H85c0,0.1,0,0.1,0,0.1h0.1c0,0.1,0,0.1,0,0.2c0.1,0.1,0.1,0.1,0.1,0.1v0.1l0.1,0.1v0.1l0.1,0.1
			c0,0.1,0,0.1,0,0.3h0.1c0,0.1,0,0.1,0,0.1s0,0,0.1,0C85.5,23.8,85.3,24.4,85.3,24.6z"></path>
			</g>
			</g>
			<g>
				<g>
					<path class="webackers-black" d="M116.9,31.5c-0.6-0.1-1.1-0.2-1.4-0.7c-0.4-0.6-0.6-1-0.6-1.7v-5.4c-0.7,0.6-1.2,0.8-1.7,0.8
			c-0.4-0.1-0.7-0.3-1-0.6c-0.6-0.8-0.4-1.5,0.5-2.1c1.3-0.8,2.5-2.5,3.6-5.2h-2.1c-0.5,0-0.9-0.1-1.2-0.4c-0.3-0.3-0.3-0.6-0.3-1
			c0.1-0.4,0.1-0.8,0.4-1c0.3-0.3,0.7-0.4,1.1-0.4h2.9l0,0l0.4-3.4h-4c-0.5,0-0.8-0.1-1-0.4c-0.3-0.3-0.4-0.6-0.4-1s0.1-0.7,0.4-1
			s0.6-0.4,1-0.4h4v-3h-3.1c-0.5,0-0.8-0.1-1.1-0.3c-0.3-0.3-0.4-0.6-0.4-1s0.1-0.8,0.4-1c0.3-0.3,0.7-0.4,1.1-0.4h10.5
			c0.8,0,1.4,0.3,1.8,0.7c0.3,0.5,0.6,1,0.6,1.7v3.5h0.6c0.4,0,0.8,0.1,1,0.3c0.3,0.2,0.4,0.6,0.4,1s-0.1,0.7-0.4,1
			c-0.2,0.3-0.6,0.4-1,0.4h-0.6v3.4c0,0.9-0.3,1.6-0.7,2.1c-0.6,0.6-1.2,0.8-2.2,0.8h-5.2l-0.9,2.4h6.7c0.7-0.1,1.2,0.2,1.7,0.6
			c0.4,0.3,0.6,0.8,0.6,1.4v8.1c0,0.6-0.2,1.2-0.8,1.7c-0.5,0.5-1,0.7-1.6,0.7L116.9,31.5L116.9,31.5L116.9,31.5z M118.9,21.9
			c-0.4,0-0.7,0.1-0.8,0.3c-0.2,0.3-0.3,0.5-0.3,0.9v4.5c0,0.4,0.1,0.7,0.3,0.8c0.2,0.2,0.5,0.3,0.8,0.3h4.3c0.4,0,0.7-0.1,0.9-0.3
			c0.1-0.2,0.2-0.5,0.2-0.8v-4.5c0-0.4-0.1-0.6-0.2-0.8c-0.2-0.3-0.6-0.3-0.9-0.3h-4.3V21.9z M119.8,14h3.4c0.5,0,0.8-0.1,1-0.3
			s0.3-0.5,0.3-0.9v-2.3h-4.1l-0.1,1.8L119.8,14z M120.3,7.8h4.1V5.6c0-0.3-0.1-0.6-0.2-0.7c-0.2-0.2-0.5-0.3-0.8-0.3h-3.1V7.8
			L120.3,7.8z M129.7,24.7c-0.5,0-0.8-0.1-1.1-0.4c-0.2-0.3-0.3-0.6-0.3-1s0.1-0.7,0.3-1c0.3-0.3,0.6-0.4,1.1-0.4h5.6v-4.6H131
			c-0.5,0-0.8-0.1-1-0.4c-0.3-0.2-0.4-0.6-0.4-1s0.1-0.7,0.4-1c0.2-0.3,0.6-0.4,1-0.4h4.3V10h-4.5c-0.5,0-0.8-0.1-1-0.4
			c-0.3-0.3-0.4-0.6-0.4-1s0.1-0.7,0.4-1s0.6-0.4,1-0.4h6.1c1.3-2.3,2.2-4.1,2.7-5.6c0.2-0.5,0.4-0.8,0.8-1
			c0.3-0.2,0.7-0.2,1.1-0.1c0.3,0.1,0.7,0.3,0.8,0.7c0.3,0.8-0.3,2.7-2.1,5.9h3.1c0.5,0,0.8,0.1,1,0.4c0.3,0.3,0.3,0.6,0.3,1
			s-0.1,0.8-0.3,1c-0.3,0.3-0.6,0.4-1,0.4h-5v4.5h4.3c0.5,0,0.8,0.1,1,0.4c0.3,0.3,0.4,0.6,0.4,1s-0.1,0.8-0.4,1
			c-0.3,0.3-0.6,0.5-1,0.5h-4.3V22h5.2c0.5,0,0.8,0.1,1,0.4s0.3,0.6,0.3,1s-0.1,0.8-0.3,1c-0.3,0.3-0.6,0.5-1,0.5h-5.2v6.8
			c0,0.5-0.1,0.9-0.5,1.2c-0.3,0.3-0.6,0.4-1,0.4s-0.8-0.1-1-0.4c-0.3-0.3-0.4-0.7-0.4-1.2v-6.8h-5.6v-0.2H129.7z M129.8,1.4
			c0.1-0.4,0.3-0.7,0.6-0.9c0.3-0.3,0.7-0.3,1.1-0.3c0.3,0.1,0.7,0.3,1,0.7c0.7,1,1.4,2.2,2.1,3.7c0.2,0.5,0.2,0.8,0.1,1.2
			c-0.1,0.4-0.4,0.7-0.8,0.8c-0.4,0.1-0.8,0.1-1.1,0s-0.6-0.5-0.8-0.9c-0.6-1.4-1.2-2.4-1.8-3.2C129.9,2.3,129.8,1.9,129.8,1.4z"></path>
				<path class="webackers-black" d="M156.2,26.1c-0.4,0-0.7-0.1-0.9-0.3c-0.3-0.2-0.3-0.5-0.3-0.8v-0.3l-4,1.2c-0.5,0.1-0.9,0-1.2-0.3
			c-0.3-0.2-0.5-0.6-0.6-1s0.1-0.7,0.3-1c0.3-0.3,0.6-0.6,1.1-0.6c2.5-0.6,4.8-1.4,6.8-2.3H151c-0.4,0-0.7-0.1-0.9-0.3
			c-0.3-0.3-0.3-0.6-0.3-0.9s0.1-0.6,0.3-0.9s0.6-0.3,0.9-0.3h9.8l1.4-1.7h-7.1c-0.6-0.1-1-0.3-1.2-0.6c-0.4-0.5-0.6-0.9-0.6-1.4
			V7.9c-0.1-0.5,0.1-0.9,0.5-1.3c0.3-0.3,0.8-0.5,1.2-0.5h3.3V4.9h-7.4c-0.4,0-0.7-0.1-0.9-0.3c-0.3-0.3-0.3-0.6-0.3-0.9
			s0.1-0.6,0.3-0.9s0.6-0.3,0.9-0.3h7.4c0-1.1,0.1-1.8,0.3-2c0.3-0.3,0.6-0.4,1-0.4c0.3,0,0.7,0.1,1,0.4c0.3,0.2,0.5,0.9,0.5,2h9.1
			c0-1.1,0.1-1.8,0.4-2c0.3-0.3,0.6-0.4,1-0.4s0.8,0.1,1,0.4c0.3,0.2,0.4,0.9,0.4,2h7.2c0.4,0,0.7,0.1,0.9,0.3
			c0.3,0.3,0.3,0.6,0.3,0.9s-0.1,0.6-0.3,0.8c-0.2,0.3-0.5,0.4-0.9,0.4h-7.3v1.3h3.1c0.6-0.1,1.1,0.2,1.5,0.6
			c0.3,0.3,0.6,0.8,0.6,1.2v6.4c0,0.6-0.3,1-0.7,1.4s-0.9,0.6-1.4,0.6h-11l-1.1,1.7h16.3c0.4,0,0.7,0.1,0.9,0.3
			c0.3,0.3,0.3,0.6,0.3,0.9s-0.1,0.6-0.3,0.8c-0.2,0.3-0.5,0.4-0.9,0.4h-6.7c1.7,1.1,4.1,2,7,2.8c0.5,0.1,0.8,0.4,1,0.8
			s0.3,0.8,0.1,1.2c-0.1,0.4-0.3,0.7-0.7,0.9c-0.8,0.4-2.8-0.1-6.2-1.7c0.4,0.4,0.7,1.1,0.7,2c-0.1,2.7-0.6,4.5-1.5,5.3
			c-1,0.8-2.8,1.1-5.4,0.8c-2.1-0.3-3.3-0.9-3.7-1.6c-0.1-0.4-0.1-0.8,0.1-1.1c0.2-0.4,0.5-0.6,0.8-0.8c0.3-0.1,0.7-0.1,1.2,0.1
			c0.8,0.3,1.7,0.6,2.6,0.6c1.2,0.1,2.1,0,2.4-0.3c0.2-0.2,0.3-0.5,0.5-1c0.2-1.1,0.2-1.9-0.1-2.2c-0.2-0.1-0.4-0.2-0.7-0.2h-7
			l-0.2,0.3l-0.6,0.8c-2.7,3.2-6.8,5.1-12.3,5.5c-0.6-0.1-0.9-0.2-1.2-0.5s-0.3-0.7-0.3-1.1c0.1-1,0.7-1.4,1.7-1.4
			c4.3-0.3,7.4-1.5,9.4-3.6L156.2,26.1L156.2,26.1L156.2,26.1z M175.4,10.3V9.5c0-0.3-0.1-0.6-0.2-0.8c-0.2-0.2-0.5-0.3-0.8-0.3
			h-17.3c-0.3,0-0.6,0.1-0.8,0.3c-0.1,0.2-0.3,0.5-0.3,0.8v0.8C156.1,10.3,175.4,10.3,175.4,10.3z M156.1,12.5v0.8
			c0,0.3,0.1,0.6,0.3,0.8c0.2,0.1,0.4,0.3,0.8,0.3h17.3c0.3,0,0.6-0.1,0.8-0.3l0.3-0.8v-0.8H156.1z M166,23.8h7.6h0.2
			c-1.6-0.9-3.1-1.9-4.5-3l-0.3-0.3h-7c-1.5,1.3-3.2,2.3-5,3.2h5.9l0.6-1.6c0.1-0.5,0.4-0.8,0.8-1c0.3-0.2,0.7-0.3,1.1-0.1
			c0.4,0.1,0.7,0.3,0.9,0.7c0.2,0.4,0.3,0.8,0.1,1.3L166,23.8z M170.2,6.2V4.9h-9.1v1.3H170.2z"></path>
				<path class="webackers-black" d="M196.2,25.7c0.4,0.1,0.7,0.3,1,0.7c0.2,0.4,0.3,0.7,0.2,1.1s-0.4,0.8-0.8,1c-2.2,1.4-5,2.8-8.5,4
			c-0.6,0.2-1,0.2-1.3,0c-0.4-0.2-0.7-0.5-0.8-0.9s-0.1-0.8,0-1.2c0.2-0.4,0.6-0.7,1.1-0.8c3.4-1.2,6.1-2.5,8-3.7
			C195.4,25.7,195.9,25.6,196.2,25.7z M191,24.5c-0.7-0.1-1.2-0.3-1.7-0.7c-0.6-0.6-0.8-1.1-0.8-1.7v-18c-0.1-0.6,0.2-1.2,0.8-1.8
			c0.5-0.5,1-0.8,1.7-0.7h21.3c0.8,0,1.3,0.3,1.7,0.8c0.4,0.6,0.6,1.1,0.7,1.7v18c0,0.6-0.2,1.2-0.7,1.7c-0.6,0.5-1.1,0.8-1.7,0.8
			L191,24.5L191,24.5z M211.6,8.3V5.6c0-0.3-0.1-0.6-0.3-0.8c-0.2-0.2-0.5-0.3-0.8-0.3h-17.8c-0.3,0-0.6,0.1-0.8,0.3
			c-0.2,0.2-0.3,0.4-0.3,0.8v2.7H211.6L211.6,8.3z M211.6,14.9v-3.7h-20v3.7H211.6z M191.6,17.9v2.5c0,0.3,0.1,0.6,0.3,0.8
			s0.5,0.3,0.8,0.3h17.8c0.3,0,0.6-0.1,0.8-0.3c0.2-0.2,0.3-0.5,0.3-0.8v-2.5H191.6z M205.8,28c-0.2-0.3-0.3-0.7-0.1-1.1
			c0.1-0.4,0.4-0.7,0.7-0.9c0.4-0.2,0.8-0.2,1.2,0l0.8,0.3c5.9,2.3,9,3.8,9.2,4.5c0.1,0.4,0.1,0.8-0.1,1.1
			c-0.2,0.4-0.5,0.6-0.9,0.8c-0.4,0.1-0.8,0-1.2-0.2c-3.3-1.8-6.2-3-8.5-3.7C206.4,28.5,206.1,28.3,205.8,28z"></path>
				<path class="webackers-black" d="M239,31.4c0,0.5-0.1,0.9-0.4,1.2c-0.3,0.3-0.6,0.4-1,0.4s-0.8-0.1-1.1-0.4c-0.3-0.3-0.4-0.7-0.4-1.2v-8.1
			c-2.1,1.9-4.1,3.4-5.9,4.4c-4.3,2.6-7.1,3.7-8.2,3.2c-0.3-0.2-0.6-0.6-0.7-1c-0.1-0.4-0.1-0.8,0.1-1.2c0.2-0.4,0.6-0.6,1-0.8
			c4.3-1.4,8.1-3.7,11.6-6.6h-11c-0.5,0-0.8-0.1-1.1-0.4s-0.3-0.6-0.3-1c0-0.3,0.1-0.7,0.3-1c0.3-0.3,0.6-0.4,1.1-0.4h13.1V16h-9.6
			c-0.6,0-1-0.3-1.4-0.7c-0.4-0.5-0.6-1-0.6-1.7v-10c0-0.6,0.2-1,0.6-1.4c0.4-0.3,0.9-0.6,1.4-0.6h21.8c0.7-0.1,1.2,0.2,1.7,0.6
			c0.4,0.3,0.6,0.8,0.6,1.4V14c0,0.6-0.3,1.2-0.8,1.6c-0.5,0.5-1,0.7-1.6,0.7H239v2.4h12.7c0.4,0,0.8,0.1,1,0.4
			c0.3,0.3,0.4,0.6,0.4,1s-0.1,0.8-0.4,1c-0.3,0.3-0.6,0.4-1,0.4h-10.5c1.2,1.1,2.3,2,3.4,2.8c1.9,1.3,4.5,2.6,7.9,3.9
			c0.5,0.2,0.8,0.5,1,0.9c0.1,0.4,0.1,0.8,0,1.2c-0.2,0.5-0.5,0.8-0.8,0.9c-0.4,0.2-0.8,0.1-1.3-0.1c-4.6-1.9-8.8-4.5-12.4-7.8
			L239,31.4L239,31.4z M236.1,4.5h-7.4c-0.5-0.1-0.8,0.1-0.9,0.3c-0.2,0.3-0.3,0.6-0.3,0.9v2.1h8.6L236.1,4.5L236.1,4.5z
				M236.1,10.3h-8.6v2.1c0,0.3,0.1,0.6,0.3,0.8s0.5,0.3,0.9,0.3h7.4L236.1,10.3L236.1,10.3z M239,7.6h8.6v-2c0-0.3-0.1-0.6-0.3-0.8
			c-0.2-0.3-0.5-0.3-0.9-0.3H239V7.6L239,7.6z M239,13.6h7.5c0.4,0,0.7-0.1,0.9-0.3s0.3-0.5,0.3-0.8v-2.2h-8.6L239,13.6L239,13.6z"></path>
			</g>
			<g>
				<path class="webackers-black" d="M114.5,40.5c-0.1-0.2-0.1-0.3-0.1-0.5c0-0.5,0.4-1,1-1c0.7,0,1,0.4,1.2,1l1.2,6.2l0,0l1.9-6.4
			c0.1-0.6,0.6-0.8,1.2-0.8s1,0.3,1.2,0.8l1.9,6.4l0,0l1.2-6.2c0.1-0.6,0.5-1,1.2-1c0.6,0,1,0.5,1,1c0,0.2,0,0.3-0.1,0.5l-1.9,8
			c-0.1,0.6-0.6,1.2-1.4,1.2c-0.7,0-1.2-0.5-1.4-1L121,43l0,0l-1.7,5.6c-0.2,0.6-0.8,1-1.4,1c-0.8,0-1.3-0.6-1.4-1.2L114.5,40.5z"></path>
				<path class="webackers-black" d="M130.8,46.3c0.1,1,1,1.5,2,1.5c1.1,0,1.8-0.8,2.4-0.8c0.5,0,0.8,0.5,0.8,0.9c0,0.9-1.9,1.8-3.4,1.8
			c-2.3,0-3.9-1.7-3.9-4.1c0-2.1,1.5-4.1,3.8-4.1s3.8,2.1,3.8,3.9c0,0.6-0.3,1-0.9,1L130.8,46.3L130.8,46.3z M134.1,44.9
			c-0.1-0.9-0.7-1.6-1.7-1.6s-1.6,0.7-1.7,1.6H134.1z"></path>
				<path class="webackers-black" d="M138.5,40.2c0-0.7,0.5-1.1,1.2-1.1h2.8c1.5,0,2.8,1,2.8,2.5c0,1-0.4,1.7-1.4,2.1l0,0
			c1.2,0.2,2.2,1.2,2.2,2.5c0,2.1-1.4,3.2-3.4,3.2h-3c-0.7,0-1.2-0.4-1.2-1.1L138.5,40.2L138.5,40.2z M140.7,43.3h1.2
			c0.7,0,1.2-0.4,1.2-1.2c0-0.7-0.6-1-1.2-1h-1.2V43.3z M140.7,47.6h1.7c0.8,0,1.4-0.5,1.4-1.2s-0.6-1.2-1.5-1.2h-1.5L140.7,47.6
			L140.7,47.6z"></path>
				<path class="webackers-black" d="M155.4,48.2c0,0.6,0,1.4-1,1.4c-0.6,0-0.8-0.3-1-0.9c-0.6,0.6-1.2,1-2,1c-2,0-3.4-1.7-3.4-4.1
			c0-2.3,1.5-4.1,3.4-4.1c0.8,0,1.5,0.3,2,1c0.1-0.5,0.5-0.9,1-0.9c1,0,1,0.8,1,1.4V48.2z M151.7,47.8c1.1,0,1.7-1.1,1.7-2.1
			s-0.5-2.1-1.7-2.1s-1.7,1.2-1.7,2.1C150.1,46.6,150.6,47.8,151.7,47.8z"></path>
				<path class="webackers-black" d="M163.4,43.9c-0.6,0-1-0.4-1.7-0.4c-1.2,0-1.8,1-1.8,2.1c0,1,0.6,2.1,1.8,2.1c0.6,0,1.3-0.4,1.6-0.4
			c0.5,0,0.9,0.4,0.9,0.9c0,1.1-1.8,1.4-2.5,1.4c-2.3,0-3.8-1.9-3.8-4.1c0-2.1,1.5-4.1,3.8-4.1c0.8,0,2.5,0.3,2.5,1.3
			C164.1,43.3,163.8,43.9,163.4,43.9z"></path>
				<path class="webackers-black" d="M166.3,39.5c0-0.7,0.4-1.2,1-1.2s1,0.5,1,1.2v4.9l2.3-2.2c0.3-0.3,0.7-0.5,1-0.5c0.6,0,0.9,0.5,0.9,1
			c0,0.3-0.1,0.6-0.4,0.8l-1.9,1.7l2.5,2.9c0.2,0.2,0.3,0.5,0.3,0.7c0,0.6-0.4,1-1,1c-0.4,0-0.7-0.2-1-0.6l-2.5-3.2l0,0v2.5
			c0,0.7-0.4,1.2-1,1.2s-1-0.5-1-1.2L166.3,39.5C166.4,39.5,166.3,39.5,166.3,39.5z"></path>
				<path class="webackers-black" d="M176.8,46.3c0.1,1,1,1.5,2,1.5c1.1,0,1.8-0.8,2.4-0.8c0.5,0,0.9,0.5,0.9,0.9c0,0.9-1.9,1.8-3.4,1.8
			c-2.3,0-3.9-1.7-3.9-4.1c0-2.1,1.5-4.1,3.8-4.1s3.8,2.1,3.8,3.9c0,0.6-0.3,1-0.9,1L176.8,46.3L176.8,46.3z M180.1,44.9
			c-0.1-0.9-0.7-1.6-1.7-1.6s-1.6,0.7-1.7,1.6H180.1z"></path>
				<path class="webackers-black" d="M184.4,42.7c0-0.7,0.6-1,1.1-1s1,0.2,1,0.9l0,0c0.4-0.6,0.8-0.9,1.4-0.9c0.5,0,1,0.3,1,1.1
			c0,0.7-0.6,0.8-1.2,1c-0.6,0.3-1.2,0.6-1.2,1.4v3.2c0,0.7-0.4,1.2-1,1.2s-1-0.5-1-1.2L184.4,42.7L184.4,42.7z"></path>
				<path class="webackers-black" d="M195.1,44c-0.4,0-1.2-0.6-1.9-0.6c-0.4,0-0.7,0.2-0.7,0.6c0,1,3.7,0.8,3.7,3.2c0,1.4-1.2,2.5-3,2.5
			c-1.2,0-3-0.7-3-1.7c0-0.3,0.3-1,0.9-1c0.8,0,1.2,0.7,2.2,0.7c0.6,0,0.8-0.2,0.8-0.6c0-1-3.7-0.8-3.7-3.2c0-1.4,1.2-2.5,2.8-2.5
			c1,0,2.6,0.5,2.6,1.5C195.9,43.6,195.6,44,195.1,44z"></path>
			</g>
		</g>
	</g>
</svg>