<?xml version="1.0" encoding="utf-8"?>
<svg version="1.1" id="wegamers" xmlns="http://www.w3.org/2000/svg" xmlns:xlink="http://www.w3.org/1999/xlink" x="0px" y="0px"
	 viewBox="0 0 1028.5 353.1" style="enable-background:new 0 0 1028.5 353.1;" xml:space="preserve">
	<style type="text/css">
		.wegamers{fill:#D0541A;}
	</style>
	<g>
		<g>
			<g>
				<path class="wegamers" d="M7.5,298.7l-0.9-4.7c-0.2-1.1-0.5-2.7-1-4.7L1.5,270L0,263.5c2.2,0,3.9,0.1,5.3,0.1c1.5,0,3.3,0,5.3-0.1
					c0.5,2.8,0.8,4.8,1.1,6.1l2.2,10.4c0.4,2.2,0.9,4.9,1.5,8.2l0.8-3.6l3.1-11.9l2.1-9.2c2.4,0,4.3,0.1,6,0.1c1.8,0,3.7,0,5.9-0.1
					l1.6,10.8l2.2,13.8l1-3.8c0.2-0.7,0.4-1.3,0.6-2c0.2-0.7,0.6-2,1.3-4l3.1-9.9l1.5-5c2.1,0,3.8,0,5.1,0c1.5,0,3.2,0,5.1,0
					l-10,29.9l-1.6,5.2c-2.6,0-4.8-0.1-6.7-0.1c-2,0-4.3,0-6.7,0.1l-0.6-3.5l-2.3-12.3c-0.1-0.7-0.2-1.5-0.3-2.3
					c-0.1-0.8-0.2-2-0.4-3.6l-0.9,4c-0.2,0.9-0.5,1.8-0.7,2.7l-4.1,15c-2.6,0-4.7-0.1-6.5-0.1C12.2,298.6,10,298.6,7.5,298.7z"/>
				<path class="wegamers" d="M57.8,298.7c0.4-4.4,0.7-8.1,0.9-11.1c0.2-3,0.4-7,0.6-11.9c0.2-4.9,0.3-8.2,0.3-9.8l0-2.3
					c4,0,8.9,0.1,14.7,0.1c5.3,0,10,0,14-0.1l-0.1,0.8c0,0.2-0.1,1-0.1,2.2l-0.2,2.8c0,0.6-0.1,1.2-0.1,1.8c-3.3-0.1-6.1-0.2-8.3-0.2
					c-2.5,0-4.1,0-5,0c-0.9,0-2.2,0-4.1,0.1l-0.3,5.9c2,0.1,4.4,0.1,7.1,0.1c1,0,3.5-0.1,7.7-0.2c-0.2,2.2-0.3,4.8-0.5,7.8
					c-3,0-5.2-0.1-6.8-0.1c-2.4,0-5,0.1-7.9,0.2l-0.3,6.3h3c0.9,0,2.7,0,5.4-0.1l5.3-0.1c0.8,0,2.1-0.1,4-0.2
					c-0.2,2.5-0.4,5.2-0.5,7.9c-4.2,0-8.8-0.1-13.8-0.1l-11.3,0L57.8,298.7z"/>
				<path class="wegamers" d="M113.3,278.2c2.4,0,4.6,0.1,6.7,0.1c3.6,0,6.5,0,8.5-0.1c-0.2,2.4-0.4,5.7-0.7,10c-0.2,4.3-0.4,7.6-0.4,9.8
					c-2,0.4-3.6,0.6-4.9,0.8c-1.3,0.2-2.9,0.3-4.7,0.4c-1.8,0.1-3.4,0.2-4.9,0.2c-2.3,0-4.6-0.2-6.9-0.6c-2.2-0.4-4.3-1-6-1.8
					c-1.8-0.8-3.3-2-4.4-3.4c-1.2-1.4-2.1-3.1-2.7-5.1c-0.6-2-1-4-1-6.1c0-3.5,0.9-6.7,2.6-9.7c1.7-3,4.2-5.3,7.5-7.1
					c3.2-1.7,7.4-2.6,12.6-2.6c3.8,0,7.9,0.5,12.5,1.4c0,2.5,0.1,5.3,0.3,8.4c-1.2-0.4-2.2-0.7-3-0.9c-0.8-0.2-1.7-0.4-2.7-0.6
					c-1-0.2-2-0.3-2.9-0.4c-0.9-0.1-1.7-0.1-2.5-0.1c-1.9,0-3.7,0.3-5.4,0.8c-1.7,0.5-3.1,1.4-4.3,2.5c-1.2,1.1-2.1,2.5-2.7,4
					c-0.6,1.6-0.9,3.2-0.9,4.9c0,1.8,0.3,3.3,1,4.7c0.7,1.4,1.8,2.4,3.3,3.1c1.5,0.7,3.2,1.1,5,1.1c1.5,0,3.2-0.2,5-0.7l0.3-5.6
					c-1.1-0.1-1.8-0.1-2-0.1l-2.7,0l0.2-3.2c0-0.3,0-0.8,0.1-1.5C113.2,280.2,113.3,279.3,113.3,278.2z"/>
				<path class="wegamers" d="M129.1,298.7l2.1-3.7l13.3-25.1l1.4-2.8c0.4-0.8,1-2,1.7-3.5c3,0,5.2,0.1,6.6,0.1c2.4,0,4.7,0,6.7-0.1
					l3.8,10.7l7.6,20.6l1.5,3.8c-3,0-4.8-0.1-5.4-0.1c-1.4,0-3.6,0-6.4,0.1c-0.8-2.8-1.8-6.2-3.3-10h-13c-1.5,3-3,6.3-4.6,10
					c-3.2,0-5.2-0.1-5.9-0.1C134.1,298.6,132,298.6,129.1,298.7z M149,281.2h8c-2-6-3.1-9.4-3.3-10c-1.1,2.5-2.1,4.6-2.9,6.2
					L149,281.2z"/>
				<path class="wegamers" d="M176,298.7l0.6-5.2l1.6-18l0.8-11.9c3.2,0,5.7,0.1,7.5,0.1c1.5,0,3.8,0,6.9-0.1c0.2,1.5,0.4,2.6,0.6,3.4
					c0.2,0.8,0.5,2.3,1.1,4.5c0.6,2.2,1.1,4.1,1.5,5.8c0.4,1.6,0.9,4.4,1.7,8.3c0.8-2.7,1.4-5,2.1-6.9c0.6-1.9,1.4-4.1,2.3-6.6
					c0.9-2.5,1.5-4.1,1.8-4.9c0.2-0.8,0.6-1.9,1-3.5c2.6,0,5.1,0.1,7.6,0.1c1.7,0,4,0,7-0.1c-0.3,5.8-0.5,10.7-0.6,14.9
					c-0.2,8.1-0.3,13.7-0.3,16.8c0,0.6,0,1.8,0.1,3.4c-2.3,0-3.9-0.1-4.8-0.1c-1.3,0-2.9,0-4.9,0.1c0.1-1.5,0.3-5.2,0.5-11
					c0.2-5.8,0.3-9.5,0.3-11.1c0-0.7,0-1.7-0.1-2.9l-3.4,10.5l-4.8,14.6c-2.2,0-3.8-0.1-4.6-0.1c-1.1,0-2.7,0-4.9,0.1l-3.2-14.2
					l-1.9-7.5c-0.1-0.3-0.1-0.7-0.2-1.1c-0.1-0.4-0.2-1.2-0.4-2.3l-0.6,7.1l-0.9,14.6l-0.1,3.3c-2.4,0-3.9-0.1-4.5-0.1
					C179.8,298.6,178.2,298.6,176,298.7z"/>
				<path class="wegamers" d="M225.1,298.7c0.4-4.4,0.7-8.1,0.9-11.1c0.2-3,0.4-7,0.6-11.9c0.2-4.9,0.3-8.2,0.3-9.8l0-2.3
					c4,0,8.9,0.1,14.7,0.1c5.3,0,10,0,14-0.1l-0.1,0.8c0,0.2-0.1,1-0.1,2.2l-0.2,2.8c0,0.6-0.1,1.2-0.1,1.8c-3.3-0.1-6.1-0.2-8.3-0.2
					c-2.5,0-4.1,0-5,0c-0.9,0-2.2,0-4.1,0.1l-0.3,5.9c2,0.1,4.4,0.1,7.1,0.1c1,0,3.5-0.1,7.7-0.2c-0.2,2.2-0.3,4.8-0.5,7.8
					c-3,0-5.2-0.1-6.8-0.1c-2.4,0-5,0.1-7.9,0.2l-0.3,6.3h3c0.9,0,2.7,0,5.4-0.1l5.3-0.1c0.8,0,2.1-0.1,4-0.2
					c-0.2,2.5-0.4,5.2-0.5,7.9c-4.2,0-8.8-0.1-13.8-0.1l-11.3,0L225.1,298.7z"/>
				<path class="wegamers" d="M259.8,298.7c0.3-3,0.6-5.7,0.8-8.2c0.2-2.4,0.4-5.2,0.5-8.4c0.1-3.2,0.2-6.6,0.3-10.1
					c0.1-3.5,0.1-6.4,0.1-8.5c2.1,0.1,3.9,0.1,5.2,0.1c1.4,0,3,0,5-0.1c2-0.1,3.9-0.1,5.8-0.1c2.2,0,4.2,0.1,5.9,0.3
					c1.3,0.1,2.5,0.4,3.5,0.7c1.1,0.4,1.9,0.8,2.7,1.4c0.7,0.5,1.3,1.1,1.8,1.8c0.5,0.7,0.9,1.5,1.1,2.4c0.3,0.9,0.4,1.9,0.4,2.9
					c0,1.1-0.1,2.2-0.4,3.2s-0.8,1.9-1.4,2.8c-0.6,0.9-1.4,1.6-2.4,2.3s-2.3,1.3-4,2l1.3,3.3c0.4,0.9,0.8,1.8,1.2,2.8l3.4,7.5
					c0.2,0.3,0.4,1,0.8,1.9c-2.8,0-4.7-0.1-5.7-0.1c-1.2,0-3.3,0-6.1,0.1c-0.3-0.9-0.8-2.5-1.5-5c-0.3-1-0.5-1.8-0.7-2.3
					c-0.4-1.2-1-2.9-1.8-5.1L273,279c0.9,0.2,1.8,0.3,2.7,0.3c1.3,0,2.4-0.2,3.4-0.6c1-0.4,1.8-1,2.3-1.8c0.5-0.8,0.8-1.6,0.8-2.5
					c0-0.7-0.2-1.4-0.6-1.9s-1-1-1.9-1.2c-0.8-0.3-2.2-0.4-3.9-0.4c-0.6,0-1.2,0-1.9,0c-0.6,0-1.4,0-2.3,0.1
					c-0.2,3.5-0.4,7.8-0.6,12.9s-0.3,10-0.3,14.9c-2.9,0-4.7-0.1-5.6-0.1C264.2,298.6,262.4,298.6,259.8,298.7z"/>
				<path class="wegamers" d="M296.5,298.1c-0.2-3.7-0.5-6.6-0.8-8.8c1.9,0.9,3.6,1.5,5.1,1.8c1.5,0.3,2.8,0.5,4,0.5
					c1.5,0,2.7-0.2,3.6-0.7c0.9-0.4,1.3-1.1,1.3-1.9c0-0.3,0-0.6-0.1-0.8c-0.1-0.3-0.3-0.6-0.5-0.9c-0.2-0.3-0.6-0.7-1-1.1l-4.8-4.2
					c-1.1-1-1.9-1.7-2.4-2.1c-0.9-0.9-1.6-1.7-2.1-2.4c-0.5-0.8-0.9-1.5-1.1-2.3c-0.2-0.8-0.3-1.6-0.3-2.5c0-1,0.2-2.1,0.6-3.1
					c0.4-1,0.9-1.9,1.7-2.8c0.7-0.9,1.7-1.6,2.9-2.3c1.2-0.6,2.5-1.1,3.9-1.3c1.4-0.2,2.8-0.3,4.3-0.3c2.9,0,6.1,0.3,9.5,1
					c0.1,1.2,0.1,2.3,0.2,3.3c0.1,1,0.2,2.7,0.5,5.2c-1.6-0.6-3-1.1-4.3-1.3c-1.3-0.2-2.4-0.4-3.4-0.4c-1.3,0-2.4,0.2-3.3,0.7
					c-0.9,0.5-1.3,1.1-1.3,1.9c0,0.3,0.1,0.7,0.2,1c0.1,0.3,0.4,0.7,0.8,1.1c0.4,0.4,0.9,0.9,1.5,1.4c0.6,0.5,1.6,1.3,2.9,2.3
					l1.9,1.5c0.5,0.4,1.1,1,1.8,1.6c0.6,0.6,1.2,1.3,1.6,1.9c0.5,0.6,0.8,1.2,1.1,1.7c0.2,0.5,0.4,1,0.6,1.6c0.1,0.5,0.2,1.1,0.2,1.7
					c0,1.5-0.4,3-1.1,4.4c-0.7,1.4-1.8,2.5-3.1,3.4c-1.4,0.9-2.8,1.5-4.5,1.9c-1.6,0.4-3.3,0.5-5.1,0.5
					C304.2,299.3,300.7,298.9,296.5,298.1z"/>
				<path class="wegamers" d="M347.9,264.4v9.3l-12.9,7.1l12.9,7.1l0,9.3L325,284.7v-7.8L347.9,264.4z"/>
				<path class="wegamers" d="M353,298c-0.2-3.5-0.4-6.3-0.7-8.3c3.8,1.3,7.3,1.9,10.4,1.9c1.9,0,3.4-0.4,4.6-1.1c1.2-0.8,1.8-1.8,1.8-3.1
					c0-1.3-0.6-2.2-1.8-2.8c-1.2-0.6-3-0.9-5.6-0.9c-1.6,0-3.1,0.1-4.5,0.3c0.2-2.7,0.4-5.3,0.6-7.9c1.2,0.2,2.5,0.3,3.9,0.3
					c1.5,0,2.8-0.1,3.8-0.3c1-0.2,1.8-0.6,2.3-1.2c0.5-0.6,0.8-1.2,0.8-1.9c0-0.6-0.2-1.1-0.6-1.6c-0.4-0.5-1.1-0.8-1.9-1
					c-0.8-0.2-1.9-0.3-3.1-0.3c-1.1,0-2.2,0.1-3.4,0.2c-1.2,0.1-2.9,0.4-5,0.8l1.3-6c0.1-0.5,0.2-1.1,0.3-1.7
					c3.7-0.4,7.1-0.7,10.2-0.7c2,0,4,0.1,5.8,0.4c1.9,0.3,3.5,0.8,4.8,1.5c1.3,0.7,2.3,1.7,2.9,2.8c0.6,1.2,0.9,2.5,0.9,3.9
					c0,0.9-0.1,1.7-0.3,2.5c-0.2,0.8-0.6,1.6-1.1,2.3c-0.5,0.7-1,1.3-1.7,1.8c-0.7,0.5-1.3,1-1.9,1.3c-0.6,0.3-1.4,0.7-2.5,1.1
					c1.1,0.2,1.9,0.5,2.5,0.7c0.6,0.2,1.2,0.6,1.8,1c0.6,0.5,1.1,1,1.6,1.6c0.4,0.6,0.7,1.3,1,2c0.2,0.8,0.3,1.6,0.3,2.4
					c0,1.7-0.4,3.3-1.2,4.7c-0.8,1.4-1.9,2.6-3.4,3.6c-1.5,1-3.3,1.6-5.2,2c-2,0.4-3.9,0.6-5.9,0.6c-1.9,0-3.8-0.1-5.5-0.3
					C357.6,298.8,355.5,298.5,353,298z"/>
			</g>
			<path class="wegamers" d="M182.5,14.8c23.5,0,46.9-0.3,70.4,0.1c16.7,0.2,32.1,5.2,45.3,15.9c14.4,11.6,22.7,26.6,26,44.6
				c6.9,37.7,13.9,75.3,20.9,113c4.8,25.6-9.9,48.9-34.9,54.1c-17.9,3.7-33.1-2-44.7-16.1c-4.5-5.5-8.5-11.5-12.7-17.3
				c-2.1-2.9-2.6-6.1-0.7-9.3c1.8-2.9,4.6-4.6,7.8-3.7c2.4,0.7,4.9,2.5,6.5,4.4c4,4.8,7.4,10.2,11.2,15.1
				c7.3,9.5,17.2,13.5,28.9,11.2c12-2.3,19.6-10,22.7-21.8c1.8-6.6,0.2-13.1-1.1-19.6c-6.8-36.3-13.4-72.7-20.5-109
				c-4.8-24.9-25-42.5-50.2-44.9c-3.1-0.3-6.2-0.4-9.2-0.4c-43.7,0-87.5,0-131.2,0c-15.7,0-29.4,4.7-40.9,15.6
				c-10,9.5-14.7,21.5-17.1,34.9c-6.6,36.5-13.5,72.9-20.3,109.4c-3.2,17,5.1,31,21.1,35.6c10.7,3.1,23-1.1,30.1-10.3
				c3.9-5.1,7.4-10.4,11.3-15.5c3.8-5,9.6-5.3,13.2-0.8c2.1,2.6,2.7,5.8,0.9,8.3c-6.3,9.1-11.6,19.2-20.8,25.9
				c-15.2,11.2-31.7,12.9-48.5,4.1c-16.5-8.6-25-22.9-24-41.5c0.6-11.3,3.4-22.6,5.5-33.8c5.4-29.1,10.8-58.2,16.3-87.3
				C49.4,46.6,66,26.9,94.3,18c7-2.2,14.7-2.9,22.1-3.1C138.4,14.6,160.5,14.8,182.5,14.8z"/>
			<path class="wegamers" d="M128.5,86.7c0,4.7,0,9.1,0,13.5c0,5.3-3.3,9.1-7.9,9.2c-4.8,0.1-8.3-3.6-8.4-9.1c-0.1-4.4,0-8.8,0-13.6
				c-4.3,0-8.4,0.1-12.4,0c-1.8-0.1-3.8-0.2-5.5-0.9c-3.4-1.4-5.3-5.2-4.7-8.6c0.7-3.7,4-6.6,7.9-6.7c4.7-0.1,9.4,0,14.7,0
				c0-4.7-0.1-9.1,0-13.6c0.1-4.7,2.6-8.1,6.4-8.9c5.1-1.1,9.7,2.6,9.9,8c0.1,4.7,0,9.4,0,14.5c4.6,0,9,0,13.4,0
				c5.6,0,9.3,3.2,9.3,8.1c0,4.8-3.6,8.1-9.2,8.2C137.6,86.7,133.2,86.7,128.5,86.7z"/>
			<path class="wegamers" d="M226.1,91c-6.1,0.1-11-4.7-11.1-10.7c-0.1-6,4.8-11,10.8-11.1c5.9-0.1,11,4.9,11.1,10.8
				C237,86.1,232.2,91,226.1,91z"/>
			<path class="wegamers" d="M248.4,113.5c-6.1,0-10.8-4.8-10.8-10.9c0-6,5-11,10.9-10.9c5.9,0,10.9,5.1,10.9,11
				C259.3,108.7,254.4,113.5,248.4,113.5z"/>
			<path class="wegamers" d="M248.3,68.6c-6.1,0-10.8-4.9-10.8-11c0-6,5-11,11-10.9c5.9,0.1,10.9,5.1,10.9,11.1
				C259.3,63.8,254.4,68.6,248.3,68.6z"/>
			<path class="wegamers" d="M270.9,91c-6.1,0-10.9-4.8-10.9-10.9c0-6,4.9-11,10.9-11c5.9,0,11,5,11,11C281.9,86.2,277,91,270.9,91z"/>
			<g>
				<g>
					<path class="wegamers" d="M131.7,230.1H124c-0.9,0-1.6-0.7-1.6-1.6c0-0.9,0.7-1.6,1.6-1.6h6.2l1.7-14c0.1-0.9,0.9-1.5,1.8-1.4
						c0.9,0.1,1.5,0.9,1.4,1.8l-1.9,15.4C133.2,229.5,132.5,230.1,131.7,230.1z"/>
				</g>
				<g>
					<path class="wegamers" d="M151.9,230.1h-5.6c-0.9,0-1.6-0.7-1.6-1.6V212c0-0.9,0.7-1.6,1.6-1.6c0.9,0,1.6,0.7,1.6,1.6v14.8h4
						c0.9,0,1.6,0.7,1.6,1.6C153.5,229.4,152.8,230.1,151.9,230.1z"/>
				</g>
				<g>
					<path class="wegamers" d="M140.3,216c-13.6,0-24.7-11.1-24.7-24.7c0-13.6,11.1-24.7,24.7-24.7s24.7,11.1,24.7,24.7
						C164.9,204.9,153.9,216,140.3,216z M140.3,183.9c-4.1,0-7.4,3.3-7.4,7.4c0,4.1,3.3,7.4,7.4,7.4s7.4-3.3,7.4-7.4
						C147.6,187.2,144.3,183.9,140.3,183.9z"/>
				</g>
			</g>
			<g>
				<g>
					<path class="wegamers" d="M220.4,230.3h-7.1c-0.8,0-1.5-0.7-1.5-1.5c0-0.8,0.7-1.5,1.5-1.5h5.8l1.6-12.9c0.1-0.8,0.9-1.4,1.7-1.3
						c0.8,0.1,1.4,0.9,1.3,1.7l-1.8,14.3C221.8,229.8,221.1,230.3,220.4,230.3z"/>
				</g>
				<g>
					<path class="wegamers" d="M239.1,230.3h-5.2c-0.8,0-1.5-0.7-1.5-1.5v-15.3c0-0.8,0.7-1.5,1.5-1.5c0.8,0,1.5,0.7,1.5,1.5v13.8h3.7
						c0.8,0,1.5,0.7,1.5,1.5C240.6,229.7,240,230.3,239.1,230.3z"/>
				</g>
				<g>
					<path class="wegamers" d="M228.3,217.2c-12.6,0-22.9-10.3-22.9-22.9s10.3-22.9,22.9-22.9s22.9,10.3,22.9,22.9
						S240.9,217.2,228.3,217.2z M228.3,187.5c-3.8,0-6.8,3.1-6.8,6.8s3.1,6.8,6.8,6.8s6.8-3.1,6.8-6.8S232.1,187.5,228.3,187.5z"/>
				</g>
			</g>
			<g>
				<g>
					<path class="wegamers" d="M179.8,230.2h-6.1c-0.7,0-1.3-0.6-1.3-1.3s0.6-1.3,1.3-1.3h5l1.4-11.1c0.1-0.7,0.7-1.2,1.5-1.1
						c0.7,0.1,1.2,0.7,1.1,1.5l-1.5,12.2C181,229.8,180.4,230.2,179.8,230.2z"/>
				</g>
				<g>
					<path class="wegamers" d="M195.8,230.2h-4.5c-0.7,0-1.3-0.6-1.3-1.3v-13.1c0-0.7,0.6-1.3,1.3-1.3s1.3,0.6,1.3,1.3v11.8h3.2
						c0.7,0,1.3,0.6,1.3,1.3S196.5,230.2,195.8,230.2z"/>
				</g>
				<g>
					<path class="wegamers" d="M186.6,219c-10.8,0-19.6-8.8-19.6-19.6c0-10.8,8.8-19.6,19.6-19.6c10.8,0,19.6,8.8,19.6,19.6
						C206.1,210.2,197.4,219,186.6,219z M186.6,193.6c-3.2,0-5.8,2.6-5.8,5.8c0,3.2,2.6,5.8,5.8,5.8s5.8-2.6,5.8-5.8
						C192.4,196.2,189.8,193.6,186.6,193.6z"/>
				</g>
			</g>
		</g>
		<g>
			<g>
				<path class="wegamers" d="M912.3,35c-0.3,0-0.6-0.1-0.9-0.2c-0.6-0.3-1-1-0.9-1.6l0.5-10.2l-8.2-6.2c-0.5-0.4-0.8-1.1-0.7-1.8
					c0.1-0.7,0.6-1.2,1.3-1.4l9.9-2.7l3.3-9.7c0.2-0.6,0.8-1.1,1.5-1.2c0.7-0.1,1.3,0.2,1.7,0.8l5.6,8.5l10.2,0.2
					c0.7,0,1.3,0.4,1.6,1c0.3,0.6,0.2,1.3-0.2,1.9l-6.4,8l3,9.8c0.2,0.6,0,1.4-0.5,1.8c-0.5,0.5-1.2,0.6-1.8,0.4l-9.6-3.6l-8.4,5.9
					C913,34.9,912.6,35,912.3,35z M907.8,16.1l6,4.6c0.5,0.4,0.7,0.9,0.7,1.5l-0.3,7.6l6.2-4.3c0.5-0.3,1.1-0.4,1.6-0.2l7.1,2.7
					l-2.2-7.2c-0.2-0.6-0.1-1.2,0.3-1.6l4.7-5.9l-7.6-0.1c-0.6,0-1.1-0.3-1.5-0.8l-4.2-6.3l-2.5,7.2c-0.2,0.6-0.6,1-1.2,1.1
					L907.8,16.1z M914.6,12.3L914.6,12.3L914.6,12.3z"/>
			</g>
			<g>
				<g>
					<path class="wegamers" d="M942.1,215.2c0-1,0-1.6,0-2.5c-3.3-0.1-6.5-0.1-9.7-0.1c-2.1,0-4.2,0.1-5.9-1.8c-0.5-0.6-1.8-0.5-2.8-0.5
						c-5.9-0.2-6.4-0.7-6.5-6.7c0-2.3-0.1-4.7-0.1-7c0-3.7,0.7-4.4,4.4-4.4c11.3,0,22.6,0.1,33.9,0.1c1.1,0,2.1,0,3.1,0
						c0.2-1.1,0.3-2,0.6-2.8c0.7-2.1,2.1-3.5,4.5-3.6c4-0.1,8-0.1,12,0c2.8,0.1,4.5,1.7,5,4.4c0.1,0.3,0,0.6,0.1,0.9
						c0.1,0.3,0.2,0.5,0.3,1.1c1,0,2,0.1,3,0.1c12,0.1,23.9,0.1,35.9,0.2c5,0,5.7,0.7,5.9,5.7c0.1,3.1,0.2,6.2,0.2,9.3
						c0,2.9-0.9,3.9-3.8,4c-1.3,0.1-2.5,0-3.8,0c-1.2,0-2.3,0-3.1,1.1c-0.9,1.2-2.4,1.1-3.8,1.1c-3.9,0-7.8,0-11.9,0
						c-0.1,0.6-0.2,1.4-0.3,2.3c0.9,0.1,1.7,0.2,2.4,0.3c3.5,0.1,7,0.1,10.5,0.2c3.8,0.2,5.9,4.1,4,7.3c-0.8,1.3-2.1,1.6-3.5,1.6
						c-3.2-0.1-6.4-0.2-9.6-0.3c-1,0-2.1,0-3.5,0c0.9,2.3,2.4,2.8,4.2,2.8c5.6,0.1,11.3,0.3,16.9,0.4c0.4,0,0.8,0,1.2,0
						c4.9-0.2,5.3,3,4.8,6.6c-0.2,1.6-1.4,2.3-3.6,2.3c-2.4,0-4.8,0-7.7,0c0.8,0.8,1.3,1.3,1.9,1.7c2.9,2.1,5.8,4.3,8.7,6.4
						c1.6,1.1,2.3,2.5,2.3,4.4c0,1.9,0.1,3.9,0.1,5.8c0,0.3,0,0.6,0,0.9c-0.3,3.1-2.5,4.2-5.1,2.5c-1.9-1.3-3.8-2.8-5.7-4.1
						c-0.8-0.6-1.6-1.1-2.7-1.9c-0.1,1.2-0.2,2-0.2,2.8c0.2,8.4,0.5,16.7,0.7,25.1c0.1,3.7-0.3,4.2-4,5.1c1.1,2.2,2.1,4.4,3.2,6.5
						c2.3,4.8,0.7,7.3-4.6,7c-2.9-0.1-5.8-0.4-8.7-0.6c-2.4-0.2-4.2-1.3-5.4-3.5c-1.2-2.3-2.5-4.6-3.7-6.9c-0.7-1.3-1.4-2.6-2.1-4
						c-11.7-0.6-23.5-1.3-35.3-1.9c-1.3,2.7-2.5,5.2-3.8,7.7c-2.4,5-3.1,5.4-8.5,5.1c-2.1-0.1-4.3-0.2-6.4-0.4c-4.2-0.4-5.7-3-4.1-7
						c0.9-2,1.8-4.1,2.8-6.4c-3.4-0.3-4-2.4-4-5.2c-0.1-7.8-0.3-15.6-0.5-23.4c0-0.9-0.1-1.9-0.2-3c-1.5,0.1-2.3,1.2-3.3,1.8
						c-1.3,0.9-2.5,1.9-3.8,2.8c-2.5,1.7-4.5,0.9-5.1-2c-0.2-1.1-0.2-2.3-0.2-3.5c-0.2-5.9-0.8-5.4,4.5-9.4c2-1.5,4-3,5.9-5
						c-1.9-0.1-3.7-0.2-5.6-0.3c-3.8-0.2-5.7-3.1-4.2-6.7c0.7-1.7,2.1-1.8,3.6-1.8c5.4,0.1,10.9,0.2,16.3,0.4
						c1.6,0.1,2.9-0.2,3.9-1.4c0.2-0.2,0.2-0.5,0.3-1c-1.3-0.1-2.4-0.2-3.5-0.2c-2.9-0.1-5.8-0.1-8.8-0.2c-1.6,0-3-0.6-3.4-2.2
						c-0.4-1.8-0.9-3.8,0.5-5.3c0.6-0.7,1.9-0.9,2.9-1c2.9-0.1,5.8,0,8.8,0.1C939.9,215.2,940.9,215.2,942.1,215.2z M995.7,239.7
						c0.1-0.2,0.1-0.5,0.2-0.7c-1.6-1-2.8-2.4-5-2.5c-13.1-0.3-26.2-0.7-39.3-1.1c-2.1-0.1-3.5,1-5.1,2.9
						C963.2,238.7,979.4,239.2,995.7,239.7z M992.5,272.7c-13.7-0.7-27-1.3-40.5-1.9c0,1.2,0,2.1,0,3.2c13.6,0.6,27.1,1.5,40.5,1.9
						C992.5,274.6,992.5,273.9,992.5,272.7z M951.5,259c0.1,1.2,0.2,2.1,0.2,3.1c13.7,0.6,27,1.1,40.6,1.7c-0.1-1.3-0.2-2.1-0.3-3.1
						C978.5,260.1,965.2,259.5,951.5,259z M951.2,250.2c13.8,0.5,27.2,1,40.9,1.5c-0.1-1.2-0.2-2.1-0.3-3.1
						c-13.6-0.5-26.9-0.9-40.4-1.4C951.3,248.2,951.2,248.9,951.2,250.2z M976.7,201.4c-4.5,0-8.8,0-13.4,0c0.1,1,0.2,1.8,0.2,2.8
						c4.6,0,8.8,0,13.2,0C976.7,203.3,976.7,202.5,976.7,201.4z M964.1,227c4.5,0,8.8,0,13.2,0c0-0.7,0-1.4,0-2.4
						c-4.5,0-8.8,0-13.2,0C964.1,225.3,964.1,226,964.1,227z M977,213.2c-4.7,0-9,0-13.5,0c0.1,0.9,0.2,1.6,0.3,2.4
						c4.5,0,8.8,0,13.3,0C977.1,214.8,977.1,214.2,977,213.2z M941.8,201.2c-3.5-0.2-3.7,0-3.6,2.6c1.2,0,2.4,0,3.7,0
						C941.9,202.8,941.9,202.1,941.8,201.2z M999.2,201.7c0,1,0,1.8,0,2.8c1.4,0,2.5,0,3.7,0C1002.9,201.8,1002.6,201.6,999.2,201.7z
						"/>
				</g>
				<g>
					<path class="wegamers" d="M829.3,89.9c0.5-1.4,1-2.6,1.6-4.2c-1,0-1.7,0-2.5,0c-8.4,0.5-16.7,0.9-25.1,1.4c-0.8,0-1.6,0.1-2.3,0.1
						c-2-0.1-3.1-0.9-3.3-3c-0.2-2.7-0.2-5.4-0.1-8.2c0.1-2,1.1-2.8,3.3-3c2.7-0.3,5.4-0.5,8.4-0.7c-0.8-2-1.5-3.8-2.1-5.6
						c-0.3-0.8-0.7-1.6-0.9-2.5c-0.8-2.5,0.2-4.2,2.9-4.6c1.3-0.2,2.7-0.2,4.1-0.3c4-0.3,8-0.5,11.9-0.9c2.4-0.3,4,0.5,4.9,2.7
						c1,2.1,1.9,4.2,2.9,6.4c0.4,1,0.8,2,1.4,3.2c6.2-0.4,12.4-0.8,18.8-1.3c0.7-2.1,1.4-4.2,2.2-6.2c0.7-1.8,1.5-3.6,2.4-5.3
						c0.6-1.4,1.8-2,3.2-2.1c6-0.4,12-1,18-1.3c3-0.2,4.2,1.6,3.3,4.5c-0.9,2.8-1.9,5.5-3,8.6c1.3-0.1,2.2-0.1,3.2-0.2
						c2.2-0.1,4.5-0.3,6.7-0.3c2,0,3,0.6,3.1,2.4c0.3,3.2,0.3,6.4,0.2,9.6c0,1.5-1.2,2.4-2.7,2.7c-1.1,0.2-2.3,0.4-3.5,0.4
						c-8.4,0.5-16.7,0.9-25.1,1.4c-1.5,0.1-3.1,0.2-4.8,0.4c-0.5,1.4-1,2.7-1.6,4.2c0.7,0.1,1.2,0.2,1.6,0.2
						c6.6-0.3,13.2-0.7,19.8-1.1c0.2,0,0.4,0,0.6-0.1c5.4-0.4,7.3,1.3,7.5,6.7c0.3,11.9,0.5,23.7,0.8,35.6c0.2,7.2,0.4,14.4,0.5,21.6
						c0.1,5.5-1.3,7-6.8,7.1c-21.6,0.4-43.2,0.7-64.8,1c-0.4,0-0.8,0-1.2,0c-4.3-0.2-5.9-1.8-6-6.2c-0.3-11.2-0.4-22.4-0.7-33.6
						c-0.1-6.6-0.3-13.2-0.4-19.8c0-0.9-0.1-1.8,0-2.6c0.2-4,1.9-5.9,5.9-6.1c5.1-0.4,10.3-0.6,15.4-0.9
						C827.8,90.1,828.4,90,829.3,89.9z M831.6,144.5c9.2-0.2,18.2-0.4,27.2-0.6c0-1.4,0-2.5,0-3.7c-9.3,0.1-18.2,0.3-27.4,0.8
						C831.5,142.2,831.6,143.2,831.6,144.5z M831.3,126.3c9.2-0.3,18.2-0.6,27.5-0.9c-0.1-1.4-0.2-2.5-0.2-3.8
						c-9.3,0.7-18.3,0.5-27.5,1.3C831.2,124.1,831.2,125,831.3,126.3z M858.2,103.3c-9.2,0.4-18.2,0.9-27.4,1.3
						c0.1,1.4,0.1,2.4,0.2,3.5c9.2-0.4,18.1-0.8,27.2-1.3C858.2,105.7,858.2,104.7,858.2,103.3z"/>
				</g>
				<g>
					<path class="wegamers" d="M877.2,226.2c-7.7-0.2-15.2-0.4-23-0.6c0,1.2-0.1,2.3-0.1,3.3c0.2,10.3,0.4,20.6,0.5,30.9
						c0,4.5-0.6,8.9-1.9,13.2c-2.5,8.1-8,12.9-16.4,14.4c-4.9,0.9-9.9,0.6-14.8,0.4c-1.8-0.1-3.7-0.2-5.5-0.4
						c-2.7-0.3-4.3-1.9-4.4-4.5c-0.2-4.3-0.2-8.6-0.2-12.8c0-2.9,1.4-4.1,4.4-4.1c2.1,0,4.3,0.1,6.4-0.1c5.6-0.4,8.3-2.8,9.3-8.3
						c0.4-1.9,0.5-3.9,0.5-5.8c-0.1-8.4-0.3-16.7-0.5-25.1c0-0.4-0.1-0.8-0.2-1.4c-0.8-0.1-1.7-0.2-2.5-0.2
						c-4.4-0.1-8.8-0.1-13.1-0.3c-3.9-0.2-4.9-1.2-5.1-5.2c-0.2-3.9-0.2-7.8-0.1-11.7c0-3.2,1-4.2,4.2-4.2c4.3-0.1,8.6,0.1,12.8,0.1
						c1,0,2.1,0,3.4,0c0-2,0-3.7,0-5.5c0-2.6-0.1-5.3-0.1-7.9c0-3.8,1.4-5.1,5.1-5.1c4,0,8,0,12,0c3.6,0,5.1,1.4,5.3,5.1
						c0.2,3.9,0.2,7.8,0.4,11.7c0,0.6,0.1,1.1,0.2,1.8c1,0.1,1.8,0.2,2.7,0.2c12.2,0.2,24.3,0.3,36.5,0.5c6.9,0.1,7.5,0.6,7.7,7.4
						c0.4,14.7,0.7,29.4,1.1,44.1c0.3,10.6,0.5,21.2,0.8,31.8c0,0.5,0.1,1,0,1.5c-0.1,2.7-0.8,3.5-3.6,3.4c-3.1-0.1-6.2-0.3-9.3-0.5
						c-6.2-0.4-12.4-0.7-18.6-1.2c-3.6-0.2-4.4-1.1-4.5-4.7c-0.1-4.2-0.2-8.4-0.3-12.6c0-0.5,0-1,0-1.5c0.2-2.9,0.9-3.6,3.8-3.6
						c1.6,0,3.1,0.1,4.7,0.2c3.2,0.1,3.6-0.3,3.5-3.4c-0.2-9.1-0.4-18.3-0.6-27.4c-0.1-2.9-0.1-5.8-0.2-8.8
						C877.4,228.3,877.3,227.3,877.2,226.2z"/>
				</g>
				<g>
					<path class="wegamers" d="M671.5,89c0,1.7,0,3.1,0,4.8c1,0,2,0,2.9,0c4.3-0.2,8.5-0.5,12.8-0.8c0.7,0,1.4-0.1,2,0
						c1.8,0.2,2.4,0.7,2.7,2.5c0.2,1.2,0.2,2.3,0.2,3.5c0.1,10.8,0.3,21.6,0.4,32.4c0,0.6,0,1.2,0,1.8c-0.2,2.5-1.1,3.5-3.6,3.6
						c-4.6,0.2-9.1,0.3-13.7,0.5c-1,0-1.9,0.1-3,0.2c0,1.6,0,3.1,0,4.9c1.2,0,2.2,0,3.2,0c4.4-0.1,8.8-0.3,13.1-0.3
						c3.3-0.1,4,0.5,4.2,3.8c0.2,4,0.2,8,0.2,12c-0.1,2.8-0.9,3.5-3.8,3.6c-22.2,0.4-44.4,0.7-66.6,1c-3.1,0-3.8-0.6-4-3.7
						c-0.2-3.7-0.2-7.4-0.1-11.1c0-2.9,0.9-3.7,3.9-3.8c4-0.1,8-0.2,12-0.3c1,0,1.9-0.1,3-0.2c0-1.6,0-3,0-4.6
						c-0.8-0.1-1.6-0.2-2.3-0.2c-4.2,0.1-8.4,0.3-12.5,0.4c-3.1,0.1-4.1-0.8-4.2-3.8c-0.2-11.3-0.3-22.6-0.3-33.9
						c0-3.4,0.7-4,4.1-4.2c4.8-0.3,9.7-0.6,14.7-0.9c0-1.6,0-3,0-4.7c-1.2,0-2.3-0.1-3.4,0c-3.7,0.2-7.4,0.5-11.1,0.7
						c-3.5,0.2-4.4-0.6-4.5-4c-0.1-3.4-0.1-6.8-0.1-10.2c0-3.4,0.6-4,4.1-4.3c9.4-0.8,18.8-1.5,28.2-2.2c11.9-0.9,23.9-1.8,35.8-2.7
						c5.3-0.4,5.9,0.1,6,5.4c0,2.7,0.1,5.4,0.1,8.2c0,4.8-0.6,5.5-5.5,5.8c-4.1,0.3-8.2,0.5-12.2,0.8C673.3,88.9,672.6,88.9,671.5,89
						z M677,113c-1.2,0-2.3,0-3.3,0c-4.4,0.2-8.7,0.5-13.1,0.6c-2.7,0.1-3.5-0.7-3.8-3.3c-0.1-0.8-0.1-1.6-0.1-2.3
						c-0.1-4.9-0.1-9.7-0.2-14.6c0-1.1-0.1-2.1-0.2-3.4c-1.7,0.1-3.2,0.2-4.9,0.3c0,1.4,0,2.4,0,3.5c0,5.4,0.1,10.7,0.1,16.1
						c0,3.5-0.7,4.2-4.3,4.5c-4.3,0.3-8.6,0.4-12.8,0.6c-0.7,0-1.5,0.2-2.4,0.4c0.1,1.6,0.1,3,0.2,4.4c1.9,0,3.5,0,5,0
						c3.6-0.1,7.2-0.4,10.8-0.5c2.6-0.1,3.2,0.5,3.5,3.2c0.1,1.1,0.2,2.1,0.2,3.2c0.1,5,0.1,9.9,0.2,14.9c0,0.7,0.1,1.5,0.2,2.5
						c1.7-0.1,3.2-0.1,4.8-0.2c0-1.5,0-2.6,0-3.8c-0.1-5.4-0.2-10.7-0.2-16.1c0-3.3,0.9-4.1,4.1-4.3c4.5-0.2,8.9-0.4,13.4-0.6
						c0.8,0,1.7-0.2,2.5-0.3C677,116.1,677,114.6,677,113z"/>
				</g>
				<g>
					<path class="wegamers" d="M756,269.1c-2-0.7-3.9-1.5-5.9-2.3c-1.2-0.5-2.4-0.9-3.4-1.5c-1.9-1.2-2.2-2.4-1.3-4.5
						c1.6-3.2,3.2-6.4,4.8-9.7c0.2-0.5,0.4-1,0.7-1.9c-1.9-0.1-3.5-0.2-5.1-0.3c-2.8-0.2-4-1-4.3-3.8c-0.3-3.1-0.2-6.2-0.1-9.3
						c0.1-2.2,1.2-2.9,3.6-2.9c3.7,0,7.4,0.2,11.1,0.2c1,0,1.9,0,3.1,0c0.5-1,1-2,1.7-3.4c-1-0.1-1.7-0.3-2.5-0.3
						c-3.4-0.1-6.8-0.2-10.2-0.4c-3.7-0.2-4.8-1.2-4.9-5c-0.1-2.2-0.1-4.5-0.1-6.7c0.1-3.5,0.3-3.9,3.9-4.9c0-1.4,0-2.8,0-4.4
						c-3.4-0.5-4.2-2.8-4.1-5.9c0.1-2-0.1-4.1,0-6.1c0.1-4,0.7-4.6,4.6-4.6c3.2,0,6.4,0,9.6,0c0.7,0,1.3-0.1,2-0.1
						c1.2-5.7,1.5-5.9,7.4-5.9c1.7,0,3.3,0,5,0c3.3,0.1,4.5,1.1,5,4.4c0.1,0.5,0.1,0.9,0.3,1.7c2.5,0,4.9,0,7.3,0c1.5,0,2.9,0,4.4,0
						c4.9,0,5.6,0.8,5.8,5.8c0.1,1.8,0.1,3.7,0.1,5.5c0,4.1-0.4,4.7-4.2,5.9c0,1.4,0,2.8,0,4.4c0.6,0.2,1.2,0.4,1.7,0.5
						c1.7,0.3,2.5,1.5,2.6,3.1c0.2,3.3,0.3,6.6,0.2,9.9c-0.1,2.5-1.2,3.5-3.7,3.5c-3.7,0.1-7.4-0.1-11.1-0.1
						c-3.2-0.1-3.2-0.1-4.5,3.4c0.8,0.1,1.5,0.3,2.2,0.3c4.6,0.2,9.1,0.3,13.7,0.5c3.4,0.1,4.4,0.9,4.7,4.3c0.2,2.7,0.3,5.4,0.2,8.2
						c-0.1,3.2-1.2,4.1-4.4,4.1c-1.2,0-2.5,0-4,0c-0.1,4.1,0.4,8.2-2.4,11.7c2.9,1.1,5.4,2.2,8,3c2.5,0.8,3.5,2.5,3.4,5.1
						c-0.1,3,0.1,6,0.1,9.1c0,2-0.5,2.4-2.5,2.2c-1.5-0.2-3.1-0.6-4.5-1.1c-4.2-1.4-8.3-2.8-12.4-4.2c-1.4-0.5-2.5-0.4-3.9,0.2
						c-6.7,2.9-13.4,5.7-20.7,6.9c-0.3,0-0.6,0.1-0.9,0.2c-5.2,0.7-6.7-0.6-6.9-5.9c0-1.4-0.1-2.7,0-4.1c0.2-2,0.6-2.5,2.6-2.9
						c2.7-0.5,5.4-0.8,8.1-1.2C755.9,269.5,755.9,269.3,756,269.1z M772.8,208.3c-2.9,0-5.6,0-8.4,0c0,1.6,0,3.1,0,4.7
						c2.9,0,5.6,0,8.4,0C772.8,211.5,772.8,210.1,772.8,208.3z M767,250.1c-0.8,1.7-1.5,3.3-2.4,5.1c2.5,1,4.6,1.8,6.7,2.6
						c1.3-2.7,1.3-5.1,0.7-7.7C770.4,250.1,768.9,250.1,767,250.1z"/>
				</g>
				<g>
					<path class="wegamers" d="M524.5,212.5c2.8,3.4,5.4,6.7,8,9.9c1.8,2.3,3.7,4.5,5.4,6.9c0.7,1.1,1.2,2.5,1.3,3.7
						c0.2,3.3,0.1,6.6,0.1,9.9c0,0.3,0.1,0.6,0,0.9c-0.4,0.8-0.9,1.6-1.4,2.4c-0.7-0.4-1.5-0.8-2.1-1.3c-0.7-0.6-1.3-1.5-1.9-2.2
						c-0.8,1.8-0.9,8.6-0.1,11.8c0.6,0.1,1.3,0.1,1.9,0.2c2.7,0.3,3.4,0.8,3.5,3.6c0.1,2.8,0.1,5.6,0.1,8.5c-0.1,2.8-0.8,3.4-3.6,3.3
						c-5.2-0.2-10.3-0.5-15.5-0.9c-12.5-0.8-25.1-1.5-37.6-2.3c-0.4,0-0.8,0-1.2-0.1c-2.8-0.3-3.4-0.8-3.5-3.6
						c-0.1-2.7-0.1-5.5,0-8.2c0.1-2.8,0.5-3.1,3.3-3.2c0.6,0,1.1-0.1,1.9-0.1c0-3.7,0-7.4,0-11.6c-1,1.1-1.6,1.8-2.3,2.4
						c-0.6,0.5-1.4,1.1-1.9,0.9c-0.6-0.2-0.9-1.1-1.3-1.8c-0.1-0.2-0.1-0.6-0.1-0.9c0-3.5-0.1-7,0-10.5c0-1.1,0.6-2.3,1.3-3.1
						c3.5-4.5,7-8.8,10.5-13.3c0.5-0.6,0.9-1.2,1.6-2.1c-0.8-0.1-1.4-0.3-2.1-0.3c-2.7-0.1-5.5-0.1-8.2-0.2c-2.1-0.1-2.6-0.6-2.7-2.6
						c-0.1-3.2-0.1-6.4,0-9.6c0.1-2.2,0.6-2.6,2.9-2.6c1.3,0,2.5,0,3.8,0c1.3,0,2.5,0,4.1,0c-0.3-1.4-0.6-2.6-0.9-3.8
						c-0.3-1.3-0.7-2.6-1-4c-0.4-2.3,0-2.8,2.3-2.8c2,0,4.1,0.1,6.1,0c1.8-0.1,2.8,0.7,3.3,2.3c0.5,1.6,1,3.2,1.4,4.7
						c0.3,1.1,0.6,2.2,0.9,3.6c4.3,0,8.5,0,12.9,0c0.5-1.9,0.9-3.8,1.4-5.6c0.3-1.1,0.7-2.2,1.2-3.3c0.5-1.1,1.3-1.7,2.5-1.7
						c2.5,0,5.1-0.1,7.6,0c1.8,0.1,2.3,0.6,2,2.4c-0.3,1.7-0.8,3.4-1.3,5.1c-0.3,1-0.5,2-0.8,3.4c2.7,0.1,5.1,0.1,7.5,0.1
						c4.1,0,4.3,0.3,4.4,4.3c0,2.6,0.1,5.3,0.1,7.9c-0.1,2.9-0.6,3.4-3.4,3.4c-3.3,0-6.6-0.1-9.9-0.1
						C525.1,212.2,525,212.3,524.5,212.5z M516.5,222c0.1-0.2,0.2-0.4,0.3-0.6c-2.4-2.9-4.7-5.9-7.2-8.7c-1-1.2-3-1.3-3.9-0.3
						c-2.5,2.8-4.8,5.7-7.6,9C504.7,221.6,510.6,221.8,516.5,222z M522.3,253.9c0-5.6,0-10.9,0-16.5c-1,0-1.8,0.1-2.5,0.1
						c0,5.6,0,10.8,0,16.3C520.8,253.8,521.5,253.8,522.3,253.9z M508.9,253.2c0-5.7,0-10.9,0-16.2c-0.6-0.1-1-0.2-1.3-0.2
						c-0.4,0-0.7,0.1-1.2,0.2c0,5.4,0,10.6,0,16C507.3,253.1,508.1,253.1,508.9,253.2z M493.5,236.3c0,5.6,0,10.8,0,16.1
						c0.9,0,1.7,0,2.5,0c0-5.3,0-10.5,0-15.9C495.1,236.4,494.4,236.4,493.5,236.3z"/>
				</g>
				<g>
					<path class="wegamers" d="M918.5,151.9c-0.9,1-1.5,1.9-2.3,2.5c-1.3,1-2.5,2.2-4,2.8c-2.9,1.3-6-0.3-6.3-3.5
						c-0.3-3.4-0.3-6.8-0.2-10.2c0-0.8,0.5-1.6,1-2.4c4.6-8.1,7.2-16.7,6.8-26.2c-0.3-7.3-0.4-14.6-0.6-21.9
						c-0.1-5.9,0.5-6.5,6.3-6.9c12.7-0.7,25.5-1.4,38.2-2.1c4.7-0.2,5.5,0.5,5.7,5.1c0.3,10,0.6,20,0.9,30.1c0,0.4,0,0.8,0,1.2
						c-0.1,3.3-1.1,4.4-4.4,4.6c-4,0.3-8,0.4-12,0.5c-5.9,0.2-11.9,0.4-18,0.6c-0.2,0.9-0.4,1.7-0.6,2.7c0.8,0.1,1.4,0.3,1.9,0.3
						c8-0.2,16-0.5,23.9-0.8c2.4-0.1,4.9-0.2,7.3-0.2c4.8,0,6.8,1.9,7,6.6c0.2,5.4,0.4,10.9,0.4,16.3c0,4.4-1.6,6-6,6.2
						c-4.3,0.2-8.6,0.2-12.8,0.3c-8,0.1-16,0.2-23.9,0.3c-0.9,0-1.8,0-2.6-0.1c-3-0.3-4.3-1.4-5.1-4.3
						C918.9,153,918.7,152.6,918.5,151.9z M947,99c-0.1-1.2-0.2-1.9-0.3-2.8c-6,0.3-11.8,0.6-17.8,0.9c0.1,1.1,0.2,1.9,0.3,2.8
						C935.2,99.5,940.9,99.2,947,99z M929.5,111.7c-0.2,2.7-0.2,2.7,1.8,2.7c3.6-0.1,7.2-0.3,10.7-0.4c1.6-0.1,3.3-0.2,4.9-0.3
						c0.1-0.6,0.3-0.9,0.3-1.3c0-0.4-0.1-0.7-0.2-1.4C941.2,111.2,935.5,111.4,929.5,111.7z M934.9,141.8c0.1,1.2,0.2,2,0.3,2.7
						c3.1,0,5.9,0,8.8,0c2.8-0.1,5.6,0,8.5-0.3c-0.1-1.1-0.2-1.8-0.2-2.4C946.3,141.8,940.7,141.8,934.9,141.8z"/>
				</g>
				<g>
					<path class="wegamers" d="M520.1,122.8c0,7.8,0.2,15.6-0.1,23.4c-0.1,3.3-0.6,6.6-1.6,9.7c-1.7,5.5-5.7,8.2-11.4,8.3
						c-9.5,0.2-19.1,0.4-28.6,0.5c-6.4,0.1-10.4-2.8-11.9-9c-0.7-2.9-1.1-6-1.1-8.9c-0.1-14.7-0.2-29.4-0.1-44.1
						c0-2.9,0.4-5.8,1.1-8.7c1.5-6.2,5.5-9.3,11.8-9.8c9.1-0.7,18.2-1.4,27.4-2.1c7.5-0.6,11.9,2.6,13.4,9.9c0.5,2.6,0.8,5.2,0.8,7.8
						c0.1,7.7,0,15.4,0,23.1C519.9,122.8,520,122.8,520.1,122.8z M504.1,123.1c-0.1,0-0.1,0-0.2,0c0-6.1,0-12.3,0-18.4
						c0-4.3-1.3-5.5-5.4-5.2c-4.6,0.3-9.1,0.6-13.7,0.9c-2.7,0.2-4,1.5-4.3,4.2c-0.1,0.7-0.1,1.4-0.1,2c0,11.6,0.1,23.2,0.1,34.7
						c0,0.9,0,1.8,0.2,2.6c0.5,2.5,1.6,3.5,4.2,3.5c5-0.1,9.9-0.2,14.9-0.4c2.6-0.1,3.8-1.3,4.2-3.9c0.1-1,0.1-1.9,0.1-2.9
						C504.1,134.6,504.1,128.8,504.1,123.1z"/>
				</g>
				<g>
					<path class="wegamers" d="M437.4,165.5c-7.1,0-14.2,0-21.3,0c-3.1,0-3.5-0.4-3.6-3.5c0-7.9-0.1-15.8,0.1-23.6
						c0.1-2.6,0.5-5.2,1.2-7.7c1.5-5.1,5-8,10.4-8.2c5.2-0.3,10.5-0.5,15.7-0.8c0.9,0,1.8,0,2.6-0.1c4.2-0.2,5.4-1.4,5.5-5.5
						c0.1-2.8,0.1-5.6,0-8.5c-0.2-3.7-1.5-4.8-5.1-4.6c-4.2,0.3-8.3,0.5-12.5,0.9c-2.6,0.2-3.6,1.3-3.9,3.9c-0.1,1.2-0.1,2.3-0.1,3.5
						c-0.2,2.4-0.9,3.1-3.2,3.3c-2.6,0.2-5.2,0.4-7.9,0.4c-1.9,0-2.7-0.6-2.7-2.3c0.1-4.8,0.2-9.5,0.7-14.2c0.2-2,1.4-4.1,2.5-5.8
						c1.7-2.7,4.5-4,7.6-4.3c9.1-0.8,18.2-1.5,27.4-2.1c5.2-0.3,8.8,2.1,10.4,7.1c0.9,2.9,1.4,6.1,1.5,9.2c0.2,5.8,0.3,11.7,0,17.5
						c-0.1,3.2-0.6,6.4-1.5,9.4c-1.6,5.4-5.3,7.9-10.8,8.1c-6.2,0.3-12.4,0.4-18.7,0.7c-4.3,0.2-5.2,1.2-5.3,5.5
						c0,6.3-0.3,5.3,5.3,5.2c9-0.2,18.1-0.5,27.1-0.7c3.4-0.1,3.9,0.5,4,3.8c0,2.9,0,5.8,0,8.8c0,3.4-0.6,4-3.9,4
						c-7.2,0-14.4,0-21.6,0C437.4,165.1,437.4,165.3,437.4,165.5z"/>
				</g>
				<g>
					<path class="wegamers" d="M549.4,100c0-3.6,0-7.2,0-10.8c0-1.1,0-2.1,0.1-3.2c0.6-5.3,2.7-7.4,8-7.8c14.9-1.2,29.9-2.3,44.8-3.4
						c0.8-0.1,1.6-0.1,2.3-0.1c3.1,0.1,5.1,1.6,6,4.6c0.4,1.4,0.6,2.9,0.7,4.3c0.1,4.8,0.1,9.5,0.2,14.3c0,2.9-0.6,5.6-1.8,8.2
						c-8.1,17.5-16.1,35-24.1,52.5c-0.4,0.9-0.8,1.8-1.4,2.5c-0.8,1.2-2,1.9-3.4,1.9c-4.6,0.1-9.1,0.2-13.7,0.2
						c-2.1,0-2.6-0.7-1.9-2.8c0.3-1,0.8-2,1.2-3c7.9-17.6,15.8-35.1,23.8-52.6c1.3-2.8,1.8-5.7,1.6-8.8c-0.1-2-0.6-2.3-2.6-2.2
						c-6.6,0.4-13.2,0.8-19.8,1.3c-2.5,0.2-2.8,0.5-2.8,3c0,4.2,0.1,8.4,0.1,12.6c0,0.8,0.1,1.6,0,2.3c-0.2,2.3-1,3.1-3.3,3.2
						c-3.2,0.2-6.4,0.4-9.6,0.5c-3.4,0.1-4.1-0.5-4.2-4c-0.1-4.3,0-8.6,0-12.8C549.5,100,549.4,100,549.4,100z"/>
				</g>
				<g>
					<path class="wegamers" d="M572.8,260.7c-4.8-0.3-9.2-0.5-13.5-0.8c-1.7-0.1-3.5-0.1-5.2-0.4c-2.3-0.4-3.2-1.4-3.6-3.6
						c-0.1-0.9-0.2-1.7-0.2-2.6c-0.1-7.1-0.1-14.2-0.2-21.3c0-0.4,0-0.8,0-1.2c0.1-3.9,1.1-4.8,5-4.7c17.5,0.5,35,1.1,52.5,1.6
						c3.3,0.1,4.7,1.3,4.7,4.6c0.2,8.5,0.3,16.9,0.2,25.4c0,3.7-1.4,4.8-5.2,4.7c-5.1-0.2-10.1-0.5-15.2-0.8c-1,0-1.9,0-3.2,0
						c-0.1,1-0.1,1.9-0.2,3c1.4,0.1,2.7,0.3,3.9,0.4c6.3,0.4,12.6,0.7,19,1.1c1.3,0.1,2.9-0.1,3.5,1.5c0.8,2.1,0.9,4.3-0.2,6.2
						c-0.3,0.6-1.5,0.9-2.3,1c-1.1,0.1-2.3-0.1-3.5-0.2c-10.4-0.6-20.8-1.3-31.2-1.9c-3.9-0.2-5.2-1.5-5.3-5.4
						C572.8,265.4,572.8,263.2,572.8,260.7z M597.1,236.7c-2.9,0-5.6,0-8.3,0c0,1,0,1.9,0,2.9c2.9,0.1,5.5,0.3,8.3,0.4
						C597.1,238.8,597.1,238,597.1,236.7z M597.2,249.4c-2.9-0.2-5.6-0.3-8.5-0.5c0.1,1.4,0.1,2.3,0.2,3.4c2.9,0,5.5,0,8.3,0
						C597.2,251.4,597.2,250.6,597.2,249.4z M572.5,238.8c0-0.9,0-1.8,0-2.9c-2.7-0.1-5.2-0.2-8.1-0.4c0.1,1.3,0.1,2.2,0.2,3.2
						C567.4,238.8,569.9,238.8,572.5,238.8z M572.5,248.3c-2.8-0.1-5.3-0.3-7.9-0.4c0,1.2,0,2.1,0,3.2c2.7,0,5.2,0,7.9,0
						C572.5,250.2,572.5,249.4,572.5,248.3z"/>
				</g>
				<g>
					<path class="wegamers" d="M1016.6,101.1c0.5,15.9,1,31.7,1.4,47.6c0,1.5,0.1,2.9,0,4.4c-0.2,2.7-0.9,3.4-3.6,3.6c-0.4,0-0.8,0-1.2,0
						c-7.5,0.1-15,0.3-22.5,0.4c-0.5,0-1,0-1.5,0c-3-0.1-4-1-4.2-4.1c-0.2-3.1-0.2-6.2-0.3-9.3c0-1.5-0.1-2.9,0-4.4
						c0.2-3.3,1-4.2,4.5-4.4c1.8-0.1,3.7-0.1,5.5-0.2c3.4-0.2,3.9-0.7,3.8-4.1c-0.3-12.9-0.7-25.9-1.1-38.8
						c-0.4-13.9-0.8-27.8-1.2-41.7c-0.1-3.7,0.8-4.8,4.4-5.1c3.3-0.3,6.6-0.6,9.9-0.6c3.1-0.1,3.9,0.7,4.2,3.9
						c0.1,0.9,0.2,1.7,0.2,2.6C1015.7,67.6,1016.2,84.4,1016.6,101.1C1016.7,101.1,1016.7,101.1,1016.6,101.1z"/>
				</g>
				<g>
					<path class="wegamers" d="M693.2,233.7c0,9.4,0,18.4,0,27.7c1.8,0.1,3.3,0.2,4.8,0.4c2.6,0.2,3.7,1.2,3.8,3.8
						c0.1,3.7,0.2,7.4,0.1,11.1c0,2.6-1,3.5-3.6,3.4c-4.9-0.2-9.7-0.5-14.6-0.8c-2.8-0.2-3.6-1.1-3.7-4.2c-0.2-7.5-0.3-15-0.4-22.5
						c-0.1-5.4-0.1-10.9-0.2-16.3c0-0.9-0.1-1.9-0.2-3c-1.2,0-2.1,0-3.3,0c0,1,0,2,0,2.9c0,6.3,0.2,12.7,0,19
						c-0.2,4.1-0.9,8.1-1.7,12.1c-0.5,2.1-1.5,4.2-2.7,6.1c-3.1,5.1-7.7,5.4-12.8,4.3c-1.7-0.4-2.5-1.9-2.5-3.5
						c-0.1-3.6-0.2-7.2-0.1-10.8c0-2,0.7-2.9,2.7-3.2c2.1-0.3,3.1-1.6,3.4-3.4c0.4-1.9,0.7-3.8,0.7-5.8c0.1-5.6,0-11.3-0.1-16.9
						c0-0.4-0.2-0.7-0.3-1.3c-1.3-0.1-2.5-0.1-3.8-0.2c-2.1-0.2-3.1-1.1-3.2-3.1c-0.2-4-0.3-8-0.2-11.9c0.1-2.2,0.9-2.9,3.2-2.8
						c3.9,0,7.8,0.2,11.7,0.2c8.3,0.2,16.5,0.3,24.8,0.5c0.7,0,1.4,0,2,0.1c3,0.2,3.9,0.9,4,3.9c0.1,3.6,0.2,7.2,0.1,10.8
						c0,2.7-1.1,3.6-3.8,3.7C696.1,233.7,694.7,233.7,693.2,233.7z"/>
				</g>
				<g>
					<path class="wegamers" d="M718.8,204.4c0-1.6,0-3,0-4.3c0-3.7-0.1-7.4-0.1-11.1c0-2.7,0.6-3.3,3.3-3.4c2.5-0.1,5.1-0.1,7.6,0
						c2.8,0.1,3.5,0.8,3.6,3.5c0.2,3.7,0.1,7.4,0.2,11.1c0,1.3,0,2.7,0,4.2c1.3,0.1,2.3,0.1,3.2,0.2c1.9,0.2,2.9,1,3.1,2.9
						c0.2,3,0.2,6,0.1,9c-0.1,1.8-0.9,2.6-2.7,2.9c-0.9,0.2-1.9,0.2-3.1,0.2c0,1.7,0,3.3,0,5.1c0.7-0.2,1.3-0.3,1.9-0.5
						c2.7-1,3.8-0.3,4.1,2.6c0.2,2,0.2,4.1,0.2,6.1c0.1,2.1,0,4.3,0.1,6.4c0.1,2.3-0.9,3.9-3,4.8c-1,0.4-1.9,0.9-3,1.5
						c0,1.1,0,2.1,0,3.2c0.1,9.5,0.3,19.1,0.4,28.6c0,0.3,0,0.6,0,0.9c0,3.6-0.5,4-4.1,3.9c-4.2-0.2-8.4-0.4-12.5-0.7
						c-3-0.2-3.8-1-3.9-4c-0.1-3.4-0.1-6.8-0.1-10.2c0-3,0.5-3.5,3.5-3.8c1.2-0.1,2.2-0.4,2.2-1.8c0-2.9,0-5.8-0.1-9.1
						c-1.8,0.8-3.1,1.5-4.4,2c-2.1,0.9-3.6,0.5-3.7-1.5c-0.4-5-0.4-10.1-0.3-15.1c0-0.9,1.5-1.9,2.5-2.6c1.7-1.1,3.6-1.9,5.3-2.9
						c0-4.4,0-8.7,0-13.2c-1.6-0.1-3-0.1-4.4-0.2c-3-0.2-4-1.1-4.2-4.1c-0.1-2.3-0.1-4.7,0-7c0.1-3,0.8-3.6,4-3.7
						C715.8,204.3,717.1,204.4,718.8,204.4z"/>
				</g>
				<g>
					<path class="wegamers" d="M632.3,214.6c0.1-0.9,0.1-1.4,0.1-2c0-2.7,0-5.4,0-8.5c-1.8,0-3.3-0.1-4.8-0.1c-2.3-0.1-3.3-0.9-3.4-3.1
						c-0.2-4.1-0.2-8.2-0.1-12.3c0.1-2.1,0.8-2.8,2.9-2.8c7.2,0,14.4,0,21.6,0c2,0,2.9,0.6,3,2.5c0.3,4.4,0.4,8.7,0.3,13.1
						c0,1.9-1.1,2.7-3.1,2.9c-1.2,0.1-2.5,0-4.1,0c0,1.9-0.1,3.6-0.1,5.3c0,1.6,0,3.3,0,5.3c1.3,0.1,2.5,0.1,3.6,0.2
						c3,0.2,3.9,1,4,3.9c0.1,3.7,0.2,7.4,0.1,11.1c0,2.8-0.9,3.6-3.7,3.7c-1.1,0-2.1,0-3.4,0c0,4.3,0,8.5,0,13.1
						c1.1-0.4,2.1-0.7,3-0.9c2.3-0.7,3.5,0,3.9,2.4c0.1,0.4,0.1,0.8,0.1,1.2c0,3.5,0,7,0.1,10.5c0.1,2.7-1.1,4.4-3.5,5.4
						c-0.5,0.2-1.1,0.4-1.6,0.7c-5.9,2.4-11.7,4.8-17.6,7.2c-0.6,0.3-1.3,0.6-1.9,0.7c-2.3,0.6-3.5,0-3.7-2.3
						c-0.2-4.3-0.2-8.6-0.2-12.8c0-2,1.2-3.2,3-4c2-0.9,3.9-1.7,5.9-2.5c0-6.3,0-12.5,0-19c-1.6-0.1-3-0.1-4.4-0.3
						c-2.7-0.2-3.6-0.9-3.7-3.5c-0.2-3.8-0.3-7.6-0.2-11.4c0.1-2.8,0.9-3.5,3.8-3.5C629.4,214.6,630.7,214.6,632.3,214.6z"/>
				</g>
				<g>
					<path class="wegamers" d="M574,205.2c-5.1,0-9.9,0-15,0c0,1.2,0,2.2,0,3.3c0,3.8,0.1,7.6,0.1,11.4c0,3.4-0.6,3.9-3.9,3.9
						c-1.5,0-2.9,0-4.4-0.1c-2.7-0.1-3.1-0.6-3.4-3.3c-0.1-0.8-0.1-1.6-0.1-2.3c-0.1-5.1-0.1-10.1-0.1-15.2c0-0.9,0-1.8,0.1-2.6
						c0.3-2.6,0.6-3,3.3-2.9c6.7,0,13.4,0.1,20.1,0.1c1.1,0,2.1,0,3.2,0c0-1,0-1.7,0-2.7c-1.2,0-2.3,0-3.3,0
						c-6.4,0-12.8-0.1-19.3-0.1c-3.2,0-3.9-0.7-4.1-3.9c0-0.4,0-0.8,0-1.2c0.1-3.3,0.7-3.8,4-3.8c19.8,0,39.5,0,59.3,0
						c0.5,0,1,0,1.5,0c0.4,0,0.8,0,1.1,0.2c2.4,1.5,1.7,3.9,1.6,6.1c0,2-0.8,2.7-2.5,3c-0.8,0.1-1.6,0.1-2.3,0.1
						c-6.5,0-13-0.1-19.6-0.1c-1.1,0-2.1,0-3.4,0c-0.1,0.8-0.2,1.5-0.3,2.5c1.2,0.1,2.3,0.2,3.3,0.2c7.1,0.1,14.2,0.2,21.3,0.3
						c3.3,0,3.7,0.3,3.8,3.7c0.1,6.6,0.2,13.2,0.3,19.9c0,3.5-0.7,4-4.1,4c-1.4,0-2.7-0.1-4.1-0.1c-3.9-0.1-4.5-0.8-4.5-4.8
						c-0.1-3.9-0.1-7.8-0.1-11.7c0-1-0.1-1.9-0.2-3.1c-5.1,0-10.1,0-15.6,0c0,1,0,2,0,3c0,3.7,0.1,7.4,0,11.1c0,3.5-1.1,4.5-4.6,4.5
						c-1.1,0-2.1,0-3.2-0.1c-3.4-0.1-4.5-1.2-4.6-4.6c-0.1-3.8-0.1-7.6-0.1-11.4C574.2,207.3,574.1,206.4,574,205.2z"/>
				</g>
				<g>
					<path class="wegamers" d="M971.5,78.5c0,1.5,0.1,2.9,0,4.4c-0.4,3.5-2.5,4.5-5.5,2.6c-1.2-0.8-2.5-1.6-3.6-2.5
						c-2.2-2-4.7-2.3-7.5-2.1c-12.4,0.8-24.9,1.5-37.3,2.2c-1.3,0.1-2.4,0.4-3.4,1.3c-1.7,1.5-3.4,3-5.1,4.4
						c-2.2,1.8-3.9,1.3-4.8-1.4c-0.2-0.7-0.3-1.5-0.3-2.3c-0.1-1.7,0-3.5-0.1-5.3c-0.2-3.4,1.1-6,3.7-8.2
						c8.5-7.2,16.9-14.4,25.4-21.5c2.8-2.4,4-2.4,7-0.4c9.1,6,18.1,12.2,27.2,18.2c2.8,1.9,4.4,4.3,4.2,7.8c-0.1,1,0,1.9,0,2.9
						C971.3,78.5,971.4,78.5,971.5,78.5z M940.7,68.8c0.1-0.2,0.1-0.4,0.2-0.6c-1.4-1-2.8-1.9-4.4-3c-1.5,1.3-2.8,2.5-4.2,3.8
						c0.1,0.1,0.2,0.3,0.3,0.4C935.4,69.2,938.1,69,940.7,68.8z"/>
				</g>
				<g>
					<path class="wegamers" d="M433.5,249.4c6,0.3,11.7,0.6,17.8,0.9c-0.4-1.4-0.7-2.4-1-3.4c-1.3-4.2-2.7-8.3-3.9-12.5
						c-0.8-2.5-0.2-3.2,2.4-3.1c2.9,0,5.8,0.2,8.8,0.2c1.5,0,2.4,0.6,2.9,1.9c0.5,1.3,0.9,2.6,1.3,3.9c2.6,8,5.2,15.9,7.7,23.9
						c0.2,0.5,0.3,0.9,0.4,1.4c0.6,2.7-0.1,3.6-2.9,3.5c-8.3-0.4-16.5-0.9-24.8-1.5c-7.9-0.5-15.7-1-23.6-1.5c-0.6,0-1.2,0-1.7-0.1
						c-1.6-0.3-2.3-1.4-2-3c0.1-0.7,0.4-1.3,0.7-1.9c5.2-13.1,10.4-26.2,15.7-39.2c2.4-6,1.9-4.8,7.1-4.8c1.9,0,3.9,0,5.8,0.2
						c2,0.2,2.5,0.9,2.1,2.9c-0.2,0.8-0.5,1.7-0.9,2.5c-3.7,9-7.4,18-11.1,27C434.2,247.3,434,248.2,433.5,249.4z"/>
				</g>
				<g>
					<path class="wegamers" d="M547,122.9c0,11.9,0,23.7,0,35.6c0,0.9,0.1,1.8-0.1,2.6c-0.2,1.7-1,2.4-2.7,2.5c-3.7,0.1-7.4,0.2-11.1,0.1
						c-1.8,0-2.4-0.7-2.6-2.5c-0.1-1.1-0.1-2.1-0.2-3.2c-0.1-18.6-0.2-37.1-0.3-55.7c0-0.7,0-1.4,0-2c-0.1-2.4-0.4-2.6-2.8-2.6
						c-4.4,0.1-4.7-0.2-4.7-4.8c0-2.7-0.1-5.4,0-8.2c0-3.3,0.7-4,3.8-4.3c4.6-0.4,9.1-0.8,13.7-1c4.6-0.3,6.4,1.4,6.5,6.1
						c0.1,6.6,0.1,13.2,0.2,19.8c0,5.8,0,11.7,0,17.5C546.8,122.9,546.9,122.9,547,122.9z"/>
				</g>
				<g>
					<path class="wegamers" d="M992.9,87.2c0.3,11.5,0.7,22.9,0.9,34.4c0.1,4.4-1.6,6.2-6,6.4c-2.2,0.1-4.5,0.2-6.7,0.1
						c-3.3-0.1-5.2-1.9-5.5-5.2c-0.1-0.7-0.1-1.4-0.1-2c-0.6-22.4-1.3-44.7-1.9-67.1c0-1,0-2,0.2-2.9c0.6-2.6,2.2-3.9,4.9-4.3
						c2.3-0.3,4.6-0.5,7-0.6c4.3-0.2,6.1,1.4,6.2,5.8C992.3,63.7,992.6,75.4,992.9,87.2C992.9,87.2,992.9,87.2,992.9,87.2z"/>
				</g>
				<g>
					<path class="wegamers" d="M788.3,110.7c0.3,14.2,0.5,28.4,0.8,42.6c0,0.7,0.1,1.4,0,2c-0.1,3.7-1.2,4.8-4.9,4.9c-0.8,0-1.6,0-2.3,0
						c-2.6,0-3.7-0.9-4.1-3.5c-0.1-0.7-0.1-1.4-0.1-2c-0.5-29.1-1.1-58.1-1.6-87.2c0-0.8-0.1-1.6,0-2.3c0.1-0.9,0.3-1.7,0.7-2.5
						c0.8-1.6,5-2.7,8-2c1.6,0.3,2.5,1.6,2.7,4c0.1,1.2,0.1,2.3,0.1,3.5C787.8,82.4,788,96.6,788.3,110.7
						C788.3,110.7,788.3,110.7,788.3,110.7z"/>
				</g>
				<g>
					<path class="wegamers" d="M744.5,103.4c0,10.3,0,20.6,0,31c0,4.5-0.5,8.9-1.8,13.3c-1.1,3.6-2.8,6.8-5.2,9.7c-2.5,3-5.8,3.8-9.4,3.4
						c-0.7-0.1-1.6-0.8-2-1.4c-0.5-0.7-0.7-1.6-0.7-2.5c-0.1-3.5-0.2-7-0.2-10.5c0-2.7,0.7-3.3,3.3-3.8c1.5-0.3,2.6-1,3.1-2.4
						c0.7-1.7,1.4-3.4,1.7-5.2c0.4-2.5,0.5-5,0.4-7.6c-0.3-18.5-0.6-37-0.9-55.5c0-1-0.1-2,0-2.9c0.1-0.9,0.2-1.8,0.5-2.6
						c0.6-1.9,3.7-2.9,7.5-2.4c1.5,0.2,2.4,1.1,2.6,3.3c0.2,1.2,0.2,2.3,0.2,3.5c0.2,10.9,0.3,21.8,0.5,32.7
						C744.2,103.4,744.3,103.4,744.5,103.4z"/>
				</g>
				<g>
					<path class="wegamers" d="M765.8,102.7c0.2,11.6,0.4,23.2,0.6,34.7c0,0.8,0,1.6-0.1,2.3c-0.3,2.2-1.5,3.2-3.7,3.3
						c-1.1,0.1-2.1,0.1-3.2,0.1c-2.5,0-3.5-0.9-4-3.3c-0.1-0.8-0.2-1.5-0.2-2.3c-0.4-23.1-0.8-46.1-1.2-69.2c0-1,0-2,0.3-2.9
						c0.5-2,1.4-2.7,3.4-2.9c1.3-0.1,2.5-0.3,3.8-0.3c1.9-0.1,2.9,0.7,3.3,2.5c0.2,1,0.3,2.1,0.3,3.2
						C765.4,79.6,765.6,91.1,765.8,102.7C765.8,102.7,765.8,102.7,765.8,102.7z"/>
				</g>
				<g>
					<path class="wegamers" d="M677.7,185.4c5.2,0,10.3,0,15.5,0c3.5,0,4.3,0.8,4.4,4.3c0.1,3.3,0.2,6.6,0.1,9.9c0,3.1-1,4.1-4.1,4.1
						c-10.5-0.1-21-0.2-31.5-0.4c-2.6,0-3.6-0.9-3.8-3.4c-0.2-3.7-0.3-7.4-0.2-11.1c0.1-2.7,0.9-3.3,3.7-3.3
						C667.1,185.4,672.4,185.4,677.7,185.4C677.7,185.4,677.7,185.4,677.7,185.4z"/>
				</g>
				<g>
					<path class="wegamers" d="M447.1,184.7c1.2,0.8,2.1,1.1,2.7,1.7c6.4,8.2,12.8,16.4,19.1,24.6c0.6,0.8,1,2.1,1,3.2
						c0.1,4.8,0.1,9.5,0.1,14.3c0,0.6,0,1.2-0.2,1.7c-0.4,1.5-1.4,1.7-2.6,0.6c-0.2-0.2-0.4-0.4-0.6-0.7
						c-6.2-8.1-12.5-16.2-18.7-24.2c-1-1.3-1.4-2.7-1.4-4.3c0.1-4.4,0-8.7,0-13.1C446.6,187.5,446.9,186.4,447.1,184.7z"/>
				</g>
				<g>
					<path class="wegamers" d="M416.6,230c-1.7-1-1.7-2.2-1.7-3.4c0-4.5-0.1-8.9,0-13.4c0-1.1,0.3-2.4,1-3.2c5.9-7.9,12-15.8,18-23.6
						c0.4-0.6,1.4-0.7,2.2-1.1c0.3,0.7,0.9,1.3,0.9,2c0.1,5.2,0.1,10.5,0,15.7c0,1-0.6,2-1.3,2.8c-3.5,4.6-7,9.1-10.5,13.6
						c-2.2,2.8-4.4,5.7-6.7,8.5C418,228.6,417.3,229.2,416.6,230z"/>
				</g>
				<g>
					<path class="wegamers" d="M722.3,133.5c0,0.7-0.1,1.4,0,2c0.8,4.4-0.9,7.9-3.9,11c-3.9,4.1-7.5,8.4-11.3,12.6c-0.3,0.4-0.6,0.9-1,1
						c-0.9,0.3-1.9,0.7-2.7,0.4c-0.6-0.2-1-1.4-1.1-2.1c-0.2-4.2-0.2-8.4-0.2-12.5c0-1,0.4-2.1,0.9-3c0.8-1.3,1.7-2.6,2.7-3.8
						c3.9-4.3,7.9-8.6,11.8-12.9c0.9-1,1.8-2.4,3.4-1.7c1.3,0.6,1.2,2.1,1.2,3.4C722.2,129.9,722.2,131.7,722.3,133.5
						C722.2,133.5,722.3,133.5,722.3,133.5z"/>
				</g>
				<g>
					<path class="wegamers" d="M701.7,76.6c0-1.7,0-3.5,0-5.2c0.1-3.9,1.5-4.8,4.9-2.9c3.5,1.9,6.9,3.9,10.4,5.9c0.8,0.5,1.7,1,2.5,1.5
						c1.3,0.7,2,1.8,2,3.3c0,3.9,0.2,7.8,0.1,11.7c-0.1,3.1-2.5,4.4-5.2,2.9c-3.6-2-7.1-4-10.7-6c-2.7-1.5-4.3-3.5-3.9-6.8
						C702,79.5,701.8,78,701.7,76.6C701.8,76.6,701.8,76.6,701.7,76.6z"/>
				</g>
				<g>
					<path class="wegamers" d="M722,110.1c0,1.8,0.1,3.5,0,5.3c-0.1,1.1-0.4,2.3-1,3.2c-0.8,1.3-2.2,1.6-3.6,0.8c-4.3-2.5-8.6-5-12.8-7.6
						c-1.6-1-2.4-2.4-2.4-4.4c0-3.3-0.1-6.6-0.1-9.9c0-0.5,0-1,0.1-1.5c0.3-2.8,2.3-3.9,4.7-2.6c4.2,2.4,8.4,4.9,12.6,7.3
						c1.8,1,2.4,2.4,2.3,4.3c-0.1,1.7,0,3.3,0,5C721.9,110.1,722,110.1,722,110.1z"/>
				</g>
				<g>
					<path class="wegamers" d="M766.7,100c0-5.3,0-10.5,0-15.8c0-1.1,0.1-2.2,0.4-3.1c0.7-2.2,2.1-2.9,4.5-2.8c1.8,0.1,2.9,1.2,3.3,3.4
						c0.1,0.8,0.2,1.5,0.2,2.3c0.2,10.6,0.4,21.2,0.6,31.8c0,0.9,0,1.8-0.2,2.6c-0.5,2.4-1.6,3.3-4,3.4c-2.3,0.1-3.4-0.7-4-3
						c-0.2-0.9-0.3-1.9-0.3-2.9c0-5.3,0-10.7,0-16C767.1,100,766.9,100,766.7,100z"/>
				</g>
				<g>
					<path class="wegamers" d="M753.8,101.1c0,5.3,0,10.5,0,15.8c0,1,0,2-0.2,2.9c-0.5,2.2-1.8,3.1-4.3,3c-2.1,0-3-0.8-3.5-3.1
						c-0.1-0.7-0.2-1.4-0.2-2c-0.2-10.5-0.4-21-0.5-31.5c0-0.9-0.1-1.8,0.1-2.6c0.4-2.7,2-3.8,4.7-3.7c2,0.1,3.3,1.5,3.3,4
						c0.1,5.7,0,11.5,0,17.2C753.4,101.1,753.6,101.1,753.8,101.1z"/>
				</g>
				<g>
					<path class="wegamers" d="M732.3,102.5c0,5.2,0,10.3,0,15.5c0,0.9,0,1.8-0.1,2.6c-0.4,2.2-1.8,3.1-4.3,3c-1.8-0.1-2.9-1-3.3-3.1
						c-0.1-0.6-0.1-1.2-0.1-1.7c-0.2-10.5-0.4-21-0.5-31.5c0-0.8-0.1-1.6,0-2.3c0.3-2.6,1.7-3.8,4.3-3.7c2.2,0,3.4,1.2,3.4,3.8
						c0.1,5.8,0,11.7,0,17.5C732,102.5,732.1,102.5,732.3,102.5z"/>
				</g>
				<g>
					<path class="wegamers" d="M594.8,214.9c-0.9,0-1.7,0.1-2.6,0c-2.4-0.2-3.8-1.7-3.8-4.2c0-2.3,1.7-4.2,4-3.9c1.6,0.2,3.3,0,4.9,0.1
						c2.4,0.2,3.8,1.9,3.7,4.3c-0.1,2.4-1.4,3.7-3.8,3.8C596.3,215,595.5,215,594.8,214.9C594.8,215,594.8,215,594.8,214.9z"/>
				</g>
				<g>
					<path class="wegamers" d="M594.6,216.8c1,0,2-0.1,2.9,0c2.2,0.2,3.6,1.9,3.5,4.2c-0.1,2.3-1.5,3.8-3.9,3.8c-1.7,0-3.5-0.1-5.2-0.2
						c-2.3-0.2-3.6-1.8-3.5-4.1c0.1-2.4,1.4-3.7,3.9-3.7C593.1,216.7,593.8,216.7,594.6,216.8C594.6,216.8,594.6,216.8,594.6,216.8z"
						/>
				</g>
				<g>
					<path class="wegamers" d="M566.5,214.4c-0.7,0-1.4,0-2,0c-2.6-0.1-4.1-1.8-4-4.3c0.1-2.4,1.5-3.7,4.2-3.7c1.5,0,2.9,0,4.4,0.1
						c2.3,0.2,3.6,1.8,3.6,4.1c0,2.4-1.3,3.7-3.8,3.8C568,214.4,567.2,214.4,566.5,214.4C566.5,214.4,566.5,214.4,566.5,214.4z"/>
				</g>
				<g>
					<path class="wegamers" d="M566.6,223.8c-0.8,0-1.6,0-2.3,0c-2.9-0.2-4.6-2.9-3.5-5.5c0.6-1.4,1.5-2.2,3.1-2.2c1.7,0.1,3.5,0,5.2,0.1
						c2.3,0.1,3.6,1.8,3.5,4.1c-0.1,2.3-1.3,3.5-3.6,3.6c-0.8,0-1.6,0-2.3,0C566.6,223.9,566.6,223.9,566.6,223.8z"/>
				</g>
			</g>
			<g>
				<path class="wegamers" d="M426,72.1c-1.6,0-2.9-1.2-3.1-2.8c-0.2-1.7,1.1-3.2,2.8-3.4l323.4-33.2c1.7-0.2,3.2,1.1,3.4,2.8
					c0.2,1.7-1.1,3.2-2.8,3.4L426.4,72C426.3,72.1,426.1,72.1,426,72.1z"/>
			</g>
			<g>
				<path class="wegamers" d="M958.1,323.5c-0.1,0-0.1,0-0.2,0l-545.5-38.1c-1.7-0.1-3-1.6-2.9-3.3c0.1-1.7,1.6-3,3.3-2.9l545.6,38.1
					c1.7,0.1,3,1.6,2.9,3.3C961.1,322.3,959.7,323.5,958.1,323.5z"/>
			</g>
			<g>
				<g>
					<path class="wegamers" d="M831.7,40.1c-8.3,0.7-15.6-5.4-16.3-13.7c-0.7-8.3,5.4-15.6,13.7-16.3c8.3-0.7,15.6,5.4,16.3,13.7
						C846.1,32.1,839.9,39.4,831.7,40.1z M829.4,13.7c-6.3,0.5-11,6.1-10.5,12.4c0.5,6.3,6.1,11,12.4,10.5s11-6.1,10.5-12.4
						C841.3,17.8,835.7,13.1,829.4,13.7z"/>
				</g>
			</g>
			<g>
				<g>
					<path class="wegamers" d="M891.2,34.3l-29,2.5c-0.6,0.1-1.2-0.2-1.6-0.8c-0.4-0.5-0.4-1.2-0.2-1.8l12.3-26.4c0.3-0.6,0.8-1,1.5-1l0,0
						c0.6-0.1,1.2,0.2,1.6,0.8l16.7,23.9c0.4,0.5,0.4,1.2,0.2,1.8C892.4,33.9,891.9,34.2,891.2,34.3z M865,33l22.9-2l-13.1-18.8
						L865,33z"/>
				</g>
			</g>
			<g>
				<path class="wegamers" d="M779.8,325.6c0,0-0.1,0-0.1,0l-367-28.1c-0.7-0.1-1.3-0.7-1.2-1.4c0.1-0.7,0.7-1.3,1.4-1.2l367,28.1
					c0.7,0.1,1.3,0.7,1.2,1.4C781.1,325.1,780.5,325.6,779.8,325.6z"/>
			</g>
			<g>
				<path class="wegamers" d="M426,55.8c-0.7,0-1.3-0.5-1.3-1.2c-0.1-0.7,0.4-1.4,1.2-1.5l298-32.6c0.7-0.1,1.4,0.4,1.5,1.2
					c0.1,0.7-0.4,1.4-1.2,1.5l-298,32.6C426.1,55.8,426.1,55.8,426,55.8z"/>
			</g>
			<g>
				<path class="wegamers" d="M952.4,353.1c0,0-0.1,0-0.1,0l-259.5-19.9c-0.7-0.1-1.3-0.7-1.2-1.4c0.1-0.7,0.7-1.3,1.4-1.2l259.5,19.9
					c0.7,0.1,1.3,0.7,1.2,1.4C953.6,352.6,953.1,353.1,952.4,353.1z"/>
			</g>
			<g>
				<path class="wegamers" d="M779.1,45.9c-0.6,0-1.1-0.3-1.4-0.7l-9-12c-0.4-0.5-0.5-1.2-0.2-1.8l5.9-13.8c0.2-0.6,0.8-1,1.4-1.1
					l14.9-1.8c0.6-0.1,1.3,0.2,1.6,0.7l9,12c0.4,0.5,0.5,1.2,0.2,1.8L795.7,43c-0.2,0.6-0.8,1-1.4,1.1l-14.9,1.8
					C779.3,45.9,779.2,45.9,779.1,45.9z M772.2,31.9l7.8,10.3l12.9-1.6l5.1-11.9l-7.8-10.3L777.2,20L772.2,31.9z"/>
			</g>
		</g>
	</g>
</svg>
