<?xml version="1.0" encoding="UTF-8"?>
<svg width="350px" height="262px" viewBox="0 0 350 262" version="1.1" xmlns="http://www.w3.org/2000/svg" xmlns:xlink="http://www.w3.org/1999/xlink">
    <!-- Generator: Sketch 46.2 (44496) - http://www.bohemiancoding.com/sketch -->
    <title>Wegamers Logo</title>
    <desc>Created with Sketch.</desc>
    <defs></defs>
    <g id="Page-1" stroke="none" stroke-width="1" fill="none" fill-rule="evenodd">
        <g id="Desktop/暫時頁面" transform="translate(-545.000000, -165.000000)" fill-rule="nonzero">
            <g id="Section/Cover" transform="translate(0.000000, 75.000000)">
                <g id="Wegamers-Logo" transform="translate(545.000000, 90.000000)">
                    <g id="Group" transform="translate(0.000000, 227.450980)" fill="#DD5519">
                        <path d="M6.8852459,32.9793028 L6.12021858,28.5947712 C5.92896175,27.6416122 5.54644809,26.1165577 5.16393443,24.4008715 L1.33879781,6.8627451 L0,0.762527233 C1.91256831,0.762527233 3.63387978,0.762527233 4.78142077,0.762527233 C6.12021858,0.762527233 7.84153005,0.762527233 9.56284153,0.762527233 C9.94535519,3.24074074 10.3278689,5.14705882 10.5191257,6.48148148 L12.431694,16.0130719 C12.8142077,18.1100218 13.3879781,20.5882353 13.7704918,23.4477124 L14.5355191,20.2069717 L17.4043716,9.34095861 L19.3169399,0.953159041 C21.420765,0.953159041 23.3333333,0.953159041 24.863388,0.953159041 C26.3934426,0.953159041 28.3060109,0.953159041 30.4098361,0.953159041 L31.9398907,10.8660131 L34.0437158,23.4477124 L35,20.0163399 C35.1912568,19.4444444 35.3825137,18.872549 35.5737705,18.1100218 C35.7650273,17.3474946 36.147541,16.2037037 36.7213115,14.4880174 L39.5901639,5.52832244 L40.9289617,0.953159041 C42.8415301,0.953159041 44.3715847,0.953159041 45.7103825,0.953159041 C47.0491803,0.953159041 48.7704918,0.953159041 50.4918033,0.953159041 L41.3114754,28.2135076 L39.7814208,32.9793028 C37.4863388,32.9793028 35.3825137,32.9793028 33.6612022,32.9793028 C31.7486339,32.9793028 29.8360656,32.9793028 27.5409836,32.9793028 L26.9672131,29.7385621 L24.863388,18.4912854 C24.6721311,17.7287582 24.6721311,17.1568627 24.4808743,16.3943355 C24.4808743,15.6318083 24.2896175,14.4880174 24.0983607,13.1535948 L23.3333333,16.7755991 C23.1420765,17.5381264 22.9508197,18.4912854 22.7595628,19.2538126 L18.9344262,32.9793028 C16.6393443,32.9793028 14.5355191,32.9793028 13.0054645,32.9793028 C11.0928962,32.788671 9.18032787,32.9793028 6.8852459,32.9793028 Z" id="Shape"></path>
                        <path d="M53.1693989,32.9793028 C53.5519126,28.9760349 53.9344262,25.5446623 54.1256831,22.875817 C54.3169399,20.2069717 54.5081967,16.5849673 54.6994536,12.0098039 C54.8907104,7.43464052 54.8907104,4.5751634 54.8907104,3.05010893 L54.8907104,0.953159041 C58.5245902,0.953159041 63.1147541,0.953159041 68.2786885,0.953159041 C73.0601093,0.953159041 77.4590164,0.953159041 81.0928962,0.953159041 L81.0928962,1.71568627 C81.0928962,1.90631808 81.0928962,2.66884532 80.9016393,3.81263617 L80.7103825,6.29084967 C80.7103825,6.8627451 80.7103825,7.43464052 80.7103825,8.00653595 C77.6502732,7.81590414 75.1639344,7.81590414 73.0601093,7.81590414 C70.7650273,7.81590414 69.2349727,7.81590414 68.4699454,7.81590414 C67.704918,7.81590414 66.3661202,7.81590414 64.8360656,8.00653595 L64.4535519,13.3442266 C66.3661202,13.3442266 68.4699454,13.3442266 70.9562842,13.3442266 C71.9125683,13.3442266 74.2076503,13.3442266 78.0327869,13.1535948 C77.8415301,15.2505447 77.6502732,17.5381264 77.6502732,20.3976035 C74.9726776,20.3976035 72.8688525,20.3976035 71.3387978,20.3976035 C69.2349727,20.3976035 66.7486339,20.3976035 64.0710383,20.5882353 L63.8797814,26.3071895 L66.557377,26.3071895 C67.3224044,26.3071895 69.0437158,26.3071895 71.5300546,26.3071895 L76.5027322,26.1165577 C77.2677596,26.1165577 78.4153005,26.1165577 80.136612,25.9259259 C79.9453552,28.2135076 79.7540984,30.6917211 79.7540984,33.1699346 C75.9289617,33.1699346 71.7213115,33.1699346 67.1311475,33.1699346 L56.8032787,33.1699346 L53.1693989,32.9793028 Z" id="Shape"></path>
                        <path d="M104.043716,14.1067538 C106.147541,14.1067538 108.251366,14.1067538 110.163934,14.1067538 C113.415301,14.1067538 116.092896,14.1067538 118.005464,14.1067538 C117.814208,16.2037037 117.622951,19.2538126 117.431694,23.2570806 C117.240437,27.2603486 117.04918,30.1198257 117.04918,32.2167756 C115.327869,32.5980392 113.797814,32.788671 112.459016,32.9793028 C111.311475,33.1699346 109.781421,33.1699346 108.251366,33.3605664 C106.530055,33.5511983 105,33.5511983 103.852459,33.5511983 C101.748634,33.5511983 99.6448087,33.3605664 97.5409836,32.9793028 C95.4371585,32.5980392 93.715847,32.0261438 91.9945355,31.2636166 C90.273224,30.5010893 88.9344262,29.3572985 87.9781421,28.2135076 C86.8306011,26.879085 86.0655738,25.3540305 85.4918033,23.4477124 C84.9180328,21.7320261 84.5355191,19.8257081 84.5355191,17.91939 C84.5355191,14.6786492 85.3005464,11.8191721 86.8306011,8.95969499 C88.3606557,6.29084967 90.6557377,4.00326797 93.715847,2.47821351 C96.7759563,0.953159041 100.601093,-2.84217094e-14 105.191257,-2.84217094e-14 C108.63388,-2.84217094e-14 112.459016,0.381263617 116.666667,1.33442266 C116.666667,3.62200436 116.857923,6.10021786 117.04918,8.95969499 C115.901639,8.57843137 114.945355,8.38779956 114.371585,8.00653595 C113.797814,7.62527233 112.84153,7.62527233 111.885246,7.43464052 C110.928962,7.24400871 109.972678,7.05337691 109.20765,7.05337691 C108.442623,7.05337691 107.677596,6.8627451 106.912568,6.8627451 C105.191257,6.8627451 103.469945,7.05337691 101.939891,7.62527233 C100.409836,8.19716776 99.0710383,8.95969499 97.9234973,9.91285403 C96.7759563,10.8660131 96.010929,12.2004357 95.4371585,13.5348584 C94.863388,14.869281 94.6721311,16.3943355 94.6721311,18.1100218 C94.6721311,19.6350763 95.0546448,21.1601307 95.6284153,22.4945534 C96.2021858,23.828976 97.3497268,24.7821351 98.6885246,25.3540305 C100.027322,25.9259259 101.557377,26.3071895 103.278689,26.3071895 C104.617486,26.3071895 106.147541,26.1165577 107.868852,25.7352941 L108.060109,20.5882353 C107.103825,20.5882353 106.338798,20.5882353 106.147541,20.5882353 L103.661202,20.5882353 L103.852459,17.7287582 C103.852459,17.3474946 103.852459,16.9662309 103.852459,16.3943355 C103.852459,16.0130719 104.043716,15.2505447 104.043716,14.1067538 Z" id="Shape"></path>
                        <path d="M118.579235,32.9793028 L120.491803,29.5479303 L132.73224,6.67211329 L134.071038,4.19389978 C134.453552,3.43137255 135.027322,2.2875817 135.601093,0.953159041 C138.278689,0.953159041 140.382514,0.953159041 141.721311,0.953159041 C144.016393,0.953159041 145.928962,0.953159041 147.84153,0.953159041 L151.284153,10.6753813 L158.360656,29.5479303 L159.699454,32.9793028 C157.021858,32.9793028 155.300546,32.9793028 154.726776,32.9793028 C153.387978,32.9793028 151.47541,32.9793028 148.797814,32.9793028 C148.032787,30.3104575 147.076503,27.2603486 145.737705,23.828976 L133.879781,23.828976 C132.540984,26.4978214 131.010929,29.5479303 129.672131,32.9793028 C126.803279,32.9793028 124.89071,32.9793028 124.31694,32.9793028 C123.169399,32.788671 121.256831,32.9793028 118.579235,32.9793028 Z M136.748634,16.9662309 L144.016393,16.9662309 C142.103825,11.4379085 141.147541,8.38779956 140.956284,7.81590414 C140,10.1034858 139.043716,12.0098039 138.278689,13.5348584 L136.748634,16.9662309 Z" id="Shape"></path>
                        <path d="M161.612022,32.9793028 L162.185792,28.2135076 L163.715847,11.6285403 L164.480874,0.762527233 C167.349727,0.762527233 169.644809,0.762527233 171.36612,0.762527233 C172.704918,0.762527233 174.808743,0.762527233 177.677596,0.762527233 C177.868852,2.09694989 178.060109,3.05010893 178.251366,3.81263617 C178.442623,4.5751634 178.825137,5.90958606 179.20765,7.81590414 C179.781421,9.91285403 180.163934,11.6285403 180.546448,13.1535948 C180.928962,14.6786492 181.311475,17.1568627 182.076503,20.7788671 C182.84153,18.3006536 183.415301,16.2037037 183.989071,14.4880174 C184.562842,12.7723312 185.327869,10.6753813 186.092896,8.38779956 C186.857923,6.10021786 187.431694,4.5751634 187.622951,4.00326797 C187.814208,3.24074074 188.196721,2.2875817 188.579235,0.762527233 C190.874317,0.762527233 193.169399,0.762527233 195.464481,0.762527233 C196.994536,0.762527233 199.098361,0.762527233 201.967213,0.762527233 C201.584699,6.10021786 201.393443,10.6753813 201.393443,14.2973856 C201.202186,21.7320261 201.010929,26.879085 201.010929,29.7385621 C201.010929,30.3104575 201.010929,31.4542484 201.010929,32.9793028 C198.907104,32.9793028 197.568306,32.9793028 196.612022,32.9793028 C195.464481,32.9793028 193.934426,32.9793028 192.213115,32.9793028 C192.404372,31.6448802 192.595628,28.2135076 192.786885,22.875817 C192.978142,17.5381264 193.169399,14.1067538 193.169399,12.7723312 C193.169399,12.2004357 193.169399,11.2472767 193.169399,10.1034858 L190.10929,19.6350763 L185.710383,32.9793028 C183.606557,32.9793028 182.26776,32.9793028 181.502732,32.9793028 C180.546448,32.9793028 179.016393,32.9793028 177.103825,32.9793028 L174.234973,20.0163399 L172.513661,13.1535948 C172.513661,12.962963 172.322404,12.5816993 172.322404,12.2004357 C172.322404,11.8191721 172.131148,11.0566449 171.939891,10.1034858 L171.36612,16.5849673 L170.601093,29.9291939 L170.601093,32.9793028 C168.497268,32.9793028 166.967213,32.9793028 166.393443,32.9793028 C165.054645,32.788671 163.52459,32.9793028 161.612022,32.9793028 Z" id="Shape"></path>
                        <path d="M206.557377,32.9793028 C206.939891,28.9760349 207.322404,25.5446623 207.513661,22.875817 C207.704918,20.2069717 207.896175,16.5849673 208.087432,12.0098039 C208.278689,7.43464052 208.278689,4.5751634 208.278689,3.05010893 L208.278689,0.953159041 C211.912568,0.953159041 216.502732,0.953159041 221.666667,0.953159041 C226.448087,0.953159041 230.846995,0.953159041 234.480874,0.953159041 L234.480874,1.71568627 C234.480874,1.90631808 234.480874,2.66884532 234.289617,3.81263617 L234.098361,6.29084967 C234.098361,6.8627451 234.098361,7.43464052 234.098361,8.00653595 C231.038251,7.81590414 228.551913,7.81590414 226.448087,7.81590414 C224.153005,7.81590414 222.622951,7.81590414 221.857923,7.81590414 C221.092896,7.81590414 219.754098,7.81590414 218.224044,8.00653595 L217.84153,13.3442266 C219.754098,13.3442266 221.857923,13.3442266 224.344262,13.3442266 C225.300546,13.3442266 227.595628,13.3442266 231.420765,13.1535948 C231.229508,15.2505447 231.038251,17.5381264 231.038251,20.3976035 C228.360656,20.3976035 226.256831,20.3976035 224.726776,20.3976035 C222.622951,20.3976035 220.136612,20.3976035 217.459016,20.5882353 L217.26776,26.3071895 L219.945355,26.3071895 C220.710383,26.3071895 222.431694,26.3071895 224.918033,26.3071895 L229.89071,26.1165577 C230.655738,26.1165577 231.803279,26.1165577 233.52459,25.9259259 C233.333333,28.2135076 233.142077,30.6917211 233.142077,33.1699346 C229.31694,33.1699346 225.10929,33.1699346 220.519126,33.1699346 L210.191257,33.1699346 L206.557377,32.9793028 Z" id="Shape"></path>
                        <path d="M238.497268,32.9793028 C238.879781,30.3104575 239.071038,27.6416122 239.262295,25.5446623 C239.453552,23.4477124 239.644809,20.7788671 239.644809,17.91939 C239.836066,15.0599129 239.836066,12.0098039 239.836066,8.76906318 C239.836066,5.52832244 239.836066,2.85947712 239.836066,0.953159041 C241.748634,0.953159041 243.469945,0.953159041 244.617486,0.953159041 C245.956284,0.953159041 247.486339,0.953159041 249.20765,0.762527233 C250.928962,0.762527233 252.84153,0.571895425 254.562842,0.571895425 C256.666667,0.571895425 258.387978,0.571895425 259.918033,0.762527233 C261.065574,0.953159041 262.213115,1.14379085 263.169399,1.52505447 C264.125683,1.90631808 264.89071,2.2875817 265.655738,2.85947712 C266.229508,3.43137255 266.803279,3.81263617 267.377049,4.5751634 C267.759563,5.14705882 268.142077,5.90958606 268.333333,6.67211329 C268.52459,7.43464052 268.715847,8.38779956 268.715847,9.34095861 C268.715847,10.4847495 268.52459,11.4379085 268.333333,12.2004357 C268.142077,12.962963 267.568306,13.916122 266.994536,14.869281 C266.420765,15.6318083 265.655738,16.3943355 264.89071,16.9662309 C264.125683,17.5381264 262.786885,18.1100218 261.256831,18.6819172 L262.404372,21.7320261 C262.786885,22.4945534 263.169399,23.4477124 263.551913,24.2102397 L266.803279,31.0729847 C266.994536,31.4542484 267.185792,32.0261438 267.568306,32.788671 C264.89071,32.788671 263.169399,32.788671 262.404372,32.788671 C261.256831,32.788671 259.344262,32.788671 256.857923,32.788671 C256.666667,32.0261438 256.092896,30.5010893 255.519126,28.2135076 C255.327869,27.2603486 254.945355,26.4978214 254.754098,26.1165577 C254.371585,24.9727669 253.797814,23.4477124 253.032787,21.3507625 L250.546448,14.6786492 C251.311475,14.869281 252.26776,14.869281 253.032787,14.869281 C254.180328,14.869281 255.136612,14.6786492 256.092896,14.2973856 C257.04918,13.916122 257.814208,13.3442266 258.196721,12.7723312 C258.579235,12.2004357 258.961749,11.2472767 258.961749,10.4847495 C258.961749,9.72222222 258.770492,9.1503268 258.387978,8.76906318 C258.005464,8.38779956 257.431694,7.81590414 256.666667,7.62527233 C255.901639,7.43464052 254.754098,7.24400871 253.032787,7.24400871 C252.459016,7.24400871 251.885246,7.24400871 251.311475,7.24400871 C250.737705,7.24400871 249.972678,7.24400871 249.20765,7.24400871 C249.016393,10.4847495 248.825137,14.2973856 248.63388,19.0631808 C248.442623,23.828976 248.442623,28.2135076 248.251366,32.5980392 C245.57377,32.5980392 243.852459,32.5980392 243.087432,32.5980392 C242.513661,32.788671 240.79235,32.9793028 238.497268,32.9793028 Z" id="Shape"></path>
                        <path d="M272.15847,32.4074074 C271.967213,28.9760349 271.775956,26.3071895 271.393443,24.4008715 C273.114754,25.1633987 274.644809,25.7352941 276.174863,26.1165577 C277.513661,26.4978214 278.852459,26.4978214 279.808743,26.4978214 C281.147541,26.4978214 282.295082,26.3071895 283.060109,25.9259259 C283.825137,25.5446623 284.20765,24.9727669 284.20765,24.2102397 C284.20765,24.0196078 284.20765,23.6383442 284.016393,23.4477124 C284.016393,23.2570806 283.825137,22.875817 283.63388,22.6851852 C283.442623,22.3039216 283.060109,22.1132898 282.677596,21.7320261 L278.278689,17.91939 C277.322404,16.9662309 276.557377,16.3943355 276.174863,16.0130719 C275.409836,15.2505447 274.644809,14.4880174 274.262295,13.7254902 C273.879781,12.962963 273.497268,12.3910675 273.306011,11.6285403 C273.114754,10.8660131 272.923497,10.1034858 272.923497,9.34095861 C272.923497,8.38779956 273.114754,7.43464052 273.497268,6.48148148 C273.879781,5.52832244 274.262295,4.76579521 275.027322,3.81263617 C275.79235,3.05010893 276.557377,2.2875817 277.704918,1.71568627 C278.852459,1.14379085 280,0.762527233 281.338798,0.571895425 C282.677596,0.381263617 284.016393,0.190631808 285.355191,0.190631808 C288.032787,0.190631808 290.901639,0.571895425 293.961749,1.14379085 C293.961749,2.2875817 294.153005,3.24074074 294.153005,4.19389978 C294.153005,5.14705882 294.344262,6.67211329 294.535519,8.95969499 C293.005464,8.38779956 291.857923,8.00653595 290.519126,7.81590414 C289.180328,7.62527233 288.224044,7.43464052 287.459016,7.43464052 C286.311475,7.43464052 285.163934,7.62527233 284.398907,8.19716776 C283.63388,8.57843137 283.251366,9.1503268 283.251366,9.91285403 C283.251366,10.2941176 283.251366,10.4847495 283.442623,10.8660131 C283.63388,11.2472767 283.825137,11.4379085 284.20765,11.8191721 C284.590164,12.2004357 284.972678,12.5816993 285.546448,13.1535948 C286.120219,13.7254902 287.076503,14.2973856 288.224044,15.2505447 L289.945355,16.5849673 C290.519126,16.9662309 290.901639,17.5381264 291.666667,18.1100218 C292.240437,18.6819172 292.814208,19.2538126 293.196721,19.8257081 C293.579235,20.3976035 293.961749,20.9694989 294.153005,21.3507625 C294.344262,21.7320261 294.535519,22.3039216 294.726776,22.6851852 C294.918033,23.2570806 294.918033,23.6383442 294.918033,24.2102397 C294.918033,25.5446623 294.535519,26.879085 293.961749,28.2135076 C293.196721,29.5479303 292.240437,30.5010893 291.092896,31.4542484 C289.754098,32.2167756 288.415301,32.788671 287.076503,33.1699346 C285.546448,33.5511983 284.016393,33.7418301 282.295082,33.7418301 C279.234973,33.5511983 275.983607,33.1699346 272.15847,32.4074074 Z" id="Shape"></path>
                        <polygon id="Shape" points="319.20765 1.52505447 319.20765 10.1034858 307.349727 16.5849673 319.20765 23.0664488 319.20765 31.4542484 298.169399 20.0163399 298.169399 12.7723312"></polygon>
                        <path d="M323.989071,32.2167756 C323.797814,28.9760349 323.606557,26.4978214 323.415301,24.5915033 C326.857923,25.7352941 330.10929,26.3071895 332.978142,26.3071895 C334.699454,26.3071895 336.229508,25.9259259 337.185792,25.3540305 C338.333333,24.5915033 338.715847,23.6383442 338.715847,22.4945534 C338.715847,21.3507625 338.142077,20.5882353 336.994536,20.0163399 C335.846995,19.4444444 334.125683,19.2538126 331.830601,19.2538126 C330.300546,19.2538126 328.961749,19.2538126 327.814208,19.4444444 C328.005464,16.9662309 328.196721,14.6786492 328.387978,12.2004357 C329.535519,12.3910675 330.68306,12.5816993 332.021858,12.5816993 C333.360656,12.5816993 334.699454,12.5816993 335.464481,12.3910675 C336.420765,12.2004357 337.185792,11.8191721 337.568306,11.2472767 C338.142077,10.6753813 338.333333,10.1034858 338.333333,9.53159041 C338.333333,8.95969499 338.142077,8.57843137 337.759563,8.00653595 C337.377049,7.62527233 336.803279,7.24400871 336.038251,7.05337691 C335.273224,6.8627451 334.31694,6.8627451 333.169399,6.8627451 C332.213115,6.8627451 331.065574,6.8627451 329.918033,7.05337691 C328.770492,7.24400871 327.240437,7.43464052 325.327869,7.81590414 L326.47541,2.2875817 C326.47541,1.71568627 326.666667,1.33442266 326.666667,0.762527233 C330.10929,0.381263617 333.169399,0.190631808 336.038251,0.190631808 C337.95082,0.190631808 339.672131,0.381263617 341.393443,0.571895425 C343.114754,0.762527233 344.644809,1.33442266 345.79235,1.90631808 C346.939891,2.47821351 347.896175,3.43137255 348.469945,4.5751634 C349.043716,5.71895425 349.42623,6.8627451 349.42623,8.19716776 C349.42623,8.95969499 349.234973,9.72222222 349.043716,10.4847495 C348.852459,11.2472767 348.469945,11.8191721 348.087432,12.5816993 C347.704918,13.1535948 347.131148,13.7254902 346.557377,14.2973856 C345.983607,14.869281 345.409836,15.2505447 344.836066,15.4411765 C344.262295,15.8224401 343.497268,16.0130719 342.540984,16.3943355 C343.497268,16.5849673 344.262295,16.7755991 344.836066,16.9662309 C345.409836,17.1568627 345.983607,17.5381264 346.557377,17.91939 C347.131148,18.3006536 347.513661,18.872549 348.087432,19.4444444 C348.661202,20.0163399 348.852459,20.5882353 349.043716,21.3507625 C349.234973,22.1132898 349.234973,22.6851852 349.234973,23.6383442 C349.234973,25.1633987 348.852459,26.6884532 348.087432,28.0228758 C347.322404,29.3572985 346.36612,30.5010893 344.836066,31.2636166 C343.306011,32.0261438 341.775956,32.788671 340.054645,33.1699346 C338.333333,33.5511983 336.420765,33.7418301 334.699454,33.7418301 C332.978142,33.7418301 331.256831,33.7418301 329.535519,33.5511983 C328.196721,33.1699346 326.284153,32.788671 323.989071,32.2167756 Z" id="Shape"></path>
                    </g>
                    <g id="Group" opacity="0.3" transform="translate(21.568627, 0.000000)" fill="#D2551B">
                        <path d="M147.57712,0.770181947 C169.098913,0.770181947 190.430249,0.57763646 211.952042,0.770181947 C227.18871,0.962727433 241.282628,5.58381911 253.281504,15.4036389 C266.42313,25.9936407 274.041464,40.0494612 277.088797,56.6083731 C283.373923,91.4591062 289.849507,126.117294 296.134632,160.968027 C300.515174,184.651122 286.992631,206.216216 264.13763,211.029853 C247.758212,214.495672 233.854752,209.104399 223.189085,196.203851 C218.999001,191.197668 215.380292,185.613849 211.571125,180.222576 C209.666542,177.526939 209.285625,174.638756 210.99975,171.558029 C212.523417,168.862392 215.189834,167.322028 218.046709,168.09221 C220.332209,168.669846 222.61771,170.402756 223.950918,172.135665 C227.569627,176.564211 230.61696,181.570394 234.235669,186.191486 C240.901711,195.048578 249.853253,198.706942 260.518921,196.588942 C271.375047,194.470942 278.422006,187.346759 281.278881,176.371666 C282.802548,170.21021 281.469339,164.2413 280.326589,158.27239 C274.041464,124.769475 268.137255,91.0740152 261.661671,57.5711005 C257.281129,34.6581876 238.806669,18.2918212 215.761209,16.1738209 C212.904334,15.9812754 210.047458,15.7887299 207.381042,15.7887299 C167.384788,15.7887299 127.388535,15.7887299 87.3922818,15.7887299 C73.1079056,15.7887299 60.5376546,20.2172761 50.0624454,30.2296414 C40.9204446,39.0867338 36.5399026,50.0618265 34.4448607,62.5772832 C28.3501936,96.2727433 22.0650681,129.968203 15.9704009,163.663664 C13.1135257,179.259848 20.5414013,192.352941 35.2066941,196.588942 C44.9200699,199.477124 56.1571125,195.626214 62.6326964,187.154213 C66.251405,182.533121 69.489197,177.526939 72.9174472,172.905847 C76.3456975,168.284755 81.6785313,168.09221 84.9163232,172.135665 C86.8209067,174.446211 87.3922818,177.526939 85.6781566,179.837485 C79.9644061,188.309486 75.0124891,197.551669 66.6323217,203.713125 C52.7288622,214.110581 37.6826527,215.650945 22.2555264,207.564035 C7.20931685,199.66967 -0.599475459,186.384031 0.352816286,169.247483 C0.924191333,158.850026 3.40014987,148.45257 5.30473336,138.055114 C10.2566504,111.098746 15.2085675,84.3349232 20.1604846,57.378555 C25.874235,30.2296414 41.110903,11.9378202 66.8227801,3.85090973 C73.2983639,1.73290938 80.3453228,1.15527292 87.0113651,0.962727433 C107.19995,0.57763646 127.388535,0.770181947 147.57712,0.770181947 Z" id="Shape"></path>
                        <path d="M98.0579493,67.1983748 C98.0579493,71.626921 98.0579493,75.6703763 98.0579493,79.7138315 C98.0579493,84.7200141 95.0106157,87.9932874 90.820532,88.1858329 C86.43999,88.3783784 83.2021981,84.9125596 83.2021981,79.7138315 C83.2021981,75.6703763 83.2021981,71.626921 83.2021981,67.1983748 C79.2025727,67.1983748 75.5838641,67.1983748 71.7746971,67.1983748 C70.060572,67.1983748 68.3464469,67.0058294 66.8227801,66.4281929 C63.7754465,65.0803745 61.870863,61.6145557 62.442238,58.5338279 C63.0136131,55.0680092 66.0609467,52.3723724 69.6796553,52.3723724 C74.0601973,52.1798269 78.250281,52.3723724 83.0117397,52.3723724 C83.0117397,48.1363717 83.0117397,43.900371 83.0117397,39.8569157 C83.0117397,35.4283695 85.2972399,32.3476418 88.9159485,31.5774598 C93.4869489,30.6147324 97.8674909,34.0805511 97.8674909,38.8941883 C98.0579493,43.3227345 97.8674909,47.5587352 97.8674909,52.3723724 C102.057575,52.3723724 106.0572,52.3723724 110.056825,52.3723724 C115.199201,52.3723724 118.627451,55.4531002 118.627451,59.8816464 C118.627451,64.3101925 115.389659,67.3909203 110.247284,67.3909203 C106.438117,67.1983748 102.438491,67.1983748 98.0579493,67.1983748 Z" id="Shape"></path>
                        <path d="M187.382915,71.2418301 C181.859623,71.2418301 177.288622,67.0058294 177.288622,61.2294648 C177.288622,55.6456456 181.669164,51.024554 187.192457,51.024554 C192.52529,51.024554 197.286749,55.4531002 197.286749,61.0369193 C197.286749,66.6207384 192.906207,71.2418301 187.382915,71.2418301 Z" id="Shape"></path>
                        <path d="M207.761958,92.0367426 C202.238666,92.0367426 197.858124,87.6081964 197.858124,81.8318318 C197.858124,76.2480127 202.429125,71.626921 207.952417,71.8194665 C213.475709,71.8194665 217.856251,76.4405582 217.856251,82.0243773 C217.665792,87.6081964 213.28525,92.0367426 207.761958,92.0367426 Z" id="Shape"></path>
                        <path d="M207.761958,50.4469175 C202.238666,50.4469175 197.858124,46.0183713 197.858124,40.2420067 C197.858124,34.6581876 202.429125,30.0370959 207.952417,30.2296414 C213.475709,30.2296414 217.856251,35.0432786 217.856251,40.4345522 C217.665792,46.0183713 213.28525,50.4469175 207.761958,50.4469175 Z" id="Shape"></path>
                        <path d="M228.33146,71.2418301 C222.808168,71.2418301 218.427626,66.8132839 218.427626,61.2294648 C218.427626,55.6456456 222.808168,51.024554 228.33146,51.024554 C233.664294,51.024554 238.425752,55.6456456 238.425752,61.2294648 C238.235294,66.8132839 233.854752,71.2418301 228.33146,71.2418301 Z" id="Shape"></path>
                    </g>
                    <g id="Group" opacity="0.3" transform="translate(109.803922, 139.215686)" fill="#D2551B">
                        <g transform="translate(6.705882, 42.506408)" id="Shape">
                            <path d="M8.83921569,18.3984154 L1.72941176,18.3984154 C0.960784314,18.3984154 0.192156863,17.6074437 0.192156863,16.8164719 C0.192156863,16.0255002 0.960784314,15.2345284 1.72941176,15.2345284 L7.49411765,15.2345284 L9.03137255,1.98575186 C9.22352941,1.19478012 9.8,0.601551317 10.7607843,0.601551317 C11.5294118,0.799294251 12.1058824,1.39252305 12.1058824,2.38123772 L10.3764706,17.0142149 C10.1843137,17.8051866 9.60784314,18.3984154 8.83921569,18.3984154 Z"></path>
                        </g>
                        <g transform="translate(26.901961, 41.526016)" id="Shape">
                            <path d="M7.28235294,19.3788076 L2.09411765,19.3788076 C1.3254902,19.3788076 0.556862745,18.5878358 0.556862745,17.7968641 L0.556862745,1.97742934 C0.556862745,1.18645761 1.3254902,0.395485868 2.09411765,0.395485868 C2.8627451,0.395485868 3.63137255,1.18645761 3.63137255,1.97742934 L3.63137255,16.0171777 L7.28235294,16.0171777 C8.05098039,16.0171777 8.81960784,16.8081494 8.81960784,17.5991211 C8.81960784,18.3900929 8.05098039,19.3788076 7.28235294,19.3788076 Z"></path>
                        </g>
                        <g id="Shape">
                            <path d="M23.4235294,47.4583042 C10.9333333,47.4583042 0.749019608,36.9779287 0.749019608,24.124638 C0.749019608,11.2713472 10.9333333,0.790971737 23.4235294,0.790971737 C35.9137255,0.790971737 46.0980392,11.2713472 46.0980392,24.124638 C46.0980392,36.9779287 35.9137255,47.4583042 23.4235294,47.4583042 Z M23.4235294,17.0058923 C19.772549,17.0058923 16.6980392,20.1697793 16.6980392,23.926895 C16.6980392,27.6840108 19.772549,30.8478977 23.4235294,30.8478977 C27.0745098,30.8478977 30.1490196,27.6840108 30.1490196,23.926895 C30.1490196,20.1697793 27.0745098,17.0058923 23.4235294,17.0058923 Z"></path>
                        </g>
                    </g>
                    <g id="Group" opacity="0.3" transform="translate(190.196078, 147.058824)" fill="#D2551B">
                        <g transform="translate(5.614973, 37.545241)" id="Shape">
                            <path d="M7.67379679,15.7272402 L1.31016043,15.7272402 C0.561497326,15.7272402 -1.42108547e-14,15.1640616 -1.42108547e-14,14.4131567 C-1.42108547e-14,13.6622519 0.561497326,13.0990733 1.31016043,13.0990733 L6.55080214,13.0990733 L8.04812834,1.46004852 C8.23529412,0.709143698 8.79679144,0.14596508 9.54545455,0.333691286 C10.2941176,0.521417492 10.855615,1.08459611 10.6684492,1.83550093 L8.98395722,14.7886092 C8.98395722,15.1640616 8.42245989,15.7272402 7.67379679,15.7272402 Z"></path>
                        </g>
                        <g transform="translate(23.440285, 36.564849)" id="Shape">
                            <path d="M6.69340463,16.7076323 L2.01426025,16.7076323 C1.26559715,16.7076323 0.704099822,16.1444537 0.704099822,15.3935489 L0.704099822,1.68953585 C0.704099822,0.938631031 1.26559715,0.375452412 2.01426025,0.375452412 C2.76292335,0.375452412 3.32442068,0.938631031 3.32442068,1.68953585 L3.32442068,14.0794655 L6.69340463,14.0794655 C7.44206774,14.0794655 8.00356506,14.6426441 8.00356506,15.3935489 C8.19073084,15.9567275 7.44206774,16.7076323 6.69340463,16.7076323 Z"></path>
                        </g>
                        <g id="Shape">
                            <path d="M20.5882353,41.4457304 C9.17112299,41.4457304 0,32.2471463 0,20.7958478 C0,9.34454918 9.17112299,0.14596508 20.5882353,0.14596508 C32.0053476,0.14596508 41.1764706,9.34454918 41.1764706,20.7958478 C40.9893048,32.0594201 31.8181818,41.4457304 20.5882353,41.4457304 Z M20.5882353,14.6008829 C17.2192513,14.6008829 14.4117647,17.416776 14.4117647,20.7958478 C14.4117647,24.1749195 17.2192513,26.9908126 20.5882353,26.9908126 C23.9572193,26.9908126 26.7647059,24.1749195 26.7647059,20.7958478 C26.5775401,17.416776 23.9572193,14.6008829 20.5882353,14.6008829 Z"></path>
                        </g>
                    </g>
                    <g id="Group" opacity="0.3" transform="translate(155.882353, 153.921569)" fill="#D2551B">
                        <g transform="translate(5.588235, 32.355556)" id="Shape">
                            <path d="M6.70588235,13.865098 L1.30392157,13.865098 C0.745098039,13.865098 0.18627451,13.2941176 0.18627451,12.7231373 C0.18627451,12.1521569 0.745098039,11.5811765 1.30392157,11.5811765 L5.7745098,11.5811765 L7.07843137,1.49385621 C7.07843137,0.922875817 7.82352941,0.351895425 8.38235294,0.542222222 C8.94117647,0.542222222 9.5,1.30352941 9.31372549,1.8745098 L8.00980392,13.1037908 C7.82352941,13.4844444 7.45098039,13.865098 6.70588235,13.865098 Z"></path>
                        </g>
                        <g transform="translate(21.470588, 31.375163)" id="Shape">
                            <path d="M5.16666667,14.8454902 L1.25490196,14.8454902 C0.696078431,14.8454902 0.137254902,14.2745098 0.137254902,13.7035294 L0.137254902,1.71294118 C0.137254902,1.14196078 0.696078431,0.570980392 1.25490196,0.570980392 C1.81372549,0.570980392 2.37254902,1.14196078 2.37254902,1.71294118 L2.37254902,12.5615686 L5.16666667,12.5615686 C5.7254902,12.5615686 6.28431373,13.132549 6.28431373,13.7035294 C6.28431373,14.2745098 5.91176471,14.8454902 5.16666667,14.8454902 Z"></path>
                        </g>
                        <g id="Shape">
                            <path d="M18.4411765,35.9430065 C8.75490196,35.9430065 0.931372549,27.949281 0.931372549,18.0522876 C0.931372549,8.15529412 8.75490196,0.161568627 18.4411765,0.161568627 C28.127451,0.161568627 35.9509804,8.15529412 35.9509804,18.0522876 C35.9509804,27.949281 28.127451,35.9430065 18.4411765,35.9430065 Z M18.4411765,12.7231373 C15.6470588,12.7231373 13.2254902,15.1973856 13.2254902,18.0522876 C13.2254902,20.9071895 15.6470588,23.3814379 18.4411765,23.3814379 C21.2352941,23.3814379 23.6568627,20.9071895 23.6568627,18.0522876 C23.6568627,15.1973856 21.4215686,12.7231373 18.4411765,12.7231373 Z"></path>
                        </g>
                    </g>
                    <path d="M169.052039,0.0850719142 C190.743553,0.0850719142 212.243106,-0.106339893 233.93462,0.0850719142 C249.291444,0.276483721 263.496506,4.87036709 275.590005,14.6323692 C288.835265,25.1600186 296.513677,39.1330805 299.585042,55.5944959 C305.919732,90.240033 312.446382,124.694158 318.781072,159.339695 C323.196159,182.883348 309.566978,204.32147 286.531742,209.106765 C270.023156,212.552178 256.010054,207.192647 245.260278,194.368056 C241.037151,189.391349 237.389905,183.840407 233.550699,178.480876 C231.631096,175.801111 231.247176,172.929934 232.974818,169.867345 C234.510501,167.187579 237.197945,165.656285 240.077349,166.421932 C242.380873,166.996168 244.684397,168.718874 246.028119,170.44158 C249.675364,174.844052 252.746729,179.820759 256.393975,184.414642 C263.112585,193.219585 272.134719,196.856409 282.884496,194.75088 C293.826233,192.64535 300.928764,185.563113 303.808169,174.65264 C305.343851,168.527462 304.000129,162.593696 302.848367,156.65993 C296.513677,123.354276 290.562908,89.8572094 284.036258,56.551555 C279.621171,33.7735499 261.001022,17.5035463 237.773826,15.3980165 C234.894421,15.2066047 232.015017,15.0151929 229.327573,15.0151929 C189.01591,15.0151929 148.704247,15.0151929 108.392585,15.0151929 C93.9955623,15.0151929 81.3261826,19.4176644 70.7683662,29.3710784 C61.5542719,38.1760215 57.139185,49.0864945 55.0276217,61.5282619 C48.8848921,95.0253282 42.5502023,128.522394 36.4074727,162.019461 C33.5280683,177.523817 41.0145199,190.53982 55.7954629,194.75088 C65.5854381,197.622057 76.9110957,193.793821 83.4377459,185.371701 C87.0849916,180.777818 90.3483166,175.801111 93.803602,171.207227 C97.2588874,166.613344 102.633776,166.421932 105.897101,170.44158 C107.816704,172.738522 108.392585,175.801111 106.664942,178.098052 C100.906133,186.520172 95.9151653,195.707939 87.4689122,201.833116 C73.4558104,212.169354 58.2909468,213.700648 42.7421626,205.661353 C27.577299,197.813468 19.7069268,184.606054 20.6667283,167.570403 C21.2426092,157.234165 23.738093,146.897928 25.657696,136.56169 C30.6486638,109.764037 35.6396315,83.1577961 40.6305993,56.3601432 C46.3894083,29.3710784 61.7462321,11.3783685 87.8528328,3.14766083 C94.3794829,1.04213095 101.482014,0.467895528 108.200624,0.276483721 C128.356456,-0.106339893 148.704247,0.0850719142 169.052039,0.0850719142 Z" id="Shape" fill="#D2551B"></path>
                    <path d="M118.07723,66.8460279 C118.07723,71.3577178 118.07723,75.4770869 118.07723,79.5964559 C118.07723,84.6966271 114.945607,88.0313544 110.639626,88.2275148 C106.137917,88.4236752 102.810568,84.8927875 102.810568,79.5964559 C102.810568,75.4770869 102.810568,71.3577178 102.810568,66.8460279 C98.7003126,66.8460279 94.9815101,66.8460279 91.0669813,66.8460279 C89.3054433,66.8460279 87.5439053,66.6498675 85.9780938,66.0613862 C82.8464707,64.6882632 80.8892062,61.1573755 81.4763856,58.0188086 C82.0635649,54.4879209 85.195188,51.7416748 88.9139904,51.7416748 C93.4156986,51.5455144 97.7216803,51.7416748 102.614841,51.7416748 C102.614841,47.4261454 102.614841,43.1106159 102.614841,38.9912469 C102.614841,34.479557 104.963559,31.3409901 108.682361,30.5563484 C113.379796,29.5755462 117.881504,33.106434 117.881504,38.0104447 C118.07723,42.5221346 117.881504,46.8376641 117.881504,51.7416748 C122.187486,51.7416748 126.297741,51.7416748 130.407996,51.7416748 C135.69261,51.7416748 139.215686,54.8802417 139.215686,59.3919316 C139.215686,63.9036215 135.888337,67.0421884 130.603723,67.0421884 C126.493467,67.0421884 122.383212,66.8460279 118.07723,66.8460279 Z" id="Shape" fill="#D2551B"></path>
                    <path d="M207.45098,68.627451 C201.764706,68.627451 197.058824,64.3137255 197.058824,58.4313725 C197.058824,52.745098 201.568627,48.0392157 207.254902,48.0392157 C212.745098,48.0392157 217.647059,52.5490196 217.647059,58.2352941 C217.647059,64.1176471 213.137255,68.627451 207.45098,68.627451 Z" id="Shape" fill="#D2551B"></path>
                    <path d="M227.843137,88.2352941 C222.156863,88.2352941 217.647059,83.7267853 217.647059,77.8461216 C217.647059,72.1614801 222.352941,67.4569491 228.039216,67.6529712 C233.72549,67.6529712 238.235294,72.3575022 238.235294,78.0421437 C238.235294,83.7267853 233.529412,88.2352941 227.843137,88.2352941 Z" id="Shape" fill="#D2551B"></path>
                    <path d="M227.843137,48.0330614 C222.156863,48.0330614 217.647059,43.5259002 217.647059,37.6469944 C217.647059,31.9640522 222.352941,27.2609275 228.039216,27.456891 C233.72549,27.456891 238.235294,32.3559792 238.235294,37.842958 C238.039216,43.7218638 233.529412,48.2290249 227.843137,48.0330614 Z" id="Shape" fill="#D2551B"></path>
                    <path d="M248.431373,68.627451 C242.745098,68.627451 238.235294,64.1176471 238.235294,58.4313725 C238.235294,52.745098 242.745098,48.0392157 248.431373,48.0392157 C253.921569,48.0392157 258.823529,52.745098 258.823529,58.4313725 C258.823529,64.1176471 254.117647,68.627451 248.431373,68.627451 Z" id="Shape" fill="#D2551B"></path>
                    <g id="Group" transform="translate(104.901961, 139.215686)" fill="#D2551B">
                        <path d="M15.7568627,59.6078431 L8.64705882,59.6078431 C7.87843137,59.6078431 7.10980392,58.8235294 7.10980392,58.0392157 C7.10980392,57.254902 7.87843137,56.4705882 8.64705882,56.4705882 L14.4117647,56.4705882 L15.9490196,43.3333333 C16.1411765,42.5490196 16.7176471,41.9607843 17.6784314,41.9607843 C18.4470588,42.1568627 19.0235294,42.745098 19.0235294,43.7254902 L17.2941176,58.2352941 C17.1019608,59.0196078 16.5254902,59.6078431 15.7568627,59.6078431 Z" id="Shape"></path>
                        <path d="M34.3960784,59.6078431 L29.2078431,59.6078431 C28.4392157,59.6078431 27.6705882,58.8235294 27.6705882,58.0392157 L27.6705882,42.5490196 C27.6705882,41.7647059 28.4392157,40.9803922 29.2078431,40.9803922 C29.9764706,40.9803922 30.745098,41.7647059 30.745098,42.5490196 L30.745098,56.4705882 L34.3960784,56.4705882 C35.1647059,56.4705882 35.9333333,57.254902 35.9333333,58.0392157 C35.9333333,58.8235294 35.1647059,59.6078431 34.3960784,59.6078431 Z" id="Shape"></path>
                        <path d="M23.6352941,46.2745098 C11.145098,46.2745098 0.960784314,35.8823529 0.960784314,23.1372549 C0.960784314,10.3921569 11.145098,0 23.6352941,0 C36.1254902,0 46.3098039,10.3921569 46.3098039,23.1372549 C46.3098039,35.8823529 36.1254902,46.2745098 23.6352941,46.2745098 Z M23.6352941,16.0784314 C19.9843137,16.0784314 16.9098039,19.2156863 16.9098039,22.9411765 C16.9098039,26.6666667 19.9843137,29.8039216 23.6352941,29.8039216 C27.2862745,29.8039216 30.3607843,26.6666667 30.3607843,22.9411765 C30.3607843,19.2156863 27.4784314,16.0784314 23.6352941,16.0784314 Z" id="Shape"></path>
                    </g>
                    <g id="Group" transform="translate(188.235294, 143.137255)" fill="#D2551B">
                        <path d="M13.9812447,52.9918864 L7.45950554,52.9918864 C6.69224211,52.9918864 6.11679454,52.4340771 6.11679454,51.6903313 C6.11679454,50.9465855 6.69224211,50.3887762 7.45950554,50.3887762 L12.8303495,50.3887762 L14.3648764,38.8607167 C14.5566922,38.1169709 15.1321398,37.5591616 15.8994032,37.745098 C16.6666667,37.9310345 17.2421142,38.4888438 17.0502984,39.2325896 L15.3239557,52.0622042 C15.1321398,52.4340771 14.5566922,52.9918864 13.9812447,52.9918864 Z" id="Shape"></path>
                        <path d="M31.2446718,52.9918864 L26.4492754,52.9918864 C25.6820119,52.9918864 25.1065644,52.4340771 25.1065644,51.6903313 L25.1065644,38.1169709 C25.1065644,37.3732252 25.6820119,36.8154158 26.4492754,36.8154158 C27.2165388,36.8154158 27.7919864,37.3732252 27.7919864,38.1169709 L27.7919864,50.3887762 L31.2446718,50.3887762 C32.0119352,50.3887762 32.5873828,50.9465855 32.5873828,51.6903313 C32.5873828,52.4340771 32.0119352,52.9918864 31.2446718,52.9918864 Z" id="Shape"></path>
                        <path d="M21.2702472,41.2778905 C9.56947997,41.2778905 0.170502984,32.1670047 0.170502984,20.8248817 C0.170502984,9.48275862 9.56947997,0.371872887 21.2702472,0.371872887 C32.9710145,0.371872887 42.3699915,9.48275862 42.3699915,20.8248817 C42.3699915,32.1670047 32.7791986,41.2778905 21.2702472,41.2778905 Z M21.2702472,14.688979 C17.8175618,14.688979 14.940324,17.4780257 14.940324,20.8248817 C14.940324,24.1717377 17.8175618,26.9607843 21.2702472,26.9607843 C24.7229327,26.9607843 27.6001705,24.1717377 27.6001705,20.8248817 C27.4083546,17.4780257 24.7229327,14.688979 21.2702472,14.688979 Z" id="Shape"></path>
                    </g>
                    <g id="Group" transform="translate(152.941176, 150.000000)" fill="#D2551B">
                        <path d="M12.3529412,46.8862745 L6.66666667,46.8862745 C6.07843137,46.8862745 5.49019608,46.3098039 5.49019608,45.7333333 C5.49019608,45.1568627 6.07843137,44.5803922 6.66666667,44.5803922 L11.372549,44.5803922 L12.745098,34.3960784 C12.745098,33.8196078 13.5294118,33.2431373 14.1176471,33.4352941 C14.7058824,33.4352941 15.2941176,34.2039216 15.0980392,34.7803922 L13.7254902,46.1176471 C13.3333333,46.5019608 12.9411765,46.8862745 12.3529412,46.8862745 Z" id="Shape"></path>
                        <path d="M27.4509804,46.8862745 L23.3333333,46.8862745 C22.745098,46.8862745 22.1568627,46.3098039 22.1568627,45.7333333 L22.1568627,33.627451 C22.1568627,33.0509804 22.745098,32.4745098 23.3333333,32.4745098 C23.9215686,32.4745098 24.5098039,33.0509804 24.5098039,33.627451 L24.5098039,44.5803922 L27.4509804,44.5803922 C28.0392157,44.5803922 28.627451,45.1568627 28.627451,45.7333333 C28.627451,46.3098039 28.0392157,46.8862745 27.4509804,46.8862745 Z" id="Shape"></path>
                        <path d="M18.627451,36.5098039 C8.43137255,36.5098039 0.196078431,28.4392157 0.196078431,18.4470588 C0.196078431,8.45490196 8.43137255,0.384313725 18.627451,0.384313725 C28.8235294,0.384313725 37.0588235,8.45490196 37.0588235,18.4470588 C37.0588235,28.4392157 28.8235294,36.5098039 18.627451,36.5098039 Z M18.627451,13.0666667 C15.6862745,13.0666667 13.1372549,15.5647059 13.1372549,18.4470588 C13.1372549,21.3294118 15.6862745,23.827451 18.627451,23.827451 C21.5686275,23.827451 24.1176471,21.3294118 24.1176471,18.4470588 C24.1176471,15.5647059 21.7647059,13.0666667 18.627451,13.0666667 Z" id="Shape"></path>
                    </g>
                </g>
            </g>
        </g>
    </g>
</svg>