<?xml version="1.0" encoding="UTF-8"?>
<svg width="195px" height="25px" viewBox="0 0 195 25" version="1.1" xmlns="http://www.w3.org/2000/svg" xmlns:xlink="http://www.w3.org/1999/xlink">
  <title>Twitch</title>
  <g stroke="none" stroke-width="1" fill="none" fill-rule="evenodd">
    <g transform="translate(-1069.000000, -25.000000)" fill="#FFFFFF">
      <g id="Twitch" transform="translate(1069.000000, 25.000000)">
        <path d="M193.26006,8.62151406 L190.218799,5.60352708 L184.56745,5.60352708 L184.56745,1.72521693 L179.783767,1.72521693 L179.783767,19.3975277 L184.56745,19.3975277 L184.56745,10.3453247 L188.478859,10.3453247 L188.478859,19.3975277 L193.26006,19.3975277 L193.26006,8.62151406 Z M178.049145,5.60352708 L170.657502,5.60352708 L167.613759,8.62151406 L167.613759,16.380947 L170.657502,19.3975277 L178.049145,19.3975277 L178.049145,14.6557301 L172.39496,14.6557301 L172.39496,10.3453247 L178.049145,10.3453247 L178.049145,5.60352708 Z M165.873819,5.60352708 L161.96241,5.60352708 L161.96241,1.72521693 L157.178727,1.72521693 L157.178727,16.380947 L160.22247,19.3975277 L165.873819,19.3975277 L165.873819,14.6557301 L161.96241,14.6557301 L161.96241,10.3453247 L165.873819,10.3453247 L165.873819,5.60352708 Z M150.660068,3.88041965 L155.441269,3.88041965 L155.441269,1.72521693 L150.660068,1.72521693 L150.660068,3.88041965 Z M150.660068,19.3978793 L155.441269,19.3978793 L155.441269,5.60352708 L150.660068,5.60352708 L150.660068,19.3978793 Z M148.919773,5.60352708 L144.138571,5.60352708 L144.138571,14.6557301 L142.398631,14.6557301 L142.398631,5.60352708 L137.61743,5.60352708 L137.61743,14.6557301 L135.879972,14.6557301 L135.879972,5.60352708 L131.096289,5.60352708 L131.096289,19.3975277 L145.87603,19.3975277 L148.919773,16.380947 L148.919773,5.60352708 Z M129.358476,5.60352708 L125.444585,5.60352708 L125.444585,1.72521693 L120.663384,1.72521693 L120.663384,16.380947 L123.707482,19.3975277 L129.358476,19.3975277 L129.358476,14.6557301 L125.444585,14.6557301 L125.444585,10.3453247 L129.358476,10.3453247 L129.358476,5.60352708 Z M195,7.75732347 L195,20.6902977 L188.478859,25 L184.133795,25 L184.133795,22.845852 L181.08757,25 L177.176516,25 L177.176516,22.845852 L175.002566,25 L168.047769,25 L165.873819,22.845852 L165.437327,25 L159.355159,25 L156.865275,22.845852 L156.726988,25 L149.82857,25 L149.584616,22.845852 L147.716317,25 L137.183775,25 L135.009824,24.1386221 L135.009824,25 L129.358476,25 L122.837334,21.1216898 L118.925926,17.2412702 L118.925926,0 L127.184526,0 L131.096289,3.88077123 L148.919773,3.88077123 L148.919773,0 L163.700223,0 L163.700223,3.88077123 L167.613759,3.88077123 L167.613759,6.03597395 L169.787709,3.88077123 L174.1349,3.88077123 L178.049145,0 L186.305263,0 L186.305263,3.88077123 L191.08611,3.88077123 L195,7.75732347 Z" id="Logo"></path>
        <g transform="translate(0.000000, 5.288462)">
          <path d="M2.06624434,8.3241851 L4.05729257,8.3241851 C5.66544691,8.3241851 6.90985205,7.4771899 6.90985205,5.48204567 L6.90985205,4.99267067 C6.90985205,2.6963726 5.53143405,2.11288702 4.05729257,2.11288702 L2.06624434,2.11288702 L2.06624434,8.3241851 Z M2.06624434,10.0934639 L2.06624434,13.5943774 L0.190064273,13.5943774 L0.190064273,0.3244375 L4.15301604,0.3244375 C6.79498389,0.3244375 8.76688742,1.98113221 8.76688742,4.99267067 L8.76688742,5.50086779 C8.76688742,8.51240625 6.79498389,10.0934639 4.15301604,10.0934639 L2.06624434,10.0934639 Z" id="Fill-2"></path>
          <path d="M18.4732121,9.24629447 L18.4732121,4.6348762 C18.4732121,2.80913101 17.3245304,1.86802524 15.8503889,1.86802524 C14.5290505,1.86802524 13.2275658,2.69619832 13.2275658,4.61605409 L13.2275658,9.22747236 C13.2275658,11.0535661 14.3758929,11.9946719 15.8503889,11.9946719 C17.1713729,11.9946719 18.4732121,11.1664988 18.4732121,9.24629447 M11.3513857,9.17100601 L11.3513857,4.71016466 C11.3513857,1.99978005 13.1892764,0.0987463942 15.8503889,0.0987463942 C18.4923568,0.0987463942 20.3685369,1.99978005 20.3685369,4.71016466 L20.3685369,9.17100601 C20.3685369,11.8817392 18.4923568,13.7639507 15.8503889,13.7639507 C13.1892764,13.7639507 11.3513857,11.8817392 11.3513857,9.17100601" id="Fill-4"></path>
          <polygon id="Fill-6" points="25.6905492 13.5944471 22.2827936 0.324507212 24.1781184 0.324507212 26.705218 10.2252885 29.0791602 0.324507212 30.7447486 0.324507212 33.1186907 10.2252885 35.6649351 0.324507212 37.5602598 0.324507212 34.1333595 13.5944471 32.2571794 13.5944471 29.9215267 3.86341346 27.5667293 13.5944471"></polygon>
          <polygon id="Fill-8" points="41.9250729 11.806381 47.5536131 11.806381 47.5536131 13.594482 40.0488929 13.594482 40.0488929 0.324542067 47.5536131 0.324542067 47.5536131 2.11264303 41.9250729 2.11264303 41.9250729 6.10328005 46.0220375 6.10328005 46.0220375 7.74080409 41.9250729 7.74080409"></polygon>
          <path d="M52.588526,8.00424399 L54.5795742,8.00424399 C56.1877285,8.00424399 57.4321337,7.21371514 57.4321337,5.31268149 L57.4321337,4.86060216 C57.4321337,2.79051803 56.2068732,2.11292187 54.5795742,2.11292187 L52.588526,2.11292187 L52.588526,8.00424399 Z M52.588526,9.77352284 L52.588526,13.5944123 L50.7123459,13.5944123 L50.7123459,0.324472356 L54.7901658,0.324472356 C57.5278572,0.324472356 59.289169,1.98116707 59.289169,4.95471274 L59.289169,5.33150361 C59.289169,7.53369111 58.1213427,8.90770553 56.3600308,9.37825841 L59.231735,13.5944123 L57.0683845,13.5944123 L54.5795742,9.77352284 L52.588526,9.77352284 Z" id="Fill-10"></path>
          <polygon id="Fill-12" points="64.1325995 11.806381 69.7611397 11.806381 69.7611397 13.594482 62.2564194 13.594482 62.2564194 0.324542067 69.7611397 0.324542067 69.7611397 2.11264303 64.1325995 2.11264303 64.1325995 6.10328005 68.2295641 6.10328005 68.2295641 7.74080409 64.1325995 7.74080409"></polygon>
          <path d="M77.0361236,11.8250986 C78.6634227,11.8250986 79.8886831,10.9969255 79.8886831,8.23042308 L79.8886831,5.65144471 C79.8886831,2.92223798 78.6825673,2.11288702 77.0361236,2.11288702 L74.7961944,2.11288702 L74.7961944,11.8250986 L77.0361236,11.8250986 Z M72.9200143,13.5943774 L72.9200143,0.3244375 L77.2467153,0.3244375 C79.9078278,0.3244375 81.7648632,1.99995433 81.7648632,5.23735817 L81.7648632,8.66298317 C81.7648632,11.8815649 79.9078278,13.5943774 77.2467153,13.5943774 L72.9200143,13.5943774 Z" id="Fill-14"></path>
          <path d="M94.2852807,7.64648438 L91.8726946,7.64648438 L91.8726946,11.824994 L94.0938337,11.824994 C95.5871199,11.824994 96.6975122,11.3732632 96.6975122,9.81102764 L96.6975122,9.56634014 C96.6975122,8.17385216 95.6636987,7.64648438 94.2852807,7.64648438 L94.2852807,7.64648438 Z M91.8726946,6.17835937 L94.4384382,6.17835937 C95.7402775,6.17835937 96.5634993,5.57605168 96.5634993,4.25850361 L96.5634993,3.99499399 C96.5634993,2.48922476 95.4722517,2.11278245 93.9598209,2.11278245 L91.8726946,2.11278245 L91.8726946,6.17835937 Z M89.9968691,0.32468149 L94.0172549,0.32468149 C96.6783675,0.32468149 98.4396794,1.34107572 98.4396794,3.80677284 L98.4396794,3.99499399 C98.4396794,5.55722957 97.7313257,6.46069111 96.5060652,6.91242188 C97.8079045,7.36415264 98.5545476,8.28678486 98.5545476,9.84867188 L98.5545476,9.9992488 C98.5545476,12.5029387 96.8123804,13.5942728 94.1512678,13.5942728 L89.9968691,13.5942728 L89.9968691,0.32468149 Z" id="Fill-16"></path>
          <path d="M101.923624,0.324576923 L105.025064,6.8373774 L108.183939,0.324576923 L110.194132,0.324576923 C108.777424,3.07260577 107.380216,6.00920433 105.963509,8.75723317 L105.963509,13.5945168 L104.086974,13.5945168 L104.086974,8.75723317 L99.8939317,0.324576923 L101.923624,0.324576923 Z" id="Fill-18"></path>
        </g>
      </g>
    </g>
  </g>
</svg>