<?xml version="1.0" encoding="utf-8"?>
<svg version="1.1" id="activity_word" xmlns="http://www.w3.org/2000/svg" xmlns:xlink="http://www.w3.org/1999/xlink" x="0px" y="0px"
	 viewBox="0 0 747.5 288.5" style="enable-background:new 0 0 747.5 288.5;" xml:space="preserve">
	<style type="text/css">
		.word{fill:#FFFFFF;}
		.yellow{fill:#FDE001;}
		.pink{fill:#FFF4FF;}
		.button{fill:#852C6E;}
		.grey{fill:#C9CACA;}
	</style>
	<g>
		<path class="word" d="M468.1,10.4c-0.7,0.7-1.3,1.3-1.9,2c7.4,3.8,14.5,5.8,23,5.8l0.1,0.7c-2.7,0.6-3.7,1.6-3.7,4.5
			c0,0.7,0.1,1.3,0.4,1.9l-0.4,0.4c-4.1-0.9-8.2-1.9-11.9-3.9v1.6h-25.1v-1.8c-4.4,1.3-8.8,2.3-13.3,3.1l-0.1-0.5
			c4.8-2.1,10.3-4.6,14.3-7.9c2.2-1.7,4.3-3.7,6.1-5.8H468.1z M440,25.3h8.7v0.9h25l2.6-2.2l9,2.3l-2.6,2.2v14.9h-5.3l5.6,1.5l-2.9,2
			v17.7h-8.9v-2.3h-19.8v2.3h-8.9V44.1h8.9v0.8H471l3.1-2.2v-1h-25.4v1.7H440V25.3z M457.9,37.8V30h-9.2v7.8H457.9z M449.2,31.1
			c1.9,0.2,5.8,0.5,7,2c0.4,0.5,0.8,1.2,0.8,1.9c0,1.3-1.1,2.2-2.3,2.2c-2.5,0-2.6-2-3.5-3.8c-0.5-1.1-1.4-1.4-2.5-2L449.2,31.1z
			M471.3,51.5v-2.8h-19.8v2.8H471.3z M471.3,55.3h-19.8v3.1h19.8V55.3z M470.2,19.5c-2.3-1.3-4.3-3.6-6.1-5.5
			c-3.5,2.4-6.5,3.8-10.4,5.5H470.2z M474.1,32.4V30h-9.5v7.8h0.5c1.6-2.3,2.8-4.3,3.7-7L474.1,32.4z M474.1,37.8V33
			c-2.3,1.9-4.6,3.3-7.2,4.8H474.1z"/>
		<path class="word" d="M495.3,65l-0.2-0.6c6-2.5,11.2-5.1,15.2-10.5l13.1-0.1C516.3,61.2,505.2,64.3,495.3,65z M509.7,28.1V29H534
			l2.9-2.2H531v-2h-17.2v2.5h-8.8V10.7h8.8v2.1h16.9l3.2-3.1l9.4,2.8l-3.5,2v12.5h-2.2l8.1,1.6l-2.9,2.3v23.2h-8.6v-2.3h-24.6v1.9
			h-8.6V28.1H509.7z M534.3,35.3v-2.8h-24.6v2.8H534.3z M534.3,41.3v-2.5h-24.6v2.5H534.3z M534.3,48.1v-3.4h-24.6v3.4H534.3z
			M531,21.3v-5.1h-17.2v5.1H531z M526.4,54.2c4.1,0.4,8.2,0.3,12.4,1c2.8,0.5,8.3,2,8.3,5.7c0,2.2-1.4,4.4-3.7,3.9
			c-5.2-1.1-6.7-3.9-10.4-6.8c-2-1.6-4.4-2.3-6.8-3.2L526.4,54.2z"/>
		<path class="word" d="M558.2,60.9c3.9-3.4,6.5-7.9,9.3-12.2c-3-2-6.1-3.4-9.5-4.4c1.3-4.7,2.2-9.4,2.9-14.2c0.2-1.3,0.4-2.6,0.5-4
			c0.1-1.7,0.2-3.5,0.4-5.2h-5.4v-4.1h5.6c0.1-2,0.1-4,0.2-6h8.8c-0.1,2-0.2,4-0.4,6h3.1l2-2.5l8,1.7l-2.3,2.5
			c-0.2,5.6-0.2,11.9-1.5,17.4c-0.4,1.6-0.8,3.1-1.3,4.7c-0.3,1-0.6,2-1,2.9c-0.5,1.3-1.2,2.6-1.8,3.9c2.4,1.4,7.6,4.4,7.6,7.6
			c0,1.9-2.2,3.1-3.8,3.1c-3.7,0-5.2-3.5-7.6-5.8c-5.5,5.9-8.6,8.2-16,11.3l-0.4-0.4C556.5,62.4,557.4,61.7,558.2,60.9z M569.4,44.6
			c2.1-5.5,3.3-10.8,3.8-16.7c0.1-1.6,0.2-3.3,0.2-4.9c0-0.7-0.1-1.4-0.1-2H570c-0.5,4.6-1,9.2-1.8,13.8c-0.5,3-1.4,5.9-2.2,8.8
			C567.1,43.8,568.2,44.2,569.4,44.6z M581.2,36.8v-4.3h9.5v-7.6h2.5c0.3-0.7,0.7-1.4,1-2.1c0.8-1.7,1.3-3.6,1.9-5.5h-12.3v-4.1h13.6
			l2.1-2.4l10.3,2.3c-0.8,0.7-1.7,1.3-2.6,2c-0.1,0.1-1.1,1.4-1.3,1.6c-1,1.1-1.9,2.3-2.9,3.4c-1.8,1.9-3.8,3.4-5.9,4.9h2.7v7.6h9.4
			v4.3h-9.4v22.7c0,1.4-0.3,2.8-1.6,3.6c-1.6,1.1-6.3,1.4-8.3,1.4c-0.5,0-2,0-2.4-0.2c-0.4-0.3-0.5-2.2-0.7-2.9
			c-0.5-1.8-4-2.3-5.5-2.6v-0.7c1.8,0.1,3.7,0.1,5.5,0.1c1.1,0,4,0.3,4-1.3V36.8H581.2z"/>
		<path class="word" d="M626.7,15.2v1.7h13.7c-1.8-1.4-1.6-1.9-2.2-4.1c-0.2-0.7-1.2-1.8-1.6-2.3l0.1-0.5c4-0.6,6.6-0.5,10,0.8
			c1.1,0.4,2.3,1.7,2.3,2.9c0,1.7-0.3,1.8-1.4,3.1h20.4v4h-41.2l-0.2,10.3h13.1l0.1-2.3h-10.7l-0.1-3.8h10.7l0.1-3.1h8.5v3.1h6.6
			l2.7-2.4l8.6,2l-2.6,2.4v4.1l4.3-0.1V35h-4.3v7.7h-8.6v-1.6h-6.7v17.5c0,4.6-3,5.2-6.8,5.7c-0.7,0.1-1.5,0.2-2.2,0.2
			c-0.4,0-2-0.1-2.2-0.4c-0.1-0.2-0.2-0.4-0.2-0.6c-0.1-0.4-0.1-0.8-0.1-1.2c-0.2-1.9-3.2-2.4-4.6-2.6l-0.1-0.9
			c1.6,0.2,3.4,0.3,5,0.3c1.8,0,2.6-0.3,2.6-2.2v-5.2c-4.2,4.4-6.7,6.1-12.4,8.6l-2-6c5-1.3,9.7-3,14.4-5.3l0.1-7.8h-10.8v-3.7
			l10.8-0.1v-2.3h-13.1c-0.5,13.6,0.1,18.9-10.9,28.5l-0.8-0.3c0.7-1.6,1.4-3.2,1.9-4.8c1.1-3.1,1.5-6.7,1.6-10
			c0.1-4.3,0.2-8.5,0.2-12.8V15.2H626.7z M627.5,41.9c2.4,0.2,7.7,0.6,9.4,2.4c0.7,0.7,1.1,1.3,1.1,2.3c0,1.6-1.2,2.9-2.8,2.9
			c-2,0-3.2-0.2-4.3-2c-0.5-1-1-2-1.6-3.1c-0.4-0.7-1.6-1.6-2.2-2.1L627.5,41.9z M654.9,31.2v-2.3h-6.7v2.3H654.9z M654.9,37.5V35
			h-6.7v2.5H654.9z M654,48c0.9-1.3,1.4-2.6,2.1-4.1l8.2,1.1c-1.3,1.5-3.7,3.9-5.4,4.7l-2.2,1.1c3.9,3.2,6.1,4.3,11.2,5.2v0.4
			c-2,0.7-3.4,1.7-3.4,4c0,1,0.5,1.9,0.9,2.8l-0.4,0.3c-3.8-1.4-9-3.7-11.6-7c-1.5-1.8-3.1-4.2-3.5-6.5c-0.4-2.6-0.5-5.2-0.5-7.7h2.1
			C651.9,44.4,652.8,46.1,654,48z"/>
		<path class="yellow" d="M171.2,92.8c-1.1-0.7-1-1.1-1.4-2.4c-0.3-0.9-0.6-1.1-1.2-1.8l0.1-0.2c1.3,0,3.2-0.7,4.4,0
			c1,0.5,1.8,1.9,1.8,2.6c0,1.1-0.6,1.4-1.4,1.8h4.8v2.3h-12.9v-2.3H171.2z M166.1,104.2V102H177v2.2H166.1z M170.7,106.2v0.9h2.6
			l1.4-1.6l3.8,1.2l-1.2,1.3v10.7h-3.9v-1.2h-2.7v1.7h-4.2v-13H170.7z M176.2,97.4v2.3h-9.6v-2.3H176.2z M173.5,115.4v-6.1h-2.7v6.1
			H173.5z M181.2,104.3h5v-7.4H180v-2.4h16.9v2.4h-6.6v7.4h5.4v2.3h-5.4v10.3h7.3l0,2.3h-19.5v-2.3h8.1v-10.3h-5V104.3z M184.1,88
			c1.4,0.2,3,0.2,4.4,0.5c0.9,0.2,1.8,0.8,2.3,1.7c0.3,0.5,0.6,1.1,0.6,1.8c0,1.4-1.7,1.9-2.8,1.9c-2.9,0-2.6-2.2-3.5-4.1
			c-0.3-0.5-0.8-1.1-1.2-1.5L184.1,88z"/>
		<path class="yellow" d="M230.5,102.4v14.8c0,0.6-0.1,1.5-0.5,2.1c-0.9,1-3.7,1.1-5,1.1c-0.2,0-0.8,0-0.9-0.1c-0.8-0.6,0.5-2.2-3.2-2.8
			l0.1-0.5c1,0.1,2.1,0.1,3.1,0.1c0.8,0,1.5-0.1,1.5-1v-13.6h-2.3c0,4.6,0,9.3,0,13.9h-4.8c0.1-4.4,0-9.6,0-13.9h-2.3
			c0,5,0,7.4,0,14.3c-1.3,0.1-4.1,0-4.8,0l0-14.3h-2.4c0,1.4,0,2.8,0,4.3c-0.1,3,0.1,6.3-1.7,8.9c-1.1,1.6-2.8,3.5-4.3,4.7l-0.5-0.2
			c0.3-0.6,0.5-1.3,0.8-1.9c1.3-3.3,1.2-9.6,1.2-13.2v-2.6h-3v-2.5h3V88.3h4.5v1.3c5.6,0,10.4-0.1,16.4,0l1.4-1.6l5.1,1.2l-1.5,1.4
			v9.3h2.7v2.5H230.5z M211.5,91.7h-2.4v8.1h2.4V91.7z M218.6,91.6h-2.3v8.2h2.3V91.6z M225.7,91.7h-2.3v8.2h2.3V91.7z"/>
		<path class="yellow" d="M237.6,102.7v-2.3h2.9v-3h-2.9V95h2.9v-3.3h-2.7v-2.3h10l1.3-1.4l5.3,1.2l-1.5,1.2l0,4.5h1.1v2.3h-1.1v6.5
			h-4.8v-1.2h-3.2c-0.5,1.2-0.8,1.6-1.5,2.8h2v1h2.6l1.2-1.4l5.4,1l-1.7,1.3l0,11.9h-4.8v-1.9h-2.8v1.9h-5.1v-11.4
			c-0.9,0.6-1.8,1-2.8,1.5l-0.4-0.3c1.8-2.2,2.6-3.6,3.2-6.3H237.6z M248.1,95v-3.3h-2.8V95H248.1z M248.1,100.3v-3h-2.8v3H248.1z
			M248.1,115.1v-6.3h-2.8v6.3H248.1z M258.7,110.9v-5.7H255v-2.3h3.7v-5.4h-4.1v-2.4h6.7c1-2.2,1.8-4.4,2.2-6.8h5.9
			c-1.8,3.4-2.9,4.2-5.6,6.8h5.1v2.4H264v5.4h4.4v2.3H264v5.7h4.9v2.3H264v7.2h-5.3v-7.2h-4.9v-2.3H258.7z M254.2,88.1
			c1.2,0.4,3.9,0.9,5.5,1.9c0.9,0.6,1.5,1.4,1.5,2.3c0,1.2-1.2,2.1-2.3,1.9c-1-0.1-1.9-0.9-2.2-1.8c-0.4-1.3-0.8-2.9-2.7-4
			L254.2,88.1z"/>
		<path class="yellow" d="M284.1,105.1c0.6-0.5,0.7-0.8,1-1.5h6.9c-0.4,0.5-0.9,1.1-1.4,1.5h14.7v2h-12.7c3.9,2,8.3,2.2,12.6,2.3l0,0.4
			c-1.6,0.5-2.7,1.7-1.8,3.2l-0.2,0.3c-1.5-0.2-3.1-0.4-4.6-0.7c-0.1,1.4-0.1,4.3-0.7,5.4c-0.3,0.6-1.3,1.1-1.8,1.4
			c-1.5,0.8-3.1,0.9-4.8,0.9c-0.1,0-0.8,0-0.9-0.1c-0.2-0.1-0.3-0.6-0.4-0.9c-0.4-1.4-2.4-1.9-3.7-2.1l0.1-0.5
			c1.6,0.1,3.2,0.2,4.8,0.2c1.4,0,1.9-0.3,1.9-1.7v-1.5h-5.2c-0.6,0.9-1.4,1.7-2.1,2.4c-2.7,2.7-8.7,3.9-12.3,4.3l-0.2-0.5
			c3.7-0.8,7.1-3,9.2-6.2h-5.4v-2h6.6c0.2-0.8,0.3-1.4,0.4-2.2h5.9c-0.2,0.8-0.4,1.5-0.7,2.2h3.7l1.6-1.1c-1.7-1-2.9-2.1-4.2-3.6h-2
			c-4.9,3.4-9.1,4.3-14.9,5.1l-0.3-0.4c3-0.9,6.6-2.6,8.9-4.7h-9v-2H284.1z M273.2,90.3h6v-2.1h5.4v2.1h9.5v-2.1h5.3v2.1h5.7v2.1
			h-5.7v1.3h-5.3v-1.3h-9.5v1.4h-5.4v-1.4h-6V90.3z M277.1,94.3h5.2v0.8h13.2l1.4-1.2l5.4,0.8l-1.4,1.4v7.9h-5.2V103h-13.4v0.9h-5.3
			L277.1,94.3z M295.7,98.2v-1.3h-13.4v1.3H295.7z M295.7,101.1v-1.2h-13.4v1.2H295.7z"/>
		<path class="yellow" d="M318.1,110.5l6.7,0.1c-0.6,0.9-1.2,1.8-1.9,2.6c-2.2,3-9.2,6.2-12.8,7.2l-0.3-0.4
			C313.3,117.3,316.3,114.5,318.1,110.5z M332.7,89.8l1.6-1.9l5,1.5l-1.3,1.5v19.6l-5.4,0.1v-1.2h-14.9v1.2h-5.1V88.8h5.1v1H332.7z
			M332.7,95.2v-3.1h-14.9v3.1H332.7z M332.7,101.1v-3.7h-14.9v3.7H332.7z M332.7,107.3v-3.9h-14.9v3.9H332.7z M328.6,110.9
			c2.7,0.7,5.3,1.6,7.8,2.7c1.3,0.6,3.6,1.8,3.6,3.5c0,1.8-0.6,3.1-2.6,3.1c-0.6,0-1.3-0.1-1.8-0.5c-1.1-0.8-1.8-2.7-2.6-3.8
			c-0.8-1.1-2.7-3.3-3.8-4l-0.9-0.7L328.6,110.9z"/>
		<path class="yellow" d="M356.5,109.7c-0.5,1-1.1,2-1.6,3c-1.8,3.2-5.7,5.6-8.9,7.1l-0.4-0.2c1.6-2.4,3.7-5.8,4.3-8.7l0.3-1.3H356.5z
			M353.6,103.6h-5.2V88.2l5.2,0l0.1,1.5H368l1.7-1.8l5.9,1.3l-1.8,1.5v12.9h-5.5l0-1.3l-4.6,0v3.1h13.3v2.4l-13.3,0v12.5h-5.4v-12.5
			h-12.5v-2.4h12.5v-3.2h-4.5V103.6z M358.2,94.9V92h-4.6v2.9H358.2z M358.2,100.1v-3h-4.5v2.9L358.2,100.1z M368.2,94.9V92h-4.7v2.9
			H368.2z M368.2,100.1v-3h-4.7v3H368.2z M377.2,115.5c-1,0.4-2.3,1-2.3,2.3c0,0.6,0.3,1.2,0.4,1.8l-0.3,0.3c-2.5-1-6-2.7-7.2-5.1
			c-1.1-2.2-1.5-3.3-2-5.8l1.2-0.1c0.6,0.8,1.3,1.7,2.1,2.4c0.8,0.8,1.9,1.4,2.8,2c1.6,1,3.5,1.5,5.3,1.9L377.2,115.5z"/>
		<path class="yellow" d="M401,87.9c-0.4,0.4-0.8,0.8-1.1,1.2c4.5,2.3,8.7,3.5,13.8,3.5l0,0.4c-1.6,0.4-2.2,1-2.2,2.7
			c0,0.4,0.1,0.8,0.2,1.2l-0.2,0.2c-2.5-0.5-4.9-1.2-7.2-2.3v0.9h-15.1v-1.1c-2.6,0.8-5.3,1.4-8,1.9l-0.1-0.3
			c2.9-1.3,6.2-2.7,8.6-4.8c1.3-1,2.6-2.2,3.7-3.5H401z M384.2,96.9h5.2v0.5h15l1.6-1.3l5.4,1.4l-1.5,1.3v9h-3.2l3.4,0.9l-1.8,1.2
			v10.6H403v-1.4h-11.9v1.4h-5.3v-12.3h5.3v0.5h11.7l1.9-1.3v-0.6h-15.2v1h-5.2V96.9z M394.9,104.4v-4.7h-5.5v4.7H394.9z
			M389.7,100.4c1.1,0.1,3.5,0.3,4.2,1.2c0.3,0.3,0.5,0.7,0.5,1.2c0,0.8-0.6,1.3-1.4,1.3c-1.5,0-1.6-1.2-2.1-2.3
			c-0.3-0.6-0.9-0.9-1.5-1.2L389.7,100.4z M403,112.6v-1.7h-11.9v1.7H403z M403,114.9h-11.9v1.9H403V114.9z M402.3,93.4
			c-1.4-0.8-2.6-2.2-3.7-3.3c-2.1,1.4-3.9,2.3-6.2,3.3H402.3z M404.6,101.2v-1.4h-5.7v4.7h0.3c0.9-1.4,1.7-2.6,2.2-4.2L404.6,101.2z
			M404.6,104.4v-2.9c-1.4,1.1-2.8,2-4.3,2.9H404.6z"/>
		<path class="yellow" d="M417.3,120.7l-0.1-0.4c3.6-1.5,6.7-3.1,9.1-6.3l7.8-0.1C430,118.5,423.3,120.3,417.3,120.7z M426,98.6v0.5
			h14.6l1.7-1.3h-3.5v-1.2h-10.3v1.5h-5.3v-10h5.3v1.3h10.2l1.9-1.9l5.7,1.7l-2.1,1.2v7.5h-1.3l4.9,0.9l-1.7,1.4V114h-5.1v-1.4H426
			v1.1h-5.1V98.6H426z M440.8,102.9v-1.7H426v1.7H440.8z M440.8,106.5V105H426v1.5H440.8z M440.8,110.6v-2H426v2H440.8z M438.8,94.5
			v-3.1h-10.3v3.1H438.8z M436,114.2c2.5,0.2,4.9,0.2,7.4,0.6c1.7,0.3,5,1.2,5,3.4c0,1.3-0.9,2.7-2.2,2.3c-3.1-0.7-4-2.3-6.3-4.1
			c-1.2-0.9-2.7-1.4-4.1-1.9L436,114.2z"/>
		<path class="yellow" d="M457.7,92.4v-4.2h4.9v4.2h2.3v2.4h-2.3v5.2c0.8-0.5,1.7-1,2.4-1.5l0.5,0.3c-0.8,1.4-1.8,2.7-3,3.9v14.5
			c0,2.5-2,3.1-4.1,3.2c-0.6,0-1.3,0.1-1.9,0.1c-0.4,0-0.1-1.3-0.8-2c-0.7-0.7-1.4-0.8-2.3-1l0.1-0.5c0.9,0,1.9,0.1,2.8,0.1
			c0.8,0,1.3,0,1.3-1v-9.6c-1.1,0.8-2.2,1.5-3.4,2l-0.8-4.5c1.4-0.5,2.9-1,4.2-1.8v-7.3h-3.9v-2.4H457.7z M465.9,92.5h4.7V94h1.9
			v-5.9h4.8V94h2l1.4-1.4l4.8,1.1l-1.4,1.5v25.2h-4.7v-2.6h-8.7v2.6h-4.7V92.5z M472.5,103.9v-7.6h-1.9v7.6H472.5z M472.5,115.4v-9
			h-1.9v9H472.5z M479.3,103.9v-7.6h-2v7.6H479.3z M479.3,115.4v-9h-2v9H479.3z"/>
		<path class="yellow" d="M510.2,106.8V94.5c0-1.6-0.1-2.6-0.3-3s-0.8-0.8-1.8-1c-1.4-0.4-2.1-1.1-2.1-2.1c0-0.7,0.3-1.2,0.9-1.6
			s1.5-0.6,2.6-0.6c0.4,0,1.3,0,2.8,0.1h1.4c2.6,0,4.1,0,4.6-0.1s2-0.2,4.8-0.4c0.9-0.1,1.7-0.1,2.5-0.1c2.6,0,4.8,0.5,6.8,1.6
			c3.5,1.8,5.2,4.7,5.2,8.6c0,3.2-1.2,5.7-3.7,7.7c-2.3,1.8-5.1,2.7-8.3,2.7c-0.8,0-1.8-0.1-3-0.2c-0.6,0-1-0.1-1.2-0.1
			c-0.5,0-0.7,0.3-0.7,0.8v0.1l0.2,3.8c0,0.8,0.2,1.3,0.4,1.7s0.7,0.7,1.5,1.1c1,0.5,1.5,1.1,1.5,1.8c0,1-0.8,1.7-2.2,2.3
			s-3.6,0.8-6.4,0.8c-5.8,0-8.7-1-8.7-3c0-0.5,0.1-0.8,0.4-1.1s0.8-0.6,1.8-1.1c0.6-0.3,0.9-0.7,1-1.2S510.2,109.7,510.2,106.8z
			M520.8,91.5v8c0,0.6,0.1,1,0.4,1.1c0.5,0.2,1,0.3,1.7,0.3c1,0,1.9-0.3,2.6-0.9c1-0.8,1.5-2.2,1.5-4.2c0-2-0.6-3.5-1.8-4.4
			c-0.8-0.6-1.7-0.9-2.7-0.9C521.3,90.6,520.8,90.9,520.8,91.5z"/>
		<path class="yellow" d="M553.3,85.2c1.6,0,3.7,0.4,6.3,1.2c0.3,0.1,0.6,0.1,0.8,0.1c0.2,0,0.6-0.1,1.4-0.4c0.2-0.1,0.5-0.1,0.8-0.1
			c1,0,2.2,0.8,3.3,2.5s1.7,3.2,1.7,4.7c0,0.9-0.3,1.6-0.8,2.2s-1.2,0.9-1.9,0.9c-0.6,0-1.1-0.1-1.5-0.4s-1.2-1-2.6-2.2
			c-1.9-1.8-3.7-2.6-5.5-2.6c-0.9,0-1.6,0.2-2.1,0.6s-0.8,1-0.8,1.7c0,1.4,1.2,2.4,3.6,3.1c3.2,1,5.3,1.6,6.2,2.1c4,1.9,6,4.8,6,8.6
			c0,3.3-1.4,6-4.1,8.2c-2.8,2.2-6.4,3.2-10.9,3.2c-2,0-4.1-0.2-6.3-0.7s-3.8-1-4.8-1.7c-0.8-0.5-1.4-1.6-2-3.3s-0.9-3.3-0.9-4.9
			c0-0.8,0.2-1.3,0.5-1.7c0.4-0.5,0.9-0.8,1.5-0.8s1.2,0.3,1.7,0.9c0.3,0.3,1.1,1.4,2.3,3.3c0.6,0.9,1.5,1.6,2.8,2.2s2.6,0.9,3.9,0.9
			c1.2,0,2.1-0.2,2.8-0.6s1.1-1,1.1-1.7c0-0.6-0.3-1.2-0.8-1.6s-1.5-0.9-2.7-1.3c-2.2-0.7-3.9-1.3-5.1-1.9s-2.3-1.3-3.3-2.2
			c-2.5-2.2-3.7-4.7-3.7-7.5c0-1.4,0.3-2.7,1-4s1.5-2.4,2.7-3.4C546.3,86.3,549.5,85.2,553.3,85.2z"/>
		<path class="yellow" d="M593.7,91.7v16.2c0,0.5,0.1,0.8,0.2,1s0.4,0.3,0.7,0.3h1c0.7,0,1.1,0.4,1.1,1.3v4.8c0,0.8-0.4,1.3-1.3,1.4
			c-0.5,0.1-0.9,0.2-1,0.3s-0.2,0.5-0.2,1v2.8c0.1,1-0.4,1.5-1.4,1.5h-8c-0.6,0-0.9-0.1-1.1-0.3s-0.3-0.6-0.3-1.3v-2.4
			c0-0.7-0.1-1.1-0.4-1.4s-0.7-0.4-1.3-0.4h-9.1c-1.1,0-1.9-0.2-2.3-0.7s-0.7-1.3-0.7-2.4c0-1.5,0.2-2.7,0.5-3.5
			c0.4-1,1.7-2.8,3.8-5.3l6-7.1c3-3.6,5.2-5.9,6.6-6.8c0.6-0.4,1.4-0.8,2.3-1.1s1.8-0.4,2.6-0.4c0.8,0,1.3,0.2,1.7,0.6
			S593.7,90.8,593.7,91.7z M583.8,103.9v-1.1c0-1.4-0.4-2.1-1.2-2.1c-0.6,0-1.1,0.3-1.7,1l-3.6,4.4c-1,1.3-1.6,2.2-1.6,2.8
			c0,0.4,0.2,0.7,0.7,0.8s1.5,0.2,3.3,0.2l1.9,0c0.8,0,1.3-0.1,1.6-0.3s0.4-0.5,0.5-1.1C583.8,107.7,583.8,106.1,583.8,103.9z"/>
		<path class="yellow" d="M610.3,94.6c1,0,1.5,0.1,1.8,0.2s0.4,0.6,0.4,1.2c0,0.6,0.2,0.9,0.6,0.9c0.2,0,0.7-0.3,1.6-0.9
			c0.7-0.5,1.5-0.8,2.6-1.1s2-0.5,2.8-0.5c2,0,3.8,0.7,5.3,2.1c1.2,1,2.1,2.4,2.8,4c0.7,1.7,1,3.4,1,5.3c0,3.9-1.3,7.2-4,9.7
			c-2,2-4.4,3-7,3c-1.3,0-2.7-0.3-4.1-0.9c-0.3-0.1-0.5-0.2-0.7-0.2c-0.5,0-0.7,0.5-0.7,1.4c0,1.2,0.4,2.1,1.2,2.7
			c0.8,0.5,1.2,0.9,1.4,1s0.2,0.5,0.2,0.9c0,0.9-0.5,1.7-1.6,2.2s-2.5,0.8-4.4,0.8c-3.4,0-6.4-0.7-8.9-2c-1.3-0.7-1.9-1.5-1.9-2.6
			c0-0.5,0.1-0.8,0.3-1.1s0.6-0.5,1.1-0.8c0.8-0.4,1.3-1.1,1.5-2s0.3-3.8,0.4-8.5c-0.1-3.8-0.2-6-0.4-6.5c-0.1-0.2-0.2-0.3-0.3-0.3
			s-0.5-0.1-1.2-0.3c-0.5-0.1-0.9-0.3-1.2-0.7s-0.5-0.8-0.5-1.3c0-0.6,0.2-1.2,0.7-1.7s1.1-0.9,2.1-1.4
			C605,95.6,608.1,94.7,610.3,94.6z M612.6,103.5l-0.4,6.4c0,0.3,0,0.5,0,0.8c0,0.5,0.2,0.9,0.6,1.2s1,0.4,1.7,0.4
			c2.2,0,3.2-1.8,3.2-5.3c0-2.3-0.5-3.9-1.4-4.9c-0.6-0.6-1.2-0.9-2-0.9C613.3,101.3,612.7,102,612.6,103.5z"/>
		<path class="yellow" d="M641.7,94.7c0.8,0,1.3,0.1,1.5,0.4s0.3,1,0.5,2.2c0.1,0.7,0.3,1,0.7,1c0.3,0,0.6-0.2,0.9-0.7
			c1.2-2,2.9-2.9,4.9-2.9c1.4,0,2.6,0.5,3.5,1.4c0.4,0.5,0.8,1,1.1,1.7s0.4,1.4,0.4,2.1c0,0.7-0.2,1.5-0.5,2.3s-0.8,1.4-1.3,1.9
			c-1,1-2.2,1.4-3.7,1.4c-0.8,0-1.5-0.1-2-0.4s-1.2-0.9-2.1-1.7c-0.3-0.3-0.6-0.5-0.9-0.5c-0.4,0-0.7,0.2-0.9,0.7s-0.2,1.5-0.2,3.1
			c0,2.4,0.1,4,0.3,4.8c0.1,0.5,0.3,0.8,0.5,1s0.6,0.4,1.3,0.6c1.4,0.4,2.1,1.2,2.1,2.2c0,0.6-0.2,1.2-0.7,1.7s-1.1,0.8-1.8,0.9
			c-1.5,0.3-3.7,0.5-6.6,0.5c-2.8,0-4.9-0.2-6.3-0.7c-1.3-0.4-1.9-1.2-1.9-2.3c0-0.8,0.5-1.5,1.4-2.2c0.5-0.3,0.8-0.6,0.9-0.8
			s0.3-0.6,0.4-1c0.2-1.4,0.4-4.1,0.4-7.9c0-0.7-0.1-1.2-0.2-1.5s-0.5-0.6-0.9-0.7c-1.1-0.4-1.7-1.1-1.7-1.9c0-0.8,0.4-1.4,1.1-1.9
			s2-1.1,3.8-1.6C638,95.1,640,94.7,641.7,94.7z"/>
		<path class="yellow" d="M670.3,94.5c2.9,0,5.4,0.7,7.5,2.2c1.5,1.1,2.8,2.4,3.7,4.1c1,1.8,1.5,3.6,1.5,5.6c0,3.4-1.6,6.3-4.7,8.6
			c-3,2.3-6.4,3.4-10.2,3.4c-3.7,0-6.8-1.1-9.1-3.2c-2.2-2.1-3.4-4.8-3.4-8.1c0-3.7,1.4-6.7,4.1-9C662.7,95.7,666.2,94.5,670.3,94.5z
			M668.5,99.9c-0.7,0-1.2,0.3-1.7,0.8s-0.6,1.2-0.6,2c0,0.9,0.2,2.2,0.5,3.8s0.8,3.1,1.3,4.3c0.5,1.3,1.3,1.9,2.4,1.9
			c1.4,0,2.1-0.9,2.1-2.6c0-1.3-0.2-2.8-0.5-4.5s-0.8-3-1.3-4.1C670.1,100.5,669.4,100,668.5,99.9z"/>
	</g>
	<g>
		<path class="pink" d="M153.9,167.4L153.9,167.4l-6.8,5l2.7,8.1l-0.1,0l-6.9-5l-6.9,5l-0.1,0l2.7-8.1l-6.8-4.9v-0.1h8.4l2.6-8.1h0.1
			l2.6,8.1H153.9z"/>
		<path class="pink" d="M161.7,170l0.4,0.2c-0.6,4.9-1,6.3-4,10.4l-1.9-3.9C158.3,174.7,160.2,172.6,161.7,170z M156.4,164.9
			c1.5,0.3,3.6,0.3,4.6,1.6c0.3,0.4,0.6,1,0.6,1.5c0,1-0.6,1.7-1.5,1.7c-0.4,0-1.1-0.1-1.5-0.6c-0.6-0.6-0.6-1.5-1-2.3
			c-0.3-0.6-0.8-1.2-1.3-1.7L156.4,164.9z M156.9,159.6c1.6,0.4,5.8,0.8,5.8,3.1c0,1-0.8,1.2-1.7,1.3c-1,0.1-1.6-0.5-2.3-1.8
			c-0.5-0.9-1.2-1.7-2-2.3L156.9,159.6z M168,161.9c-1.9-0.1-3.8-0.2-5.7-0.6v-0.3c3.5-0.3,7-1.1,10.4-2l4.2,2.1
			c-1.8,0.4-3.6,0.6-5.4,0.7v3h6v1.5h-6v3.9h1l1.1-1.1l3.5,0.8l-0.9,0.9v9.8h-3.6V179h-5.7v1.7h-3.5v-11.1h3.5v0.7h1v-3.9h-5.7v-1.5
			h5.7V161.9z M172.6,177.5v-5.7h-5.7v5.7H172.6z"/>
		<path class="pink" d="M187.5,162.4h4.6v1.2h1.7l0-4.3h2.7l-0.1,4.3h1.4l0.8-0.8l2.9,0.6l-0.9,0.8l-0.2,13.8c0,0.5,0,1.1-0.3,1.5
			c-0.5,0.9-2.2,1.2-3.2,1.2c-1.5,0,0.1-0.7-1.5-1.4c-0.6-0.3-1.4-0.4-2.1-0.6l0-0.3c1.1,0,2.3,0.2,3.4,0.2c0.7,0,0.9-0.4,0.9-1
			l0.2-12.6h-1.5c0,2.7,0,5.4-0.5,8c-0.6,3.4-3.4,6.1-6.1,7.8l-0.3-0.2c2.4-2.6,3.5-5,4-8.5c0.3-2.3,0.2-4.8,0.3-7.1h-1.8v-1.2h-4.4
			v1.2h1.4l0.7-0.7l2.6,0.9l-0.8,0.5v7.3h-2.4v-0.6h-1.5v1.5h3.9v1.4h-3.9v1.6c1.5-0.2,3.1-0.4,4.6-0.6l0.1,0.3
			c-3.5,1.4-7.2,2.4-10.9,3.3l-1-2.4c1.6-0.1,3.2-0.2,4.8-0.4v-1.8h-4.2v-1.4h4.2v-1.5h-1.6v0.6h-2.4v-8.4h2.4v0.4h1.6v-1.2h-4.7
			v-1.4h4.7v-1.2c-1.6,0-3.3-0.1-4.9-0.2l0-0.3c3.4-0.3,7-0.7,10.2-1.8l2.1,2.2c-1.6,0.1-3.2,0.1-4.9,0.2V162.4z M185,166.5h-1.5v1.5
			h1.5V166.5z M185,171v-1.5h-1.5v1.5H185z M188.9,168v-1.5h-1.4v1.5H188.9z M188.9,171v-1.5h-1.4v1.5H188.9z"/>
		<path class="pink" d="M206.4,172.8v-10.1h-1.7v-1.5l1.7,0v-2h3.2v2h2v-2h3.1v2h0.9v1.5h-0.9v10.1h0.9v1.5h-11.3v-1.5H206.4z
			M209.7,176.8c-0.7,1.6-3.4,3-5,3.7l-0.2-0.1c1.3-1.6,2.1-3,2.4-5.1h3.4C210.2,175.7,209.9,176.3,209.7,176.8z M211.6,164.8v-2.1
			h-2v2.1H211.6z M211.6,168.7v-2.4h-2v2.4H211.6z M211.6,170.2h-2v2.7h2V170.2z M211.5,175c1.2,0.3,3.7,1.2,3.7,2.8
			c0,0.8-0.7,1.4-1.4,1.4c-0.4,0-0.9-0.1-1.2-0.4c-0.4-0.6-0.4-1.8-0.7-2.6c-0.2-0.3-0.4-0.6-0.6-0.9L211.5,175z M216.3,172.5
			c0-0.6,0.1-1.2,0.1-1.8v-11.5h3.1v1.2h2l0.8-1.1l3.6,0.8l-1,0.9V179c0,0.3-0.1,0.7-0.2,1c-0.4,0.7-2.8,0.8-3.5,0.8
			c-0.1,0-0.3,0-0.4-0.1c-0.1-0.1,0-0.9-0.5-1.3c-0.5-0.4-1.4-0.6-2-0.6l0-0.3c0.8,0,1.6,0.1,2.4,0.1c0.4,0,0.9,0,0.9-0.5v-5.4h-2.1
			c-0.1,1-0.2,2-0.4,3c-0.6,2.3-2.7,3.8-4.5,5.1l-0.3-0.1C216.1,178.2,216.1,175.3,216.3,172.5z M221.5,165.7v-3.9h-2.1v3.9
			L221.5,165.7z M219.4,171h2.1v-3.7h-2.1V171z"/>
		<path class="pink" d="M232.2,159.4v0.6h2.9l0.8-1l3.1,0.8l-0.9,1v6.9H235V167h-2.8v13.5H229v-21.1H232.2z M235,161.4h-2.8v1.3h2.8
			V161.4z M235,165.5v-1.4h-2.8v1.4H235z M241.4,168.1l3.1,0.8l-1.1,0.9v7.9h-2.9v-0.9h-3.7v0.8h-2.8v-9.3h2.8v0.7h3.6L241.4,168.1z
			M240.6,172.1v-1.6h-3.7v1.6H240.6z M240.6,173.6h-3.7v1.8h3.7V173.6z M242.7,167v0.6h-3.2v-8.2h3.2v0.6h2.8l0.9-1l3.2,0.8l-1,0.9
			v17.7c0,1.4-0.6,1.8-1.9,2c-0.6,0.1-1.1,0.2-1.7,0.2c-0.7,0-0.8,0-0.8-0.6c0-1.2-2.1-1.4-3-1.5l0.1-0.4c1,0.1,1.9,0.1,2.9,0.1
			c0.7,0,1.2,0.1,1.2-0.8V167H242.7z M245.5,162.7v-1.3h-2.7v1.3H245.5z M245.5,165.6v-1.4h-2.7v1.4H245.5z"/>
		<path class="pink" d="M273.3,159.8v1.7h-8.8v6.5c1.2,0.3,3.4,0.5,5,1.4c1.1,0.6,1.9,1.5,1.9,2.6c0,1-0.8,1.7-1.7,1.7
			c-1.5,0-2-1-2.7-2.2c-0.3-0.5-0.6-1.1-1-1.5c-0.4-0.5-0.9-1-1.5-1.3v11.9h-3.7v-19.1h-8.4v-1.7H273.3z"/>
		<path class="pink" d="M281.4,176.4v-1.1h-1.3v0.6h-2.7v-7.4h2.7v0.3h1.3v-1.2h-4.5v-1.4h4.5V165h2.7v1.2h3.8v1.4h-3.8v1.2h1.3
			l0.8-0.8l2.9,0.6l-0.9,0.7v6.6h-2.6v-0.6h-1.4v1.1h3.8v0.7c0.8-0.7,1.3-1.3,2-2.2c-0.7-2.2-0.7-4.9-0.8-7.2l-0.1-2.9h-12.6v-1.4
			h4.6v-1.4h-3.4v-1.4h3.4v-1.4h3.4v1.4h3.1v1.4h-3.1v1.4h4.6l0-4.3h3.1c0,1.4,0,2.9,0,4.3h5v1.4h-5c0,1,0,1.9,0,2.9
			c0,1.2,0,2.5,0,3.7c0.7-1.6,1.1-2.7,1.5-4.4l3.4,0.6c-0.6,1.3-1.3,2.9-2.1,4.1c-0.6,1-1.3,1.9-2.1,2.8c0.1,0.3,0.2,0.6,0.4,0.8
			c0.2,0.4,1.3,1.9,1.6,1.9c0.3,0,0.7-1.7,0.8-2c0.1-0.5,0.2-1,0.4-1.5c0.1-0.3,0.1-0.5,0.2-0.8l0.5,0.1c-0.1,1.1-0.2,2.3-0.2,3.5
			c0,1.8,0.8,0.7,0.8,1.7c0,0.7-0.2,2.8-1.2,2.8c-0.3,0-0.6-0.1-0.8-0.2c-1.6-0.7-3.3-2.1-4.2-3.5l-0.4-0.6c-1.4,1-3,1.9-4.6,2.7
			l-0.3-0.3c0.5-0.4,0.9-0.8,1.3-1.2h-3v2.5h-2.7v-2.5h-5v-1.4H281.4z M281.4,171.3V170h-1.3v1.4H281.4z M280.1,172.6v1.4h1.3v-1.4
			H280.1z M285.5,171.3V170h-1.4v1.4H285.5z M285.5,174v-1.4h-1.4v1.4H285.5z M292.6,160c1,0.2,3.4,0.6,3.4,2c0,0.7-0.6,1-1.2,1
			c-1.2,0-1.4-1.3-1.8-2.2c-0.1-0.3-0.3-0.5-0.6-0.7L292.6,160z"/>
		<path class="pink" d="M300.3,168.9v-1.6h1.9v-2h-1.9v-1.6h1.9v-2.2h-1.8v-1.5h6.7l0.9-0.9l3.5,0.8l-1,0.8l0,3h0.7v1.6h-0.7v4.3h-3.2
			v-0.8h-2.2c-0.3,0.8-0.5,1.1-1,1.8h1.3v0.7h1.8l0.8-0.9l3.6,0.7l-1.1,0.9l0,7.9h-3.2v-1.3h-1.8v1.3h-3.4v-7.6
			c-0.6,0.4-1.2,0.7-1.8,1l-0.3-0.2c1.2-1.4,1.7-2.4,2.1-4.2H300.3z M307.4,163.8v-2.2h-1.8v2.2H307.4z M307.4,167.3v-2h-1.8v2H307.4
			z M307.4,177.2V173h-1.8v4.2H307.4z M314.4,174.4v-3.8H312V169h2.5v-3.6h-2.7v-1.6h4.4c0.7-1.4,1.2-2.9,1.5-4.5h4
			c-1.2,2.3-1.9,2.8-3.7,4.5h3.4v1.6H318v3.6h2.9v1.5H318v3.8h3.3v1.6H318v4.8h-3.5v-4.8h-3.3v-1.6H314.4z M311.4,159.2
			c0.8,0.2,2.6,0.6,3.6,1.3c0.6,0.4,1,0.9,1,1.6c0,0.8-0.8,1.4-1.5,1.3c-0.7,0-1.3-0.6-1.5-1.2c-0.2-0.9-0.6-1.9-1.8-2.6L311.4,159.2
			z"/>
		<path class="pink" d="M331.4,170.5c0.4-0.4,0.5-0.5,0.7-1h4.6c-0.3,0.4-0.6,0.7-0.9,1h9.8v1.3h-8.5c2.6,1.3,5.5,1.5,8.4,1.5l0,0.3
			c-1.1,0.3-1.8,1.1-1.2,2.2l-0.1,0.2c-1-0.1-2-0.3-3.1-0.5c-0.1,0.9,0,2.9-0.5,3.6c-0.2,0.4-0.8,0.7-1.2,1c-1,0.5-2.1,0.6-3.2,0.6
			c-0.1,0-0.5,0-0.6,0c-0.1-0.1-0.2-0.4-0.2-0.6c-0.3-0.9-1.6-1.2-2.4-1.4l0-0.3c1.1,0.1,2.1,0.1,3.2,0.1c1,0,1.2-0.2,1.2-1.2v-1H334
			c-0.4,0.6-0.9,1.1-1.4,1.6c-1.8,1.8-5.8,2.6-8.2,2.9l-0.1-0.3c2.5-0.6,4.8-2,6.1-4.1h-3.6v-1.3h4.4c0.1-0.5,0.2-1,0.2-1.5h4
			c-0.1,0.5-0.3,1-0.5,1.5h2.5l1.1-0.7c-1.2-0.6-1.9-1.4-2.8-2.4h-1.3c-3.2,2.3-6.1,2.9-10,3.4l-0.2-0.3c2-0.6,4.4-1.8,5.9-3.1h-6
			v-1.3H331.4z M324.1,160.6h4v-1.4h3.6v1.4h6.3v-1.4h3.5v1.4h3.8v1.4h-3.8v0.9H338v-0.9h-6.3v0.9h-3.6v-0.9h-4V160.6z M326.7,163.3
			h3.5v0.5h8.8l0.9-0.8l3.6,0.5l-1,0.9v5.3h-3.5v-0.6h-8.9v0.6h-3.5L326.7,163.3z M339.1,165.9V165h-8.9v0.9H339.1z M339.1,167.9
			v-0.8h-8.9v0.8H339.1z"/>
		<path class="pink" d="M354,174.1l4.5,0.1c-0.4,0.6-0.8,1.2-1.2,1.8c-1.4,2-6.1,4.1-8.5,4.8l-0.2-0.3
			C350.8,178.7,352.8,176.8,354,174.1z M363.7,160.3l1.1-1.3l3.4,1l-0.8,1v13.1l-3.6,0v-0.8h-9.9v0.8h-3.4v-14.6h3.4v0.7H363.7z
			M363.7,163.9v-2.1h-9.9v2.1H363.7z M363.7,167.9v-2.4h-9.9v2.4H363.7z M363.7,172v-2.6h-9.9v2.6H363.7z M361,174.4
			c1.8,0.5,3.6,1.1,5.2,1.8c0.8,0.4,2.4,1.2,2.4,2.3c0,1.2-0.4,2.1-1.8,2.1c-0.4,0-0.9-0.1-1.2-0.3c-0.7-0.5-1.2-1.8-1.7-2.5
			c-0.5-0.7-1.8-2.2-2.5-2.7l-0.6-0.5L361,174.4z"/>
		<path class="pink" d="M379.6,173.6c-0.3,0.7-0.7,1.3-1.1,2c-1.2,2.1-3.8,3.7-5.9,4.8l-0.2-0.1c1.1-1.6,2.5-3.9,2.9-5.8l0.2-0.8
			H379.6z M377.7,169.5h-3.5v-10.2l3.5,0l0,1h9.5l1.1-1.2l3.9,0.8l-1.2,1v8.6h-3.6l0-0.8l-3.1,0v2.1h8.9v1.6l-8.9,0v8.3h-3.6v-8.3
			h-8.3v-1.6h8.3v-2.1h-3V169.5z M380.8,163.7v-1.9h-3.1v1.9H380.8z M380.7,167.2v-2h-3v1.9L380.7,167.2z M387.4,163.7v-1.9h-3.1v1.9
			H387.4z M387.4,167.2v-2h-3.1v2H387.4z M393.4,177.5c-0.6,0.3-1.6,0.6-1.6,1.5c0,0.4,0.2,0.8,0.3,1.2l-0.2,0.2
			c-1.7-0.6-4-1.8-4.8-3.4c-0.7-1.5-1-2.2-1.3-3.8l0.8-0.1c0.4,0.6,0.9,1.2,1.4,1.6c0.6,0.5,1.2,0.9,1.9,1.3c1.1,0.6,2.3,1,3.6,1.2
			L393.4,177.5z"/>
		<path class="pink" d="M405.3,174.5h-5.8l-1.2,4.6h-3.6l5.7-17.8h4.2l5.7,17.8h-3.7L405.3,174.5z M404.6,171.7l-0.5-1.9
			c-0.6-1.8-1-3.9-1.6-5.8h-0.1c-0.5,1.9-1,4-1.5,5.8l-0.5,1.9H404.6z"/>
		<path class="pink" d="M412.4,161.3h5.8c3.9,0,7,1.4,7,5.6c0,4.1-3,5.9-6.9,5.9H416v6.3h-3.6V161.3z M418.1,169.9
			c2.4,0,3.6-1,3.6-3.1c0-2.1-1.3-2.8-3.7-2.8h-2v5.8H418.1z"/>
		<path class="pink" d="M428.4,161.3h5.8c3.9,0,7,1.4,7,5.6c0,4.1-3,5.9-6.9,5.9H432v6.3h-3.6V161.3z M434.1,169.9
			c2.4,0,3.6-1,3.6-3.1c0-2.1-1.3-2.8-3.7-2.8h-2v5.8H434.1z"/>
		<path class="pink" d="M453.7,162.4h4v2.3h-9.1v-2.3h4.2c-0.3-0.8-0.9-1.8-1.4-2.6l2.2-1c0.7,0.8,1.4,2.1,1.7,2.9L453.7,162.4z
			M449.4,169.4h7.8v2.2h-7.8V169.4z M449.7,165.9h7.5v2.2h-7.5V165.9z M457.3,179.7h-4.9v1.1h-2.6v-8h7.5V179.7z M452.4,174.9v2.8
			h2.3v-2.8H452.4z M470.9,177.5v2.7H458v-2.7h4.8v-5h-4v-2.6h4v-4.1h-4.4v-2.7h5.1c-0.5-1-1.3-2.3-2-3.3l2.2-1.2
			c0.9,1.1,2,2.6,2.4,3.6l-1.5,0.9h5.9v2.7h-4.8v4.1h4.2v2.6h-4.2v5H470.9z"/>
		<path class="pink" d="M494.9,171.4h-2.1v6.6c0,1.3-0.2,2.1-0.9,2.5c-0.7,0.5-1.7,0.6-3.1,0.6c-0.1-0.8-0.5-2-0.9-2.8
			c0.7,0,1.5,0,1.7,0s0.3-0.1,0.3-0.4v-6.5h-2.4v9.3h-2.7v-9.3h-2.4v9.3h-2.6v-9.3h-2.3v9.7h-2.8v-9.7h-2.3v-2.8h2.3V160h18v8.6h2.1
			V171.4z M479.8,168.6v-5.8h-2.3v5.8H479.8z M484.8,168.6v-5.8h-2.4v5.8H484.8z M489.9,168.6v-5.8h-2.4v5.8H489.9z"/>
		<path class="pink" d="M509.7,159.4c-0.1,0.1-0.2,0.3-0.4,0.5c2.2,1.9,6.1,3.6,10,4.3c-0.6,0.5-1.4,1.5-1.8,2.2
			c-0.5-0.1-1-0.3-1.5-0.4v6.2h-16.7v-6c-0.5,0.2-1,0.3-1.5,0.5c-0.3-0.5-1.1-1.7-1.5-2.2c4.4-1,8.7-3,10.9-5.8L509.7,159.4z
			M515.2,165.6c-1.1-0.4-2.2-0.9-3.3-1.5v0.6h-8.4v-0.5c-0.9,0.5-1.9,0.9-2.9,1.3H515.2z M500.7,172.9h14.1v8.1h-2.9v-0.6h-8.4v0.6
			h-2.8V172.9z M503.4,170.4c-0.1-0.7-0.4-1.7-0.8-2.5l1.8-0.5h-2.7v3H503.4z M503.5,174.8v1h8.4v-1H503.5z M511.9,178.6v-1h-8.4v1
			H511.9z M506.4,167.4h-1.9c0.4,0.8,0.8,1.8,1,2.5l-1.5,0.5h2.4V167.4z M509.9,162.9c-0.7-0.5-1.4-1-2-1.6c-0.6,0.5-1.3,1.1-2,1.6
			H509.9z M508.7,167.4v3h2.2l-1.4-0.4c0.3-0.7,0.7-1.8,0.9-2.6H508.7z M513.5,167.4H511l1.9,0.5c-0.5,1-0.9,1.9-1.3,2.6h1.9V167.4z"
			/>
		<path class="pink" d="M536.7,177c2.2,0.7,4.7,1.5,6.3,2.2l-2.5,2c-1.8-0.9-5.2-2-7.7-2.8l2-1.4h-6.5l1.8,1.3c-1.9,1.1-5,2.3-7.4,2.9
			c-0.5-0.6-1.5-1.5-2.2-2c2.1-0.5,4.5-1.3,6.1-2.1h-3.7v-10.6h17.5V177H536.7z M539.6,165.4H524v-6h15.6V165.4z M525.8,169.3h11.8
			v-1h-11.8V169.3z M525.8,172.1h11.8v-1h-11.8V172.1z M525.8,175h11.8V174h-11.8V175z M536.6,161.7h-9.7v1.6h9.7V161.7z"/>
		<path class="yellow" d="M557.9,161.6h3.6v0.9h4v-3.4h3.7v3.4h3.8l1-1.2l3.7,0.9l-0.9,1.1v11.5h-3.6v-1.6h-3.9v7.5h-3.7v-7.5h-4v1.6
			h-3.6V161.6z M565.6,164.1h-4v7.7h4V164.1z M573.2,171.8v-7.7h-3.9v7.7H573.2z"/>
		<path class="yellow" d="M601.4,161.4l-0.6,0.5c-0.9,0.7-1.8,1.4-2.7,2c-2.6,1.6-5.7,1.8-8.6,2v4.7l3.3,0c-0.1,0.6-0.2,2-0.3,2.6h2
			c-0.5-0.3-0.7-0.5-0.8-1.2c-0.1-0.5-0.4-0.7-0.7-1l0.1-0.2c0.3,0,1,0.1,1.7,0.2c0.7,0.3,1.3,0.7,1.5,1.4c0.1,0.4,0,0.7-0.2,0.9h5.7
			v1.5h-8.5c2.4,2.5,5.5,2.7,8.8,2.8v0.3c-1.4,0.7-1.5,1.8-0.5,2.9l-0.2,0.2c-3.2-0.9-5.9-1.7-8.2-4.2c-0.6-0.6-0.9-0.9-1.4-1.6
			c-1.2,2-2.3,2.8-4.5,3.9c-1.9,0.9-4.7,1.5-6.8,1.8l-0.1-0.2c2.6-1.1,4.7-2,6.6-4.2c0.6-0.7,0.9-0.8,1.3-1.7h-6.7v-1.5h7.3
			c0.1-0.4,0.2-1.2,0.3-1.6h-2.4v-4.4h-1c-0.1,0.4-0.3,0.8-0.4,1.2c-0.7,1.8-2.4,2.7-4.1,3.5l-0.2-0.2c1.4-1.7,1.7-2.4,2-4.6h-1.5
			v-1.4h5.2v-1.8h-1.9l-0.8,0.7l-2.5-1.2l0.7-0.6V160h2.9v2.4h1.7v-3.3h2.8v2.8c0.5-0.4,1.5-1.4,1.8-1.9l0.5-0.9h4.3
			c-0.4,0.3-0.8,0.6-1.2,0.9h3.8l0.8-0.8l3,1.7C602.2,161.1,601.8,161.2,601.4,161.4z M590.3,163.7c-0.2-0.3-0.5-0.6-0.7-0.8v2.4
			c0.6-0.2,1.3-0.3,1.9-0.5C590.7,164.7,590.7,164.4,590.3,163.7z M593.2,162.7c-0.2-0.4-0.7-0.8-1.1-1c-0.7,0.3-1.5,0.6-2.2,0.8
			c0.6,0.1,2.9,0.3,2.9,1.2c0,0.5,0,0.5-0.2,0.8c0.6-0.2,1.2-0.5,1.8-0.8C593.6,163.6,593.6,163.4,593.2,162.7z M600.1,167.3v2.6
			c0,1.1-0.2,1.4-1.2,1.8c-0.6,0.2-1.2,0.3-1.8,0.3c-1,0-0.1-0.7-0.9-1.3c-0.3-0.2-1.6-0.5-2-0.6v-0.2c-0.3,0-0.5,0.1-0.8,0.1
			c-0.7-0.1-1.1-0.6-1.2-1.4c-0.1-0.5-0.4-0.7-0.7-1l0.1-0.2c0.7,0.1,3.2,0.1,3.2,1.4c0,0.6,0,0.6-0.5,1c0.7,0,1.5,0.1,2.2,0.1
			c0.4,0,0.5-0.2,0.5-0.6v-2h-6.9v-1.4h6.9v-1.3h3v1.3h1.7v1.4H600.1z M592.9,161.3l-0.3,0.1c0.7,0.1,3,0.2,3.2,1.1l0.1,0.4
			c0.8-0.5,1.4-1,2.1-1.6H592.9z"/>
		<path class="yellow" d="M605.9,172.7c0.4-2.3,0.4-4.8,0.5-7.1h1.3v-1.6h-2.3v-1.5h2.3v-3.4h2.9v3.4h1.7v1.5h-1.7v1.6
			c0.7,0.4,1.2,0.7,1.8,1.3c0.1,0.1,0.4,0.5,0.4,0.6l0.1,0.4c0.2-0.3,0.4-0.6,0.6-1c0.3-0.4,0.6-0.9,0.8-1.4
			c-0.6,0.3-1.2,0.6-1.8,0.9l-0.8-2.1c0.1,0,0.3,0,0.4-0.1c0.7-0.3,1.3-3.1,1.3-3.7l0-0.8h2.6c-0.4,1.2-1.1,2.8-1.9,3.7l-0.9,1
			c0.6-0.1,1.2-0.2,1.8-0.4c0.3-0.7,0.6-1.5,0.8-2.3l1.7,0.1c0-1,0-1.9,0-2.9h2.5c0,1.7,0,3.3,0,4.9c1-1.3,1.2-2.7,1.5-4.3l2.7,0
			c-0.7,1.6-1.6,2.7-2.8,4c0.6-0.1,1.2-0.2,1.8-0.4c0.3-0.6,0.5-1.2,0.6-1.9l2.8,0.2c-0.9,1.8-1.6,2.8-3,4.2c0.5,0.3,1.3,0.6,1.9,1.2
			c0.4,0.4,0.7,1,0.7,1.5c0,0.6-0.8,1-1.4,1c-0.8,0-0.9-0.6-1-1.2c-0.5,0.3-1.1,0.5-1.6,0.8c0.6,0.2,1.8,0.4,1.8,1.2
			c0,0.3-0.1,0.5-0.3,0.7h2.4v1.4h-5.4c0.2,0.8,0.4,1.4,0.8,2.1c0.4-0.6,0.8-1.1,1.1-1.7l2.7,0.7c-0.9,1.3-1.6,1.7-2.6,2.9
			c0.3,0.4,1,1,1.5,1c0.2,0,0.3-0.2,0.3-0.3c0.4-0.8,0.7-1.9,1-2.7l0.4,0c-0.1,0.7-0.2,1.4-0.2,2.1c0,0.2,0,0.4,0,0.6
			c0,1.1,1.2,0.8,1.2,1.2c0,0.2-0.5,1.5-0.6,1.7c-0.1,0.2-0.2,0.5-0.4,0.6c-0.1,0-0.2,0-0.3,0c-0.5,0-0.9-0.2-1.3-0.4
			c-1.3-0.6-2.4-1.5-3.4-2.6c-1.8,1.1-3.2,1.8-5.2,2.3l-0.2-0.2c1.8-1.1,3-1.9,4.6-3.3c-1-1.6-1.2-2.3-1.6-4.1h-2.7
			c0,0.5-0.1,0.9-0.1,1.4c0.6,0.2,1.7,0.4,2.4,0.8c0.6,0.4,1.1,0.9,1.1,1.4c0,0.6-0.8,1.1-1.3,1.1c-1.3,0-1.2-0.8-1.5-1.9
			c-0.1-0.5-0.3-0.6-0.7-1c-0.1,0.5-0.3,0.9-0.4,1.3c-0.6,1.9-2.4,3.2-3.9,4.2l-0.2-0.2c1.6-2.4,1.9-4.4,2.1-7.3h-1.2V171h1.2l0-0.8
			l-0.3,0.1l-0.4-1.4c-0.1,0-0.3,0.1-0.4,0.1c-1,0-0.7-1.3-1-1.8l-0.2-0.4v13.6h-2.9v-7.9c-0.7,1.2-1.3,2.4-2.3,3.4l-0.3-0.1
			C605.4,174.7,605.7,173.7,605.9,172.7z M615.6,170l-0.1,1h2.4c-0.1-0.5-0.1-1-0.2-1.4c-0.2,0.1-0.4,0.1-0.6,0.1
			c-0.8,0-0.8-0.7-0.9-1.2c-0.9,0.5-1.8,1.1-2.8,1.6H615.6z M615.9,167.5c-0.2-0.4-0.3-0.6-0.6-0.9L614,168
			C614.7,167.9,615.3,167.7,615.9,167.5z M616.9,166.8c0.2,0.1,0.5,0.4,0.7,0.6c-0.1-1.2-0.1-2.3-0.1-3.5c-0.5,0.8-1.1,1.5-1.7,2.3
			C616.1,166.4,616.5,166.6,616.9,166.8z M622.3,165.2c-0.6,0.4-1.3,0.6-1.9,0.9l-0.4-1.1c0,0.2,0,0.4,0,0.6c0,0.8,0,1.6,0,2.4
			C620.9,167.2,621.6,166.2,622.3,165.2z M622.1,171c-0.4-0.5-0.2-1.1-0.6-1.7l-0.7,0.4l-0.8-0.9c0,0.7,0.2,1.4,0.3,2.2H622.1z
			M623.7,167.5c-0.2-0.6,0-0.6-0.5-1.2c-0.6,0.6-1.3,1.1-2,1.6C622,167.8,622.9,167.7,623.7,167.5z"/>
		<path class="yellow" d="M642.1,159.1c-0.3,0.3-0.5,0.5-0.7,0.8c3,1.5,5.8,2.3,9.2,2.3l0,0.3c-1.1,0.2-1.5,0.6-1.5,1.8
			c0,0.3,0,0.5,0.1,0.8l-0.1,0.1c-1.7-0.4-3.3-0.8-4.8-1.6v0.6h-10.1v-0.7c-1.8,0.5-3.5,0.9-5.3,1.2l0-0.2c1.9-0.8,4.1-1.8,5.7-3.2
			c0.9-0.7,1.7-1.5,2.4-2.3H642.1z M630.9,165h3.5v0.4h10l1.1-0.9l3.6,0.9l-1,0.9v6h-2.1l2.3,0.6l-1.2,0.8v7.1h-3.6v-0.9h-7.9v0.9
			H632v-8.2h3.6v0.3h7.8l1.2-0.9v-0.4h-10.2v0.7h-3.5V165z M638.1,170.1v-3.1h-3.7v3.1H638.1z M634.6,167.4c0.7,0.1,2.3,0.2,2.8,0.8
			c0.2,0.2,0.3,0.5,0.3,0.8c0,0.5-0.4,0.9-0.9,0.9c-1,0-1.1-0.8-1.4-1.5c-0.2-0.4-0.6-0.6-1-0.8L634.6,167.4z M643.4,175.5v-1.1h-7.9
			v1.1H643.4z M643.4,177h-7.9v1.2h7.9V177z M643,162.7c-0.9-0.5-1.7-1.4-2.4-2.2c-1.4,1-2.6,1.5-4.2,2.2H643z M644.5,167.9v-1h-3.8
			v3.1h0.2c0.6-0.9,1.1-1.7,1.5-2.8L644.5,167.9z M644.5,170.1v-1.9c-0.9,0.7-1.8,1.3-2.9,1.9H644.5z"/>
		<path class="yellow" d="M659.9,165.9l-2-2.5c-0.9-1.1-1.5-1.8-2-2.2s-1.1-0.6-1.8-0.8c-1.2-0.3-1.9-0.9-1.9-1.8c0-1,0.8-1.7,2.4-2.1
			s4-0.7,7.3-0.7c2.4,0,4.2,0.1,5.4,0.4c1.3,0.3,1.9,0.9,1.9,1.9c0,0.4-0.3,0.9-0.8,1.8c-0.1,0.2-0.1,0.3-0.1,0.5
			c0,0.3,0.2,0.8,0.7,1.4s0.9,0.9,1.1,0.9c0.3,0,0.7-0.3,1.2-1s0.8-1.2,0.8-1.6c0-0.2-0.2-0.6-0.5-1.1c-0.3-0.4-0.4-0.8-0.4-1
			c0-0.3,0.1-0.7,0.4-1s0.6-0.6,1-0.7c0.7-0.3,1.9-0.4,3.6-0.4c1.5,0,2.5,0.1,3,0.4c0.8,0.4,1.2,1,1.2,1.7c0,0.4-0.1,0.7-0.3,0.9
			s-0.8,0.5-1.7,0.9c-0.5,0.2-0.9,0.5-1.1,0.8s-1.1,1.4-2.6,3.4l-1.6,2.4c-0.2,0.3-0.3,0.4-0.3,0.5c0,0.1,0.1,0.2,0.3,0.5l1.4,2.1
			c1.5,2.3,2.6,3.7,3.3,4.4c0.3,0.3,0.9,0.7,1.7,1c0.7,0.3,1.1,0.8,1.1,1.6c0,1.1-0.7,1.8-2,2.2s-3.7,0.6-7.2,0.6
			c-2.7,0-4.5-0.1-5.6-0.4c-1.4-0.3-2.1-1.1-2.1-2.2c0-0.7,0.4-1.2,1.2-1.5c0.5-0.2,0.7-0.5,0.7-1c0-0.5-0.3-1.2-1-2.1
			s-1.1-1.3-1.5-1.3c-0.4,0-0.9,0.6-1.7,1.7s-1.1,1.9-1.1,2.5c0,0.3,0.2,0.6,0.6,1.1c0.3,0.4,0.5,0.8,0.5,1.3c0,1.4-1.6,2-4.8,2
			c-1.8,0-3-0.2-3.8-0.5s-1.1-0.9-1.1-1.7c0-0.5,0.1-0.9,0.4-1.1s0.7-0.4,1.3-0.5c0.7-0.1,1.2-0.4,1.6-0.8s1.5-2.1,3.3-5.1l1.7-2.8
			c0.2-0.2,0.2-0.4,0.2-0.5C660.2,166.4,660.1,166.2,659.9,165.9z"/>
		<path class="yellow" d="M692.9,152.2c3,0,5.7,0.6,8,1.7c0.9,0.5,1.7,1.1,2.2,1.9s0.8,1.7,0.8,2.6c0,1.7-0.9,3.2-2.6,4.6
			c-0.5,0.4-0.8,0.7-0.8,1c0,0.5,0.4,0.8,1.3,0.9c4.2,0.8,6.3,3.1,6.3,7c0,2.5-0.9,4.7-2.6,6.7c-1.6,2-4,3.4-7.2,4.3
			c-2.3,0.7-4.8,1-7.5,1c-3.2,0-6-0.4-8.2-1.3c-1.5-0.6-2.2-1.4-2.2-2.5c0-0.7,0.2-1.2,0.7-1.7s1.1-0.7,1.8-0.7
			c0.4,0,1.4,0.2,3.2,0.6c0.6,0.1,1.4,0.2,2.4,0.2c1.9,0,3.4-0.4,4.5-1.3c1.2-0.9,1.8-2,1.8-3.2c0-1.1-0.5-2-1.4-2.7
			s-2.1-1.1-3.5-1.1c-0.9,0-1.7,0.1-2.4,0.3c-0.4,0.1-0.7,0.2-0.9,0.2c-0.4,0-0.8-0.4-1.3-1.2s-0.6-1.6-0.6-2.4
			c0-0.4,0.1-0.6,0.3-0.8s0.9-0.4,1.9-0.8c1-0.3,1.9-1,2.8-1.9c0.7-0.7,1-1.5,1-2.3c0-0.9-0.4-1.7-1.1-2.3s-1.5-1-2.5-1
			c-0.6,0-1.1,0.1-1.5,0.2s-1.2,0.5-2.3,1.1c-0.3,0.2-0.6,0.3-0.8,0.3c-0.4,0-0.8-0.3-1.1-0.8s-0.5-1.1-0.5-1.7c0-1.1,0.9-2.1,2.8-3
			c1.2-0.6,2.6-1.1,4.2-1.4S691.4,152.2,692.9,152.2z"/>
		<path class="pink" d="M718,159.4c-0.7,2.6-1.4,4-3.4,5.9h1.5v15.2h-3.4v-13.7c-0.6,0.4-1.1,0.8-1.8,1.1l-0.3-0.3
			c1.9-2,2.9-5.6,3.1-8.3H718z M726.3,163.9h-9.1v-1.6h6.1c-0.9-0.5-0.4-1.1-0.9-2c-0.2-0.4-0.2-0.4-0.7-0.7l0.1-0.3
			c1.3,0,4.6,0,4.6,2c0,0.5-0.2,0.7-0.5,1h5.5v1.6h-4.7l3.2,0.6c-1.2,2.2-1.9,3-4,4.5h6v1.6h-15v-1.7h7.4
			C725.3,167.3,725.9,165.7,726.3,163.9z M722,171.4v0.9h4.6l1-1.1l3.6,0.8l-1.1,1.1v7.5l-3.4,0v-0.9H722v0.9h-3.4v-9.2H722z
			M719.1,164.1c1.4,0.4,4.2,1.2,4.2,3.1c0,0.9-0.7,1.4-1.6,1.4c-1.7,0-1.8-1.3-2.1-2.6c-0.2-0.7-0.5-1.1-0.9-1.6L719.1,164.1z
			M726.8,178.1v-4.3H722v4.3H726.8z"/>
		<path class="pink" d="M745.7,179.2c-0.6,0.1-1.3,0-1.8-0.5c-0.5-0.5-0.7-1.1-0.7-1.8c0-0.6,0.3-1.1,0.8-1.5c0.5-0.4,1.1-0.6,1.8-0.5
			c0.6,0.1,1.1,0.5,1.4,1c0.2,0.3,0.3,0.6,0.3,1c0,0.3,0,0.6-0.1,0.9C747.2,178.5,746.5,179,745.7,179.2z M746,173.2h-1.5l-1.3-12
			h4.2L746,173.2z"/>
	</g>
	<g>
		<path class="word" d="M153.9,210L153.9,210l-6.8,5l2.7,8.1l-0.1,0l-6.9-5l-6.9,5l-0.1,0l2.7-8.1l-6.8-4.9V210h8.4l2.6-8.1h0.1
			l2.6,8.1H153.9z"/>
		<path class="word" d="M158.8,218.4l0-7.9l-2.5,0V209h2.4l0.8-1l3.3,0.7l-0.8,0.8v8.9c1.8-0.6,3.7-1.5,5.2-2.7h-2.9v-4.9h3.3v0.6h5.1
			l0.8-0.9l3.4,0.7l-0.9,0.7v3.8h-0.7l1.8,0.9c-1.3,0.5-2.7,0.8-4.1,1.1c0.9,0.2,2.9,0.7,2.9,1.9c0,0.6-0.5,1-1.1,1
			c-0.3,0-0.7-0.1-0.9-0.3l-1.6-1c-0.8-0.5-2.1-1.1-3.1-1.5v2.5h-3.3l0-2.1c-1.2,0.4-2.5,0.6-3.8,0.9c0.4,0.5,0.9,0.8,1.5,1.1
			c1.1,0.5,3.9,0.6,5.2,0.6c3.2,0,6.3-0.1,9.5-0.3l0,0.3c-0.5,0.2-1.5,0.7-1.5,1.4v0.3l-0.2,0.3c-1.8,0-3.5,0.1-5.3,0.1
			c-1.8,0-5.1,0-6.8-0.4c-1.2-0.3-2.8-1.2-3.5-2.3c-0.1-0.1-0.6-0.8-0.7-0.8c-0.3,0-2.1,3.3-2.2,3.5l-1.2-3
			C157.8,219.3,158.3,218.9,158.8,218.4z M157.6,201.8c1.1,0.3,2.9,0.5,3.6,1.3c0.3,0.3,0.5,0.8,0.5,1.2c0.1,1.3-0.8,2-1.9,1.8
			c-0.7-0.1-1.3-0.6-1.4-1.6c0-0.5-0.1-0.9-0.3-1.3c-0.2-0.5-0.5-0.9-0.7-1.3L157.6,201.8z M177.3,210.1H163v-1.4h14.3V210.1z
			M166.3,201.8v0.7h7.8l0.8-0.9l3,0.7l-0.9,0.8v4.9h-2.8v-0.5h-7.8v0.5h-2.7v-6.2H166.3z M167.7,206.1V204h-1.4v2.2H167.7z
			M172.9,214.1v-1.3h-5.2v1.3H172.9z M171.9,217.5c1-0.5,1.8-1,2.6-1.7h-1.6v-0.3h-1.1c-0.9,0.6-1.8,1.1-2.7,1.6
			C170,217.2,171,217.3,171.9,217.5z M170.9,206.1V204h-1.2v2.2H170.9z M174.1,206.1V204h-1.2v2.2H174.1z"/>
		<path class="word" d="M201.6,204.4h-1.9v16.6c0,0.4,0,0.9-0.3,1.2c-0.7,0.7-3,0.9-4,0.9c-0.2,0-1,0-1.1-0.1
			c-0.1-0.1-0.1-0.5-0.1-0.6c-0.1-1.1-1.9-1.4-2.8-1.5l0.1-0.3c1,0,2,0.1,3.1,0.1c0.2,0,1.2,0,1.3-0.1c0.2-0.2,0.2-0.5,0.2-0.7v-15.5
			h-15.7v-1.6h21.2V204.4z M186.1,207.8h3.6l1-1.1l3.6,0.8l-1,1.1v10.2h-3.5v-1.4h-3.7v1.5h-3.5v-11.8h3.5V207.8z M189.9,215.7v-6.3
			h-3.7v6.3H189.9z"/>
		<path class="word" d="M205.5,217.8l0-16.1h3.6v15.7c1-0.6,1.9-1.1,2.8-1.8c1.1-0.7,2-1.5,3-2.3l0.3,0.1c-2.4,4.8-3.8,6.2-8.3,9
			l-2.2-3.4C205.5,218.8,205.5,218.5,205.5,217.8z M216.7,219.2c1.4-1.5,2.5-3.5,3-5.4c0.4-1.4,0.5-2.9,0.6-4.4
			c0.1-1.2,0.2-2.4,0.2-3.7v-3.9h3.7c0,2-0.1,4-0.2,5.9c-0.1,2.3-0.2,4.3-1,6.5c-0.5,1.4-1.1,2.4-1.9,3.6c0.8,0.4,2.7,1.1,3.3,1.8
			c0.3,0.4,0.8,1.1,0.9,1.6c0.2,1.4-0.6,2.2-1.7,2.2c-1.4,0-1.7-1-2-2.1c-0.3-1.2-0.6-1.6-1.2-2.6c-0.9,0.7-1.8,1.4-2.8,2
			c-1.7,1.1-4.1,1.8-5.9,2.5l-0.2-0.3C213.4,221.9,215.2,220.8,216.7,219.2z M212.2,202c1.1,0.3,3.3,0.9,4.2,1.4s1.9,1.4,1.9,2.6
			c0,1.1-1.2,1.7-2.2,1.7c-0.4,0-0.7-0.1-1-0.3c-0.4-0.2-0.6-0.6-0.7-1l-0.3-1.3c-0.1-0.5-0.3-1-0.6-1.4c-0.4-0.8-0.7-1-1.4-1.6
			L212.2,202z"/>
		<path class="word" d="M234.3,220.3c-1.5,1.3-4.2,2-6,2.4l-0.2-0.3c1.3-0.9,2.8-2.1,3.7-3.4c0.3-0.5,0.6-1,0.8-1.5h4.2
			C236.1,218.8,235.4,219.3,234.3,220.3z M233.4,205.1l-0.5,0.5c0.6,0,2.2,0,3.2,0.4c0.6,0.2,0.8,0.7,0.8,1.3c0,0.6-0.9,1.1-1.4,1.1
			c-1.3,0-1.2-0.9-2-1.7c-0.3-0.3-0.6-0.5-0.9-0.7c-1.3,1.1-2.6,2.1-4.2,2.6l-0.3-0.2c1.8-1.7,2.8-4,3.1-6.5h4.1
			c-0.2,0.6-0.5,1.2-0.8,1.7h4.8v1.5L233.4,205.1z M248.5,215.4c0,1.4-0.1,2.7-0.1,4.1c0,0.3,0,0.6-0.1,0.9c-0.6,1.2-2.7,1.3-3.8,1.3
			c-1.6,0-0.3-1.2-1.8-1.8c-0.6-0.2-1.2-0.3-1.8-0.4l0-0.3c0.6,0,1.3,0,1.9,0c0.4,0,1.8,0.1,2.1-0.2c0.1-0.1,0.1-0.5,0.1-0.6l0.1-2.2
			h-4.7v7h-3.6v-7h-3.8l-0.6,0.9l-3.7-1l0.9-1.1v-3.6h3.5v0.6h3.8v-1.4H229v-1.6h14.9l1-0.8l4,0.6l-1.2,0.9v4.2H244v-0.4h-3.5v1.3
			h4.6l0.7-0.7l3.7,0.6L248.5,215.4z M236.8,213.3h-3.8v1.3h3.8V213.3z M242.7,205.1l-0.3,0.4c0.6,0,2.2-0.1,3.2,0.2
			c0.7,0.2,1.1,0.6,1.1,1.1c0,0.7-0.6,1.1-1.3,1.1c-0.8,0-1.4-0.6-2-1.1c-0.4-0.4-0.9-0.6-1.5-0.9c-1.1,1-2.3,1.7-3.7,2.4l-0.3-0.2
			c1.5-1.6,2.4-4.1,2.7-6.2h4.2c-0.3,0.6-0.6,1.2-0.9,1.8h5.1v1.5L242.7,205.1z M244,210.4h-3.5v1.4h3.5V210.4z"/>
		<path class="word" d="M273.2,212.6h-20.8v-1.8h20.8V212.6z"/>
		<path class="word" d="M279.8,202.4v0.9h1.5l0.8-1.1l3.2,1l-0.9,0.9v16.5h-3.1v-1h-1.6v1.2h-3.1v-18.3H279.8z M281.3,210.2v-5.4h-1.6
			v5.4H281.3z M281.3,218v-6.3h-1.6v6.3H281.3z M288.9,208.4v-2.3h-3.2v-1.6h3.2v-2.9h3.5v2.9h4v1.6h-4v2.3h5.4v1.5H285v-1.5H288.9z
			M291.9,210.5h3.5v1.9h2.2v1.5h-2.2v6.7c0,2.2-1.5,2.3-3.3,2.4c-0.2,0-0.4,0-0.6,0c-0.9,0-0.4-0.8-0.9-1.4
			c-0.4-0.5-1.6-0.7-2.2-0.8v-0.4c0.9,0.1,1.8,0.2,2.8,0.2c0.6,0,0.7-0.2,0.7-0.7v-6h-6v-1.5h6.1V210.5z M286.3,214.3
			c0.9,0.3,1.9,0.5,2.8,1c0.6,0.3,1.2,1,1.2,1.7c0,1.2-0.5,1.8-1.8,1.7c-2-0.2-1.3-1.9-1.8-3.1c-0.1-0.3-0.4-0.7-0.6-1L286.3,214.3z"
			/>
		<path class="word" d="M304.2,201.9v0.6h2.9l0.8-1l3.1,0.8l-0.9,1v6.9H307v-0.7h-2.8v13.5H301v-21.1H304.2z M307,204h-2.8v1.3h2.8
			V204z M307,208.1v-1.4h-2.8v1.4H307z M313.4,210.7l3.1,0.8l-1.1,0.9v7.9h-2.9v-0.9h-3.7v0.8h-2.8V211h2.8v0.7h3.6L313.4,210.7z
			M312.6,214.7v-1.6h-3.7v1.6H312.6z M312.6,216.2h-3.7v1.8h3.7V216.2z M314.7,209.6v0.6h-3.2V202h3.2v0.6h2.8l0.9-1l3.2,0.8l-1,0.9
			V221c0,1.4-0.6,1.8-1.9,2c-0.6,0.1-1.1,0.2-1.7,0.2c-0.7,0-0.8,0-0.8-0.6c0-1.2-2.1-1.4-3-1.5l0.1-0.4c1,0.1,1.9,0.1,2.9,0.1
			c0.7,0,1.2,0.1,1.2-0.8v-10.5H314.7z M317.5,205.3V204h-2.7v1.3H317.5z M317.5,208.2v-1.4h-2.7v1.4H317.5z"/>
		<path class="word" d="M325,217.8v-14.1h3.2v13.7c0.6-0.2,1.2-0.5,1.8-0.7v-14.8h3.3v9.7c1.3-2.1,2.4-4.5,2.5-6.9
			c0-0.7,0.1-1.5,0.1-2.2c0-0.2,0-0.4,0-0.6h3.8c-0.1,1.1-0.3,2.1-0.6,3.2h6.1v1.7h-6.6c-0.7,1.3-1.6,2.4-2.6,3.4l0.9-0.1
			c0.6,2.3,1,3.8,2.3,5.8c0.7-2.3,1-4.7,1-7.1c0-0.2,0-0.5,0-0.7h3.7c-0.3,4.1-0.4,6.4-2.6,10.1c1.2,1,3,1.6,4.5,2l0,0.3
			c-1,0.1-1.7,0.6-1.7,1.6c0,0.5,0.1,0.7,0.3,1.1l-0.2,0.2c-1.8-0.6-3.5-1.7-4.9-2.9c-1.8,1.4-3.1,2.2-5.2,3.1l-0.2-0.2
			c1.5-1.3,2.8-2.9,3.9-4.5c-0.3-0.4-0.5-0.8-0.7-1.3c-1-1.8-1.2-5-1.4-7.1c-0.8,0.6-1.6,1.2-2.4,1.7v11.2H330v-5.1
			c-1.7,1.7-2.3,2.2-4.3,3.4l-1.2-3.1C324.7,218.3,325,218.2,325,217.8z"/>
		<path class="word" d="M349.2,213.7h3.6v-2.3h3.4v2.3h3.4v1.6h-3.4l0,3.3c1.2-0.2,2.5-0.5,3.7-0.9l0.1,0.2c-3.5,2.5-6.6,3.7-10.7,4.8
			l-0.9-2.9c1.3-0.1,3.1-0.3,4.4-0.6v-3.9h-3.6V213.7z M349.6,208.6c0.6-0.2,1.8-3.2,2-4l0.3-1h-3.2l0-1.5H360v1.5H356
			c-1,1.6-2.3,3.3-3.8,4.5l-0.9,0.7c1.8,0,3.6-0.1,5.3-0.2c-0.3-1-0.7-1.8-1.2-2.6l0.3-0.2c1.6,0.8,2.9,1.3,3.9,2.9
			c0.3,0.4,0.3,0.9,0.3,1.2c0,1-0.7,1.5-1.6,1.5c-1.4,0-1.4-1.1-1.6-2.2c-2.7,1.3-4.4,1.6-7.3,2.1l-0.6-2.6
			C349.1,208.8,349.4,208.7,349.6,208.6z M363.8,204.9v12.8h-3.1v-12.8H363.8z M363.9,220.8c0.3,0,1.2,0,1.4-0.3
			c0.1-0.1,0.1-0.3,0.1-0.5v-18.3h3.4v19.3c0,1.9-1.6,2-3.2,2.1c-0.3,0-0.7,0-1.1,0c-0.2,0-0.6,0-0.8-0.1c-0.5-0.3,0-0.7-0.5-1.3
			c-0.1-0.2-0.3-0.3-0.5-0.4c-0.6-0.3-1.3-0.4-2-0.5l0.1-0.3C361.8,220.7,362.8,220.8,363.9,220.8z"/>
		<path class="word" d="M383.3,203.8h3.6l1.4,8.7c0.3,1.9,0.6,3.8,0.8,5.7h0.1c0.4-1.9,0.7-3.8,1.1-5.7l2.1-8.7h3l2.1,8.7
			c0.4,1.8,0.7,3.7,1.1,5.7h0.1c0.3-1.9,0.5-3.8,0.8-5.7l1.4-8.7h3.4l-3.3,17.8h-4.4l-2-8.8c-0.3-1.4-0.6-2.8-0.8-4.1h-0.1
			c-0.2,1.3-0.5,2.7-0.8,4.1l-1.9,8.8h-4.3L383.3,203.8z"/>
		<path class="word" d="M405.9,214.9c0-4.4,3-7.1,6.3-7.1c3.7,0,5.6,2.7,5.6,6.4c0,0.6-0.1,1.3-0.2,1.6h-8.3c0.3,2.2,1.7,3.4,3.7,3.4
			c1.1,0,2.1-0.3,3-0.9l1.2,2.2c-1.3,0.9-3,1.5-4.7,1.5C408.8,221.9,405.9,219.3,405.9,214.9z M414.7,213.5c0-1.8-0.8-3-2.5-3
			c-1.4,0-2.7,1-2.9,3H414.7z"/>
		<path class="word" d="M420,212.8c0-5.9,3.8-9.3,8.5-9.3c2.6,0,4.3,1.1,5.5,2.3l-1.9,2.3c-0.9-0.8-1.9-1.5-3.5-1.5c-3,0-5,2.3-5,6.1
			c0,3.9,1.8,6.2,5.3,6.2c0.9,0,1.7-0.2,2.2-0.7v-3.5H428v-2.9h6.3v8c-1.2,1.2-3.3,2.1-5.8,2.1C423.7,221.9,420,218.7,420,212.8z"/>
		<path class="word" d="M437.2,218c0-2.9,2.3-4.4,7.7-5c0-1.3-0.6-2.3-2.3-2.3c-1.2,0-2.4,0.6-3.7,1.3l-1.3-2.3c1.6-1,3.5-1.8,5.6-1.8
			c3.4,0,5.2,2,5.2,5.9v7.8h-2.9l-0.3-1.4h-0.1c-1.2,1-2.5,1.8-4.1,1.8C438.8,221.9,437.2,220.2,437.2,218z M444.9,217.9v-2.7
			c-3.3,0.4-4.4,1.3-4.4,2.5c0,1.1,0.7,1.5,1.8,1.5C443.3,219.2,444.1,218.7,444.9,217.9z"/>
		<path class="word" d="M452,208.2h2.9l0.2,1.8h0.1c1.1-1.2,2.4-2.1,4.1-2.1c1.9,0,3,0.9,3.7,2.4c1.2-1.3,2.5-2.4,4.3-2.4
			c2.9,0,4.2,2,4.2,5.4v8.4H468v-7.9c0-2.1-0.6-2.8-1.9-2.8c-0.8,0-1.6,0.5-2.6,1.5v9.2H460v-7.9c0-2.1-0.6-2.8-1.9-2.8
			c-0.8,0-1.6,0.5-2.6,1.5v9.2H452V208.2z"/>
		<path class="word" d="M474.3,214.9c0-4.4,3-7.1,6.3-7.1c3.7,0,5.6,2.7,5.6,6.4c0,0.6-0.1,1.3-0.2,1.6h-8.3c0.3,2.2,1.7,3.4,3.7,3.4
			c1.1,0,2.1-0.3,3-0.9l1.2,2.2c-1.3,0.9-3,1.5-4.7,1.5C477.2,221.9,474.3,219.3,474.3,214.9z M483.2,213.5c0-1.8-0.8-3-2.5-3
			c-1.4,0-2.7,1-2.9,3H483.2z"/>
		<path class="word" d="M489.1,208.2h2.9l0.2,2.4h0.1c1-1.8,2.4-2.7,3.8-2.7c0.7,0,1.2,0.1,1.6,0.3l-0.6,3c-0.5-0.1-0.8-0.2-1.4-0.2
			c-1.1,0-2.3,0.7-3.1,2.6v8h-3.5V208.2z"/>
		<path class="word" d="M498.1,220l1.6-2.2c1.2,0.9,2.4,1.5,3.6,1.5c1.3,0,1.9-0.6,1.9-1.4c0-1-1.4-1.5-2.8-2
			c-1.7-0.6-3.7-1.7-3.7-3.9c0-2.4,2-4.1,5-4.1c2,0,3.5,0.8,4.6,1.7l-1.6,2.1c-1-0.7-1.9-1.2-2.9-1.2c-1.2,0-1.8,0.5-1.8,1.3
			c0,1,1.3,1.3,2.7,1.9c1.8,0.7,3.7,1.6,3.7,4.1c0,2.4-1.8,4.2-5.4,4.2C501.4,221.9,499.4,221.1,498.1,220z"/>
		<path class="word" d="M511.5,203.8h3.6v14.8h7.2v3h-10.8V203.8z"/>
		<path class="word" d="M523.9,214.9c0-4.5,3.1-7.1,6.5-7.1s6.5,2.6,6.5,7.1c0,4.4-3.1,7-6.5,7S523.9,219.3,523.9,214.9z M533.2,214.9
			c0-2.5-1-4.2-2.9-4.2s-2.9,1.7-2.9,4.2c0,2.5,1,4.2,2.9,4.2S533.2,217.4,533.2,214.9z"/>
		<path class="word" d="M538,208.2h3.6l2,6.7c0.3,1.3,0.7,2.7,1.1,4.1h0.1c0.3-1.4,0.7-2.8,1.1-4.1l2-6.7h3.4l-4.5,13.4h-4.1
			L538,208.2z"/>
		<path class="word" d="M552.4,214.9c0-4.4,3-7.1,6.3-7.1c3.7,0,5.6,2.7,5.6,6.4c0,0.6-0.1,1.3-0.2,1.6h-8.3c0.3,2.2,1.7,3.4,3.7,3.4
			c1.1,0,2.1-0.3,3-0.9l1.2,2.2c-1.3,0.9-3,1.5-4.7,1.5C555.3,221.9,552.4,219.3,552.4,214.9z M561.2,213.5c0-1.8-0.8-3-2.5-3
			c-1.4,0-2.7,1-2.9,3H561.2z"/>
		<path class="word" d="M584.1,212.6l0.4,0.2c-0.6,4.9-1,6.3-4,10.4l-1.9-3.9C580.8,217.3,582.6,215.2,584.1,212.6z M578.8,207.4
			c1.5,0.3,3.6,0.3,4.6,1.6c0.3,0.4,0.6,1,0.6,1.5c0,1-0.6,1.7-1.5,1.7c-0.4,0-1.1-0.1-1.5-0.6c-0.6-0.6-0.6-1.5-1-2.3
			c-0.3-0.6-0.8-1.2-1.3-1.7L578.8,207.4z M579.3,202.1c1.6,0.4,5.8,0.8,5.8,3.1c0,1-0.8,1.2-1.7,1.3c-1,0.1-1.6-0.5-2.3-1.8
			c-0.5-0.9-1.2-1.7-2-2.3L579.3,202.1z M590.4,204.5c-1.9-0.1-3.8-0.2-5.7-0.6v-0.3c3.5-0.3,7-1.1,10.4-2l4.2,2.1
			c-1.8,0.4-3.6,0.6-5.4,0.7v3h6v1.5h-6v3.9h1l1.1-1.1l3.5,0.8l-0.9,0.9v9.8h-3.6v-1.6h-5.7v1.7h-3.5v-11.1h3.5v0.7h1V209h-5.7v-1.5
			h5.7V204.5z M595.1,220v-5.7h-5.7v5.7H595.1z"/>
		<path class="word" d="M609.9,205h4.6v1.2h1.7l0-4.3h2.7l-0.1,4.3h1.4l0.8-0.8l2.9,0.6l-0.9,0.8l-0.2,13.8c0,0.5,0,1.1-0.3,1.5
			c-0.5,0.9-2.2,1.2-3.2,1.2c-1.5,0,0.1-0.7-1.5-1.4c-0.6-0.3-1.4-0.4-2.1-0.6l0-0.3c1.1,0,2.3,0.2,3.4,0.2c0.7,0,0.9-0.4,0.9-1
			l0.2-12.6h-1.5c0,2.7,0,5.4-0.5,8c-0.6,3.4-3.4,6.1-6.1,7.8l-0.3-0.2c2.4-2.6,3.5-5,4-8.5c0.3-2.3,0.2-4.8,0.3-7.1h-1.8v-1.2h-4.4
			v1.2h1.4l0.7-0.7l2.6,0.9l-0.8,0.5v7.3h-2.4V215h-1.5v1.5h3.9v1.4h-3.9v1.6c1.5-0.2,3.1-0.4,4.6-0.6l0.1,0.3
			c-3.5,1.4-7.2,2.4-10.9,3.3l-1-2.4c1.6-0.1,3.2-0.2,4.8-0.4v-1.8h-4.2v-1.4h4.2V215h-1.6v0.6h-2.4v-8.4h2.4v0.4h1.6v-1.2h-4.7V205
			h4.7v-1.2c-1.6,0-3.3-0.1-4.9-0.2l0-0.3c3.4-0.3,7-0.7,10.2-1.8l2.1,2.2c-1.6,0.1-3.2,0.1-4.9,0.2V205z M607.4,209.1h-1.5v1.5h1.5
			V209.1z M607.4,213.5V212h-1.5v1.5H607.4z M611.3,210.6v-1.5h-1.4v1.5H611.3z M611.3,213.5V212h-1.4v1.5H611.3z"/>
		<path class="word" d="M638,211.3v6c0.4-0.1,0.7-0.2,1.1-0.2l0.1,0.2c-0.4,0.3-0.8,0.5-1.2,0.7v5.2h-3.2v-3.5
			c-2.2,0.9-4.4,1.3-6.6,1.8L627,219c0.6,0,1.2-0.1,1.8-0.1v-7.5h-2.2v-1.5h21.2v1.5H638z M645.1,203.2v6.1h-3.6v-0.8h-8.8v0.8h-3.5
			v-7.5h3.5v0.7h8.8l0.8-1l3.8,0.8L645.1,203.2z M634.7,211.3h-2.5v1.2h2.5V211.3z M634.7,214h-2.5v1.3h2.5V214z M634.7,216.9h-2.5
			v1.4c0.8-0.1,1.6-0.2,2.5-0.4V216.9z M641.5,204h-8.8v0.8h8.8V204z M641.5,206.2h-8.8v0.9h8.8V206.2z M647.9,220.4
			c-0.7,0.1-1.5,0.5-1.5,1.3c0,0.3,0.2,0.6,0.3,0.9l-0.3,0.2c-1.8-0.7-2.5-1.1-4.1-2.3c-1.3,1-2.6,1.7-4.1,2.4l-0.2-0.2
			c1.2-1,2.1-2,3-3.4c-1.4-2-1.6-2.8-2-5.3h-0.8v-1.5h4.8l0.8-0.9l3.6,0.6l-1,0.9c-0.5,2.4-0.7,3.6-2.2,5.6c1.2,0.6,2.4,1.1,3.7,1.4
			L647.9,220.4z M639.9,214c0.5,1.2,1.3,2.3,2.2,3.1c0.3-1,0.6-2.1,0.7-3.1H639.9z"/>
		<path class="word" d="M650.8,222.3l-0.3-0.1c0.8-1.7,1.4-4.5,1.4-6.3h2.5v-1.2h-3.5v-1.5h3.5v-1.7h-3.8v-1.5h5.2
			c0.5-1.3,1-2.5,1.1-3.9h3.6c-1,1.9-1.7,2.5-3.4,3.9h4.2v1.5h-3.5v1.7h3.2v1.5h-3.2v1.1c0.8,0.3,2.2,0.7,2.6,1.3
			c0.2,0.3,0.7,1.2,0.7,1.8c-0.1,0.9-0.2,1.4-1.3,1.5c-1.8,0.1-1.2-1.9-1.5-3.1c-0.1-0.3-0.3-0.6-0.5-0.9v6.7c-0.9,0-1.9,0-3.3,0
			v-5.4C653.9,219.7,652.6,221.1,650.8,222.3z M650.8,204.2h4.2c-0.4-0.4-0.5-1-0.7-1.4c-0.1-0.3-0.4-0.5-0.6-0.7l0.1-0.2
			c0.5-0.3,1.8-0.5,2.9-0.2c0.9,0.2,1.5,0.7,1.5,1.4c0,0.5-0.2,0.9-0.6,1.2h3.5v1.5h-10.2V204.2z M652.4,205.9c1.4,0.3,3.3,1,3.3,2.4
			c0,0.9-0.7,1.4-1.5,1.4c-1.3,0-1.3-0.7-1.4-1.8c0-0.7-0.2-1.2-0.6-1.9L652.4,205.9z M660.8,221.6c1.1-2,1.3-4.1,1.3-6.4V202h3.3v1
			c1.5-0.3,2.6-0.8,4-1.4l2.6,2.1c-1.2,0.2-2.3,0.3-3.5,0.3c-1,0-2.1-0.1-3.1-0.2v5h6.2v1.6h-1.4v12.8h-3.4v-12.8h-1.4
			c0,2,0.1,4-0.2,6c-0.4,3.1-2.6,5.1-5.1,6.7l-0.3-0.1C660.2,222.5,660.5,222.1,660.8,221.6z"/>
		<path class="word" d="M685.5,218.8c-1,1-2.2,1.7-3.4,2.4c-2,1.1-5.4,1.8-7.7,2.3l-0.1-0.3c1.9-0.9,3.9-1.9,5.4-3.5l0.9-1
			L685.5,218.8z M680.8,204.8l0.3,0.2c-1.7,2.2-3.4,3.8-5.7,5.4l-1.1-2.8C676.5,207,679,205.9,680.8,204.8z M675.1,201.9
			c0.3,0,0.6,0,0.9,0c1.1,0,3.4-0.1,4.2,0.6c0.3,0.3,0.6,0.8,0.6,1.2c-0.1,0.6-0.8,1-1.4,1c-1.2,0-2.1-1.3-3-1.9
			c-0.4-0.3-0.9-0.5-1.3-0.6L675.1,201.9z M679.7,209.4c1.4-0.7,2.4-1.3,3.5-2.4c0.5-0.5,1-1.1,1.2-1.6l0.3-0.7l3.6,0
			c-0.1,0.3-0.2,0.5-0.4,0.8c0.3,0.3,0.7,0.5,1.1,0.7c0.6,0.4,1.2,0.6,1.8,0.8c1.7,0.6,3.4,0.7,5.2,0.8l0,0.2
			c-0.8,0.3-1.2,0.8-1.2,1.6c0,0.4,0,0.4,0.3,0.7l-0.2,0.2c-0.5-0.1-0.9-0.2-1.4-0.4l-0.2,0.2v8.5h-3.3v-0.7h-9.9v0.8h-3.3v-9.5
			H679.7z M690,209.7l0.7-0.6c-1.5-0.9-2.2-1.2-3.3-2.6c-2,2.1-4.5,2.6-7.2,3.2H690z M690.1,212v-1.1h-9.9v1.1H690.1z M690.1,214.3
			v-1h-9.9v1H690.1z M690.1,216.8v-1.1h-9.9v1.1H690.1z M691.8,202.7l1-0.9l3.5,1.1c-0.3,0.2-0.7,0.3-1,0.5c-0.3,0.1-0.6,0.4-0.8,0.6
			c-0.6,0.4-1.2,0.9-1.8,1.3c-0.7,0.5-1.5,0.8-2.2,1.2l-0.3-0.2c0.7-0.7,1.1-1.4,1.6-2.2h-7.2c-0.9,0.8-2.4,1.8-3.5,2.3l-0.3-0.2
			c1.2-1.6,1.7-2.9,2-4.8l4,0c-0.3,0.5-0.6,0.8-1,1.2H691.8z M686.9,218.7c1.8,0.2,6.1,0.6,7.5,2c0.3,0.3,0.6,1,0.6,1.4
			c0,0.8-0.7,1.1-1.5,1.1c-1.1,0-2.1-1.2-2.8-1.9c-1-1-2.6-1.8-3.9-2.4L686.9,218.7z"/>
		<path class="word" d="M701.5,202.5c-0.2-0.5-0.4-0.6-0.8-1l0-0.2c1-0.2,2.3-0.1,3.2,0.4c0.7,0.4,1.2,1.1,1.2,2.1
			c0,0.6-0.4,0.8-0.8,1.1h3.1v1.5h-9v-1.5h4.3C701.5,204.3,701.9,203.6,701.5,202.5z M706.6,208v1.5h-7.4V208H706.6z M706.6,211v1.5
			h-7.4V211H706.6z M702.1,214v0.8h1.8l1-1l3.1,0.7l-1,1v6.8h-2.9v-0.9h-1.9v1.1h-2.9V214H702.1z M704.1,220v-3.6h-1.9v3.6H704.1z
			M708.8,210.1v-5.8h-1.4v-1.6h6.3l1.2-1.2l3.7,0.8l-1.5,1.1l0,10.6c0,0.7-0.1,1.4-0.1,2.1c0,0.6,0,1.2,0.1,1.8
			c0,0.2,0.1,1.4,0.4,1.4c0.5,0,1.2-3.4,1.4-4.2l0.4,0.1c-0.1,1-0.2,2.1-0.2,3.1c0,1.2,1.2,1.5,1.2,2.1c0,0.8-0.9,2.3-1.6,2.8
			c-0.2,0.2-0.5,0.2-0.7,0.2c-0.4,0-0.9-0.2-1.3-0.4c-0.6-0.3-1.2-0.7-1.6-1.2c-1.5-1.9-1.4-4.2-1.4-6.5v-3.7h-1.6V223h-3.4v-11.4
			H707v-1.5H708.8z M713.8,210.1v-5.8h-1.6v5.8H713.8z"/>
	</g>
	<rect x="338.5" y="243.7" class="button" width="177.3" height="44.8"/>
	<g>
		<path class="word" d="M360.1,272.7h8.7c1.5-3,2.6-6.9,3.2-10.3l3.5,0.3c-0.8,2.6-1.9,5.8-3.6,8c-0.5,0.7-1,1.3-1.6,1.9h7.9v1.5
			h-18.1V272.7z M377.4,259.9l0,1.5h-16.8v-1.5H377.4z M365.7,263.9c1.5,1.3,2.8,2.9,2.8,5c0,1.2-0.7,1.9-1.9,1.9
			c-0.7,0-1.2-0.5-1.3-1.2c-0.2-1.1-0.1-2.2-0.3-3.3c-0.2-1.4-0.4-2.2-1.1-3.4l0.2-0.1C364.7,263,365.2,263.5,365.7,263.9z
			M366.9,255.9c1.2,0.1,3,0.2,3.8,1.1c0.3,0.3,0.5,0.7,0.5,1.2c0,0.9-1,1.4-1.8,1.4c-0.5,0-1.3-0.2-1.5-0.8
			c-0.1-0.3-0.1-0.5-0.2-0.8c-0.1-0.8-0.4-1.4-1-2L366.9,255.9z"/>
		<path class="word" d="M384.8,267.2c0,0.7,0,1.3,0,2c0,1.2,0.1,2.6-0.9,3.4c-1.1,0.9-3.3,0.3-2.3-1c0.2-0.3,0.8-0.9,1-1.2
			c0.6-0.7,1.4-2.3,1.7-3.1H384.8z M385.4,256.1v0.6h12.3v1.3h-5.5v1.3h5.1v1.3h-5.1v1.6h5.2v1.3h-5.2v1.5h3.2l1.3-1l3.4,1l-1.5,0.8
			c-0.1,2.3-0.1,4.6-0.3,6.9c-0.1,1.2-0.3,1.8-1.5,2.1c-0.5,0.1-1.1,0.2-1.7,0.2c-1.1,0-0.4-0.7-1-1.3c-0.3-0.3-1.8-0.6-2.1-0.7
			l0-0.3c0.8,0.1,1.6,0.1,2.3,0.1c0.2,0,0.4,0,0.5-0.1c0.6-0.3,0.6-1.7,0.6-2.2c-0.2,0.1-0.5,0.2-0.7,0.2c-1,0-1.1-1-1.3-1.7
			c-0.1-0.3-0.6-1.6-0.8-1.9l-0.4-0.4l0.3-0.1c0.6,0.3,1.9,1,2.4,1.4l0.6,0.6c0-0.7,0-1.5,0.1-2.2h-10.1v0.6h-2.9v-10.9H385.4z
			M389.3,259.2V258h-3.8v1.3H389.3z M389.3,262.2v-1.6h-3.8v1.6H389.3z M389.3,265.1v-1.5h-3.8v1.5H389.3z M386.6,267c1,1,2,2.5,2,4
			c0,0.8-0.6,1.3-1.4,1.3s-1.2-0.2-1.2-1c0-0.9,0.4-1.8,0.4-2.7c0-0.5-0.1-0.9-0.2-1.4L386.6,267z M389.2,266.8
			c1,0.7,3.2,2.2,3.2,3.6c0,0.7-0.7,1.1-1.3,1.1c-0.8,0-1.1-0.7-1.2-1.3c-0.1-0.5-0.2-1.1-0.3-1.6c-0.2-0.7-0.3-1-0.7-1.6
			L389.2,266.8z"/>
		<path class="word" d="M411.6,264.3l-0.4-0.9c0.3-0.3,0.6-0.5,0.9-0.8c0.5-0.5,1-1.6,1.2-2.3l2.8,0.1c-0.8,1-2.2,2.1-3.3,2.9
			c1.3-0.1,2.6-0.2,3.8-0.4c-0.2-0.7-0.5-1.1-0.8-1.7l0.2-0.1c1,0.4,3.2,1,3.5,2.2c0.3,1.1-0.7,2-1.8,1.6c-0.7-0.2-0.9-0.6-0.9-1.2
			c-1.4,0.4-2.8,0.8-4.2,1.3c2.6,1.4,5.1,1.7,8,1.7l0,0.3c-1.3,0.5-1.7,1.1-0.9,2.3l-0.2,0.2c-3.4-0.9-6-1.9-8.5-4.4
			c-2.8,2.1-6.3,3.3-9.7,3.9l-0.1-0.2c2.6-1.2,4.8-2.4,6.7-4.5L411.6,264.3z M404.1,261.1l-0.4-2.1c0.4,0,0.8-0.1,1.2-0.2
			c1.2-0.3,2.7-1.8,3.4-2.7l4.4,0.1c-1.5,1.3-4,2.3-5.9,2.9c2.6,0,5.2-0.1,7.8-0.3c-0.7-0.7-1.4-1.1-2.3-1.7l0.1-0.2
			c1.5,0.3,5,0.7,5.7,2.1c0.4,0.8-0.4,1.6-1.2,1.6c-1,0-1.2-0.5-1.8-1.2c-2.5,0.5-5,0.9-7.5,1.2l1.1,0.1c-0.2,0.2-0.4,0.4-0.7,0.6
			c0.9,0.2,3.1,0.7,3.1,2c0,0.7-0.9,1-1.5,1c-0.5,0-0.5-0.2-0.8-0.5c-1.9,0.6-3.8,1.2-5.7,1.6l-0.6-1.9c1.3-0.5,2.1-1.7,2.9-2.8
			C405,260.9,404.6,261,404.1,261.1z M411.6,268.3c-2.5,1.6-6,2.2-8.8,2.3l0-0.3c2.9-0.8,4.9-1.7,7.2-3.6l2.9,0.7
			C412.5,267.8,412.1,268.1,411.6,268.3z M419.4,271.3c-4.1,2.8-11.6,3.9-16.6,3.4l0-0.3c4.9-0.6,9.3-1.1,13.4-4.2L419.4,271.3z
			M403.1,272.6l0-0.3c3.6-0.7,7.2-1.6,10-4l3,1C411.7,272,408.2,272.6,403.1,272.6z M408.6,263.1c-0.3-0.6-0.5-1-0.9-1.5
			c-0.9,0.7-1.9,1.3-2.9,1.8C406.1,263.3,407.4,263.2,408.6,263.1z"/>
		<path class="word" d="M425.2,257.9l0.1-1.8h2.8l-0.1,1.8h1.3l0.8-0.9l2.9,0.8l-0.7,0.9c-0.1,4.3-0.1,8.5-0.1,12.8
			c0,2.1,0.2,2.9-2.2,3.3c-0.3,0-0.6,0.1-0.9,0.1c-0.1,0-0.3,0-0.4-0.1c-0.1-0.1-0.1-0.4-0.2-0.6c-0.1-0.7-1.2-1-1.8-1.2l0.1-0.3
			c0.6,0,1.2,0.1,1.8,0.1c0.6,0,0.9-0.2,0.9-0.8c0-4.2,0-8.5,0-12.7h-1.4c0,1.5,0,3.7,0,5.2c-0.1,2.6-0.2,5.1-1.8,7.3
			c-0.8,1.1-1.8,2.2-2.9,3.1l-0.2-0.1c0.6-1,1.1-2.1,1.4-3.2c0.6-2,0.6-4.3,0.6-6.4c0-2,0-3.9,0-5.9h-2l0-1.4H425.2z M433.2,257.3
			h2.6v0.7h1.7l0.9-0.8l2.7,0.7l-0.8,0.8V274h-2.6v-1.6h-1.8v1.6h-2.6V257.3z M437.7,271v-11.7h-1.8V271H437.7z"/>
		<path class="word" d="M453.4,273.5c-0.6,0.1-1.2,0-1.6-0.5c-0.5-0.4-0.7-1-0.6-1.6c0-0.5,0.3-0.9,0.7-1.3c0.4-0.4,1-0.5,1.6-0.4
			c0.5,0.1,1,0.4,1.3,0.9c0.2,0.3,0.3,0.6,0.3,0.9c0,0.3,0,0.5-0.1,0.8C454.7,272.9,454.1,273.4,453.4,273.5z M453.7,268.3h-1.3
			l-1.1-10.5h3.7L453.7,268.3z"/>
		<path class="word" d="M471.9,259.1c0.9,0,1.7,0.1,2.5,0.4c0.4,0.1,0.6,0.2,0.7,0.2c0.1,0,0.4-0.1,0.9-0.2c0.1,0,0.3-0.1,0.4-0.1
			c0.4,0,0.7,0.2,1.1,0.7c0.6,0.7,0.8,1.5,0.8,2.4c0,0.6-0.1,1.1-0.4,1.4c-0.3,0.4-0.7,0.5-1.2,0.5c-0.4,0-0.8-0.1-1.2-0.4
			c-0.1-0.1-0.4-0.4-0.9-1c-0.8-0.9-1.6-1.4-2.6-1.4c-0.9,0-1.6,0.3-2.1,1c-0.5,0.6-0.8,1.5-0.8,2.6c0,1.6,0.4,3,1.3,4.2
			c0.3,0.4,0.7,0.8,1.1,1s0.9,0.4,1.3,0.4c0.4,0,0.6-0.1,0.9-0.4c0.2-0.2,0.3-0.5,0.3-0.9c0-0.3-0.1-0.6-0.3-0.7
			c-0.1-0.1-0.1-0.1-0.2-0.1c-0.1,0-0.3,0-0.6,0c-0.3,0-0.5-0.1-0.7-0.3c-0.2-0.2-0.3-0.4-0.3-0.7c0-0.6,0.4-1,1.1-1.2
			c0.8-0.3,1.8-0.4,2.9-0.4c1.2,0,2.1,0.1,2.9,0.4c0.7,0.2,1.1,0.7,1.1,1.3c0,0.2-0.1,0.5-0.3,0.6s-0.4,0.3-0.7,0.3
			c-0.2,0-0.4,0.1-0.5,0.2c-0.1,0.1-0.1,0.2-0.2,0.5c-0.3,1.1-0.9,2-1.7,2.7c-0.6,0.5-1.3,0.9-2.1,1.2c-0.8,0.3-1.7,0.4-2.6,0.4
			c-1.5,0-2.9-0.3-4.1-1c-1.3-0.7-2.3-1.7-2.9-3c-0.6-1.1-0.8-2.2-0.8-3.4c0-1.2,0.3-2.4,1-3.5c0.7-1.2,1.7-2.1,3-2.8
			C469.2,259.4,470.5,259.1,471.9,259.1z"/>
		<path class="word" d="M488.6,259.1c1.8,0,3.3,0.5,4.6,1.5c0.9,0.7,1.6,1.6,2.2,2.7c0.5,1.1,0.8,2.2,0.8,3.3c0,1.6-0.5,3.1-1.6,4.3
			c-0.9,1.1-2.1,1.9-3.5,2.3c-0.9,0.3-1.8,0.4-2.7,0.4c-1.2,0-2.3-0.2-3.4-0.7c-1.3-0.6-2.3-1.5-3.1-2.7c-0.7-1.2-1.1-2.4-1.1-3.8
			c0-1.6,0.5-3.1,1.4-4.3c0.8-1.1,1.9-1.9,3.3-2.4C486.4,259.3,487.5,259.1,488.6,259.1z M487.6,262.1c-0.6,0-1,0.3-1.4,0.8
			c-0.3,0.4-0.4,0.8-0.4,1.4c0,0.8,0.2,1.7,0.5,2.7c0.3,1,0.7,1.9,1.2,2.7c0.2,0.3,0.5,0.6,0.8,0.8c0.3,0.2,0.6,0.3,0.9,0.3
			c0.5,0,0.9-0.2,1.3-0.6c0.3-0.4,0.5-0.9,0.5-1.5c0-0.8-0.1-1.7-0.4-2.7c-0.3-1-0.6-1.8-1-2.5c-0.3-0.4-0.6-0.7-0.9-1
			S488,262.1,487.6,262.1z"/>
	</g>
	<g>
		<path class="grey" d="M456.8,193.2c0,2.1,0.8,3.9,2,5.7l-0.1,0.1c-2-1.3-3.4-3.4-3.5-5.8c-0.1-2.5,1.5-4.6,3.5-6l0.1,0.1
			C457.5,189,456.8,191,456.8,193.2z"/>
		<path class="grey" d="M463.3,187.1c-0.2,0.5-0.9,1.2-1.3,1.5h0.9v8.4h-1.8v-7.9c-0.4,0.3-0.8,0.5-1.3,0.8l-0.1-0.1
			c0.8-1.2,1.3-2.1,1.7-3.5h2.2C463.5,186.6,463.4,186.8,463.3,187.1z M467.8,191.1h2.5v0.8h-2.5v4.3h2.1v0.8h-6.3v-0.8h2.4v-4.3
			h-2.7v-0.8h2.7v-3.3c-0.8-0.1-1.6-0.2-2.4-0.3l0-0.1c1.5-0.1,3.3-0.5,4.8-0.9l1.9,1c-0.8,0.2-1.7,0.3-2.5,0.4V191.1z"/>
		<path class="grey" d="M482.3,191.8h-10.4v-0.9h10.4V191.8z"/>
		<path class="grey" d="M488.8,190.5h2.6l0.6-0.6l2,0.4l-0.6,0.6c0,1-0.1,2.1-0.1,3.1c0,0.4,0,0.8,0,1.2c0,0.2,0,0.4-0.1,0.6
			c-0.1,0.5-0.6,0.9-1.2,1c-0.5,0.1-1.1,0.3-1.6,0.3c-0.7,0-0.2-0.6-0.8-1c-0.2-0.1-0.7-0.2-1-0.2l0-0.2c0.5,0,1.1,0.1,1.6,0.1
			c0.1,0,0.2,0,0.4,0c0.8,0,0.9-0.2,0.9-1c0-1.1,0.1-2.3,0.1-3.4h-2.7c-0.1,0.5-0.1,1-0.3,1.4c-0.1,0.5-0.4,1-0.6,1.5
			c-0.3,0.5-0.7,1-1.2,1.3c-0.8,0.6-1.6,1.1-2.5,1.5l-0.1-0.1c0.4-0.3,0.8-0.7,1.2-1.1c0.9-0.9,1.4-2.2,1.6-3.4
			c0.1-0.4,0.1-0.9,0.2-1.3c0-0.4,0.1-0.8,0.1-1.2l0-0.9h-3v-0.8h10.4v0.8h-5.5L488.8,190.5z M488,186.2c0.6,0,1.8,0,2.2,0.4
			c0.2,0.2,0.3,0.4,0.4,0.8c0,0.4-0.5,0.7-0.8,0.7c-0.3,0-0.8-0.1-1-0.4c-0.1-0.1-0.1-0.4-0.2-0.5c-0.1-0.4-0.4-0.7-0.7-0.9
			L488,186.2z"/>
		<path class="grey" d="M501.5,187.9v-1.5h1.7l0,1.5h3.2v0.8h-3.2c0,1.8,0,4.3,0.9,5.9c0.2,0.3,0.5,0.8,0.8,0.8c0.2,0,0.7-1.4,0.8-1.7
			l0.2,0c-0.1,0.3-0.1,0.7-0.1,1c0,0.6,0.6,0.6,0.6,0.8c0,0.1-0.2,0.4-0.2,0.5c-0.2,0.5-0.6,1-1.2,1c-0.5,0-0.9-0.3-1.3-0.6
			c-0.5-0.3-0.9-0.8-1.1-1.3c-1.1-2-1.1-4.3-1.2-6.6h-5.6v-0.8H501.5z M496.3,190.8l0-0.8h4.8v0.8h-1.6v3c0.6-0.3,1.1-0.6,1.7-1
			l0.1,0.1c-0.2,0.3-0.5,0.5-0.7,0.8c-0.3,0.3-0.6,0.6-0.9,0.9c-0.9,1-2.1,1.6-3.3,2.2l-0.6-1.7c0.6-0.1,1.3-0.3,1.9-0.5v-3.8H496.3z
			M503.5,186.5c0.6-0.2,1-0.1,1.6,0c0.4,0.1,0.9,0.4,0.9,0.9c0,0.3-0.3,0.5-0.6,0.5c-0.7,0-0.8-0.6-1.3-0.9
			c-0.2-0.1-0.4-0.2-0.6-0.3L503.5,186.5z"/>
		<path class="grey" d="M509.7,187.9c-0.4-0.2-0.3-0.4-0.5-0.8c-0.1-0.3-0.2-0.4-0.4-0.6l0-0.1c0.4,0,1.1-0.2,1.5,0
			c0.3,0.2,0.6,0.6,0.6,0.9c0,0.4-0.2,0.5-0.5,0.6h1.6v0.8h-4.3v-0.8H509.7z M508.1,191.7V191h3.6v0.7H508.1z M509.6,192.4v0.3h0.9
			l0.5-0.5l1.3,0.4l-0.4,0.4v3.6h-1.3v-0.4h-0.9v0.6h-1.4v-4.3H509.6z M511.4,189.4v0.8h-3.2v-0.8H511.4z M510.5,195.4v-2h-0.9v2
			H510.5z M513.1,191.7h1.7v-2.5h-2.1v-0.8h5.6v0.8h-2.2v2.5h1.8v0.8h-1.8v3.4h2.4l0,0.8h-6.5v-0.8h2.7v-3.4h-1.7V191.7z
			M514.1,186.3c0.5,0.1,1,0.1,1.5,0.2c0.3,0.1,0.6,0.3,0.8,0.6c0.1,0.2,0.2,0.4,0.2,0.6c0,0.5-0.6,0.6-0.9,0.6c-1,0-0.9-0.7-1.2-1.4
			C514.3,186.7,514.1,186.5,514.1,186.3L514.1,186.3z"/>
		<path class="grey" d="M529.5,191.1v4.9c0,0.2,0,0.5-0.2,0.7c-0.3,0.3-1.2,0.4-1.7,0.4c-0.1,0-0.3,0-0.3,0c-0.3-0.2,0.2-0.7-1.1-0.9
			l0-0.2c0.3,0,0.7,0,1,0c0.3,0,0.5,0,0.5-0.3v-4.5h-0.8c0,1.5,0,3.1,0,4.6h-1.6c0-1.5,0-3.2,0-4.6h-0.8c0,1.7,0,2.5,0,4.7
			c-0.4,0-1.4,0-1.6,0l0-4.7h-0.8c0,0.5,0,0.9,0,1.4c0,1,0,2.1-0.6,3c-0.4,0.5-0.9,1.2-1.4,1.6l-0.2-0.1c0.1-0.2,0.2-0.4,0.3-0.6
			c0.4-1.1,0.4-3.2,0.4-4.4v-0.9h-1v-0.8h1v-3.8h1.5v0.4c1.9,0,3.5,0,5.5,0l0.5-0.5l1.7,0.4l-0.5,0.5v3.1h0.9v0.8H529.5z
			M523.2,187.5h-0.8v2.7h0.8V187.5z M525.6,187.5h-0.8v2.7h0.8V187.5z M527.9,187.5h-0.8v2.7h0.8V187.5z"/>
		<path class="grey" d="M531.6,187.2c2,1.4,3.6,3.4,3.5,6c-0.1,2.4-1.5,4.4-3.5,5.8l-0.1-0.1c1.1-1.8,1.9-3.5,2-5.7
			c0-2.2-0.7-4.2-2-5.8L531.6,187.2z"/>
	</g>
	<g>
		<path class="word" d="M11.4,21c2.6,0,5,0.6,7.1,1.8c2.8,1.6,4.3,4.1,4.3,7.7c0,2.9-0.9,5.8-2.8,9c-2,3.5-4.5,6.2-7.2,8.3
			c-0.7,0.5-1.2,0.7-1.7,0.7c-0.8,0-1.8-0.3-3.1-1c-1.2-0.7-1.9-1.2-1.9-1.6c0-0.3,0.4-0.7,1.2-1.2c1-0.6,1.8-1.5,2.5-2.6
			c0.6-1,1-1.8,1-2.4c0-0.5-0.3-0.7-0.8-0.7c-0.2,0-0.6,0-1.3,0.1c-0.1,0-0.3,0-0.5,0c-2.1,0-3.8-0.6-5-1.8c-1-0.9-1.7-2-2.2-3.3
			S0,31.3,0,29.9c0-2.8,1.1-4.9,3.2-6.5C5.4,21.8,8.2,21,11.4,21z M11.1,26.6c-0.6,0-1,0.2-1.4,0.7c-0.4,0.5-0.6,1-0.6,1.7
			c0,1.3,0.3,2.5,1,3.5c0.7,1,1.4,1.5,2.3,1.5c0.5,0,1-0.2,1.3-0.6s0.5-0.9,0.5-1.5c0-0.7-0.1-1.5-0.4-2.4c-0.3-0.9-0.6-1.6-1-2
			C12.3,26.9,11.8,26.6,11.1,26.6z"/>
		<path class="word" d="M25.7,41l7.1-16.1c0.2-0.5,0.4-0.9,0.5-1.3c0.1-0.3,0.2-0.6,0.4-0.9c0.1-0.3,0.4-1,0.9-2.2
			c0.4-1,0.7-1.7,0.9-2.3c0.2-0.7,0.5-1.2,0.8-1.4c0.3-0.2,0.7-0.4,1.3-0.4c2.2,0,3.2,0.5,3.2,1.5c0,0.4-0.2,1-0.5,1.6
			c-1.5,2.9-2.6,5.3-3.4,7l-7,16c-1,2.2-1.6,3.7-1.9,4.6c-0.7,1.8-1.1,2.8-1.4,3.2C26.2,50.8,25.7,51,25,51c-0.9,0-1.6-0.2-2.2-0.5
			c-0.6-0.3-0.9-0.7-0.9-1.2c0-0.3,0.1-0.6,0.2-0.8c0.1-0.3,0.5-1.1,1.2-2.4C24.4,44,25.2,42.2,25.7,41z"/>
		<path class="word" d="M54.1,18.7c2.7,0,5.3,0.4,7.6,1.3c1.3,0.5,2.3,1.3,3.1,2.3c0.6,0.7,0.9,1.6,0.9,2.6c0,1.5-0.8,2.8-2.5,3.9
			c-0.5,0.3-0.8,0.6-0.8,0.8c0,0.2,0.3,0.5,0.9,0.9c0.8,0.6,1.5,1.4,2,2.3c0.5,0.9,0.8,1.9,0.8,2.9c0,1.5-0.5,3-1.6,4.4
			c-1.9,2.6-5,3.8-9.2,3.8c-2.9,0-5.5-0.5-7.7-1.5c-1.5-0.7-2.7-1.7-3.6-2.9c-0.7-0.9-1-2-1-3.2c0-1.7,0.8-3.1,2.3-4.2
			c0.6-0.4,0.9-0.7,0.9-0.9c0-0.2-0.2-0.5-0.7-1c-1.2-1.2-1.9-2.6-1.9-4.3c0-2.3,1.1-4.1,3.4-5.5C48.8,19.3,51.2,18.7,54.1,18.7z
			M50.3,33.9c-0.3,0-0.5,0.1-0.7,0.4c-0.2,0.3-0.3,0.6-0.3,1.1c0,0.5,0.1,1.1,0.4,1.7c0.3,0.6,0.6,1.1,1,1.5c0.9,1,2.1,1.4,3.4,1.4
			c0.8,0,1.4-0.2,1.9-0.5c0.5-0.4,0.7-0.8,0.7-1.4c0-0.6-0.2-1.2-0.7-1.6c-0.4-0.4-1.4-0.9-2.8-1.6C51.8,34.2,50.9,33.9,50.3,33.9z
			M54.9,22.3c-0.6,0-1.1,0.1-1.4,0.4c-0.4,0.3-0.6,0.7-0.6,1.1c0,0.7,0.5,1.4,1.4,2.1c1.1,0.8,1.9,1.2,2.6,1.2
			c0.3,0,0.6-0.2,0.9-0.7c0.3-0.5,0.4-1,0.4-1.5c0-0.8-0.3-1.4-0.9-1.8C56.7,22.5,55.9,22.3,54.9,22.3z"/>
		<path class="word" d="M74.2,34.8L70,31.3c0.6-1.5,1.1-2.7,1.7-3.5c1.3-1.9,2.9-2.9,4.8-2.9c0.5,0,0.9,0,1.2,0.1
			c0.4,0.1,1.4,0.4,3.1,1c1.4,0.5,2.2,0.7,2.5,0.7c0.4,0,0.8-0.1,1-0.4c0.3-0.2,0.6-0.8,1-1.6l4.1,3.5c-0.5,1.3-1,2.3-1.4,3
			c-0.4,0.7-0.8,1.3-1.4,1.8c-1.1,1.1-2.3,1.6-3.7,1.6c-0.4,0-0.8-0.1-1.2-0.2c-0.4-0.1-1.5-0.5-3.1-1c-1.4-0.5-2.2-0.7-2.6-0.7
			C75.5,32.9,74.9,33.5,74.2,34.8z"/>
		<path class="word" d="M104.9,21c2.6,0,5,0.6,7.1,1.8c2.8,1.6,4.3,4.1,4.3,7.7c0,2.9-0.9,5.8-2.8,9c-2,3.5-4.5,6.2-7.2,8.3
			c-0.7,0.5-1.2,0.7-1.7,0.7c-0.8,0-1.8-0.3-3.1-1c-1.2-0.7-1.9-1.2-1.9-1.6c0-0.3,0.4-0.7,1.2-1.2c1-0.6,1.8-1.5,2.5-2.6
			c0.6-1,1-1.8,1-2.4c0-0.5-0.3-0.7-0.8-0.7c-0.2,0-0.6,0-1.3,0.1c-0.1,0-0.3,0-0.5,0c-2.1,0-3.8-0.6-5-1.8c-1-0.9-1.7-2-2.2-3.3
			s-0.8-2.6-0.8-4c0-2.8,1.1-4.9,3.2-6.5C99,21.8,101.7,21,104.9,21z M104.6,26.6c-0.6,0-1,0.2-1.4,0.7c-0.4,0.5-0.6,1-0.6,1.7
			c0,1.3,0.3,2.5,1,3.5c0.7,1,1.4,1.5,2.3,1.5c0.5,0,1-0.2,1.3-0.6s0.5-0.9,0.5-1.5c0-0.7-0.1-1.5-0.4-2.4c-0.3-0.9-0.6-1.6-1-2
			C105.8,26.9,105.3,26.6,104.6,26.6z"/>
		<path class="word" d="M119.3,41l7.1-16.1c0.2-0.5,0.4-0.9,0.5-1.3c0.1-0.3,0.2-0.6,0.4-0.9c0.1-0.3,0.4-1,0.9-2.2
			c0.4-1,0.7-1.7,0.9-2.3c0.2-0.7,0.5-1.2,0.8-1.4c0.3-0.2,0.7-0.4,1.3-0.4c2.2,0,3.2,0.5,3.2,1.5c0,0.4-0.2,1-0.5,1.6
			c-1.5,2.9-2.6,5.3-3.4,7l-7,16c-1,2.2-1.6,3.7-1.9,4.6c-0.7,1.8-1.1,2.8-1.4,3.2c-0.4,0.5-0.9,0.8-1.6,0.8c-0.9,0-1.6-0.2-2.2-0.5
			c-0.6-0.3-0.9-0.7-0.9-1.2c0-0.3,0.1-0.6,0.2-0.8c0.1-0.3,0.5-1.1,1.2-2.4C117.9,44,118.7,42.2,119.3,41z"/>
		<path class="word" d="M151.3,43.4H138c-1.2,0-1.8-0.3-1.8-1c0-0.3,0.1-0.7,0.4-0.9c0.2-0.3,1-1.1,2.4-2.4c2.5-2.4,4.4-4.6,5.6-6.6
			c0.6-1,0.9-1.9,0.9-2.7c0-0.7-0.2-1.2-0.6-1.6c-0.4-0.4-0.9-0.6-1.5-0.6c-0.6,0-1.1,0.1-1.4,0.2c-0.3,0.2-1,0.7-2.1,1.6
			c-0.3,0.2-0.7,0.4-1.1,0.4c-0.6,0-1.2-0.2-1.7-0.7c-0.5-0.5-0.8-1-0.8-1.6c0-0.5,0.2-1.1,0.7-1.7s1.1-1.3,1.9-1.8
			c2.8-2,5.9-3,9.4-3c2.6,0,4.8,0.5,6.5,1.5c0.8,0.5,1.4,1.1,1.9,1.9s0.7,1.7,0.7,2.6c0,2.3-1.6,4.8-4.7,7.4
			c-1.1,0.9-1.7,1.6-1.7,2.1c0,0.4,0.2,0.7,0.5,0.9s0.7,0.4,1.2,0.4c1.1,0,2.2-0.4,3.1-1.3c0.5-0.4,0.8-0.7,0.9-0.8
			c0.1-0.1,0.4-0.1,0.6-0.1c1.1,0,1.7,1,1.7,2.9c0,1-0.2,2-0.6,3c-0.4,1-0.9,1.9-1.5,2.6c-0.7,0.8-1.4,1.2-2.2,1.2
			c-0.3,0-0.6-0.1-0.8-0.2s-0.4-0.4-0.7-0.8c-0.2-0.4-0.5-0.6-0.7-0.7C152.4,43.5,151.9,43.4,151.3,43.4z"/>
		<path class="word" d="M171.6,18.7c2.7,0,5.3,0.4,7.6,1.3c1.3,0.5,2.3,1.3,3.1,2.3c0.6,0.7,0.9,1.6,0.9,2.6c0,1.5-0.8,2.8-2.5,3.9
			c-0.5,0.3-0.8,0.6-0.8,0.8c0,0.2,0.3,0.5,0.9,0.9c0.8,0.6,1.5,1.4,2,2.3c0.5,0.9,0.8,1.9,0.8,2.9c0,1.5-0.5,3-1.6,4.4
			c-1.9,2.6-5,3.8-9.2,3.8c-2.9,0-5.5-0.5-7.7-1.5c-1.5-0.7-2.7-1.7-3.6-2.9c-0.7-0.9-1-2-1-3.2c0-1.7,0.8-3.1,2.3-4.2
			c0.6-0.4,0.9-0.7,0.9-0.9c0-0.2-0.2-0.5-0.7-1c-1.2-1.2-1.9-2.6-1.9-4.3c0-2.3,1.1-4.1,3.4-5.5C166.4,19.3,168.8,18.7,171.6,18.7z
			M167.8,33.9c-0.3,0-0.5,0.1-0.7,0.4c-0.2,0.3-0.3,0.6-0.3,1.1c0,0.5,0.1,1.1,0.4,1.7c0.3,0.6,0.6,1.1,1,1.5c0.9,1,2.1,1.4,3.4,1.4
			c0.8,0,1.4-0.2,1.9-0.5s0.7-0.8,0.7-1.4c0-0.6-0.2-1.2-0.7-1.6c-0.4-0.4-1.4-0.9-2.8-1.6C169.4,34.2,168.4,33.9,167.8,33.9z
			M172.5,22.3c-0.6,0-1.1,0.1-1.4,0.4s-0.6,0.7-0.6,1.1c0,0.7,0.5,1.4,1.4,2.1c1.1,0.8,1.9,1.2,2.6,1.2c0.3,0,0.6-0.2,0.9-0.7
			c0.3-0.5,0.4-1,0.4-1.5c0-0.8-0.3-1.4-0.9-1.8C174.2,22.5,173.4,22.3,172.5,22.3z"/>
	</g>
	<g id="Page-1">
		<g id="Desktop_x2F_" transform="translate(-646.000000, -1750.000000)">
			<g id="Section_x2F_Intro" transform="translate(235.000000, 951.000000)">
				<g id="Logo_x2F_Twitch" transform="translate(411.000000, 799.000000)">
					<path id="Shape" class="word" d="M417.2,11.2h-13.3V0.4h-23.3l-10.8,10.8H358l-6.7,5.8v-5.8h-10.8V-0.5h-41.6v11.7h-50L237.3-0.5
						h-22.5v49.2l10.8,10.8l19.2,11.7h15v-3.3l5.8,3.3h30l5-6.7l0.8,6.7h19.2l0.8-6.7l6.7,6.7h17.5l0.8-6.7l5.8,6.7h19.2l7.5-6.7v6.7
						h9.9l9.3-6.7v6.7h11.7l17.5-13.3V21.2L417.2,11.2z M244,29.6h-11.7v11.7H244v13.4h-15.8l-8.3-8.4V4.5h12.5v11.7H244V29.6z
						M298.9,45.4l-8.3,9.2l-41.7,0.1l0.1-38.5h13.3v25h5v-25h13.3v25h5v-25h13.3V45.4z M317.2,54.6h-13.3V16.2h13.3V54.6z
						M317.2,11.2h-13.3V4.5h13.3V11.2z M346.4,29.6h-10.8v11.7h10.8v13.3h-15.8l-8.3-8.3V4.5h13.3v11.7h10.8V29.6z M380.5,29.6
						h-16.7v11.7h16.7v13.3h-20.8l-8.3-8.3V24.5l8.3-8.3h20.8V29.6z M422.2,54.6h-11.7v-25H398v25h-12.5V5.4h13.3v10.8h15.8l7.5,8.3
						V54.6z"/>
				</g>
			</g>
		</g>
	</g>
</svg>
