<?xml version="1.0" encoding="utf-8"?>
<svg version="1.1" xmlns="http://www.w3.org/2000/svg" xmlns:xlink="http://www.w3.org/1999/xlink" x="0px" y="0px"
	 viewBox="0 0 1440 900" style="enable-background:new 0 0 1440 900;" xml:space="preserve">
  <style type="text/css">
    .deco{fill:#D2551B;fill-opacity:0.1;}
  </style>
  <path class="deco" d="M1177.5,717c0-15.2-12.3-27.5-27.5-27.5s-27.5,12.3-27.5,27.5c0,11.8,7.5,22,18,25.8l-1.7,13.8h-7
    c-1,0-1.8,0.8-1.8,1.8s0.8,1.8,1.8,1.8h8.6c0.9,0,1.7-0.7,1.8-1.6l1.9-14.8c1.9,0.4,3.9,0.6,5.9,0.6c1.7,0,3.3-0.2,4.8-0.4v14.5
    c0,1,0.8,1.8,1.8,1.8h6.3c1,0,1.8-0.8,1.8-1.8s-0.8-1.8-1.8-1.8h-4.4v-13.5C1169.5,739.6,1177.5,729.2,1177.5,717z M1141.8,717
    c0-4.5,3.7-8.2,8.2-8.2s8.2,3.7,8.2,8.2s-3.7,8.2-8.2,8.2C1145.4,725.2,1141.8,721.6,1141.8,717z"/>
  <path class="deco" d="M164,550.7v-7.1h-6.9v-7.1h-6.9H150h-6.9v7.1h-6.8v-7.1h-6.9h-0.2h-6.9v7.1h-6.9v7.1h-6.9v7.1
    v7.1v7.1h6.9v7.1v7.1h0.1v7.1h6.7h0.4h6.7v-7.1h-6.7h-0.1v-7.1h6.7h0.2h6.7h0.2h6.7h0.2h6.7h0.2h6.7v6.9h-0.1h-6.9v7.1h6.9h0.2h6.9
    v-6.9h0.1v-7.1V572h6.9v-7.1v-7.1v-7.1H164z M163.8,564.9H157h-0.1h-6.7v-7.1h6.7h0.2h6.7V564.9L163.8,564.9z M115.6,564.9v-7.1h6.7
    h0.2h6.7v7.1h-6.7h-0.2H115.6z"/>
  <path class="deco" d="M1099.5,158c5,7.8,13.7,13.1,23.6,13.1c15.3,0,27.8-12.5,27.8-27.8s-12.5-27.8-27.8-27.8
    c-9.1,0-17.2,4.4-22.2,11.1l22.8,16.5L1099.5,158z"/>
  <path class="deco" d="M345.4,744.1H329v-16.4c0-1.8-1.4-3.2-3.2-3.2h-14.4c-1.8,0-3.2,1.5-3.2,3.2v16.4h-16.5
    c-1.8,0-3.2,1.4-3.2,3.2v14.4c0,1.8,1.5,3.2,3.2,3.2h16.4v16.4c0,1.8,1.4,3.2,3.2,3.2h14.4c1.8,0,3.2-1.5,3.2-3.2v-16.4h16.4
    c1.8,0,3.2-1.4,3.2-3.2v-14.4C348.6,745.5,347.1,744.1,345.4,744.1z M313.7,759.3c-1.2-1.2-2-2.9-2-4.8s0.8-3.6,2-4.8
    c1.2-1.2,2.9-2,4.8-2c3.7,0,6.8,3.1,6.8,6.8s-3,6.8-6.8,6.8C316.7,761.3,315,760.5,313.7,759.3z"/>
  <path class="deco" d="M1328.4,584.1H1312v-16.4c0-1.8-1.4-3.2-3.2-3.2h-14.4c-1.8,0-3.2,1.5-3.2,3.2v16.4h-16.5
    c-1.8,0-3.2,1.4-3.2,3.2v14.4c0,1.8,1.5,3.2,3.2,3.2h16.4v16.4c0,1.8,1.4,3.2,3.2,3.2h14.4c1.8,0,3.2-1.5,3.2-3.2v-16.4h16.4
    c1.8,0,3.2-1.4,3.2-3.2v-14.4C1331.6,585.5,1330.1,584.1,1328.4,584.1z M1296.7,599.3c-1.2-1.2-2-2.9-2-4.8s0.8-3.6,2-4.8
    c1.2-1.2,2.9-2,4.8-2c3.7,0,6.8,3.1,6.8,6.8s-3,6.8-6.8,6.8C1299.7,601.3,1298,600.5,1296.7,599.3z"/>
  <path class="deco" d="M1278,302.7v-7.1h-6.9v-7.1h-6.9h-0.2h-6.9v7.1h-6.7v-7.1h-7h-0.2h-6.9v7.1h-6.9v7.1h-6.9v7.1
    v7.1v7.1v7.1v7.1v7.1h7.1v-7.1h6.7v7.1h7.1v-7.1h6.7v7.1h7.1v-7.1h6.7v7.1h7.1v-7.1h6.7v7.1h7.1v-7.1v-7.1V324v-7.1v-7.1v-7.1H1278
    L1278,302.7z M1277.8,316.9h-6.9v7.1h-6.7v-7.1v-7.1h6.7h0.2h6.7V316.9z M1229.6,309.8h6.7h0.2h6.7v7.1h-6.9v7.1h-6.7v-7.1V309.8
    L1229.6,309.8z"/>
  <polygon class="deco" points="170.5,365.5 170.5,378.3 175.5,378.3 175.5,409.7 228.1,409.7 228.1,378.3 233.1,378.3 
    233.1,365.5 "/>
  <g transform="translate(286.000000, 149.000000)">
    <path class="deco" d="M73,33.4v-8h-4.1v-3.6H65v-4h-7.7v-3.9H33.7v3.8h-8v4.1h-3.8v4h-4v7.6h-3.8v27.4h4v4H22v8h4.1v3.7h39.1v-3.9
      H69v-7.9h3.7v-3.8h4.2V33.4H73z M65.1,68.7H61v4.1H29.9v-3.9h-4.1v-8h4.1V57h7.7v7.7h3.9v-7.8h7.7v7.8H53v-7.8h8v3.8h3.9v8H65.1z
      M72.9,56.9h-7.7V53H25.9v4.1h-7.8V37.3h3.8v-7.7h3.9v-3.8h4.1v-4h7.7v-4.1h15.6v4H61v4.1h3.9v3.7H69v7.8h3.9V56.9z"/>
    <polygon class="deco" points="18,57 25.9,57 25.9,52.9 37.6,52.9 37.6,49.3 33.7,49.3 33.7,37.6 37.6,37.6 37.6,33.6 53.2,33.6 
      53.2,37.4 57.1,37.4 57.1,49.1 53.2,49.1 53.2,53 65,53 65,57 72.9,57 72.9,49.2 65.1,49.2 65.1,45.3 61.1,45.3 61.1,33.5 
      65.1,33.5 65.1,25.9 61,25.9 61,29.7 53.4,29.7 53.4,25.8 49.3,25.8 49.3,17.8 41.6,17.8 41.6,25.7 37.7,25.7 37.7,29.7 29.9,29.7 
      29.9,25.7 25.8,25.7 25.8,33.4 29.9,33.4 29.9,45.2 25.9,45.2 25.9,49.1 18.1,49.1 	"/>
  </g>
</svg>
