<?xml version="1.0" encoding="utf-8"?>
<svg version="1.1" id="frame_bottom" xmlns="http://www.w3.org/2000/svg" xmlns:xlink="http://www.w3.org/1999/xlink" x="0px" y="0px"
	 viewBox="0 0 244 205" style="enable-background:new 0 0 244 205;" xml:space="preserve">
	<style type="text/css">
		.shadow{fill:#D2551B;fill-opacity:0.1;}
		.base{fill:#F1F1F1;}
		.frame{fill:#D2551B;}
	</style>
	<title>Deco/Frame_bottom</title>
	<path class="shadow" d="M49,190h180V10l10-10v200H39L49,190z M34,190h10l-10,10H24L34,190z M21,190h8l-10,10h-8L21,190z
		M10,190h6L6,200H0L10,190z"/>
	<g>
		<polygon class="base" points="15,195 234,195 234,15 244,5 244,205 5,205 	"/>
		<path id="Combined-Shape" class="frame" d="M54,195h180V15l10-10v200H44L54,195z M39,195h10l-10,10H29L39,195z M26,195h8l-10,10h-8
			L26,195z M15,195h6l-10,10H5L15,195z"/>
	</g>
</svg>
