<?xml version="1.0" encoding="utf-8"?>
<svg version="1.1" id="activity_word_mobile" xmlns="http://www.w3.org/2000/svg" xmlns:xlink="http://www.w3.org/1999/xlink" x="0px" y="0px"
	 viewBox="0 0 307.7 242.5" style="enable-background:new 0 0 307.7 242.5;" xml:space="preserve">
	<style type="text/css">
		.word{fill:#FFFFFF;}
		.pink{fill:#FFF4FF;}
		.yellow{fill:#FDE001;}
		.button{fill:#852C6E;}
		.grey{fill:#C9CACA;}
	</style>
	<g>
		<path class="pink" d="M11.1,138.3L11.1,138.3l-3.4,2.5l1.3,4.1l0,0l-3.4-2.5l-3.4,2.5l0,0l1.3-4.1L0,138.4v0h4.2l1.3-4h0l1.3,4H11.1
			z"/>
		<path class="pink" d="M15,139.6l0.2,0.1c-0.3,2.5-0.5,3.2-2,5.2l-1-1.9C13.3,142,14.2,140.9,15,139.6z M12.3,137.1
			c0.8,0.2,1.8,0.1,2.3,0.8c0.1,0.2,0.3,0.5,0.3,0.7c0,0.5-0.3,0.8-0.8,0.8c-0.2,0-0.6,0-0.8-0.3c-0.3-0.3-0.3-0.7-0.5-1.1
			C12.8,137.7,12.5,137.4,12.3,137.1L12.3,137.1z M12.6,134.4c0.8,0.2,2.9,0.4,2.9,1.5c0,0.5-0.4,0.6-0.8,0.6c-0.5,0-0.8-0.3-1.1-0.9
			c-0.2-0.5-0.6-0.8-1-1.1L12.6,134.4z M18.1,135.6c-0.9-0.1-1.9-0.1-2.8-0.3v-0.1c1.8-0.2,3.5-0.5,5.2-1l2.1,1
			c-0.9,0.2-1.8,0.3-2.7,0.4v1.5h3v0.8h-3v1.9h0.5l0.6-0.5l1.7,0.4l-0.4,0.5v4.9h-1.8v-0.8h-2.9v0.8h-1.8v-5.6h1.8v0.3h0.5v-1.9h-2.8
			v-0.8h2.8V135.6z M20.4,143.4v-2.8h-2.9v2.8H20.4z"/>
		<path class="pink" d="M27.9,135.8h2.3v0.6H31l0-2.2h1.4l0,2.2H33l0.4-0.4l1.4,0.3l-0.4,0.4l-0.1,6.9c0,0.2,0,0.5-0.1,0.8
			c-0.3,0.4-1.1,0.6-1.6,0.6c-0.7,0,0-0.3-0.8-0.7c-0.3-0.1-0.7-0.2-1-0.3l0-0.2c0.5,0,1.1,0.1,1.7,0.1c0.3,0,0.4-0.2,0.4-0.5
			l0.1-6.3h-0.7c0,1.3,0,2.7-0.2,4c-0.3,1.7-1.7,3-3.1,3.9l-0.2-0.1c1.2-1.3,1.8-2.5,2-4.3c0.1-1.2,0.1-2.4,0.1-3.5h-0.9v-0.6h-2.2
			v0.6h0.7l0.4-0.4l1.3,0.4l-0.4,0.2v3.7h-1.2v-0.3h-0.7v0.7h2v0.7h-2v0.8c0.8-0.1,1.5-0.2,2.3-0.3l0,0.2c-1.8,0.7-3.6,1.2-5.4,1.7
			l-0.5-1.2c0.8,0,1.6-0.1,2.4-0.2v-0.9h-2.1v-0.7h2.1v-0.7h-0.8v0.3h-1.2v-4.2h1.2v0.2h0.8v-0.6h-2.3v-0.7h2.3v-0.6
			c-0.8,0-1.6,0-2.5-0.1l0-0.2c1.7-0.1,3.5-0.3,5.1-0.9l1,1.1c-0.8,0-1.6,0.1-2.4,0.1V135.8z M26.6,137.9h-0.8v0.8h0.8V137.9z
			M26.6,140.1v-0.8h-0.8v0.8H26.6z M28.6,138.6v-0.8h-0.7v0.8H28.6z M28.6,140.1v-0.8h-0.7v0.8H28.6z"/>
		<path class="pink" d="M37.3,141.1v-5h-0.8v-0.7l0.8,0v-1h1.6v1h1v-1h1.6v1h0.5v0.7h-0.5v5h0.4v0.8h-5.6v-0.8H37.3z M39,143
			c-0.4,0.8-1.7,1.5-2.5,1.8l-0.1-0.1c0.7-0.8,1-1.5,1.2-2.6h1.7C39.2,142.5,39.1,142.8,39,143z M39.9,137v-1h-1v1H39.9z M39.9,139
			v-1.2h-1v1.2H39.9z M39.9,139.7h-1v1.3h1V139.7z M39.9,142.1c0.6,0.2,1.9,0.6,1.9,1.4c0,0.4-0.3,0.7-0.7,0.7c-0.2,0-0.5,0-0.6-0.2
			c-0.2-0.3-0.2-0.9-0.4-1.3C40,142.5,39.9,142.4,39.9,142.1L39.9,142.1z M42.3,140.9c0-0.3,0-0.6,0-0.9v-5.7h1.5v0.6h1l0.4-0.5
			l1.8,0.4l-0.5,0.5v9c0,0.2,0,0.3-0.1,0.5c-0.2,0.4-1.4,0.4-1.8,0.4c0,0-0.1,0-0.2,0c-0.1-0.1,0-0.4-0.3-0.7c-0.2-0.2-0.7-0.3-1-0.3
			l0-0.2c0.4,0,0.8,0,1.2,0c0.2,0,0.5,0,0.5-0.3v-2.7h-1.1c0,0.5-0.1,1-0.2,1.5c-0.3,1.2-1.3,1.9-2.3,2.6l-0.1-0.1
			C42.2,143.7,42.2,142.3,42.3,140.9z M44.9,137.5v-1.9h-1v1.9L44.9,137.5z M43.8,140.1h1v-1.8h-1V140.1z"/>
		<path class="pink" d="M50.2,134.3v0.3h1.5l0.4-0.5l1.6,0.4l-0.5,0.5v3.5h-1.6v-0.3h-1.4v6.8h-1.6v-10.6H50.2z M51.6,135.3h-1.4v0.7
			h1.4V135.3z M51.6,137.4v-0.7h-1.4v0.7H51.6z M54.8,138.7l1.6,0.4l-0.5,0.5v4h-1.4v-0.4h-1.9v0.4h-1.4v-4.6h1.4v0.4h1.8L54.8,138.7
			z M54.4,140.7v-0.8h-1.9v0.8H54.4z M54.4,141.4h-1.9v0.9h1.9V141.4z M55.5,138.1v0.3h-1.6v-4.1h1.6v0.3h1.4l0.4-0.5l1.6,0.4
			l-0.5,0.5v8.9c0,0.7-0.3,0.9-0.9,1c-0.3,0-0.6,0.1-0.8,0.1c-0.4,0-0.4,0-0.4-0.3c0-0.6-1.1-0.7-1.5-0.7l0-0.2c0.5,0,1,0.1,1.4,0.1
			c0.3,0,0.6,0,0.6-0.4v-5.3H55.5z M56.9,136v-0.7h-1.4v0.7H56.9z M56.9,137.4v-0.7h-1.4v0.7H56.9z"/>
		<path class="pink" d="M70.8,134.6v0.8h-4.4v3.2c0.6,0.1,1.7,0.3,2.5,0.7c0.5,0.3,0.9,0.7,0.9,1.3c0,0.5-0.4,0.9-0.8,0.9
			c-0.8,0-1-0.5-1.3-1.1c-0.2-0.3-0.3-0.5-0.5-0.8c-0.2-0.3-0.5-0.5-0.7-0.7v6h-1.9v-9.5h-4.2v-0.8H70.8z"/>
		<path class="pink" d="M74.8,142.8v-0.5h-0.6v0.3h-1.4v-3.7h1.4v0.1h0.6v-0.6h-2.2v-0.7h2.2v-0.6h1.4v0.6h1.9v0.7h-1.9v0.6h0.6
			l0.4-0.4l1.4,0.3l-0.5,0.4v3.3h-1.3v-0.3h-0.7v0.5h1.9v0.3c0.4-0.4,0.6-0.7,1-1.1c-0.3-1.1-0.3-2.4-0.4-3.6l0-1.5h-6.3v-0.7h2.3
			v-0.7h-1.7v-0.7h1.7v-0.7h1.7v0.7h1.6v0.7h-1.6v0.7h2.3l0-2.1h1.6c0,0.7,0,1.4,0,2.1h2.5v0.7h-2.5c0,0.5,0,1,0,1.4
			c0,0.6,0,1.2,0,1.8c0.4-0.8,0.6-1.4,0.8-2.2l1.7,0.3c-0.3,0.7-0.6,1.5-1,2.1c-0.3,0.5-0.7,0.9-1,1.4c0.1,0.1,0.1,0.3,0.2,0.4
			c0.1,0.2,0.6,0.9,0.8,0.9c0.1,0,0.4-0.9,0.4-1c0.1-0.2,0.1-0.5,0.2-0.7c0-0.1,0.1-0.3,0.1-0.4l0.2,0c0,0.6-0.1,1.2-0.1,1.7
			c0,0.9,0.4,0.4,0.4,0.8c0,0.3-0.1,1.4-0.6,1.4c-0.1,0-0.3-0.1-0.4-0.1c-0.8-0.3-1.6-1-2.1-1.7l-0.2-0.3c-0.7,0.5-1.5,0.9-2.3,1.4
			l-0.1-0.1c0.2-0.2,0.4-0.4,0.7-0.6h-1.5v1.3h-1.4v-1.3h-2.5v-0.7H74.8z M74.8,140.3v-0.7h-0.6v0.7H74.8z M74.2,140.9v0.7h0.6v-0.7
			H74.2z M76.9,140.3v-0.7h-0.7v0.7H76.9z M76.9,141.6v-0.7h-0.7v0.7H76.9z M80.4,134.6c0.5,0.1,1.7,0.3,1.7,1c0,0.3-0.3,0.5-0.6,0.5
			c-0.6,0-0.7-0.7-0.9-1.1c-0.1-0.1-0.2-0.2-0.3-0.3L80.4,134.6z"/>
		<path class="pink" d="M84.3,139.1v-0.8h1v-1h-1v-0.8h1v-1.1h-0.9v-0.8h3.3l0.4-0.5l1.8,0.4l-0.5,0.4l0,1.5h0.4v0.8h-0.4v2.2h-1.6
			v-0.4h-1.1c-0.2,0.4-0.3,0.5-0.5,0.9h0.7v0.3h0.9l0.4-0.5l1.8,0.3l-0.6,0.4l0,4h-1.6V144h-0.9v0.6h-1.7v-3.8
			c-0.3,0.2-0.6,0.3-0.9,0.5l-0.1-0.1c0.6-0.7,0.9-1.2,1.1-2.1H84.3z M87.8,136.5v-1.1h-0.9v1.1H87.8z M87.8,138.3v-1h-0.9v1H87.8z
			M87.8,143.2v-2.1h-0.9v2.1H87.8z M91.3,141.8v-1.9h-1.2v-0.8h1.2v-1.8H90v-0.8h2.2c0.3-0.7,0.6-1.5,0.7-2.3h2
			c-0.6,1.1-1,1.4-1.9,2.3h1.7v0.8h-1.6v1.8h1.5v0.8h-1.5v1.9h1.6v0.8h-1.6v2.4h-1.8v-2.4h-1.6v-0.8H91.3z M89.8,134.2
			c0.4,0.1,1.3,0.3,1.8,0.6c0.3,0.2,0.5,0.5,0.5,0.8c0,0.4-0.4,0.7-0.8,0.6c-0.3,0-0.6-0.3-0.7-0.6c-0.1-0.4-0.3-1-0.9-1.3
			L89.8,134.2z"/>
		<path class="pink" d="M99.8,139.9c0.2-0.2,0.2-0.3,0.3-0.5h2.3c-0.1,0.2-0.3,0.4-0.5,0.5h4.9v0.7h-4.2c1.3,0.7,2.8,0.7,4.2,0.8
			l0,0.1c-0.5,0.2-0.9,0.6-0.6,1.1l-0.1,0.1c-0.5-0.1-1-0.1-1.5-0.2c0,0.5,0,1.4-0.2,1.8c-0.1,0.2-0.4,0.4-0.6,0.5
			c-0.5,0.3-1,0.3-1.6,0.3c0,0-0.3,0-0.3,0c-0.1,0-0.1-0.2-0.1-0.3c-0.1-0.5-0.8-0.6-1.2-0.7l0-0.2c0.5,0,1.1,0.1,1.6,0.1
			c0.5,0,0.6-0.1,0.6-0.6v-0.5h-1.7c-0.2,0.3-0.5,0.6-0.7,0.8c-0.9,0.9-2.9,1.3-4.1,1.4l-0.1-0.2c1.2-0.3,2.4-1,3.1-2.1h-1.8v-0.7
			h2.2c0.1-0.3,0.1-0.5,0.1-0.7h2c-0.1,0.3-0.1,0.5-0.2,0.7h1.2l0.5-0.4c-0.6-0.3-1-0.7-1.4-1.2h-0.7c-1.6,1.1-3,1.4-5,1.7l-0.1-0.1
			c1-0.3,2.2-0.9,3-1.6h-3v-0.7H99.8z M96.2,135h2v-0.7h1.8v0.7h3.2v-0.7h1.8v0.7h1.9v0.7h-1.9v0.4h-1.8v-0.4H100v0.5h-1.8v-0.5h-2
			V135z M97.5,136.3h1.7v0.3h4.4l0.5-0.4l1.8,0.3l-0.5,0.5v2.6h-1.7v-0.3h-4.4v0.3h-1.8L97.5,136.3z M103.7,137.6v-0.4h-4.4v0.4
			H103.7z M103.7,138.6v-0.4h-4.4v0.4H103.7z"/>
		<path class="pink" d="M111.1,141.7l2.2,0c-0.2,0.3-0.4,0.6-0.6,0.9c-0.7,1-3.1,2.1-4.3,2.4l-0.1-0.1
			C109.5,144,110.5,143,111.1,141.7z M116,134.8l0.5-0.6l1.7,0.5l-0.4,0.5v6.5l-1.8,0v-0.4h-5v0.4h-1.7v-7.3h1.7v0.3H116z M116,136.6
			v-1h-5v1H116z M116,138.6v-1.2h-5v1.2H116z M116,140.6v-1.3h-5v1.3H116z M114.6,141.8c0.9,0.2,1.8,0.5,2.6,0.9
			c0.4,0.2,1.2,0.6,1.2,1.2c0,0.6-0.2,1-0.9,1c-0.2,0-0.4,0-0.6-0.2c-0.4-0.3-0.6-0.9-0.9-1.3c-0.3-0.4-0.9-1.1-1.3-1.3l-0.3-0.2
			L114.6,141.8z"/>
		<path class="pink" d="M123.9,141.4c-0.2,0.3-0.4,0.7-0.5,1c-0.6,1.1-1.9,1.9-3,2.4l-0.1-0.1c0.5-0.8,1.2-1.9,1.4-2.9l0.1-0.4H123.9z
			M123,139.4h-1.7v-5.1l1.7,0l0,0.5h4.7l0.6-0.6l2,0.4l-0.6,0.5v4.3h-1.8l0-0.4l-1.5,0v1h4.4v0.8l-4.4,0v4.1h-1.8v-4.2h-4.2V140h4.2
			V139H123V139.4z M124.5,136.5v-1H123v1H124.5z M124.5,138.2v-1H123v1L124.5,138.2z M127.8,136.5v-1h-1.6v1H127.8z M127.8,138.2v-1
			h-1.6v1H127.8z M130.8,143.4c-0.3,0.1-0.8,0.3-0.8,0.8c0,0.2,0.1,0.4,0.1,0.6l-0.1,0.1c-0.8-0.3-2-0.9-2.4-1.7
			c-0.4-0.7-0.5-1.1-0.7-1.9l0.4,0c0.2,0.3,0.4,0.6,0.7,0.8c0.3,0.3,0.6,0.5,0.9,0.7c0.5,0.3,1.2,0.5,1.8,0.6L130.8,143.4z"/>
		<path class="pink" d="M136.8,141.9h-2.9l-0.6,2.3h-1.8l2.8-8.9h2.1l2.9,8.9h-1.9L136.8,141.9z M136.4,140.5l-0.3-1
			c-0.3-0.9-0.5-1.9-0.8-2.9h0c-0.2,1-0.5,2-0.8,2.9l-0.3,1H136.4z"/>
		<path class="pink" d="M140.3,135.3h2.9c2,0,3.5,0.7,3.5,2.8c0,2-1.5,2.9-3.4,2.9h-1.2v3.2h-1.8V135.3z M143.2,139.6
			c1.2,0,1.8-0.5,1.8-1.5c0-1-0.6-1.4-1.9-1.4h-1v2.9H143.2z"/>
		<path class="pink" d="M148.3,135.3h2.9c2,0,3.5,0.7,3.5,2.8c0,2-1.5,2.9-3.4,2.9h-1.2v3.2h-1.8V135.3z M151.2,139.6
			c1.2,0,1.8-0.5,1.8-1.5c0-1-0.6-1.4-1.9-1.4h-1v2.9H151.2z"/>
		<path class="pink" d="M161,135.8h2v1.2h-4.6v-1.2h2.1c-0.1-0.4-0.4-0.9-0.7-1.3l1.1-0.5c0.3,0.4,0.7,1,0.9,1.4L161,135.8z
			M158.8,139.3h3.9v1.1h-3.9V139.3z M159,137.6h3.8v1.1H159V137.6z M162.8,144.5h-2.4v0.6H159v-4h3.7V144.5z M160.3,142.1v1.4h1.1
			v-1.4H160.3z M169.6,143.4v1.4h-6.4v-1.4h2.4v-2.5h-2v-1.3h2v-2.1h-2.2v-1.3h2.6c-0.2-0.5-0.7-1.1-1-1.7l1.1-0.6
			c0.5,0.5,1,1.3,1.2,1.8l-0.8,0.4h2.9v1.3H167v2.1h2.1v1.3H167v2.5H169.6z"/>
		<path class="pink" d="M181.6,140.4h-1.1v3.3c0,0.6-0.1,1-0.5,1.3c-0.4,0.2-0.9,0.3-1.5,0.3c0-0.4-0.2-1-0.4-1.4c0.4,0,0.7,0,0.9,0
			s0.2-0.1,0.2-0.2v-3.3h-1.2v4.7h-1.3v-4.7h-1.2v4.7H174v-4.7h-1.1v4.8h-1.4v-4.8h-1.1V139h1.1v-4.3h9v4.3h1.1V140.4z M174,139v-2.9
			h-1.1v2.9H174z M176.5,139v-2.9h-1.2v2.9H176.5z M179.1,139v-2.9h-1.2v2.9H179.1z"/>
		<path class="pink" d="M189,134.3c-0.1,0.1-0.1,0.2-0.2,0.2c1.1,1,3.1,1.8,5,2.2c-0.3,0.3-0.7,0.8-0.9,1.1c-0.2-0.1-0.5-0.1-0.7-0.2
			v3.1h-8.3v-3c-0.3,0.1-0.5,0.2-0.7,0.2c-0.1-0.3-0.5-0.8-0.8-1.1c2.2-0.5,4.3-1.5,5.4-2.9L189,134.3z M191.7,137.4
			c-0.6-0.2-1.1-0.5-1.6-0.7v0.3h-4.2v-0.2c-0.5,0.2-0.9,0.5-1.5,0.7H191.7z M184.5,141.1h7.1v4.1h-1.5v-0.3h-4.2v0.3h-1.4V141.1z
			M185.8,139.8c-0.1-0.4-0.2-0.9-0.4-1.2l0.9-0.3H185v1.5H185.8z M185.9,142v0.5h4.2V142H185.9z M190.1,143.9v-0.5h-4.2v0.5H190.1z
			M187.3,138.3h-0.9c0.2,0.4,0.4,0.9,0.5,1.3l-0.8,0.2h1.2V138.3z M189.1,136.1c-0.4-0.3-0.7-0.5-1-0.8c-0.3,0.3-0.7,0.5-1,0.8
			H189.1z M188.5,138.3v1.5h1.1l-0.7-0.2c0.2-0.4,0.4-0.9,0.5-1.3H188.5z M190.9,138.3h-1.2l0.9,0.2c-0.2,0.5-0.5,0.9-0.7,1.3h1
			V138.3z"/>
		<path class="pink" d="M202.5,143.1c1.1,0.3,2.3,0.8,3.2,1.1l-1.3,1c-0.9-0.4-2.6-1-3.8-1.4l1-0.7h-3.2l0.9,0.6
			c-1,0.6-2.5,1.1-3.7,1.4c-0.3-0.3-0.8-0.7-1.1-1c1-0.2,2.3-0.6,3.1-1.1h-1.9v-5.3h8.8v5.3H202.5z M203.9,137.4h-7.8v-3h7.8V137.4z
			M197,139.3h5.9v-0.5H197V139.3z M197,140.7h5.9v-0.5H197V140.7z M197,142.1h5.9v-0.5H197V142.1z M202.4,135.5h-4.8v0.8h4.8V135.5z
			"/>
		<path class="yellow" d="M214.1,135.5h1.8v0.5h2v-1.7h1.8v1.7h1.9l0.5-0.6l1.9,0.4l-0.5,0.6v5.7h-1.8v-0.8h-1.9v3.8h-1.8v-3.8h-2v0.8
			h-1.8V135.5z M217.9,136.7h-2v3.8h2V136.7z M221.7,140.5v-3.8h-1.9v3.8H221.7z"/>
		<path class="yellow" d="M235.8,135.3l-0.3,0.2c-0.4,0.3-0.9,0.7-1.4,1c-1.3,0.8-2.8,0.9-4.3,1v2.4l1.6,0c0,0.3-0.1,1-0.2,1.3h1
			c-0.2-0.1-0.4-0.3-0.4-0.6c0-0.2-0.2-0.3-0.3-0.5l0.1-0.1c0.2,0,0.5,0,0.8,0.1c0.4,0.2,0.7,0.3,0.8,0.7c0,0.2,0,0.3-0.1,0.4h2.8
			v0.8h-4.3c1.2,1.3,2.7,1.3,4.4,1.4v0.1c-0.7,0.4-0.7,0.9-0.3,1.5l-0.1,0.1c-1.6-0.4-2.9-0.8-4.1-2.1c-0.3-0.3-0.5-0.4-0.7-0.8
			c-0.6,1-1.1,1.4-2.2,1.9c-0.9,0.5-2.4,0.7-3.4,0.9l-0.1-0.1c1.3-0.5,2.4-1,3.3-2.1c0.3-0.3,0.4-0.4,0.7-0.8h-3.3v-0.8h3.6
			c0.1-0.2,0.1-0.6,0.1-0.8h-1.2v-2.2H228c-0.1,0.2-0.1,0.4-0.2,0.6c-0.4,0.9-1.2,1.3-2,1.8l-0.1-0.1c0.7-0.8,0.9-1.2,1-2.3h-0.8
			v-0.7h2.6v-0.9h-1l-0.4,0.4l-1.3-0.6l0.3-0.3v-1.4h1.4v1.2h0.8v-1.7h1.4v1.4c0.2-0.2,0.8-0.7,0.9-0.9l0.2-0.5h2.2
			c-0.2,0.2-0.4,0.3-0.6,0.5h1.9l0.4-0.4l1.5,0.8C236.2,135.2,236,135.3,235.8,135.3z M230.3,136.5c-0.1-0.2-0.2-0.3-0.4-0.4v1.2
			c0.3-0.1,0.6-0.2,0.9-0.3C230.5,137,230.5,136.8,230.3,136.5z M231.7,136c-0.1-0.2-0.4-0.4-0.6-0.5c-0.4,0.1-0.7,0.3-1.1,0.4
			c0.3,0,1.4,0.2,1.4,0.6c0,0.2,0,0.2-0.1,0.4c0.3-0.1,0.6-0.2,0.9-0.4C231.9,136.4,231.9,136.3,231.7,136z M235.1,138.3v1.3
			c0,0.6-0.1,0.7-0.6,0.9c-0.3,0.1-0.6,0.2-0.9,0.2c-0.5,0-0.1-0.4-0.5-0.6c-0.1-0.1-0.8-0.2-1-0.3v-0.1c-0.1,0-0.3,0.1-0.4,0
			c-0.3,0-0.5-0.3-0.6-0.7c0-0.2-0.2-0.3-0.3-0.5l0.1-0.1c0.4,0,1.6,0,1.6,0.7c0,0.3,0,0.3-0.2,0.5c0.4,0,0.7,0,1.1,0
			c0.2,0,0.3-0.1,0.3-0.3v-1h-3.4v-0.7h3.4v-0.6h1.5v0.6h0.8v0.7H235.1z M231.6,135.3l-0.1,0.1c0.4,0,1.5,0.1,1.6,0.5l0,0.2
			c0.4-0.3,0.7-0.5,1-0.8H231.6z"/>
		<path class="yellow" d="M238.1,141c0.2-1.1,0.2-2.4,0.3-3.5h0.6v-0.8h-1.2v-0.8h1.2v-1.7h1.4v1.7h0.8v0.8h-0.8v0.8
			c0.3,0.2,0.6,0.4,0.9,0.6c0,0.1,0.2,0.2,0.2,0.3l0,0.2c0.1-0.2,0.2-0.3,0.3-0.5c0.1-0.2,0.3-0.5,0.4-0.7c-0.3,0.2-0.6,0.3-0.9,0.4
			l-0.4-1.1c0.1,0,0.1,0,0.2,0c0.3-0.1,0.6-1.5,0.7-1.9l0-0.4h1.3c-0.2,0.6-0.6,1.4-1,1.9l-0.4,0.5c0.3,0,0.6-0.1,0.9-0.2
			c0.2-0.4,0.3-0.7,0.4-1.1l0.8,0c0-0.5,0-0.9,0-1.4h1.2c0,0.8,0,1.6,0,2.5c0.5-0.7,0.6-1.4,0.8-2.2l1.4,0c-0.4,0.8-0.8,1.3-1.4,2
			c0.3,0,0.6-0.1,0.9-0.2c0.1-0.3,0.2-0.6,0.3-0.9l1.4,0.1c-0.4,0.9-0.8,1.4-1.5,2.1c0.2,0.1,0.7,0.3,0.9,0.6
			c0.2,0.2,0.3,0.5,0.3,0.7c0,0.3-0.4,0.5-0.7,0.5c-0.4,0-0.4-0.3-0.5-0.6c-0.3,0.1-0.5,0.3-0.8,0.4c0.3,0.1,0.9,0.2,0.9,0.6
			c0,0.1,0,0.3-0.2,0.4h1.2v0.7h-2.7c0.1,0.4,0.2,0.7,0.4,1c0.2-0.3,0.4-0.6,0.6-0.9l1.3,0.3c-0.5,0.6-0.8,0.9-1.3,1.4
			c0.2,0.2,0.5,0.5,0.7,0.5c0.1,0,0.1-0.1,0.2-0.2c0.2-0.4,0.4-0.9,0.5-1.4l0.2,0c-0.1,0.3-0.1,0.7-0.1,1.1c0,0.1,0,0.2,0,0.3
			c0,0.6,0.6,0.4,0.6,0.6c0,0.1-0.3,0.7-0.3,0.9c0,0.1-0.1,0.3-0.2,0.3c0,0-0.1,0-0.1,0c-0.2,0-0.5-0.1-0.7-0.2
			c-0.7-0.3-1.2-0.8-1.7-1.3c-0.9,0.6-1.6,0.9-2.6,1.2l-0.1-0.1c0.9-0.5,1.5-0.9,2.3-1.6c-0.5-0.8-0.6-1.2-0.8-2h-1.4
			c0,0.2,0,0.5-0.1,0.7c0.3,0.1,0.8,0.2,1.2,0.4c0.3,0.2,0.5,0.4,0.5,0.7c0,0.3-0.4,0.6-0.7,0.6c-0.6,0-0.6-0.4-0.7-0.9
			c-0.1-0.3-0.2-0.3-0.3-0.5c-0.1,0.2-0.1,0.4-0.2,0.7c-0.3,0.9-1.2,1.6-2,2.1l-0.1-0.1c0.8-1.2,1-2.2,1-3.6h-0.6v-0.7h0.6l0-0.4
			l-0.2,0.1l-0.2-0.7c-0.1,0-0.1,0-0.2,0c-0.5,0-0.3-0.6-0.5-0.9l-0.1-0.2v6.8H239v-4c-0.3,0.6-0.7,1.2-1.1,1.7l-0.1-0.1
			C237.8,142,238,141.5,238.1,141z M242.9,139.6l0,0.5h1.2c0-0.2-0.1-0.5-0.1-0.7c-0.1,0-0.2,0-0.3,0c-0.4,0-0.4-0.4-0.5-0.6
			c-0.5,0.3-0.9,0.6-1.4,0.8H242.9z M243.1,138.4c-0.1-0.2-0.2-0.3-0.3-0.4l-0.7,0.7C242.5,138.6,242.8,138.5,243.1,138.4z
			M243.6,138.1c0.1,0.1,0.2,0.2,0.3,0.3c-0.1-0.6,0-1.2-0.1-1.8c-0.3,0.4-0.5,0.8-0.9,1.1C243.2,137.8,243.4,137.9,243.6,138.1z
			M246.3,137.2c-0.3,0.2-0.6,0.3-1,0.5l-0.2-0.5c0,0.1,0,0.2,0,0.3c0,0.4,0,0.8,0,1.2C245.6,138.2,245.9,137.7,246.3,137.2z
			M246.2,140.2c-0.2-0.2-0.1-0.6-0.3-0.8l-0.3,0.2l-0.4-0.4c0,0.4,0.1,0.7,0.1,1.1H246.2z M247,138.4c-0.1-0.3,0-0.3-0.3-0.6
			c-0.3,0.3-0.6,0.5-1,0.8C246.1,138.5,246.6,138.5,247,138.4z"/>
		<path class="yellow" d="M256.2,134.2c-0.1,0.1-0.3,0.3-0.4,0.4c1.5,0.8,2.9,1.2,4.6,1.2l0,0.1c-0.5,0.1-0.7,0.3-0.7,0.9
			c0,0.1,0,0.3,0.1,0.4l-0.1,0.1c-0.8-0.2-1.6-0.4-2.4-0.8v0.3h-5v-0.4c-0.9,0.3-1.8,0.5-2.7,0.6l0-0.1c1-0.4,2.1-0.9,2.9-1.6
			c0.4-0.3,0.9-0.7,1.2-1.2H256.2z M250.6,137.2h1.7v0.2h5l0.5-0.4l1.8,0.5l-0.5,0.4v3h-1.1l1.1,0.3l-0.6,0.4v3.5h-1.8v-0.5h-4v0.5
			h-1.8v-4.1h1.8v0.2h3.9l0.6-0.4v-0.2h-5.1v0.3h-1.7V137.2z M254.2,139.7v-1.6h-1.8v1.6H254.2z M252.4,138.3c0.4,0,1.2,0.1,1.4,0.4
			c0.1,0.1,0.2,0.2,0.2,0.4c0,0.3-0.2,0.4-0.5,0.4c-0.5,0-0.5-0.4-0.7-0.8C252.7,138.6,252.5,138.5,252.4,138.3L252.4,138.3z
			M256.8,142.4v-0.6h-4v0.6H256.8z M256.8,143.1h-4v0.6h4V143.1z M256.6,136c-0.5-0.3-0.9-0.7-1.2-1.1c-0.7,0.5-1.3,0.8-2.1,1.1
			H256.6z M257.4,138.6v-0.5h-1.9v1.6h0.1c0.3-0.5,0.6-0.9,0.7-1.4L257.4,138.6z M257.4,139.7v-1c-0.5,0.4-0.9,0.7-1.4,1H257.4z"/>
		<path class="yellow" d="M264.9,137.9l-1-1.2c-0.4-0.5-0.7-0.9-1-1s-0.5-0.3-0.9-0.4c-0.6-0.1-0.9-0.4-0.9-0.9c0-0.5,0.4-0.8,1.1-1
			c0.8-0.2,1.9-0.3,3.5-0.3c1.2,0,2,0.1,2.6,0.2c0.6,0.1,0.9,0.4,0.9,0.9c0,0.2-0.1,0.5-0.4,0.8c0,0.1-0.1,0.2-0.1,0.2
			c0,0.2,0.1,0.4,0.4,0.7c0.2,0.3,0.4,0.4,0.5,0.4c0.1,0,0.3-0.2,0.6-0.5c0.3-0.3,0.4-0.6,0.4-0.7c0-0.1-0.1-0.3-0.2-0.5
			c-0.1-0.2-0.2-0.4-0.2-0.5c0-0.2,0.1-0.3,0.2-0.5c0.1-0.2,0.3-0.3,0.5-0.3c0.3-0.1,0.9-0.2,1.7-0.2c0.7,0,1.2,0.1,1.4,0.2
			c0.4,0.2,0.6,0.5,0.6,0.8c0,0.2-0.1,0.3-0.2,0.4s-0.4,0.2-0.8,0.4c-0.2,0.1-0.4,0.2-0.5,0.4c-0.1,0.1-0.5,0.7-1.2,1.6l-0.8,1.2
			c-0.1,0.1-0.1,0.2-0.1,0.3c0,0,0,0.1,0.1,0.2l0.7,1c0.7,1.1,1.2,1.8,1.6,2.1c0.2,0.2,0.4,0.3,0.8,0.5c0.3,0.1,0.5,0.4,0.5,0.8
			c0,0.5-0.3,0.9-0.9,1.1c-0.6,0.2-1.8,0.3-3.4,0.3c-1.3,0-2.2-0.1-2.7-0.2c-0.7-0.2-1-0.5-1-1c0-0.3,0.2-0.6,0.6-0.7
			c0.2-0.1,0.3-0.3,0.3-0.5c0-0.2-0.2-0.6-0.5-1c-0.3-0.4-0.5-0.6-0.7-0.6c-0.2,0-0.4,0.3-0.8,0.8c-0.4,0.5-0.5,0.9-0.5,1.2
			c0,0.1,0.1,0.3,0.3,0.5c0.2,0.2,0.2,0.4,0.2,0.6c0,0.7-0.8,1-2.3,1c-0.8,0-1.4-0.1-1.8-0.2c-0.4-0.2-0.6-0.4-0.6-0.8
			c0-0.2,0.1-0.4,0.2-0.5c0.1-0.1,0.3-0.2,0.6-0.3c0.3-0.1,0.6-0.2,0.8-0.4s0.7-1,1.6-2.4l0.8-1.3c0.1-0.1,0.1-0.2,0.1-0.3
			C265.1,138.1,265,138,264.9,137.9z"/>
		<path class="yellow" d="M280.7,131.3c1.5,0,2.7,0.3,3.9,0.8c0.4,0.2,0.8,0.5,1,0.9c0.3,0.4,0.4,0.8,0.4,1.2c0,0.8-0.4,1.5-1.3,2.2
			c-0.2,0.2-0.4,0.3-0.4,0.5c0,0.2,0.2,0.4,0.6,0.4c2,0.4,3,1.5,3,3.4c0,1.2-0.4,2.2-1.2,3.2c-0.8,0.9-1.9,1.6-3.4,2.1
			c-1.1,0.3-2.3,0.5-3.6,0.5c-1.5,0-2.9-0.2-4-0.6c-0.7-0.3-1-0.7-1-1.2c0-0.3,0.1-0.6,0.4-0.8c0.2-0.2,0.5-0.3,0.9-0.3
			c0.2,0,0.7,0.1,1.5,0.3c0.3,0.1,0.7,0.1,1.2,0.1c0.9,0,1.6-0.2,2.1-0.6c0.6-0.4,0.8-0.9,0.8-1.5c0-0.5-0.2-1-0.7-1.3
			c-0.4-0.3-1-0.5-1.7-0.5c-0.4,0-0.8,0-1.1,0.1c-0.2,0.1-0.3,0.1-0.4,0.1c-0.2,0-0.4-0.2-0.6-0.6s-0.3-0.8-0.3-1.2
			c0-0.2,0-0.3,0.1-0.4c0.1-0.1,0.4-0.2,0.9-0.4c0.5-0.2,0.9-0.5,1.4-0.9c0.3-0.3,0.5-0.7,0.5-1.1c0-0.4-0.2-0.8-0.5-1.1
			c-0.3-0.3-0.7-0.5-1.2-0.5c-0.3,0-0.5,0-0.7,0.1s-0.6,0.2-1.1,0.5c-0.2,0.1-0.3,0.1-0.4,0.1c-0.2,0-0.4-0.1-0.5-0.4
			c-0.2-0.3-0.3-0.5-0.3-0.8c0-0.5,0.4-1,1.3-1.4c0.6-0.3,1.2-0.5,2-0.7C279.2,131.4,280,131.3,280.7,131.3z"/>
		<path class="pink" d="M292.9,134.3c-0.3,1.3-0.7,2-1.7,3h0.7v7.6h-1.7V138c-0.3,0.2-0.6,0.4-0.9,0.6l-0.1-0.1c1-1,1.4-2.8,1.6-4.1
			H292.9z M297.1,136.6h-4.6v-0.8h3.1c-0.5-0.3-0.2-0.5-0.4-1c-0.1-0.2-0.1-0.2-0.3-0.3l0.1-0.1c0.6,0,2.3,0,2.3,1
			c0,0.2-0.1,0.3-0.3,0.5h2.7v0.8h-2.3l1.6,0.3c-0.6,1.1-1,1.5-2,2.2h3v0.8h-7.5v-0.8h3.7C296.6,138.3,296.9,137.5,297.1,136.6z
			M294.9,140.3v0.4h2.3l0.5-0.6l1.8,0.4l-0.5,0.5v3.8l-1.7,0v-0.4h-2.4v0.4h-1.7v-4.6H294.9z M293.5,136.7c0.7,0.2,2.1,0.6,2.1,1.5
			c0,0.4-0.4,0.7-0.8,0.7c-0.8,0-0.9-0.7-1-1.3c-0.1-0.3-0.2-0.5-0.4-0.8L293.5,136.7z M297.3,143.7v-2.2h-2.4v2.2H297.3z"/>
		<path class="pink" d="M306.8,144.2c-0.3,0.1-0.7,0-0.9-0.3c-0.3-0.2-0.4-0.6-0.3-0.9c0-0.3,0.2-0.5,0.4-0.7c0.3-0.2,0.6-0.3,0.9-0.2
			c0.3,0,0.6,0.3,0.7,0.5c0.1,0.2,0.2,0.3,0.2,0.5c0,0.2,0,0.3-0.1,0.5C307.5,143.9,307.2,144.1,306.8,144.2z M306.9,141.2h-0.7
			l-0.6-6h2.1L306.9,141.2z"/>
	</g>
	<g>
		<path class="word" d="M11.1,168.1L11.1,168.1l-3.4,2.5l1.3,4.1l0,0l-3.4-2.5l-3.4,2.5l0,0l1.3-4.1L0,168.2v0h4.2l1.3-4h0l1.3,4H11.1
			z"/>
		<path class="word" d="M13.5,172.3l0-4l-1.2,0v-0.7h1.2l0.4-0.5l1.6,0.4l-0.4,0.4v4.5c0.9-0.3,1.8-0.8,2.6-1.4h-1.5v-2.5H18v0.3h2.6
			l0.4-0.5l1.7,0.4l-0.4,0.4v1.9h-0.3l0.9,0.4c-0.7,0.2-1.4,0.4-2.1,0.5c0.4,0.1,1.4,0.4,1.4,1c0,0.3-0.2,0.5-0.5,0.5
			c-0.1,0-0.3,0-0.5-0.1l-0.8-0.5c-0.4-0.3-1.1-0.6-1.5-0.7v1.3h-1.7l0-1c-0.6,0.2-1.3,0.3-1.9,0.4c0.2,0.2,0.5,0.4,0.7,0.6
			c0.6,0.3,2,0.3,2.6,0.3c1.6,0,3.2-0.1,4.7-0.1l0,0.1c-0.3,0.1-0.8,0.4-0.8,0.7v0.2l-0.1,0.1c-0.9,0-1.8,0-2.6,0
			c-0.9,0-2.5,0-3.4-0.2c-0.6-0.2-1.4-0.6-1.7-1.1c0,0-0.3-0.4-0.4-0.4c-0.1,0-1.1,1.7-1.1,1.7l-0.6-1.5
			C13,172.8,13.3,172.6,13.5,172.3z M12.9,164.1c0.5,0.1,1.4,0.2,1.8,0.6c0.1,0.2,0.3,0.4,0.3,0.6c0.1,0.7-0.4,1-1,0.9
			c-0.4-0.1-0.7-0.3-0.7-0.8c0-0.2-0.1-0.4-0.2-0.6c-0.1-0.2-0.2-0.4-0.4-0.6L12.9,164.1z M22.8,168.2h-7.1v-0.7h7.1V168.2z
			M17.3,164.1v0.4h3.9l0.4-0.5l1.5,0.3l-0.5,0.4v2.5h-1.4v-0.3h-3.9v0.3h-1.4v-3.1H17.3z M18,166.2v-1.1h-0.7v1.1H18z M20.6,170.2
			v-0.6H18v0.6H20.6z M20.1,171.9c0.5-0.2,0.9-0.5,1.3-0.8h-0.8v-0.2H20c-0.4,0.3-0.9,0.5-1.4,0.8C19.1,171.8,19.6,171.8,20.1,171.9z
			M19.6,166.2v-1.1H19v1.1H19.6z M21.2,166.2v-1.1h-0.6v1.1H21.2z"/>
		<path class="word" d="M34.9,165.4h-1v8.3c0,0.2,0,0.4-0.2,0.6c-0.3,0.4-1.5,0.5-2,0.5c-0.1,0-0.5,0-0.5-0.1c-0.1,0-0.1-0.2-0.1-0.3
			c-0.1-0.5-1-0.7-1.4-0.8l0-0.1c0.5,0,1,0,1.5,0c0.1,0,0.6,0,0.7-0.1c0.1-0.1,0.1-0.2,0.1-0.3v-7.8h-7.8v-0.8h10.6V165.4z
			M27.2,167.1H29l0.5-0.6l1.8,0.4l-0.5,0.5v5.1h-1.8v-0.7h-1.9v0.7h-1.7v-5.9h1.7V167.1z M29.1,171v-3.2h-1.9v3.2H29.1z"/>
		<path class="word" d="M36.9,172.1l0-8h1.8v7.8c0.5-0.3,1-0.6,1.4-0.9c0.5-0.3,1-0.7,1.5-1.1l0.1,0c-1.2,2.4-1.9,3.1-4.1,4.5
			l-1.1-1.7C36.9,172.6,36.9,172.4,36.9,172.1z M42.5,172.8c0.7-0.7,1.2-1.7,1.5-2.7c0.2-0.7,0.3-1.5,0.3-2.2c0-0.6,0.1-1.2,0.1-1.8
			v-2h1.9c0,1,0,2-0.1,3c-0.1,1.1-0.1,2.1-0.5,3.2c-0.2,0.7-0.5,1.2-0.9,1.8c0.4,0.2,1.4,0.6,1.7,0.9c0.2,0.2,0.4,0.5,0.5,0.8
			c0.1,0.7-0.3,1.1-0.9,1.1c-0.7,0-0.9-0.5-1-1.1c-0.1-0.6-0.3-0.8-0.6-1.3c-0.5,0.4-0.9,0.7-1.4,1c-0.8,0.5-2,0.9-3,1.2l-0.1-0.1
			C40.8,174.1,41.7,173.6,42.5,172.8z M40.2,164.2c0.5,0.1,1.6,0.4,2.1,0.7c0.5,0.3,1,0.7,1,1.3c0,0.6-0.6,0.9-1.1,0.9
			c-0.2,0-0.4,0-0.5-0.1c-0.2-0.1-0.3-0.3-0.4-0.5l-0.2-0.6c-0.1-0.2-0.2-0.5-0.3-0.7c-0.2-0.4-0.4-0.5-0.7-0.8L40.2,164.2z"/>
		<path class="word" d="M51.3,173.3c-0.7,0.6-2.1,1-3,1.2l-0.1-0.1c0.7-0.4,1.4-1,1.8-1.7c0.2-0.2,0.3-0.5,0.4-0.7h2.1
			C52.2,172.6,51.8,172.8,51.3,173.3z M50.8,165.7l-0.3,0.2c0.3,0,1.1,0,1.6,0.2c0.3,0.1,0.4,0.4,0.4,0.6c0,0.3-0.4,0.5-0.7,0.5
			c-0.6,0-0.6-0.4-1-0.8c-0.1-0.1-0.3-0.3-0.4-0.4c-0.6,0.6-1.3,1-2.1,1.3l-0.1-0.1c0.9-0.9,1.4-2,1.6-3.2h2
			c-0.1,0.3-0.3,0.6-0.4,0.9h2.4v0.8L50.8,165.7z M58.4,170.8c0,0.7,0,1.4,0,2c0,0.1,0,0.3-0.1,0.4c-0.3,0.6-1.3,0.6-1.9,0.6
			c-0.8,0-0.1-0.6-0.9-0.9c-0.3-0.1-0.6-0.1-0.9-0.2l0-0.2c0.3,0,0.6,0,1,0c0.2,0,0.9,0,1-0.1c0.1-0.1,0.1-0.3,0.1-0.3l0-1.1h-2.3
			v3.5h-1.8v-3.5h-1.9l-0.3,0.4l-1.8-0.5l0.4-0.6v-1.8h1.7v0.3h1.9v-0.7h-3.9v-0.8h7.4l0.5-0.4l2,0.3L58,168v2.1h-1.8v-0.2h-1.8v0.7
			h2.3l0.3-0.4l1.9,0.3L58.4,170.8z M52.5,169.8h-1.9v0.7h1.9V169.8z M55.5,165.7l-0.2,0.2c0.3,0,1.1-0.1,1.6,0.1
			c0.4,0.1,0.5,0.3,0.5,0.5c0,0.4-0.3,0.5-0.6,0.5c-0.4,0-0.7-0.3-1-0.6c-0.2-0.2-0.5-0.3-0.7-0.4c-0.6,0.5-1.2,0.9-1.8,1.2l-0.2-0.1
			c0.7-0.8,1.2-2,1.3-3.1h2.1c-0.1,0.3-0.3,0.6-0.5,0.9h2.6v0.8L55.5,165.7z M56.1,168.4h-1.8v0.7h1.8V168.4z"/>
		<path class="word" d="M70.7,169.5H60.3v-0.9h10.4V169.5z"/>
		<path class="word" d="M74,164.4v0.4h0.7l0.4-0.6l1.6,0.5l-0.4,0.4v8.2h-1.6v-0.5H74v0.6h-1.6v-9.2H74z M74.8,168.3v-2.7H74v2.7H74.8
			z M74.8,172.2V169H74v3.1H74.8z M78.5,167.4v-1.2H77v-0.8h1.6V164h1.8v1.5h2v0.8h-2v1.2H83v0.8h-6.4v-0.8H78.5z M80,168.4h1.8v1
			h1.1v0.8h-1.1v3.4c0,1.1-0.8,1.1-1.6,1.2c-0.1,0-0.2,0-0.3,0c-0.5,0-0.2-0.4-0.4-0.7c-0.2-0.3-0.8-0.4-1.1-0.4v-0.2
			c0.4,0.1,0.9,0.1,1.4,0.1c0.3,0,0.3-0.1,0.3-0.4v-3h-3v-0.8h3V168.4z M77.3,170.3c0.5,0.2,1,0.3,1.4,0.5c0.3,0.2,0.6,0.5,0.6,0.8
			c0,0.6-0.3,0.9-0.9,0.8c-1-0.1-0.6-0.9-0.9-1.6c-0.1-0.2-0.2-0.3-0.3-0.5L77.3,170.3z"/>
		<path class="word" d="M86.2,164.1v0.3h1.5l0.4-0.5l1.6,0.4l-0.5,0.5v3.5h-1.6v-0.3h-1.4v6.8h-1.6v-10.6H86.2z M87.6,165.2h-1.4v0.7
			h1.4V165.2z M87.6,167.2v-0.7h-1.4v0.7H87.6z M90.8,168.5l1.6,0.4l-0.5,0.5v4h-1.4v-0.4h-1.9v0.4h-1.4v-4.6h1.4v0.4h1.8L90.8,168.5
			z M90.4,170.5v-0.8h-1.9v0.8H90.4z M90.4,171.2h-1.9v0.9h1.9V171.2z M91.5,167.9v0.3h-1.6v-4.1h1.6v0.3h1.4l0.4-0.5l1.6,0.4
			l-0.5,0.5v8.9c0,0.7-0.3,0.9-0.9,1c-0.3,0-0.6,0.1-0.8,0.1c-0.4,0-0.4,0-0.4-0.3c0-0.6-1.1-0.7-1.5-0.7l0-0.2c0.5,0,1,0.1,1.4,0.1
			c0.3,0,0.6,0,0.6-0.4v-5.3H91.5z M92.9,165.8v-0.7h-1.4v0.7H92.9z M92.9,167.2v-0.7h-1.4v0.7H92.9z"/>
		<path class="word" d="M96.6,172V165h1.6v6.9c0.3-0.1,0.6-0.2,0.9-0.3v-7.4h1.7v4.8c0.7-1,1.2-2.2,1.3-3.5c0-0.4,0.1-0.7,0.1-1.1
			c0-0.1,0-0.2,0-0.3h1.9c-0.1,0.5-0.2,1.1-0.3,1.6h3v0.8h-3.3c-0.3,0.7-0.8,1.2-1.3,1.7l0.5,0c0.3,1.2,0.5,1.9,1.2,2.9
			c0.3-1.2,0.5-2.4,0.5-3.6c0-0.1,0-0.2,0-0.4h1.8c-0.2,2.1-0.2,3.2-1.3,5c0.6,0.5,1.5,0.8,2.2,1l0,0.1c-0.5,0-0.9,0.3-0.9,0.8
			c0,0.2,0.1,0.3,0.2,0.5l-0.1,0.1c-0.9-0.3-1.7-0.8-2.5-1.5c-0.9,0.7-1.5,1.1-2.6,1.5l-0.1-0.1c0.7-0.7,1.4-1.4,1.9-2.2
			c-0.1-0.2-0.3-0.4-0.4-0.6c-0.5-0.9-0.6-2.5-0.7-3.5c-0.4,0.3-0.8,0.6-1.2,0.9v5.6h-1.7v-2.6c-0.8,0.8-1.2,1.1-2.2,1.7l-0.6-1.5
			C96.5,172.3,96.6,172.2,96.6,172z"/>
		<path class="word" d="M108.7,170h1.8v-1.1h1.7v1.1h1.7v0.8h-1.7l0,1.7c0.6-0.1,1.2-0.3,1.8-0.4l0.1,0.1c-1.7,1.3-3.3,1.8-5.4,2.4
			l-0.5-1.4c0.7,0,1.6-0.1,2.2-0.3v-2h-1.8V170z M108.9,167.5c0.3-0.1,0.9-1.6,1-2l0.1-0.5h-1.6l0-0.8h5.6v0.8h-2
			c-0.5,0.8-1.1,1.7-1.9,2.2l-0.4,0.3c0.9,0,1.8-0.1,2.7-0.1c-0.2-0.5-0.3-0.9-0.6-1.3l0.1-0.1c0.8,0.4,1.4,0.7,1.9,1.5
			c0.1,0.2,0.2,0.5,0.2,0.6c0,0.5-0.4,0.7-0.8,0.7c-0.7,0-0.7-0.6-0.8-1.1c-1.3,0.7-2.2,0.8-3.7,1.1l-0.3-1.3
			C108.7,167.6,108.8,167.5,108.9,167.5z M116,165.6v6.4h-1.6v-6.4H116z M116,173.6c0.2,0,0.6,0,0.7-0.1c0-0.1,0-0.2,0-0.2V164h1.7
			v9.6c0,1-0.8,1-1.6,1.1c-0.2,0-0.3,0-0.5,0c-0.1,0-0.3,0-0.4,0c-0.2-0.1,0-0.3-0.3-0.6c-0.1-0.1-0.1-0.2-0.2-0.2
			c-0.3-0.1-0.7-0.2-1-0.2l0-0.2C115,173.5,115.5,173.6,116,173.6z"/>
		<path class="word" d="M125.8,165.1h1.8l0.7,4.3c0.1,0.9,0.3,1.9,0.4,2.8h0c0.2-0.9,0.4-1.9,0.6-2.8l1-4.3h1.5l1,4.3
			c0.2,0.9,0.4,1.9,0.6,2.8h0.1c0.1-1,0.3-1.9,0.4-2.8l0.7-4.3h1.7l-1.6,8.9h-2.2l-1-4.4c-0.1-0.7-0.3-1.4-0.4-2.1h0
			c-0.1,0.7-0.2,1.4-0.4,2.1l-1,4.4h-2.2L125.8,165.1z"/>
		<path class="word" d="M137.1,170.6c0-2.2,1.5-3.5,3.1-3.5c1.8,0,2.8,1.4,2.8,3.2c0,0.3,0,0.6-0.1,0.8h-4.1c0.1,1.1,0.9,1.7,1.9,1.7
			c0.6,0,1-0.2,1.5-0.5l0.6,1.1c-0.7,0.5-1.5,0.7-2.4,0.7C138.5,174.1,137.1,172.8,137.1,170.6z M141.5,169.9c0-0.9-0.4-1.5-1.3-1.5
			c-0.7,0-1.3,0.5-1.5,1.5H141.5z"/>
		<path class="word" d="M144.1,169.6c0-2.9,1.9-4.6,4.3-4.6c1.3,0,2.2,0.6,2.7,1.1l-0.9,1.1c-0.4-0.4-0.9-0.7-1.7-0.7
			c-1.5,0-2.5,1.2-2.5,3.1c0,1.9,0.9,3.1,2.6,3.1c0.4,0,0.9-0.1,1.1-0.3v-1.8h-1.6v-1.5h3.2v4c-0.6,0.6-1.6,1.1-2.9,1.1
			C146,174.1,144.1,172.5,144.1,169.6z"/>
		<path class="word" d="M152.7,172.1c0-1.4,1.2-2.2,3.9-2.5c0-0.7-0.3-1.2-1.1-1.2c-0.6,0-1.2,0.3-1.8,0.6L153,168
			c0.8-0.5,1.8-0.9,2.8-0.9c1.7,0,2.6,1,2.6,3v3.9h-1.4l-0.1-0.7h0c-0.6,0.5-1.3,0.9-2,0.9C153.5,174.1,152.7,173.3,152.7,172.1z
			M156.6,172.1v-1.4c-1.6,0.2-2.2,0.7-2.2,1.3c0,0.5,0.4,0.8,0.9,0.8C155.8,172.8,156.2,172.5,156.6,172.1z"/>
		<path class="word" d="M160.1,167.2h1.4l0.1,0.9h0c0.6-0.6,1.2-1.1,2.1-1.1c1,0,1.5,0.4,1.8,1.2c0.6-0.6,1.3-1.2,2.1-1.2
			c1.4,0,2.1,1,2.1,2.7v4.2h-1.8v-4c0-1-0.3-1.4-0.9-1.4c-0.4,0-0.8,0.3-1.3,0.8v4.6h-1.8v-4c0-1-0.3-1.4-0.9-1.4
			c-0.4,0-0.8,0.3-1.3,0.8v4.6h-1.8V167.2z"/>
		<path class="word" d="M171.3,170.6c0-2.2,1.5-3.5,3.1-3.5c1.8,0,2.8,1.4,2.8,3.2c0,0.3,0,0.6-0.1,0.8H173c0.1,1.1,0.9,1.7,1.9,1.7
			c0.6,0,1-0.2,1.5-0.5l0.6,1.1c-0.7,0.5-1.5,0.7-2.4,0.7C172.7,174.1,171.3,172.8,171.3,170.6z M175.7,169.9c0-0.9-0.4-1.5-1.3-1.5
			c-0.7,0-1.3,0.5-1.5,1.5H175.7z"/>
		<path class="word" d="M178.7,167.2h1.4l0.1,1.2h0c0.5-0.9,1.2-1.4,1.9-1.4c0.4,0,0.6,0.1,0.8,0.1l-0.3,1.5c-0.2-0.1-0.4-0.1-0.7-0.1
			c-0.5,0-1.2,0.3-1.5,1.3v4h-1.8V167.2z"/>
		<path class="word" d="M183.2,173.2l0.8-1.1c0.6,0.5,1.2,0.7,1.8,0.7c0.7,0,1-0.3,1-0.7c0-0.5-0.7-0.7-1.4-1c-0.9-0.3-1.8-0.8-1.8-2
			c0-1.2,1-2.1,2.5-2.1c1,0,1.7,0.4,2.3,0.8l-0.8,1.1c-0.5-0.3-0.9-0.6-1.5-0.6c-0.6,0-0.9,0.3-0.9,0.6c0,0.5,0.7,0.7,1.4,0.9
			c0.9,0.3,1.9,0.8,1.9,2c0,1.2-0.9,2.1-2.7,2.1C184.8,174.1,183.8,173.7,183.2,173.2z"/>
		<path class="word" d="M189.9,165.1h1.8v7.4h3.6v1.5h-5.4V165.1z"/>
		<path class="word" d="M196.1,170.6c0-2.2,1.5-3.5,3.2-3.5s3.2,1.3,3.2,3.5c0,2.2-1.5,3.5-3.2,3.5S196.1,172.8,196.1,170.6z
			M200.7,170.6c0-1.3-0.5-2.1-1.4-2.1s-1.4,0.8-1.4,2.1c0,1.3,0.5,2.1,1.4,2.1S200.7,171.9,200.7,170.6z"/>
		<path class="word" d="M203.1,167.2h1.8l1,3.3c0.2,0.7,0.4,1.4,0.5,2h0.1c0.2-0.7,0.4-1.4,0.5-2l1-3.3h1.7l-2.2,6.7h-2L203.1,167.2z"
			/>
		<path class="word" d="M210.3,170.6c0-2.2,1.5-3.5,3.1-3.5c1.8,0,2.8,1.4,2.8,3.2c0,0.3,0,0.6-0.1,0.8H212c0.1,1.1,0.9,1.7,1.9,1.7
			c0.6,0,1-0.2,1.5-0.5l0.6,1.1c-0.7,0.5-1.5,0.7-2.4,0.7C211.8,174.1,210.3,172.8,210.3,170.6z M214.7,169.9c0-0.9-0.4-1.5-1.3-1.5
			c-0.7,0-1.3,0.5-1.5,1.5H214.7z"/>
		<path class="word" d="M226.2,169.5l0.2,0.1c-0.3,2.5-0.5,3.2-2,5.2l-1-1.9C224.5,171.8,225.4,170.8,226.2,169.5z M223.5,166.9
			c0.8,0.2,1.8,0.1,2.3,0.8c0.1,0.2,0.3,0.5,0.3,0.7c0,0.5-0.3,0.8-0.8,0.8c-0.2,0-0.6,0-0.8-0.3c-0.3-0.3-0.3-0.7-0.5-1.1
			C224,167.5,223.7,167.2,223.5,166.9L223.5,166.9z M223.8,164.2c0.8,0.2,2.9,0.4,2.9,1.5c0,0.5-0.4,0.6-0.8,0.6
			c-0.5,0-0.8-0.3-1.1-0.9c-0.2-0.5-0.6-0.8-1-1.1L223.8,164.2z M229.3,165.4c-0.9-0.1-1.9-0.1-2.8-0.3V165c1.8-0.2,3.5-0.5,5.2-1
			l2.1,1c-0.9,0.2-1.8,0.3-2.7,0.4v1.5h3v0.8h-3v1.9h0.5l0.6-0.5l1.7,0.4l-0.4,0.5v4.9h-1.8V174h-2.9v0.8H227v-5.6h1.8v0.3h0.5v-1.9
			h-2.8v-0.8h2.8V165.4z M231.7,173.2v-2.8h-2.9v2.8H231.7z"/>
		<path class="word" d="M239.1,165.7h2.3v0.6h0.8l0-2.2h1.4l0,2.2h0.7l0.4-0.4l1.4,0.3l-0.4,0.4l-0.1,6.9c0,0.2,0,0.5-0.1,0.8
			c-0.3,0.4-1.1,0.6-1.6,0.6c-0.7,0,0-0.3-0.8-0.7c-0.3-0.1-0.7-0.2-1-0.3l0-0.2c0.5,0,1.1,0.1,1.7,0.1c0.3,0,0.4-0.2,0.4-0.5
			l0.1-6.3h-0.7c0,1.3,0,2.7-0.2,4c-0.3,1.7-1.7,3-3.1,3.9l-0.2-0.1c1.2-1.3,1.8-2.5,2-4.3c0.1-1.2,0.1-2.4,0.1-3.5h-0.9v-0.6h-2.2
			v0.6h0.7l0.4-0.4l1.3,0.4l-0.4,0.2v3.7h-1.2v-0.3h-0.7v0.7h2v0.7h-2v0.8c0.8-0.1,1.5-0.2,2.3-0.3l0,0.2c-1.8,0.7-3.6,1.2-5.4,1.7
			l-0.5-1.2c0.8,0,1.6-0.1,2.4-0.2v-0.9h-2.1v-0.7h2.1v-0.7h-0.8v0.3h-1.2v-4.2h1.2v0.2h0.8v-0.6h-2.3v-0.7h2.3V165
			c-0.8,0-1.6,0-2.5-0.1l0-0.2c1.7-0.1,3.5-0.3,5.1-0.9l1,1.1c-0.8,0-1.6,0.1-2.4,0.1V165.7z M237.8,167.7h-0.8v0.8h0.8V167.7z
			M237.8,169.9v-0.8h-0.8v0.8H237.8z M239.8,168.4v-0.8h-0.7v0.8H239.8z M239.8,169.9v-0.8h-0.7v0.8H239.8z"/>
		<path class="word" d="M253.1,168.8v3c0.2,0,0.4-0.1,0.5-0.1l0.1,0.1c-0.2,0.1-0.4,0.3-0.6,0.4v2.6h-1.6V173
			c-1.1,0.4-2.2,0.7-3.3,0.9l-0.5-1.3c0.3,0,0.6,0,0.9-0.1v-3.7h-1.1v-0.7H258v0.7H253.1z M256.7,164.8v3h-1.8v-0.4h-4.4v0.4h-1.8
			v-3.8h1.8v0.4h4.4l0.4-0.5l1.9,0.4L256.7,164.8z M251.5,168.8h-1.2v0.6h1.2V168.8z M251.5,170.2h-1.2v0.7h1.2V170.2z M251.5,171.6
			h-1.2v0.7c0.4,0,0.8-0.1,1.2-0.2V171.6z M254.8,165.2h-4.4v0.4h4.4V165.2z M254.8,166.3h-4.4v0.4h4.4V166.3z M258.1,173.4
			c-0.4,0.1-0.7,0.2-0.7,0.7c0,0.2,0.1,0.3,0.2,0.4l-0.1,0.1c-0.9-0.4-1.3-0.6-2.1-1.1c-0.6,0.5-1.3,0.9-2,1.2l-0.1-0.1
			c0.6-0.5,1.1-1,1.5-1.7c-0.7-1-0.8-1.4-1-2.7h-0.4v-0.7h2.4l0.4-0.4l1.8,0.3l-0.5,0.4c-0.3,1.2-0.4,1.8-1.1,2.8
			c0.6,0.3,1.2,0.6,1.8,0.7L258.1,173.4z M254.1,170.2c0.2,0.6,0.6,1.1,1.1,1.6c0.2-0.5,0.3-1,0.4-1.6H254.1z"/>
		<path class="word" d="M259.5,174.3l-0.1-0.1c0.4-0.8,0.7-2.2,0.7-3.2h1.3v-0.6h-1.7v-0.8h1.7v-0.8h-1.9v-0.8h2.6
			c0.3-0.6,0.5-1.3,0.5-1.9h1.8c-0.5,1-0.9,1.3-1.7,1.9h2.1v0.8H263v0.8h1.6v0.8H263v0.6c0.4,0.1,1.1,0.3,1.3,0.6
			c0.1,0.2,0.4,0.6,0.3,0.9c0,0.4-0.1,0.7-0.7,0.7c-0.9,0-0.6-1-0.7-1.5c0-0.2-0.2-0.3-0.3-0.5v3.3c-0.4,0-0.9,0-1.7,0V172
			C261.1,173,260.4,173.7,259.5,174.3z M259.5,165.2h2.1c-0.2-0.2-0.2-0.5-0.4-0.7c-0.1-0.1-0.2-0.3-0.3-0.4l0-0.1
			c0.2-0.2,0.9-0.2,1.4-0.1c0.4,0.1,0.7,0.4,0.7,0.7c0,0.3-0.1,0.4-0.3,0.6h1.7v0.8h-5.1V165.2z M260.3,166.1
			c0.7,0.1,1.7,0.5,1.7,1.2c0,0.4-0.4,0.7-0.8,0.7c-0.6,0-0.6-0.3-0.7-0.9C260.5,166.8,260.4,166.5,260.3,166.1L260.3,166.1z
			M264.5,174c0.6-1,0.6-2.1,0.6-3.2v-6.6h1.7v0.5c0.7-0.1,1.3-0.4,2-0.7l1.3,1.1c-0.6,0.1-1.2,0.2-1.8,0.2c-0.5,0-1,0-1.6-0.1v2.5
			h3.1v0.8h-0.7v6.4h-1.7v-6.4h-0.7c0,1,0,2-0.1,3c-0.2,1.6-1.3,2.5-2.5,3.3l-0.1-0.1C264.2,174.4,264.4,174.2,264.5,174z"/>
		<path class="word" d="M276.9,172.6c-0.5,0.5-1.1,0.9-1.7,1.2c-1,0.6-2.7,0.9-3.8,1.1l-0.1-0.1c1-0.5,2-1,2.7-1.7l0.5-0.5
			L276.9,172.6z M274.5,165.6l0.1,0.1c-0.8,1.1-1.7,1.9-2.8,2.7l-0.6-1.4C272.4,166.6,273.6,166.1,274.5,165.6z M271.7,164.1
			c0.2,0,0.3,0,0.5,0c0.5,0,1.7-0.1,2.1,0.3c0.1,0.1,0.3,0.4,0.3,0.6c0,0.3-0.4,0.5-0.7,0.5c-0.6,0-1.1-0.6-1.5-1
			c-0.2-0.1-0.4-0.2-0.7-0.3L271.7,164.1z M274,167.9c0.7-0.3,1.2-0.6,1.8-1.2c0.2-0.2,0.5-0.5,0.6-0.8l0.2-0.4l1.8,0
			c-0.1,0.1-0.1,0.3-0.2,0.4c0.2,0.1,0.3,0.3,0.5,0.4c0.3,0.2,0.6,0.3,0.9,0.4c0.9,0.3,1.7,0.4,2.6,0.4l0,0.1
			c-0.4,0.2-0.6,0.4-0.6,0.8c0,0.2,0,0.2,0.1,0.3l-0.1,0.1c-0.2-0.1-0.5-0.1-0.7-0.2l-0.1,0.1v4.3h-1.7v-0.4h-4.9v0.4h-1.7v-4.7H274z
			M279.1,168l0.4-0.3c-0.8-0.4-1.1-0.6-1.6-1.3c-1,1-2.3,1.3-3.6,1.6H279.1z M279.2,169.2v-0.5h-4.9v0.5H279.2z M279.2,170.3v-0.5
			h-4.9v0.5H279.2z M279.2,171.5V171h-4.9v0.5H279.2z M280,164.5l0.5-0.4l1.7,0.6c-0.2,0.1-0.3,0.2-0.5,0.3c-0.1,0.1-0.3,0.2-0.4,0.3
			c-0.3,0.2-0.6,0.4-0.9,0.6c-0.4,0.2-0.7,0.4-1.1,0.6l-0.2-0.1c0.3-0.3,0.6-0.7,0.8-1.1h-3.6c-0.4,0.4-1.2,0.9-1.7,1.1l-0.1-0.1
			c0.6-0.8,0.8-1.4,1-2.4l2,0c-0.1,0.2-0.3,0.4-0.5,0.6H280z M277.6,172.5c0.9,0.1,3.1,0.3,3.7,1c0.2,0.2,0.3,0.5,0.3,0.7
			c0,0.4-0.4,0.6-0.7,0.6c-0.6,0-1.1-0.6-1.4-1c-0.5-0.5-1.3-0.9-1.9-1.2L277.6,172.5z"/>
		<path class="word" d="M284.9,164.4c-0.1-0.2-0.2-0.3-0.4-0.5l0-0.1c0.5-0.1,1.1,0,1.6,0.2c0.3,0.2,0.6,0.5,0.6,1
			c0,0.3-0.2,0.4-0.4,0.5h1.6v0.8h-4.5v-0.8h2.1C284.9,165.3,285.1,165,284.9,164.4z M287.4,167.2v0.8h-3.7v-0.8H287.4z M287.4,168.7
			v0.8h-3.7v-0.8H287.4z M285.2,170.2v0.4h0.9l0.5-0.5l1.5,0.4l-0.5,0.5v3.4h-1.5v-0.5h-1v0.6h-1.5v-4.3H285.2z M286.2,173.2v-1.8h-1
			v1.8H286.2z M288.5,168.2v-2.9h-0.7v-0.8h3.2l0.6-0.6l1.8,0.4l-0.7,0.5l0,5.3c0,0.3,0,0.7,0,1c0,0.3,0,0.6,0,0.9
			c0,0.1,0,0.7,0.2,0.7c0.2,0,0.6-1.7,0.7-2.1l0.2,0c-0.1,0.5-0.1,1.1-0.1,1.6c0,0.6,0.6,0.7,0.6,1c0,0.4-0.5,1.1-0.8,1.4
			c-0.1,0.1-0.2,0.1-0.4,0.1c-0.2,0-0.4-0.1-0.6-0.2c-0.3-0.1-0.6-0.4-0.8-0.6c-0.7-0.9-0.7-2.1-0.7-3.2V169h-0.8v5.7h-1.7V169h-0.9
			v-0.8H288.5z M291,168.2v-2.9h-0.8v2.9H291z"/>
	</g>
	<rect x="65.2" y="197.8" class="button" width="177.3" height="44.8"/>
	<g>
		<path class="word" d="M86.9,226.8h8.7c1.5-3,2.6-6.9,3.2-10.3l3.5,0.3c-0.8,2.6-1.9,5.8-3.6,8c-0.5,0.7-1,1.3-1.6,1.9h7.9v1.5H86.9
			V226.8z M104.2,213.9l0,1.5H87.3v-1.5H104.2z M92.4,218c1.5,1.3,2.8,2.9,2.8,5c0,1.2-0.7,1.9-1.9,1.9c-0.7,0-1.2-0.5-1.3-1.2
			c-0.2-1.1-0.1-2.2-0.3-3.3c-0.2-1.4-0.4-2.2-1.1-3.4l0.2-0.1C91.4,217.1,91.9,217.5,92.4,218z M93.6,210c1.2,0.1,3,0.2,3.8,1.1
			c0.3,0.3,0.5,0.7,0.5,1.2c0,0.9-1,1.4-1.8,1.4c-0.5,0-1.3-0.2-1.5-0.8c-0.1-0.3-0.1-0.5-0.2-0.8c-0.1-0.8-0.4-1.4-1-2L93.6,210z"/>
		<path class="word" d="M111.5,221.3c0,0.7,0,1.3,0,2c0,1.2,0.1,2.6-0.9,3.4c-1.1,0.9-3.3,0.3-2.3-1c0.2-0.3,0.8-0.9,1-1.2
			c0.6-0.7,1.4-2.3,1.7-3.1H111.5z M112.1,210.2v0.6h12.3v1.3h-5.5v1.3h5.1v1.3h-5.1v1.6h5.2v1.3h-5.2v1.5h3.2l1.3-1l3.4,1l-1.5,0.8
			c-0.1,2.3-0.1,4.6-0.3,6.9c-0.1,1.2-0.3,1.8-1.5,2.1c-0.5,0.1-1.1,0.2-1.7,0.2c-1.1,0-0.4-0.7-1-1.3c-0.3-0.3-1.8-0.6-2.1-0.7
			l0-0.3c0.8,0.1,1.6,0.1,2.3,0.1c0.2,0,0.4,0,0.5-0.1c0.6-0.3,0.6-1.7,0.6-2.2c-0.2,0.1-0.5,0.2-0.7,0.2c-1,0-1.1-1-1.3-1.7
			c-0.1-0.3-0.6-1.6-0.8-1.9l-0.4-0.4l0.3-0.1c0.6,0.3,1.9,1,2.4,1.4l0.6,0.6c0-0.7,0-1.5,0.1-2.2h-10.1v0.6h-2.9v-10.9H112.1z
			M116,213.3v-1.3h-3.8v1.3H116z M116,216.3v-1.6h-3.8v1.6H116z M116,219.2v-1.5h-3.8v1.5H116z M113.3,221.1c1,1,2,2.5,2,4
			c0,0.8-0.6,1.3-1.4,1.3s-1.2-0.2-1.2-1c0-0.9,0.4-1.8,0.4-2.7c0-0.5-0.1-0.9-0.2-1.4L113.3,221.1z M115.9,220.9
			c1,0.7,3.2,2.2,3.2,3.6c0,0.7-0.7,1.1-1.3,1.1c-0.8,0-1.1-0.7-1.2-1.3c-0.1-0.5-0.2-1.1-0.3-1.6c-0.2-0.7-0.3-1-0.7-1.6
			L115.9,220.9z"/>
		<path class="word" d="M138.3,218.4l-0.4-0.9c0.3-0.3,0.6-0.5,0.9-0.8c0.5-0.5,1-1.6,1.2-2.3l2.8,0.1c-0.8,1-2.2,2.1-3.3,2.9
			c1.3-0.1,2.6-0.2,3.8-0.4c-0.2-0.7-0.5-1.1-0.8-1.7l0.2-0.1c1,0.4,3.2,1,3.5,2.2c0.3,1.1-0.7,2-1.8,1.6c-0.7-0.2-0.9-0.6-0.9-1.2
			c-1.4,0.4-2.8,0.8-4.2,1.3c2.6,1.4,5.1,1.7,8,1.7l0,0.3c-1.3,0.5-1.7,1.1-0.9,2.3l-0.2,0.2c-3.4-0.9-6-1.9-8.5-4.4
			c-2.8,2.1-6.3,3.3-9.7,3.9l-0.1-0.2c2.6-1.2,4.8-2.4,6.7-4.5L138.3,218.4z M130.8,215.1l-0.4-2.1c0.4,0,0.8-0.1,1.2-0.2
			c1.2-0.3,2.7-1.8,3.4-2.7l4.4,0.1c-1.5,1.3-4,2.3-5.9,2.9c2.6,0,5.2-0.1,7.8-0.3c-0.7-0.7-1.4-1.1-2.3-1.7l0.1-0.2
			c1.5,0.3,5,0.7,5.7,2.1c0.4,0.8-0.4,1.6-1.2,1.6c-1,0-1.2-0.5-1.8-1.2c-2.5,0.5-5,0.9-7.5,1.2l1.1,0.1c-0.2,0.2-0.4,0.4-0.7,0.6
			c0.9,0.2,3.1,0.7,3.1,2c0,0.7-0.9,1-1.5,1c-0.5,0-0.5-0.2-0.8-0.5c-1.9,0.6-3.8,1.2-5.7,1.6l-0.6-1.9c1.3-0.5,2.1-1.7,2.9-2.8
			C131.7,215,131.3,215,130.8,215.1z M138.3,222.4c-2.5,1.6-6,2.2-8.8,2.3l0-0.3c2.9-0.8,4.9-1.7,7.2-3.6l2.9,0.7
			C139.2,221.9,138.8,222.1,138.3,222.4z M146.1,225.4c-4.1,2.8-11.6,3.9-16.6,3.4l0-0.3c4.9-0.6,9.3-1.1,13.4-4.2L146.1,225.4z
			M129.8,226.7l0-0.3c3.6-0.7,7.2-1.6,10-4l3,1C138.4,226,134.9,226.7,129.8,226.7z M135.3,217.1c-0.3-0.6-0.5-1-0.9-1.5
			c-0.9,0.7-1.9,1.3-2.9,1.8C132.8,217.4,134.1,217.3,135.3,217.1z"/>
		<path class="word" d="M152,212l0.1-1.8h2.8l-0.1,1.8h1.3l0.8-0.9l2.9,0.8l-0.7,0.9c-0.1,4.3-0.1,8.5-0.1,12.8c0,2.1,0.2,2.9-2.2,3.3
			c-0.3,0-0.6,0.1-0.9,0.1c-0.1,0-0.3,0-0.4-0.1c-0.1-0.1-0.1-0.4-0.2-0.6c-0.1-0.7-1.2-1-1.8-1.2l0.1-0.3c0.6,0,1.2,0.1,1.8,0.1
			c0.6,0,0.9-0.2,0.9-0.8c0-4.2,0-8.5,0-12.7h-1.4c0,1.5,0,3.7,0,5.2c-0.1,2.6-0.2,5.1-1.8,7.3c-0.8,1.1-1.8,2.2-2.9,3.1l-0.2-0.1
			c0.6-1,1.1-2.1,1.4-3.2c0.6-2,0.6-4.3,0.6-6.4c0-2,0-3.9,0-5.9h-2l0-1.4H152z M160,211.4h2.6v0.7h1.7l0.9-0.8l2.7,0.7l-0.8,0.8
			v15.3h-2.6v-1.6h-1.8v1.6H160V211.4z M164.4,225.1v-11.7h-1.8v11.7H164.4z"/>
		<path class="word" d="M180.2,227.6c-0.6,0.1-1.2,0-1.6-0.5c-0.5-0.4-0.7-1-0.6-1.6c0-0.5,0.3-0.9,0.7-1.3c0.4-0.4,1-0.5,1.6-0.4
			c0.5,0.1,1,0.4,1.3,0.9c0.2,0.3,0.3,0.6,0.3,0.9c0,0.3,0,0.5-0.1,0.8C181.4,227,180.8,227.5,180.2,227.6z M180.4,222.3h-1.3
			l-1.1-10.5h3.7L180.4,222.3z"/>
		<path class="word" d="M198.6,213.2c0.9,0,1.7,0.1,2.5,0.4c0.4,0.1,0.6,0.2,0.7,0.2c0.1,0,0.4-0.1,0.9-0.2c0.1,0,0.3-0.1,0.4-0.1
			c0.4,0,0.7,0.2,1.1,0.7c0.6,0.7,0.8,1.5,0.8,2.4c0,0.6-0.1,1.1-0.4,1.4c-0.3,0.4-0.7,0.5-1.2,0.5c-0.4,0-0.8-0.1-1.2-0.4
			c-0.1-0.1-0.4-0.4-0.9-1c-0.8-0.9-1.6-1.4-2.6-1.4c-0.9,0-1.6,0.3-2.1,1c-0.5,0.6-0.8,1.5-0.8,2.6c0,1.6,0.4,3,1.3,4.2
			c0.3,0.4,0.7,0.8,1.1,1s0.9,0.4,1.3,0.4c0.4,0,0.6-0.1,0.9-0.4c0.2-0.2,0.3-0.5,0.3-0.9c0-0.3-0.1-0.6-0.3-0.7
			c-0.1-0.1-0.1-0.1-0.2-0.1c-0.1,0-0.3,0-0.6,0c-0.3,0-0.5-0.1-0.7-0.3c-0.2-0.2-0.3-0.4-0.3-0.7c0-0.6,0.4-1,1.1-1.2
			c0.8-0.3,1.8-0.4,2.9-0.4c1.2,0,2.1,0.1,2.9,0.4c0.7,0.2,1.1,0.7,1.1,1.3c0,0.2-0.1,0.5-0.3,0.6s-0.4,0.3-0.7,0.3
			c-0.2,0-0.4,0.1-0.5,0.2c-0.1,0.1-0.1,0.2-0.2,0.5c-0.3,1.1-0.9,2-1.7,2.7c-0.6,0.5-1.3,0.9-2.1,1.2c-0.8,0.3-1.7,0.4-2.6,0.4
			c-1.5,0-2.9-0.3-4.1-1c-1.3-0.7-2.3-1.7-2.9-3c-0.6-1.1-0.8-2.2-0.8-3.4c0-1.2,0.3-2.4,1-3.5c0.7-1.2,1.7-2.1,3-2.8
			C195.9,213.5,197.2,213.2,198.6,213.2z"/>
		<path class="word" d="M215.3,213.2c1.8,0,3.3,0.5,4.6,1.5c0.9,0.7,1.6,1.6,2.2,2.7c0.5,1.1,0.8,2.2,0.8,3.3c0,1.6-0.5,3.1-1.6,4.3
			c-0.9,1.1-2.1,1.9-3.5,2.3c-0.9,0.3-1.8,0.4-2.7,0.4c-1.2,0-2.3-0.2-3.4-0.7c-1.3-0.6-2.3-1.5-3.1-2.7c-0.7-1.2-1.1-2.4-1.1-3.8
			c0-1.6,0.5-3.1,1.4-4.3c0.8-1.1,1.9-1.9,3.3-2.4C213.1,213.4,214.2,213.2,215.3,213.2z M214.3,216.1c-0.6,0-1,0.3-1.4,0.8
			c-0.3,0.4-0.4,0.8-0.4,1.4c0,0.8,0.2,1.7,0.5,2.7c0.3,1,0.7,1.9,1.2,2.7c0.2,0.3,0.5,0.6,0.8,0.8c0.3,0.2,0.6,0.3,0.9,0.3
			c0.5,0,0.9-0.2,1.3-0.6c0.3-0.4,0.5-0.9,0.5-1.5c0-0.8-0.1-1.7-0.4-2.7c-0.3-1-0.6-1.8-1-2.5c-0.3-0.4-0.6-0.7-0.9-1
			S214.7,216.1,214.3,216.1z"/>
	</g>
	<g>
		<path class="grey" d="M148.1,154c0,1.8,0.7,3.2,1.6,4.7l-0.1,0.1c-1.6-1.1-2.8-2.8-2.9-4.8c-0.1-2.1,1.2-3.8,2.9-5l0.1,0.1
			C148.7,150.5,148.1,152.2,148.1,154z"/>
		<path class="grey" d="M153.5,148.9c-0.2,0.4-0.8,1-1.1,1.3h0.8v7h-1.5v-6.5c-0.4,0.2-0.7,0.4-1.1,0.6l-0.1-0.1
			c0.7-1,1.1-1.8,1.4-2.9h1.8C153.7,148.5,153.6,148.7,153.5,148.9z M157.3,152.2h2.1v0.7h-2.1v3.6h1.8v0.6h-5.2v-0.6h2v-3.6h-2.2
			v-0.7h2.2v-2.7c-0.7-0.1-1.4-0.1-2-0.3l0-0.1c1.2-0.1,2.8-0.4,4-0.8l1.6,0.8c-0.7,0.2-1.4,0.3-2.1,0.3V152.2z"/>
		<path class="grey" d="M169.4,152.8h-8.7v-0.7h8.7V152.8z"/>
		<path class="grey" d="M174.8,151.8h2.2l0.5-0.5l1.6,0.3l-0.5,0.5c0,0.9-0.1,1.7-0.1,2.6c0,0.3,0,0.6,0,1c0,0.2,0,0.3-0.1,0.5
			c-0.1,0.4-0.5,0.7-1,0.8c-0.4,0.1-0.9,0.2-1.3,0.2c-0.6,0-0.1-0.5-0.7-0.8c-0.2-0.1-0.6-0.2-0.8-0.2l0-0.1c0.4,0,0.9,0.1,1.3,0.1
			c0.1,0,0.2,0,0.3,0c0.7,0,0.7-0.2,0.7-0.8c0-0.9,0-1.9,0.1-2.9h-2.2c0,0.4-0.1,0.8-0.2,1.2c-0.1,0.4-0.3,0.8-0.5,1.2
			c-0.3,0.4-0.6,0.8-1,1.1c-0.7,0.5-1.4,0.9-2.1,1.2l-0.1-0.1c0.3-0.3,0.7-0.6,1-0.9c0.7-0.8,1.1-1.8,1.3-2.8
			c0.1-0.4,0.1-0.7,0.1-1.1c0-0.3,0.1-0.6,0.1-1l0-0.7h-2.5v-0.7h8.7v0.7h-4.6L174.8,151.8z M174.2,148.2c0.5,0,1.5,0,1.8,0.3
			c0.1,0.1,0.3,0.3,0.3,0.7c0,0.3-0.4,0.6-0.6,0.6c-0.3,0-0.7-0.1-0.8-0.3c-0.1-0.1-0.1-0.3-0.1-0.4c-0.1-0.3-0.3-0.6-0.6-0.7
			L174.2,148.2z"/>
		<path class="grey" d="M185.4,149.6v-1.3h1.4l0,1.3h2.7v0.7h-2.7c0,1.5,0,3.5,0.8,4.9c0.1,0.2,0.4,0.7,0.7,0.7c0.2,0,0.6-1.2,0.7-1.4
			l0.2,0c-0.1,0.3-0.1,0.6-0.1,0.9c0,0.5,0.5,0.5,0.5,0.7c0,0.1-0.1,0.4-0.1,0.4c-0.2,0.4-0.5,0.8-1,0.8c-0.4,0-0.8-0.2-1.1-0.5
			c-0.4-0.3-0.7-0.6-0.9-1.1c-0.9-1.7-0.9-3.6-1-5.5h-4.7v-0.7H185.4z M181,152l0-0.7h4v0.7h-1.3v2.5c0.5-0.3,0.9-0.5,1.4-0.8
			l0.1,0.1c-0.2,0.2-0.4,0.4-0.5,0.6c-0.2,0.3-0.5,0.5-0.7,0.8c-0.8,0.8-1.7,1.3-2.7,1.8l-0.5-1.4c0.5-0.1,1.1-0.3,1.6-0.4V152H181z
			M187,148.4c0.5-0.2,0.9-0.1,1.3,0c0.4,0,0.8,0.3,0.8,0.7c0,0.3-0.3,0.4-0.5,0.4c-0.6,0-0.7-0.5-1.1-0.8
			C187.3,148.7,187.2,148.6,187,148.4L187,148.4z"/>
		<path class="grey" d="M192.3,149.6c-0.3-0.2-0.3-0.3-0.4-0.7c-0.1-0.2-0.2-0.3-0.3-0.5l0-0.1c0.4,0,0.9-0.2,1.2,0
			c0.3,0.1,0.5,0.5,0.5,0.7c0,0.3-0.2,0.4-0.4,0.5h1.3v0.6h-3.6v-0.6H192.3z M190.9,152.7v-0.6h3v0.6H190.9z M192.1,153.3v0.2h0.7
			l0.4-0.4l1.1,0.3l-0.3,0.4v3h-1.1v-0.3h-0.8v0.5H191v-3.6H192.1z M193.7,150.8v0.6H191v-0.6H193.7z M192.9,155.8v-1.7h-0.8v1.7
			H192.9z M195.1,152.8h1.4v-2.1h-1.7V150h4.7v0.7h-1.8v2.1h1.5v0.6h-1.5v2.9h2l0,0.6h-5.4v-0.6h2.3v-2.9h-1.4V152.8z M195.9,148.2
			c0.4,0,0.8,0,1.2,0.1c0.2,0.1,0.5,0.2,0.6,0.5c0.1,0.1,0.2,0.3,0.2,0.5c0,0.4-0.5,0.5-0.8,0.5c-0.8,0-0.7-0.6-1-1.1
			C196,148.6,195.9,148.4,195.9,148.2L195.9,148.2z"/>
		<path class="grey" d="M208.7,152.2v4.1c0,0.2,0,0.4-0.1,0.6c-0.2,0.3-1,0.3-1.4,0.3c0,0-0.2,0-0.2,0c-0.2-0.2,0.2-0.6-0.9-0.8l0-0.1
			c0.3,0,0.6,0,0.9,0c0.2,0,0.4,0,0.4-0.3v-3.8h-0.6c0,1.3,0,2.6,0,3.9h-1.3c0-1.2,0-2.7,0-3.9h-0.6c0,1.4,0,2,0,4
			c-0.4,0-1.1,0-1.3,0l0-4h-0.7c0,0.4,0,0.8,0,1.2c0,0.8,0,1.7-0.5,2.5c-0.3,0.4-0.8,1-1.2,1.3l-0.1-0.1c0.1-0.2,0.1-0.4,0.2-0.5
			c0.3-0.9,0.3-2.7,0.3-3.7v-0.7h-0.8v-0.7h0.8v-3.2h1.2v0.3c1.6,0,2.9,0,4.5,0l0.4-0.4l1.4,0.3l-0.4,0.4v2.6h0.8v0.7H208.7z
			M203.5,149.3h-0.7v2.2h0.7V149.3z M205.4,149.3h-0.6v2.3h0.6V149.3z M207.4,149.3h-0.6v2.3h0.6V149.3z"/>
		<path class="grey" d="M210.4,149c1.7,1.1,3,2.9,2.9,5c-0.1,2-1.2,3.7-2.9,4.8l-0.1-0.1c0.9-1.5,1.6-3,1.6-4.7c0-1.8-0.6-3.5-1.7-4.8
			L210.4,149z"/>
	</g>
	<g>
		<path class="word" d="M174.6,46.1c-0.4,0.4-0.8,0.8-1.1,1.2c4.5,2.3,8.7,3.5,13.8,3.5l0,0.4c-1.6,0.4-2.2,1-2.2,2.7
			c0,0.4,0.1,0.8,0.2,1.2l-0.2,0.2c-2.5-0.5-4.9-1.2-7.2-2.3v0.9h-15.1v-1.1c-2.6,0.8-5.3,1.4-8,1.9l-0.1-0.3
			c2.9-1.3,6.2-2.7,8.6-4.8c1.3-1,2.6-2.2,3.7-3.5H174.6z M157.8,55.1h5.2v0.5h15l1.6-1.3l5.4,1.4l-1.5,1.3v9h-3.2l3.4,0.9l-1.8,1.2
			v10.6h-5.3v-1.4h-11.9v1.4h-5.3V66.3h5.3v0.5h11.7l1.9-1.3v-0.6H163v1h-5.2V55.1z M168.5,62.6v-4.7H163v4.7H168.5z M163.3,58.6
			c1.1,0.1,3.5,0.3,4.2,1.2c0.3,0.3,0.5,0.7,0.5,1.2c0,0.8-0.6,1.3-1.4,1.3c-1.5,0-1.6-1.2-2.1-2.3c-0.3-0.6-0.9-0.9-1.5-1.2
			L163.3,58.6z M176.6,70.8v-1.7h-11.9v1.7H176.6z M176.6,73.1h-11.9v1.9h11.9V73.1z M175.9,51.6c-1.4-0.8-2.6-2.2-3.7-3.3
			c-2.1,1.4-3.9,2.3-6.2,3.3H175.9z M178.2,59.4v-1.4h-5.7v4.7h0.3c0.9-1.4,1.7-2.6,2.2-4.2L178.2,59.4z M178.2,62.6v-2.9
			c-1.4,1.1-2.8,2-4.3,2.9H178.2z"/>
		<path class="word" d="M190.9,78.9l-0.1-0.4c3.6-1.5,6.7-3.1,9.1-6.3l7.8-0.1C203.6,76.6,196.9,78.5,190.9,78.9z M199.6,56.8v0.5
			h14.6l1.7-1.3h-3.5v-1.2h-10.3v1.5h-5.3v-10h5.3v1.3h10.2l1.9-1.9l5.7,1.7l-2.1,1.2V56h-1.3l4.9,0.9l-1.7,1.4v13.9h-5.1v-1.4h-14.8
			V72h-5.1V56.8H199.6z M214.4,61.1v-1.7h-14.8v1.7H214.4z M214.4,64.7v-1.5h-14.8v1.5H214.4z M214.4,68.8v-2h-14.8v2H214.4z
			M212.4,52.7v-3.1h-10.3v3.1H212.4z M209.6,72.4c2.5,0.2,4.9,0.2,7.4,0.6c1.7,0.3,5,1.2,5,3.4c0,1.3-0.9,2.7-2.2,2.3
			c-3.1-0.7-4-2.3-6.3-4.1c-1.2-0.9-2.7-1.4-4.1-1.9L209.6,72.4z"/>
		<path class="word" d="M228.7,76.5c2.3-2.1,3.9-4.8,5.6-7.3c-1.8-1.2-3.6-2-5.7-2.7c0.8-2.8,1.3-5.6,1.7-8.5c0.1-0.8,0.3-1.6,0.3-2.4
			c0.1-1,0.1-2.1,0.2-3.1h-3.2v-2.5h3.4c0-1.2,0-2.4,0.1-3.6h5.3c-0.1,1.2-0.1,2.4-0.2,3.6h1.8l1.2-1.5l4.8,1l-1.4,1.5
			c-0.1,3.4-0.1,7.1-0.9,10.4c-0.2,0.9-0.5,1.9-0.8,2.8c-0.2,0.6-0.4,1.2-0.6,1.8c-0.3,0.8-0.7,1.6-1.1,2.3c1.4,0.8,4.6,2.7,4.6,4.5
			c0,1.1-1.3,1.9-2.3,1.9c-2.2,0-3.1-2.1-4.6-3.5c-3.3,3.5-5.1,4.9-9.6,6.8l-0.3-0.3C227.7,77.4,228.2,76.9,228.7,76.5z M235.4,66.6
			c1.3-3.3,2-6.5,2.3-10c0.1-1,0.1-2,0.1-3c0-0.4,0-0.8,0-1.2h-2c-0.3,2.8-0.6,5.5-1.1,8.3c-0.3,1.8-0.8,3.5-1.3,5.3
			C234,66.2,234.7,66.4,235.4,66.6z M242.5,62v-2.6h5.7v-4.6h1.5c0.2-0.4,0.4-0.9,0.6-1.3c0.5-1,0.8-2.2,1.1-3.3H244v-2.5h8.1
			l1.3-1.4l6.2,1.4c-0.5,0.4-1,0.8-1.5,1.2c0,0-0.7,0.9-0.8,1c-0.6,0.7-1.2,1.4-1.8,2c-1.1,1.1-2.3,2.1-3.6,2.9h1.6v4.6h5.7V62h-5.7
			v13.6c0,0.9-0.2,1.7-0.9,2.2c-1,0.6-3.8,0.8-5,0.8c-0.3,0-1.2,0-1.4-0.1c-0.3-0.2-0.3-1.3-0.4-1.7c-0.3-1.1-2.4-1.4-3.3-1.5v-0.4
			c1.1,0,2.2,0,3.3,0c0.6,0,2.4,0.2,2.4-0.8V62H242.5z"/>
		<path class="word" d="M269.8,49v1h8.2c-1.1-0.9-1-1.1-1.3-2.4c-0.1-0.4-0.7-1.1-1-1.4l0.1-0.3c2.4-0.4,4-0.3,6,0.5
			c0.6,0.3,1.4,1,1.4,1.8c0,1-0.2,1.1-0.9,1.8h12.2v2.4h-24.7l-0.1,6.2h7.9l0-1.4h-6.4l0-2.3h6.4l0-1.8h5.1V55h4l1.6-1.4l5.1,1.2
			l-1.6,1.4v2.5l2.6,0v2.3h-2.6v4.6h-5.1v-0.9h-4v10.5c0,2.8-1.8,3.1-4.1,3.4c-0.4,0.1-0.9,0.1-1.3,0.1c-0.3,0-1.2,0-1.3-0.3
			c-0.1-0.1-0.1-0.3-0.1-0.4c0-0.3,0-0.5-0.1-0.7c-0.1-1.1-1.9-1.4-2.8-1.6l0-0.5c1,0.1,2,0.2,3,0.2c1.1,0,1.5-0.2,1.5-1.3v-3.1
			c-2.5,2.7-4,3.7-7.4,5.2l-1.2-3.6c3-0.8,5.8-1.8,8.6-3.2l0-4.7h-6.5v-2.2l6.5,0v-1.4h-7.9c-0.3,8.1,0.1,11.3-6.5,17.1l-0.5-0.2
			c0.4-0.9,0.8-1.9,1.2-2.9c0.6-1.9,0.9-4,0.9-6c0-2.6,0.1-5.1,0.1-7.7V49H269.8z M270.3,65c1.4,0.1,4.6,0.4,5.7,1.4
			c0.4,0.4,0.7,0.8,0.7,1.4c0,0.9-0.7,1.7-1.7,1.7c-1.2,0-1.9-0.1-2.6-1.2c-0.3-0.6-0.6-1.2-1-1.8c-0.2-0.4-0.9-1-1.3-1.3L270.3,65z
			M286.7,58.6v-1.4h-4v1.4H286.7z M286.7,62.4v-1.5h-4v1.5H286.7z M286.1,68.7c0.5-0.8,0.9-1.6,1.3-2.4l4.9,0.6
			c-0.8,0.9-2.2,2.3-3.2,2.8l-1.3,0.6c2.3,1.9,3.7,2.6,6.7,3.1v0.3c-1.2,0.4-2,1-2,2.4c0,0.6,0.3,1.2,0.5,1.7l-0.3,0.2
			c-2.3-0.9-5.4-2.2-7-4.2c-0.9-1.1-1.8-2.5-2.1-3.9c-0.3-1.5-0.3-3.1-0.3-4.6h1.3C284.9,66.6,285.5,67.6,286.1,68.7z"/>
	</g>
	<g>
		<path class="yellow" d="M9,99c-0.6-0.4-0.6-0.6-0.8-1.4c-0.2-0.5-0.3-0.6-0.7-1l0.1-0.1c0.8,0,1.9-0.4,2.6,0c0.6,0.3,1,1.1,1,1.5
			c0,0.6-0.4,0.8-0.8,1.1h2.8v1.3H5.6V99H9z M6,105.6v-1.3h6.3v1.3H6z M8.7,106.8v0.5h1.5l0.8-0.9l2.2,0.7l-0.7,0.8v6.3h-2.3v-0.7
			H8.7v1H6.2v-7.6H8.7z M11.9,101.6v1.3H6.3v-1.3H11.9z M10.3,112.1v-3.5H8.7v3.5H10.3z M14.8,105.7h2.9v-4.3h-3.6v-1.4H24v1.4h-3.9
			v4.3h3.1v1.4h-3.1v6h4.3l0,1.3H13V113h4.7v-6h-2.9V105.7z M16.5,96.2c0.8,0.1,1.7,0.1,2.6,0.3c0.5,0.1,1,0.5,1.3,1
			c0.2,0.3,0.3,0.7,0.3,1c0,0.8-1,1.1-1.7,1.1c-1.7,0-1.5-1.3-2-2.4c-0.1-0.3-0.4-0.6-0.7-0.9L16.5,96.2z"/>
		<path class="yellow" d="M43.6,104.5v8.6c0,0.4,0,0.9-0.3,1.2c-0.5,0.6-2.2,0.7-2.9,0.7c-0.1,0-0.4,0-0.5-0.1c-0.4-0.3,0.3-1.3-1.9-1.6
			L38,113c0.6,0,1.2,0.1,1.8,0.1c0.4,0,0.9-0.1,0.9-0.6v-7.9h-1.3c0,2.7,0,5.4,0,8.1h-2.8c0-2.6,0-5.6,0-8.1h-1.3c0,2.9,0,4.3,0,8.3
			c-0.7,0-2.4,0-2.8,0l0-8.3h-1.4c0,0.8,0,1.7,0,2.5c0,1.8,0.1,3.7-1,5.2c-0.7,0.9-1.6,2-2.5,2.7l-0.3-0.1c0.2-0.4,0.3-0.7,0.5-1.1
			c0.7-1.9,0.7-5.6,0.7-7.7v-1.5h-1.7v-1.5h1.7v-6.7h2.6v0.7c3.3,0,6,0,9.6,0l0.8-0.9l3,0.7l-0.9,0.8v5.4h1.6v1.5H43.6z M32.5,98.4
			h-1.4v4.7h1.4V98.4z M36.6,98.3h-1.3v4.8h1.3V98.3z M40.8,98.3h-1.3v4.8h1.3V98.3z"/>
		<path class="yellow" d="M47.7,104.7v-1.4h1.7v-1.8h-1.7v-1.4h1.7v-1.9h-1.6V97h5.9l0.8-0.8l3.1,0.7l-0.9,0.7l0,2.6h0.6v1.4h-0.6v3.8
			h-2.8v-0.7H52c-0.3,0.7-0.4,0.9-0.9,1.6h1.2v0.6h1.5l0.7-0.8l3.2,0.6l-1,0.8l0,6.9h-2.8v-1.1h-1.6v1.1h-3v-6.7
			c-0.5,0.3-1,0.6-1.6,0.9l-0.2-0.2c1-1.3,1.5-2.1,1.8-3.7H47.7z M53.8,100.2v-1.9h-1.6v1.9H53.8z M53.8,103.4v-1.8h-1.6v1.8H53.8z
			M53.8,112v-3.7h-1.6v3.7H53.8z M60,109.5v-3.3h-2.2v-1.3H60v-3.1h-2.4v-1.4h3.9c0.6-1.3,1.1-2.5,1.3-3.9h3.5c-1,2-1.7,2.5-3.3,3.9
			h3v1.4h-2.9v3.1h2.6v1.3h-2.6v3.3H66v1.4h-2.9v4.2H60v-4.2h-2.9v-1.4H60z M57.4,96.3c0.7,0.2,2.3,0.5,3.2,1.1
			c0.5,0.4,0.9,0.8,0.9,1.4c0,0.7-0.7,1.2-1.3,1.1c-0.6,0-1.1-0.5-1.3-1c-0.2-0.8-0.5-1.7-1.6-2.3L57.4,96.3z"/>
		<path class="yellow" d="M74.8,106.1c0.3-0.3,0.4-0.5,0.6-0.9h4.1c-0.3,0.3-0.5,0.6-0.8,0.9h8.6v1.2h-7.4c2.3,1.2,4.8,1.3,7.3,1.3
			l0,0.2c-0.9,0.3-1.6,1-1,1.9l-0.1,0.1c-0.9-0.1-1.8-0.2-2.7-0.4c-0.1,0.8,0,2.5-0.4,3.1c-0.2,0.3-0.7,0.7-1.1,0.8
			c-0.9,0.5-1.8,0.5-2.8,0.5c-0.1,0-0.4,0-0.5,0c-0.1-0.1-0.2-0.4-0.2-0.5c-0.3-0.8-1.4-1.1-2.1-1.2l0-0.3c0.9,0.1,1.8,0.1,2.8,0.1
			c0.8,0,1.1-0.1,1.1-1v-0.9h-3c-0.4,0.5-0.8,1-1.2,1.4c-1.6,1.6-5.1,2.3-7.2,2.5l-0.1-0.3c2.2-0.5,4.2-1.7,5.4-3.6h-3.2V110h3.8
			c0.1-0.5,0.2-0.8,0.2-1.3h3.5c-0.1,0.4-0.3,0.9-0.4,1.3H80l0.9-0.7c-1-0.6-1.7-1.2-2.4-2.1h-1.2c-2.8,2-5.3,2.5-8.7,3l-0.1-0.2
			c1.7-0.5,3.8-1.5,5.2-2.8h-5.2v-1.2H74.8z M68.5,97.5H72v-1.2h3.1v1.2h5.5v-1.2h3.1v1.2H87v1.2h-3.3v0.8h-3.1v-0.8h-5.5v0.8H72
			v-0.8h-3.5V97.5z M70.8,99.8h3v0.5h7.7l0.8-0.7l3.2,0.4l-0.8,0.8v4.6h-3v-0.5h-7.8v0.5h-3.1L70.8,99.8z M81.6,102.1v-0.8h-7.8v0.8
			H81.6z M81.6,103.8v-0.7h-7.8v0.7H81.6z"/>
		<path class="yellow" d="M94.7,109.3l3.9,0.1c-0.4,0.5-0.7,1-1.1,1.5c-1.3,1.7-5.4,3.6-7.5,4.2l-0.1-0.3
			C91.9,113.3,93.6,111.6,94.7,109.3z M103.2,97.2l0.9-1.1L107,97l-0.7,0.9v11.4l-3.1,0v-0.7h-8.7v0.7h-3V96.6h3v0.6H103.2z
			M103.2,100.4v-1.8h-8.7v1.8H103.2z M103.2,103.8v-2.1h-8.7v2.1H103.2z M103.2,107.4v-2.2h-8.7v2.2H103.2z M100.8,109.5
			c1.6,0.4,3.1,0.9,4.6,1.6c0.7,0.3,2.1,1,2.1,2c0,1.1-0.3,1.8-1.5,1.8c-0.4,0-0.8-0.1-1.1-0.3c-0.6-0.4-1-1.6-1.5-2.2
			c-0.5-0.6-1.6-1.9-2.2-2.4l-0.5-0.4L100.8,109.5z"/>
		<path class="yellow" d="M117.1,108.8c-0.3,0.6-0.6,1.2-0.9,1.7c-1,1.9-3.3,3.3-5.2,4.2l-0.2-0.1c0.9-1.4,2.2-3.4,2.5-5.1l0.1-0.7
			H117.1z M115.4,105.3h-3v-9l3,0l0,0.9h8.3l1-1l3.4,0.7l-1,0.9v7.5h-3.2l0-0.7l-2.7,0v1.8h7.8v1.4l-7.8,0v7.3H118v-7.3h-7.3v-1.4
			h7.3v-1.8h-2.6V105.3z M118.1,100.2v-1.7h-2.7v1.7H118.1z M118,103.2v-1.7h-2.6v1.7L118,103.2z M123.9,100.2v-1.7h-2.7v1.7H123.9z
			M123.9,103.2v-1.7h-2.7v1.7H123.9z M129.2,112.2c-0.6,0.2-1.4,0.6-1.4,1.3c0,0.3,0.1,0.7,0.3,1l-0.2,0.1c-1.4-0.6-3.5-1.6-4.2-3
			c-0.7-1.3-0.9-2-1.2-3.4l0.7-0.1c0.4,0.5,0.8,1,1.2,1.4c0.5,0.4,1.1,0.8,1.7,1.2c0.9,0.6,2,0.9,3.1,1.1L129.2,112.2z"/>
		<path class="yellow" d="M143,96.1c-0.2,0.2-0.4,0.5-0.7,0.7c2.6,1.3,5.1,2,8,2l0,0.3c-0.9,0.2-1.3,0.6-1.3,1.6c0,0.2,0,0.5,0.1,0.7
			l-0.1,0.1c-1.4-0.3-2.9-0.7-4.2-1.4v0.5h-8.8V100c-1.5,0.4-3.1,0.8-4.6,1.1l0-0.2c1.7-0.7,3.6-1.6,5-2.8c0.8-0.6,1.5-1.3,2.1-2H143
			z M133.2,101.4h3v0.3h8.8l0.9-0.8l3.1,0.8l-0.9,0.8v5.2h-1.8l2,0.5l-1,0.7v6.2h-3.1v-0.8h-6.9v0.8h-3.1v-7.2h3.1v0.3h6.8l1.1-0.8
			v-0.4h-8.9v0.6h-3V101.4z M139.5,105.7V103h-3.2v2.7H139.5z M136.4,103.4c0.7,0.1,2,0.2,2.5,0.7c0.1,0.2,0.3,0.4,0.3,0.7
			c0,0.4-0.4,0.8-0.8,0.8c-0.9,0-0.9-0.7-1.2-1.3c-0.2-0.4-0.5-0.5-0.9-0.7L136.4,103.4z M144.2,110.5v-1h-6.9v1H144.2z M144.2,111.9
			h-6.9v1.1h6.9V111.9z M143.8,99.3c-0.8-0.5-1.5-1.3-2.1-1.9c-1.2,0.8-2.3,1.3-3.6,1.9H143.8z M145.1,103.9V103h-3.3v2.7h0.2
			c0.5-0.8,1-1.5,1.3-2.5L145.1,103.9z M145.1,105.7v-1.7c-0.8,0.7-1.6,1.2-2.5,1.7H145.1z"/>
		<path class="yellow" d="M152.5,115.3l-0.1-0.2c2.1-0.9,3.9-1.8,5.3-3.7l4.6,0C159.9,113.9,156,115,152.5,115.3z M157.6,102.3v0.3h8.5
			l1-0.8h-2.1v-0.7h-6v0.9H156v-5.8h3.1V97h5.9l1.1-1.1l3.3,1l-1.2,0.7v4.4h-0.8l2.8,0.5l-1,0.8v8.1h-3v-0.8h-8.6v0.7h-3v-8.9H157.6z
			M166.2,104.8v-1h-8.6v1H166.2z M166.2,106.9v-0.9h-8.6v0.9H166.2z M166.2,109.3v-1.2h-8.6v1.2H166.2z M165.1,100v-1.8h-6v1.8
			H165.1z M163.4,111.5c1.4,0.1,2.9,0.1,4.3,0.4c1,0.2,2.9,0.7,2.9,2c0,0.8-0.5,1.6-1.3,1.4c-1.8-0.4-2.4-1.4-3.7-2.4
			c-0.7-0.5-1.6-0.8-2.4-1.1L163.4,111.5z"/>
		<path class="yellow" d="M176.1,98.7v-2.5h2.9v2.5h1.4v1.4H179v3c0.5-0.3,1-0.6,1.4-0.9l0.3,0.2c-0.5,0.8-1,1.6-1.7,2.3v8.5
			c0,1.5-1.2,1.8-2.4,1.9c-0.4,0-0.8,0-1.1,0c-0.3,0-0.1-0.8-0.5-1.2c-0.4-0.4-0.8-0.4-1.3-0.6l0.1-0.3c0.5,0,1.1,0.1,1.6,0.1
			c0.5,0,0.8,0,0.8-0.6v-5.6c-0.6,0.4-1.3,0.9-2,1.2l-0.5-2.6c0.8-0.3,1.7-0.6,2.5-1v-4.3h-2.2v-1.4H176.1z M180.9,98.8h2.7v0.9h1.1
			v-3.4h2.8v3.4h1.2l0.8-0.8l2.8,0.7l-0.8,0.9v14.7h-2.8v-1.5h-5.1v1.5h-2.7V98.8z M184.7,105.5v-4.4h-1.1v4.4H184.7z M184.7,112.1
			v-5.3h-1.1v5.3H184.7z M188.7,105.5v-4.4h-1.2v4.4H188.7z M188.7,112.1v-5.3h-1.2v5.3H188.7z"/>
		<path class="yellow" d="M202.2,107.2V100c0-0.9-0.1-1.5-0.2-1.8c-0.1-0.3-0.5-0.5-1-0.6c-0.8-0.2-1.2-0.6-1.2-1.2
			c0-0.4,0.2-0.7,0.5-0.9s0.8-0.3,1.5-0.3c0.2,0,0.8,0,1.6,0h0.8c1.5,0,2.4,0,2.7,0s1.2-0.1,2.8-0.2c0.5-0.1,1-0.1,1.4-0.1
			c1.5,0,2.8,0.3,4,0.9c2,1.1,3,2.7,3,5c0,1.9-0.7,3.3-2.1,4.5c-1.3,1-3,1.6-4.9,1.6c-0.5,0-1.1,0-1.8-0.1c-0.4,0-0.6,0-0.7,0
			c-0.3,0-0.4,0.2-0.4,0.5v0.1l0.1,2.2c0,0.4,0.1,0.8,0.2,1c0.1,0.2,0.4,0.4,0.9,0.7c0.6,0.3,0.9,0.7,0.9,1c0,0.6-0.4,1-1.3,1.3
			s-2.1,0.5-3.7,0.5c-3.4,0-5.1-0.6-5.1-1.7c0-0.3,0.1-0.5,0.2-0.6c0.1-0.1,0.5-0.4,1-0.6c0.3-0.2,0.5-0.4,0.6-0.7
			C202.2,109.8,202.2,108.8,202.2,107.2z M208.4,98.2v4.6c0,0.4,0.1,0.6,0.2,0.6c0.3,0.1,0.6,0.2,1,0.2c0.6,0,1.1-0.2,1.5-0.5
			c0.6-0.5,0.9-1.3,0.9-2.4c0-1.2-0.3-2-1-2.6c-0.4-0.3-1-0.5-1.6-0.5C208.7,97.7,208.4,97.9,208.4,98.2z"/>
		<path class="yellow" d="M227.3,94.6c0.9,0,2.2,0.2,3.7,0.7c0.2,0.1,0.3,0.1,0.4,0.1c0.1,0,0.4-0.1,0.8-0.2c0.1-0.1,0.3-0.1,0.5-0.1
			c0.6,0,1.3,0.5,1.9,1.4c0.7,1,1,1.9,1,2.8c0,0.5-0.2,0.9-0.5,1.3c-0.3,0.4-0.7,0.5-1.1,0.5c-0.4,0-0.7-0.1-0.9-0.2
			c-0.2-0.1-0.7-0.6-1.5-1.3c-1.1-1-2.2-1.5-3.2-1.5c-0.5,0-0.9,0.1-1.2,0.4s-0.5,0.6-0.5,1c0,0.8,0.7,1.4,2.1,1.8
			c1.9,0.6,3.1,1,3.6,1.2c2.3,1.1,3.5,2.8,3.5,5c0,1.9-0.8,3.5-2.4,4.8c-1.6,1.3-3.7,1.9-6.4,1.9c-1.2,0-2.4-0.1-3.7-0.4
			s-2.2-0.6-2.8-1c-0.4-0.3-0.8-0.9-1.2-1.9c-0.4-1-0.5-1.9-0.5-2.9c0-0.4,0.1-0.8,0.3-1c0.2-0.3,0.5-0.4,0.9-0.4s0.7,0.2,1,0.5
			c0.2,0.2,0.6,0.8,1.4,1.9c0.3,0.5,0.9,0.9,1.6,1.3c0.7,0.3,1.5,0.5,2.3,0.5c0.7,0,1.2-0.1,1.6-0.4c0.4-0.3,0.6-0.6,0.6-1
			c0-0.4-0.2-0.7-0.5-0.9c-0.3-0.3-0.9-0.5-1.6-0.7c-1.3-0.4-2.3-0.8-3-1.1s-1.3-0.8-1.9-1.3c-1.4-1.3-2.2-2.7-2.2-4.3
			c0-0.8,0.2-1.6,0.6-2.3c0.4-0.8,0.9-1.4,1.6-2C223.3,95.2,225.1,94.6,227.3,94.6z"/>
		<path class="yellow" d="M250.9,98.3v9.4c0,0.3,0,0.5,0.1,0.6c0.1,0.1,0.2,0.2,0.4,0.2h0.6c0.4,0,0.7,0.3,0.7,0.8v2.8
			c0,0.5-0.2,0.8-0.7,0.8c-0.3,0-0.5,0.1-0.6,0.2s-0.1,0.3-0.1,0.6v1.6c0,0.6-0.2,0.9-0.8,0.9h-4.7c-0.3,0-0.5-0.1-0.6-0.2
			c-0.1-0.1-0.2-0.4-0.2-0.7v-1.4c0-0.4-0.1-0.6-0.2-0.8s-0.4-0.2-0.8-0.2h-5.3c-0.6,0-1.1-0.1-1.3-0.4c-0.3-0.3-0.4-0.7-0.4-1.4
			c0-0.9,0.1-1.6,0.3-2.1c0.3-0.6,1-1.6,2.2-3.1l3.5-4.2c1.7-2.1,3-3.4,3.9-4c0.4-0.3,0.8-0.5,1.4-0.6s1-0.2,1.5-0.2
			c0.5,0,0.8,0.1,1,0.3C250.8,97.4,250.9,97.8,250.9,98.3z M245.2,105.4v-0.7c0-0.8-0.2-1.2-0.7-1.2c-0.3,0-0.7,0.2-1,0.6l-2.1,2.6
			c-0.6,0.8-0.9,1.3-0.9,1.6c0,0.2,0.1,0.4,0.4,0.5s0.9,0.1,1.9,0.1l1.1,0c0.5,0,0.8-0.1,0.9-0.2c0.2-0.1,0.3-0.3,0.3-0.6
			C245.1,107.6,245.2,106.7,245.2,105.4z"/>
		<path class="yellow" d="M260.6,100c0.6,0,0.9,0,1,0.1s0.2,0.3,0.2,0.7c0,0.3,0.1,0.5,0.3,0.5c0.1,0,0.4-0.2,0.9-0.5
			c0.4-0.3,0.9-0.5,1.5-0.7s1.2-0.3,1.6-0.3c1.2,0,2.2,0.4,3.1,1.2c0.7,0.6,1.2,1.4,1.6,2.3c0.4,1,0.6,2,0.6,3.1
			c0,2.3-0.8,4.2-2.3,5.7c-1.2,1.2-2.6,1.7-4.1,1.7c-0.8,0-1.6-0.2-2.4-0.5c-0.2-0.1-0.3-0.1-0.4-0.1c-0.3,0-0.4,0.3-0.4,0.8
			c0,0.7,0.2,1.2,0.7,1.6c0.4,0.3,0.7,0.5,0.8,0.6c0.1,0.1,0.1,0.3,0.1,0.5c0,0.5-0.3,1-0.9,1.3c-0.6,0.3-1.5,0.4-2.6,0.4
			c-2,0-3.7-0.4-5.2-1.2c-0.8-0.4-1.1-0.9-1.1-1.5c0-0.3,0.1-0.5,0.2-0.6c0.1-0.1,0.3-0.3,0.7-0.4c0.5-0.2,0.8-0.6,0.9-1.2
			s0.2-2.2,0.2-4.9c-0.1-2.2-0.1-3.5-0.2-3.8c0-0.1-0.1-0.2-0.2-0.2s-0.3-0.1-0.7-0.2c-0.3-0.1-0.5-0.2-0.7-0.4
			c-0.2-0.2-0.3-0.5-0.3-0.8c0-0.4,0.1-0.7,0.4-1c0.3-0.3,0.7-0.5,1.2-0.8C257.5,100.6,259.3,100.1,260.6,100z M262,105.2l-0.2,3.8
			c0,0.2,0,0.3,0,0.5c0,0.3,0.1,0.5,0.4,0.7c0.2,0.2,0.6,0.3,1,0.3c1.3,0,1.9-1,1.9-3.1c0-1.3-0.3-2.3-0.8-2.8
			c-0.3-0.3-0.7-0.5-1.2-0.5C262.4,103.9,262,104.4,262,105.2z"/>
		<path class="yellow" d="M278.9,100.1c0.5,0,0.8,0.1,0.9,0.2s0.2,0.6,0.3,1.3c0,0.4,0.2,0.6,0.4,0.6c0.2,0,0.4-0.1,0.5-0.4
			c0.7-1.1,1.7-1.7,2.9-1.7c0.8,0,1.5,0.3,2,0.8c0.3,0.3,0.5,0.6,0.6,1c0.2,0.4,0.2,0.8,0.2,1.2c0,0.4-0.1,0.9-0.3,1.3
			s-0.5,0.8-0.8,1.1c-0.6,0.6-1.3,0.8-2.1,0.8c-0.5,0-0.9-0.1-1.2-0.2s-0.7-0.5-1.2-1c-0.2-0.2-0.4-0.3-0.5-0.3
			c-0.3,0-0.4,0.1-0.5,0.4s-0.1,0.9-0.1,1.8c0,1.4,0,2.3,0.2,2.8c0.1,0.3,0.2,0.5,0.3,0.6c0.1,0.1,0.4,0.2,0.7,0.3
			c0.8,0.2,1.2,0.7,1.2,1.3c0,0.4-0.1,0.7-0.4,1c-0.3,0.3-0.6,0.5-1.1,0.6c-0.9,0.2-2.2,0.3-3.9,0.3c-1.6,0-2.8-0.1-3.7-0.4
			c-0.7-0.3-1.1-0.7-1.1-1.3c0-0.5,0.3-0.9,0.8-1.3c0.3-0.2,0.4-0.3,0.5-0.5c0.1-0.1,0.2-0.3,0.2-0.6c0.1-0.8,0.2-2.4,0.2-4.6
			c0-0.4,0-0.7-0.1-0.9s-0.3-0.3-0.5-0.4c-0.6-0.3-1-0.6-1-1.1c0-0.4,0.2-0.8,0.7-1.1s1.2-0.6,2.2-0.9
			C276.8,100.3,278,100.1,278.9,100.1z"/>
		<path class="yellow" d="M295.6,100c1.7,0,3.1,0.4,4.4,1.3c0.9,0.6,1.6,1.4,2.2,2.4c0.6,1,0.8,2.1,0.8,3.3c0,2-0.9,3.7-2.7,5
			c-1.7,1.3-3.7,2-5.9,2c-2.2,0-3.9-0.6-5.3-1.9c-1.3-1.2-2-2.8-2-4.7c0-2.2,0.8-3.9,2.4-5.3C291.2,100.7,293.2,100,295.6,100z
			M294.5,103.1c-0.4,0-0.7,0.1-1,0.4c-0.2,0.3-0.4,0.7-0.4,1.2c0,0.5,0.1,1.3,0.3,2.2s0.4,1.8,0.7,2.5c0.3,0.7,0.7,1.1,1.4,1.1
			c0.8,0,1.2-0.5,1.2-1.5c0-0.8-0.1-1.6-0.3-2.6c-0.2-1-0.5-1.8-0.7-2.4C295.5,103.5,295.1,103.1,294.5,103.1z"/>
	</g>
	<g>
		<path class="word" d="M98.4,3c1.7,0,3.2,0.4,4.6,1.2c1.8,1,2.8,2.7,2.8,5c0,1.9-0.6,3.8-1.8,5.8c-1.3,2.3-2.9,4.1-4.7,5.4
			c-0.4,0.3-0.8,0.5-1.1,0.5c-0.5,0-1.2-0.2-2-0.7s-1.2-0.8-1.2-1.1c0-0.2,0.2-0.4,0.7-0.8c0.6-0.4,1.2-1,1.6-1.7
			c0.4-0.7,0.6-1.2,0.6-1.6c0-0.3-0.2-0.5-0.5-0.5c-0.1,0-0.4,0-0.9,0.1c-0.1,0-0.2,0-0.4,0c-1.4,0-2.4-0.4-3.3-1.2
			c-0.6-0.6-1.1-1.3-1.4-2.1S91,9.7,91,8.8C91,7,91.7,5.6,93,4.6C94.5,3.6,96.3,3,98.4,3z M98.2,6.7c-0.4,0-0.7,0.2-0.9,0.5
			s-0.4,0.7-0.4,1.1c0,0.9,0.2,1.6,0.6,2.3s0.9,0.9,1.5,0.9c0.3,0,0.6-0.1,0.8-0.4s0.3-0.6,0.3-1c0-0.5-0.1-1-0.3-1.6s-0.4-1-0.7-1.3
			C99,6.9,98.6,6.7,98.2,6.7z"/>
		<path class="word" d="M107.7,16l4.6-10.4c0.1-0.3,0.2-0.6,0.3-0.9c0.1-0.2,0.2-0.4,0.2-0.6c0.1-0.2,0.3-0.7,0.6-1.4
			c0.3-0.6,0.5-1.1,0.6-1.5c0.2-0.5,0.3-0.8,0.5-0.9S115,0,115.4,0c1.4,0,2.1,0.3,2.1,1c0,0.3-0.1,0.6-0.3,1c-1,1.9-1.7,3.4-2.2,4.5
			L110.4,17c-0.6,1.4-1.1,2.4-1.3,3c-0.4,1.1-0.7,1.8-0.9,2.1c-0.2,0.3-0.6,0.5-1.1,0.5c-0.6,0-1-0.1-1.4-0.3s-0.6-0.5-0.6-0.8
			c0-0.2,0-0.4,0.1-0.6s0.3-0.7,0.8-1.6C106.8,17.9,107.3,16.8,107.7,16z"/>
		<path class="word" d="M126.1,1.5c1.8,0,3.4,0.3,4.9,0.9c0.8,0.3,1.5,0.8,2,1.5c0.4,0.5,0.6,1,0.6,1.7c0,1-0.6,1.8-1.7,2.6
			c-0.3,0.2-0.5,0.4-0.5,0.5c0,0.1,0.2,0.3,0.6,0.6c0.6,0.4,1,0.9,1.3,1.5s0.5,1.2,0.5,1.9c0,1-0.4,1.9-1.1,2.9
			c-1.3,1.7-3.3,2.5-6,2.5c-1.9,0-3.6-0.3-5-1c-1-0.5-1.8-1.1-2.3-1.9c-0.4-0.6-0.6-1.3-0.6-2.1c0-1.1,0.5-2,1.5-2.7
			c0.4-0.3,0.6-0.5,0.6-0.6c0-0.1-0.2-0.3-0.5-0.6c-0.8-0.8-1.2-1.7-1.2-2.8c0-1.5,0.7-2.7,2.2-3.6C122.7,1.9,124.3,1.5,126.1,1.5z
			M123.7,11.4c-0.2,0-0.3,0.1-0.5,0.3s-0.2,0.4-0.2,0.7c0,0.3,0.1,0.7,0.3,1.1s0.4,0.7,0.6,1c0.6,0.6,1.4,0.9,2.2,0.9
			c0.5,0,0.9-0.1,1.2-0.3s0.5-0.5,0.5-0.9c0-0.4-0.1-0.8-0.4-1s-0.9-0.6-1.8-1.1C124.7,11.6,124,11.4,123.7,11.4z M126.7,3.9
			c-0.4,0-0.7,0.1-0.9,0.3s-0.4,0.4-0.4,0.7c0,0.4,0.3,0.9,0.9,1.3c0.7,0.5,1.2,0.8,1.7,0.8c0.2,0,0.4-0.1,0.6-0.4s0.3-0.6,0.3-1
			c0-0.5-0.2-0.9-0.6-1.1C127.8,4,127.3,3.9,126.7,3.9z"/>
		<path class="word" d="M139.2,12l-2.7-2.3c0.4-1,0.7-1.7,1.1-2.3c0.8-1.3,1.9-1.9,3.1-1.9c0.3,0,0.6,0,0.8,0.1s0.9,0.3,2,0.7
			c0.9,0.3,1.4,0.5,1.6,0.5c0.3,0,0.5-0.1,0.7-0.2s0.4-0.5,0.7-1l2.7,2.3c-0.3,0.9-0.6,1.5-0.9,1.9s-0.5,0.8-0.9,1.2
			c-0.7,0.7-1.5,1.1-2.4,1.1c-0.3,0-0.5,0-0.8-0.1s-1-0.3-2-0.7c-0.9-0.3-1.4-0.5-1.7-0.5C140.1,10.7,139.6,11.2,139.2,12z"/>
		<path class="word" d="M159.1,3c1.7,0,3.2,0.4,4.6,1.2c1.8,1,2.8,2.7,2.8,5c0,1.9-0.6,3.8-1.8,5.8c-1.3,2.3-2.9,4.1-4.7,5.4
			c-0.4,0.3-0.8,0.5-1.1,0.5c-0.5,0-1.2-0.2-2-0.7s-1.2-0.8-1.2-1.1c0-0.2,0.2-0.4,0.7-0.8c0.6-0.4,1.2-1,1.6-1.7
			c0.4-0.7,0.6-1.2,0.6-1.6c0-0.3-0.2-0.5-0.5-0.5c-0.1,0-0.4,0-0.9,0.1c-0.1,0-0.2,0-0.4,0c-1.4,0-2.4-0.4-3.3-1.2
			c-0.6-0.6-1.1-1.3-1.4-2.1s-0.5-1.7-0.5-2.6c0-1.8,0.7-3.2,2.1-4.2C155.3,3.6,157.1,3,159.1,3z M159,6.7c-0.4,0-0.7,0.2-0.9,0.5
			c-0.2,0.3-0.4,0.7-0.4,1.1c0,0.9,0.2,1.6,0.6,2.3c0.4,0.6,0.9,0.9,1.5,0.9c0.3,0,0.6-0.1,0.8-0.4s0.3-0.6,0.3-1
			c0-0.5-0.1-1-0.3-1.6c-0.2-0.6-0.4-1-0.7-1.3C159.8,6.9,159.4,6.7,159,6.7z"/>
		<path class="word" d="M168.5,16l4.6-10.4c0.1-0.3,0.2-0.6,0.3-0.9c0.1-0.2,0.2-0.4,0.2-0.6c0.1-0.2,0.3-0.7,0.6-1.4
			c0.3-0.6,0.5-1.1,0.6-1.5c0.2-0.5,0.3-0.8,0.5-0.9c0.2-0.2,0.5-0.2,0.8-0.2c1.4,0,2.1,0.3,2.1,1c0,0.3-0.1,0.6-0.3,1
			c-1,1.9-1.7,3.4-2.2,4.5L171.2,17c-0.6,1.4-1.1,2.4-1.3,3c-0.4,1.1-0.7,1.8-0.9,2.1c-0.2,0.3-0.6,0.5-1.1,0.5c-0.6,0-1-0.1-1.4-0.3
			c-0.4-0.2-0.6-0.5-0.6-0.8c0-0.2,0-0.4,0.1-0.6c0.1-0.2,0.3-0.7,0.8-1.6C167.6,17.9,168.1,16.8,168.5,16z"/>
		<path class="word" d="M189.3,17.6h-8.6c-0.8,0-1.1-0.2-1.1-0.6c0-0.2,0.1-0.4,0.2-0.6c0.2-0.2,0.7-0.7,1.6-1.5
			c1.6-1.5,2.8-3,3.6-4.3c0.4-0.7,0.6-1.3,0.6-1.8c0-0.4-0.1-0.8-0.4-1c-0.2-0.2-0.6-0.4-1-0.4c-0.4,0-0.7,0.1-0.9,0.2
			s-0.7,0.5-1.3,1c-0.2,0.2-0.4,0.2-0.7,0.2c-0.4,0-0.8-0.2-1.1-0.5c-0.3-0.3-0.5-0.6-0.5-1c0-0.3,0.2-0.7,0.5-1.1s0.7-0.8,1.2-1.2
			c1.8-1.3,3.9-2,6.1-2c1.7,0,3.1,0.3,4.2,1c0.5,0.3,0.9,0.7,1.2,1.2s0.5,1.1,0.5,1.7c0,1.5-1,3.1-3.1,4.8c-0.7,0.6-1.1,1.1-1.1,1.4
			c0,0.2,0.1,0.4,0.3,0.6c0.2,0.2,0.5,0.2,0.8,0.2c0.7,0,1.4-0.3,2-0.9c0.3-0.3,0.5-0.5,0.6-0.5c0.1-0.1,0.2-0.1,0.4-0.1
			c0.7,0,1.1,0.6,1.1,1.9c0,0.6-0.1,1.3-0.4,1.9s-0.6,1.2-1,1.7c-0.4,0.5-0.9,0.8-1.4,0.8c-0.2,0-0.4,0-0.5-0.1s-0.3-0.3-0.4-0.5
			c-0.2-0.2-0.3-0.4-0.5-0.5C190,17.6,189.7,17.6,189.3,17.6z"/>
		<path class="word" d="M202.5,1.5c1.8,0,3.4,0.3,4.9,0.9c0.8,0.3,1.5,0.8,2,1.5c0.4,0.5,0.6,1,0.6,1.7c0,1-0.6,1.8-1.7,2.6
			c-0.3,0.2-0.5,0.4-0.5,0.5c0,0.1,0.2,0.3,0.6,0.6c0.5,0.4,1,0.9,1.3,1.5s0.5,1.2,0.5,1.9c0,1-0.4,1.9-1.1,2.9
			c-1.3,1.7-3.3,2.5-6,2.5c-1.9,0-3.6-0.3-5-1c-1-0.5-1.8-1.1-2.3-1.9c-0.4-0.6-0.6-1.3-0.6-2.1c0-1.1,0.5-2,1.5-2.7
			c0.4-0.3,0.6-0.5,0.6-0.6c0-0.1-0.2-0.3-0.5-0.6c-0.8-0.8-1.2-1.7-1.2-2.8c0-1.5,0.7-2.7,2.2-3.6C199.1,1.9,200.7,1.5,202.5,1.5z
			M200.1,11.4c-0.2,0-0.3,0.1-0.5,0.3s-0.2,0.4-0.2,0.7c0,0.3,0.1,0.7,0.3,1.1c0.2,0.4,0.4,0.7,0.6,1c0.6,0.6,1.4,0.9,2.2,0.9
			c0.5,0,0.9-0.1,1.2-0.3c0.3-0.2,0.5-0.5,0.5-0.9c0-0.4-0.1-0.8-0.4-1s-0.9-0.6-1.8-1.1C201.1,11.6,200.4,11.4,200.1,11.4z
			M203.1,3.9c-0.4,0-0.7,0.1-0.9,0.3c-0.2,0.2-0.4,0.4-0.4,0.7c0,0.4,0.3,0.9,0.9,1.3c0.7,0.5,1.2,0.8,1.7,0.8
			c0.2,0,0.4-0.1,0.6-0.4s0.3-0.6,0.3-1c0-0.5-0.2-0.9-0.6-1.1C204.2,4,203.7,3.9,203.1,3.9z"/>
	</g>
	<g id="Page-1">
		<g id="Desktop_x2F_" transform="translate(-646.000000, -1750.000000)">
			<g id="Section_x2F_Intro" transform="translate(235.000000, 951.000000)">
				<g id="Logo_x2F_Twitch" transform="translate(411.000000, 799.000000)">
					<path id="Shape" class="word" d="M141.9,45.7h-8.1v-6.6h-14.2l-6.6,6.6H106l-4,3.5v-3.5h-6.6v-7.1H70v7.1H39.7l-7.1-7.1H19v29.9
						l6.6,6.6l11.6,7.1h9.1v-2l3.5,2H68l3-4.1l0.5,4.1h11.6l0.5-4.1l4,4.1h10.6l0.5-4.1l3.5,4.1h11.6l4.6-4.1v4.1h6l5.6-4.1v4.1h7.1
						l10.6-8.1V51.8L141.9,45.7z M36.7,56.9h-7.1V64h7.1v8.2H27L22,67V41.7h7.6v7.1h7.1V56.9z M70,66.5L65,72.1l-25.3,0.1l0.1-23.4
						h8.1V64h3V48.8h8.1V64h3V48.8H70V66.5z M81.2,72.1h-8.1V48.8h8.1V72.1z M81.2,45.7h-8.1v-4.1h8.1V45.7z M98.9,56.9h-6.6V64h6.6
						v8.1h-9.6L84.2,67V41.7h8.1v7.1h6.6V56.9z M119.6,56.9h-10.1V64h10.1v8.1H107l-5.1-5.1V53.8l5.1-5.1h12.6V56.9z M144.9,72.1
						h-7.1V56.9h-7.6v15.2h-7.6V42.2h8.1v6.6h9.6l4.6,5.1V72.1z"/>
				</g>
			</g>
		</g>
	</g>
</svg>
