<?xml version="1.0" encoding="utf-8"?>
<svg version="1.1" id="icon_robot" xmlns="http://www.w3.org/2000/svg" xmlns:xlink="http://www.w3.org/1999/xlink" x="0px" y="0px"
	 viewBox="0 0 183 176" style="enable-background:new 0 0 183 176;" xml:space="preserve">
	<style type="text/css">
		.icon-line{fill:#F1F1F1;stroke:#D2551B;stroke-width:2;}
		.icon-main{fill:#D2551B;}
		.icon-base{fill:#F1F1F1;}
	</style>
	<title>Icon/Robot</title>
	<g>
		<path id="Body" class="icon-line" d="M124,47.8h-0.2V35.4c0-11.9-9.6-21.6-21.5-21.6h-22c-11.9,0-21.5,9.7-21.5,21.6v12.4h-0.2
			c-8.7,0-15.8,7.1-15.8,15.9v37c0,8.8,7.1,15.9,15.8,15.9h65.5c8.7,0,15.8-7.1,15.8-15.9v-37C139.8,54.9,132.7,47.8,124,47.8z"/>
		<path id="Line" class="icon-line" d="M58.8,47.8H124"/>
		<path id="Leg_x2F_L" class="icon-line" d="M54.2,174.2c15.5,0,7.7,0,30.4,0c0-5.6-3-10.5-7.5-13.1v-16.7c2.3-1.8,3.7-4.3,3.7-7.1
			s-1.4-5.3-3.7-7.1v-13.7H62.7v12.9c-2.9,1.8-4.8,4.6-4.8,7.9c0,3.2,1.9,6.1,4.8,7.9v15.3C57.7,163,54.2,168.2,54.2,174.2z"/>
		<path id="Hand_x2F_L" class="icon-line" d="M28.7,7c-1.2,2.7-4.5,4.7-8.4,4.7c-4.9,0-8.9-3.2-8.9-7.1c0-0.1,0-3.3,0-3.4H1.3
			c0,0.1,0,3.3,0,3.4c0,7.5,5.4,13.9,12.9,16.3c-0.2,8.7,0.5,35.6,14.1,50.9c4.1,4.6,8.9,7.7,14.4,9.5V65.5c-1.3-0.9-2.6-2-3.7-3.3
			c-9.6-10.7-10.8-33-10.5-42c5.7-2.4,9.8-7.4,10.7-13.2H28.7z"/>
		<path id="Leg_x2F_R" class="icon-line" d="M96.9,174.2c22.7,0,15,0,30.4,0c0-6-3.5-11.3-8.6-13.7v-15.3c2.9-1.8,4.8-4.6,4.8-7.9
			s-1.9-6.1-4.8-7.9v-12.9h-14.4v13.7c-2.3,1.8-3.7,4.3-3.7,7.1s1.4,5.3,3.7,7.1v16.7C99.9,163.8,96.9,168.6,96.9,174.2z"/>
		<path id="Hand_x2F_R" class="icon-line" d="M143.3,7c0.9,5.8,5,10.7,10.7,13.2c0.4,9-0.8,31.3-10.5,42c-1.2,1.3-2.4,2.4-3.7,3.3v15.8
			c5.5-1.8,10.4-4.9,14.4-9.5c13.7-15.3,14.3-42.2,14.1-50.9c7.5-2.3,12.9-8.7,12.9-16.3c0-0.1,0-3.3,0-3.4h-10.1c0,0.1,0,3.3,0,3.4
			c0,3.9-4,7.1-8.9,7.1c-3.9,0-7.2-2-8.4-4.7H143.3z"/>
		<path id="Eyes" class="icon-main" d="M104.7,22.5H77.8c-5.1,0-9.3,4.2-9.3,9.3c0,5.2,4.2,9.3,9.3,9.3h26.9c5.1,0,9.3-4.2,9.3-9.3
			S109.8,22.5,104.7,22.5z"/>
		<circle id="Eyes_x2F_L" class="icon-base" cx="79.9" cy="31.8" r="5"/>
		<circle id="Eyes_x2F_R" class="icon-base" cx="102.6" cy="31.8" r="5"/>
		<g id="Wegamers" transform="translate(60.000000, 58.000000)">
			<path id="Shape" class="icon-main" d="M31,1.9c4.4,0,8.7,0,13.1,0c3.1,0,6,1,8.4,3c2.6,2.2,4.2,4.9,4.8,8.2c1.3,7.1,2.6,14,3.9,21
				c0.8,4.8-1.8,9.1-6.5,10c-3.3,0.7-6.1-0.4-8.4-3c-0.8-1.1-1.6-2.2-2.4-3.2c-0.4-0.6-0.5-1.1-0.1-1.7c0.4-0.6,0.8-0.8,1.4-0.7
				c0.5,0.1,1,0.5,1.2,0.8c0.7,1,1.3,1.9,2,2.9c1.3,1.8,3.2,2.5,5.4,2c2.3-0.5,3.6-1.9,4.2-4.1c0.4-1.2,0-2.4-0.2-3.7
				c-1.3-6.8-2.5-13.5-3.8-20.3c-1-4.7-4.7-7.9-9.3-8.4c-0.6,0-1.2-0.1-1.7-0.1c-8.1,0-16.3,0-24.4,0c-2.9,0-5.5,0.8-7.6,2.9
				C9.1,9.3,8.3,11.6,7.8,14C6.6,20.8,5.3,27.6,4,34.3c-0.6,3.1,1,5.7,3.9,6.6c2,0.6,4.3-0.2,5.6-1.9c0.7-1,1.4-1.9,2.2-2.9
				c0.7-1,1.8-1,2.5-0.1c0.4,0.5,0.5,1.1,0.1,1.6c-1.2,1.7-2.2,3.6-3.8,4.8c-2.9,2-5.9,2.4-9,0.7c-3.1-1.6-4.7-4.3-4.4-7.8
				c0.1-2.2,0.6-4.2,1.1-6.3c1-5,1.9-10.4,3-15.8s4.1-9.1,9.4-10.8c1.3-0.4,2.7-0.6,4.1-0.6C22.8,1.9,27,1.9,31,1.9z"/>
			<path id="Shape_1_" class="icon-main" d="M21,15.3c0,0.8,0,1.7,0,2.5c0,1-0.6,1.7-1.4,1.7c-0.8,0-1.6-0.7-1.6-1.7c0-0.8,0-1.7,0-2.5
				c-0.8,0-1.6,0-2.3,0c-0.4,0-0.7,0-1.1-0.1c-0.6-0.2-1-1-0.8-1.6c0.1-0.7,0.7-1.2,1.4-1.2c0.8,0,1.8,0,2.7,0c0-0.8,0-1.7,0-2.5
				c0-0.8,0.5-1.6,1.2-1.7c1-0.2,1.8,0.5,1.8,1.4c0,0.8,0,1.8,0,2.7c0.8,0,1.7,0,2.5,0c1.1,0,1.7,0.6,1.7,1.6s-0.7,1.6-1.7,1.6
				C22.7,15.3,21.8,15.3,21,15.3z"/>
			<path id="Shape_2_" class="icon-main" d="M39.1,16.2c-1.1,0-2-0.8-2-2c0-1.1,0.8-2,2-2c1.1,0,2,1,2,2C41.2,15.2,40.2,16.2,39.1,16.2z"/>
			<path id="Shape_3_" class="icon-main" d="M43.2,20.3c-1.1,0-2-1-2-2s1-2,2-2s2,1,2,2S44.4,20.3,43.2,20.3z"/>
			<path id="Shape_4_" class="icon-main" d="M43.2,12c-1.1,0-2-1-2-2c0-1.1,1-2,2-2s2,1,2,2S44.4,12,43.2,12z"/>
			<path id="Shape_5_" class="icon-main" d="M47.4,16.2c-1.2,0-2-0.8-2-2c0-1.1,1-2,2-2c1.1,0,2,1,2,2S48.6,16.2,47.4,16.2z"/>
			<g id="Group" transform="translate(17.000000, 29.000000)">
				<path id="Shape_6_" class="icon-main" d="M4.6,13H3.2c-0.1,0-0.4-0.1-0.4-0.4c0-0.1,0.1-0.4,0.4-0.4h1.2l0.4-2.6c0-0.1,0.1-0.2,0.4-0.2
					c0.1,0,0.2,0.1,0.2,0.4L5,12.7C4.8,12.8,4.7,13,4.6,13z"/>
				<path id="Shape_7_" class="icon-main" d="M8.3,13H7.2c-0.1,0-0.4-0.1-0.4-0.4V9.5c0-0.1,0.1-0.4,0.4-0.4c0.1,0,0.4,0.1,0.4,0.4v2.9h0.7
					c0.1,0,0.4,0.1,0.4,0.4C8.6,12.8,8.5,13,8.3,13z"/>
				<path id="Shape_8_" class="icon-main" d="M6.1,10.3c-2.5,0-4.5-2-4.5-4.5s2-4.5,4.5-4.5s4.5,2,4.5,4.5C10.7,8.3,8.6,10.3,6.1,10.3z
					M6.1,4.4C5.4,4.4,4.8,5,4.8,5.7S5.4,7,6.1,7s1.3-0.6,1.3-1.3C7.6,5.1,6.9,4.4,6.1,4.4z"/>
			</g>
			<g id="Group_1_" transform="translate(34.000000, 30.000000)">
				<path id="Shape_9_" class="icon-main" d="M4.1,12.1H2.8c-0.1,0-0.2-0.1-0.2-0.2c0-0.1,0.1-0.2,0.2-0.2h1.1l0.4-2.4
					c0-0.1,0.1-0.2,0.4-0.2c0.1,0,0.2,0.1,0.2,0.4l-0.4,2.6C4.3,12,4.2,12.1,4.1,12.1z"/>
				<path id="Shape_10_" class="icon-main" d="M7.5,12.1h-1c-0.1,0-0.2-0.1-0.2-0.2V9c0-0.1,0.1-0.2,0.2-0.2S6.7,8.9,6.7,9v2.5h0.7
					c0.1,0,0.2,0.1,0.2,0.2C7.6,11.8,7.7,12.1,7.5,12.1z"/>
				<path id="Shape_11_" class="icon-main" d="M5.5,9.6c-2.4,0-4.3-1.9-4.3-4.3S3.1,1,5.5,1s4.3,1.9,4.3,4.3S7.9,9.6,5.5,9.6z M5.5,4.1
					c-0.7,0-1.3,0.6-1.3,1.3s0.6,1.3,1.3,1.3s1.3-0.6,1.3-1.3S6.2,4.1,5.5,4.1z"/>
			</g>
			<g id="Group_2_" transform="translate(27.000000, 31.000000)">
				<path id="Shape_12_" class="icon-main" d="M3.5,11H2.3c-0.1,0-0.2-0.1-0.2-0.2c0-0.1,0.1-0.2,0.2-0.2h1l0.2-2c0-0.1,0.1-0.2,0.2-0.2
					c0.1,0,0.2,0.1,0.2,0.2l-0.2,2.3C3.7,11,3.7,11,3.5,11z"/>
				<path id="Shape_13_" class="icon-main" d="M6.5,11H5.7c-0.1,0-0.2-0.1-0.2-0.2V8.4c0-0.1,0.1-0.2,0.2-0.2c0.1,0,0.2,0.1,0.2,0.2v2.2
					h0.6c0.1,0,0.2,0.1,0.2,0.2C6.8,11,6.6,11,6.5,11z"/>
				<path id="Shape_14_" class="icon-main" d="M4.7,8.9c-2,0-3.6-1.7-3.6-3.6s1.7-3.6,3.6-3.6s3.6,1.7,3.6,3.6C8.3,7.3,6.8,8.9,4.7,8.9z
					M4.7,4.2c-0.6,0-1.1,0.5-1.1,1.1s0.5,1.1,1.1,1.1s1.1-0.5,1.1-1.1C5.8,4.8,5.3,4.2,4.7,4.2z"/>
			</g>
		</g>
	</g>
</svg>
