<?xml version="1.0" encoding="utf-8"?>
	<svg version="1.1" id="icon_bulletin" xmlns="http://www.w3.org/2000/svg" xmlns:xlink="http://www.w3.org/1999/xlink" x="0px" y="0px"
		viewBox="0 0 202 176" style="enable-background:new 0 0 202 176;" xml:space="preserve">
	<style type="text/css">
		.icon-line{fill:#F1F1F1;stroke:#D2551B;stroke-width:2;}
		.icon-main{fill:#D2551B;}
	</style>
	<title>Icon/Bulletin</title>
	<g>
		<rect id="Board" x="1" y="57.6" class="icon-line" width="200" height="117.4"/>
		<path id="Line" class="icon-main" d="M82,28.8l9-18.3c0,0.3,0,0.6,0,0.8c0,5.5,4.5,10,10,10s10-4.5,10-10c0-0.3,0-0.7,0-1l9.2,18.5h3
			l-11-21.9C110.1,2.6,105.8,0,101,0s-9.1,2.7-11.2,7L79,28.8H82z"/>
		<path id="Top" class="icon-line" d="M193,28.8H9c-4.4,0-8,3.6-8,8v20.8h200V36.8C201,32.4,197.4,28.8,193,28.8z"/>
		<g id="Deco" transform="translate(63.000000, 37.000000)">
			<path id="Shape" class="icon-main" d="M13.8,13.7H2.2c-0.6,0-1-0.4-1-1V1.2c0-0.6,0.4-1,1-1h11.5c0.6,0,1,0.4,1,1v11.5
				C14.8,13.3,14.3,13.7,13.8,13.7z M3.2,11.7h9.5V2.2H3.2V11.7z"/>
			<path id="Shape_1_" class="icon-main" d="M28.6,14.2c-3.9,0-7-3.1-7-7s3.1-7,7-7s7,3.1,7,7S32.5,14.2,28.6,14.2z M28.6,2.2
				c-2.8,0-5,2.2-5,5s2.2,5,5,5s5-2.2,5-5S31.4,2.2,28.6,2.2z"/>
			<path id="Shape_2_" class="icon-main" d="M55.7,13.9H42.5c-0.4,0-0.7-0.2-0.9-0.5c-0.2-0.3-0.2-0.7,0-1L48.2,1c0.2-0.3,0.5-0.5,0.9-0.5
				l0,0c0.4,0,0.7,0.2,0.9,0.5l6.6,11.4c0.2,0.3,0.2,0.7,0,1C56.4,13.7,56,13.9,55.7,13.9z M44.2,11.9h9.7L49,3.5L44.2,11.9z"/>
			<path id="Combined-Shape" class="icon-main" d="M68.8,8.6l4.2,4.3c0.2,0.2,0.4,0.3,0.7,0.3c0.2,0,0.5-0.1,0.7-0.3c0.4-0.4,0.4-1,0-1.4
				l-4.2-4.3L74.5,3c0.4-0.4,0.4-1,0-1.4s-1-0.4-1.4,0l-4.3,4.2l-4.4-4.4C64,1,63.4,1,63,1.4s-0.4,1,0,1.4l4.4,4.4L63,11.5
				c-0.4,0.4-0.4,1,0,1.4c0.2,0.2,0.4,0.3,0.7,0.3c0.2,0,0.5-0.1,0.7-0.3L68.8,8.6z"/>
		</g>
	</g>
</svg>
