<?xml version="1.0" encoding="utf-8"?>
<svg version="1.1" id="icon_bulletin" xmlns="http://www.w3.org/2000/svg" xmlns:xlink="http://www.w3.org/1999/xlink" x="0px" y="0px" viewBox="0 0 202 176" style="enable-background:new 0 0 202 176;" xml:space="preserve">
	<style type="text/css">
		.icon-line{fill:#F1F1F1;stroke:#D2551B;stroke-width:2;}
		.icon-main{fill:#D2551B;}
	</style>
    <title>Icon/Bulletin</title>
    <rect id="Board" x="1" y="57.6" class="icon-line" width="200" height="117.4"></rect>
    <path id="Line" class="icon-main" d="M82,28.8l9-18.3c0,0.3,0,0.6,0,0.8c0,5.5,4.5,10,10,10s10-4.5,10-10c0-0.3,0-0.7,0-1l9.2,18.5h3
	l-11-21.9C110.1,2.6,105.8,0,101,0s-9.1,2.7-11.2,7L79,28.8H82z"></path>
    <path id="Top" class="icon-line" d="M193,28.8H9c-4.4,0-8,3.6-8,8v20.8h200V36.8C201,32.4,197.4,28.8,193,28.8z"></path>
    <g>
        <path class="icon-main" d="M128.8,52.1c-0.1,0-0.3-0.1-0.4-0.1c-0.3-0.2-0.4-0.5-0.4-0.8l0.6-4.7l-3.5-3.2c-0.2-0.2-0.3-0.5-0.2-0.8
		c0.1-0.3,0.3-0.5,0.6-0.6l4.7-0.8l1.9-4.3c0.1-0.3,0.4-0.5,0.7-0.5c0.3,0,0.6,0.2,0.8,0.4l2.2,4.2l4.7,0.5c0.3,0,0.6,0.2,0.7,0.5
		c0.1,0.3,0,0.6-0.2,0.9l-3.3,3.4l1,4.6c0.1,0.3-0.1,0.6-0.3,0.8c-0.2,0.2-0.6,0.2-0.9,0.1l-4.3-2l-4.1,2.4
		C129.1,52.1,129,52.1,128.8,52.1z M127.5,43.2l2.6,2.3c0.2,0.2,0.3,0.5,0.3,0.7l-0.5,3.5l3-1.7c0.2-0.1,0.5-0.1,0.8,0l3.2,1.5
		l-0.7-3.4c-0.1-0.3,0-0.5,0.2-0.7l2.4-2.5l-3.5-0.4c-0.3,0-0.5-0.2-0.6-0.4l-1.7-3.1l-1.4,3.2c-0.1,0.2-0.3,0.4-0.6,0.5L127.5,43.2
		z M130.8,41.8L130.8,41.8L130.8,41.8z"></path>
        <g>
					<path class="icon-main" d="M91.5,51.2c-3.8,0-6.9-3.1-6.9-7c0-3.8,3.1-6.9,7-6.9c3.8,0,6.9,3.1,6.9,7C98.5,48.1,95.3,51.2,91.5,51.2z
			 M91.5,38.9c-2.9,0-5.3,2.4-5.3,5.3c0,2.9,2.4,5.3,5.3,5.3c2.9,0,5.3-2.4,5.3-5.3C96.8,41.3,94.5,38.9,91.5,38.9z"></path>
        </g>
        <g>
					<path class="icon-main" d="M119.1,50.9l-13.5,0c-0.3,0-0.6-0.2-0.7-0.4c-0.1-0.3-0.1-0.6,0-0.8l6.8-11.6c0.1-0.3,0.4-0.4,0.7-0.4l0,0
			c0.3,0,0.6,0.2,0.7,0.4l6.7,11.7c0.1,0.3,0.1,0.6,0,0.8C119.7,50.8,119.4,50.9,119.1,50.9z M107.1,49.3l10.6,0l-5.3-9.2
			L107.1,49.3z"></path>
        </g>
        <path class="icon-main" d="M67.1,51.7c-0.3,0-0.5-0.2-0.6-0.4l-3.7-5.9c-0.2-0.2-0.2-0.6,0-0.8l3.3-6.1c0.1-0.3,0.4-0.4,0.7-0.4l6.9-0.2
		c0.3,0,0.6,0.1,0.7,0.4l3.7,5.9c0.2,0.2,0.2,0.6,0,0.8L74.8,51c-0.1,0.3-0.4,0.4-0.7,0.4L67.1,51.7C67.1,51.7,67.1,51.7,67.1,51.7z
		 M64.4,44.9l3.2,5.1l6-0.2l2.8-5.3l-3.2-5.1l-6,0.2L64.4,44.9z"></path>
    </g>
</svg>