<?xml version="1.0" encoding="UTF-8"?>
<svg width="311px" height="25px" viewBox="0 0 311 25" version="1.1" xmlns="http://www.w3.org/2000/svg" xmlns:xlink="http://www.w3.org/1999/xlink">
  <title>wegamers_typelogo</title>
  <g stroke="none" stroke-width="1" fill="none" fill-rule="evenodd">
    <g transform="translate(-120.000000, -25.000000)" fill-rule="nonzero" fill="#FFFFFF">
      <g id="wegamers_typelogo" transform="translate(120.000000, 25.000000)">
        <path d="M4.82586207,23.75 L4.28965517,20.7142857 C4.20028736,20 3.93218391,19.0178571 3.66408046,17.7678571 L0.983045977,5.53571429 L0,1.33928571 C1.34051724,1.33928571 2.50229885,1.33928571 3.39597701,1.33928571 C4.37902299,1.33928571 5.45143678,1.33928571 6.79195402,1.33928571 C7.06005747,3.125 7.32816092,4.46428571 7.50689655,5.26785714 L8.84741379,11.875 C9.11551724,13.3035714 9.47298851,15 9.83045977,17.0535714 L10.3666667,14.7321429 L12.2433908,7.14285714 L13.583908,1.25 C15.1031609,1.25 16.3543103,1.25 17.4267241,1.25 C18.5885057,1.25 19.8396552,1.25 21.1801724,1.25 L22.2525862,8.125 L23.6824713,16.9642857 L24.308046,14.5535714 C24.3974138,14.1071429 24.5761494,13.75 24.6655172,13.3035714 C24.7548851,12.8571429 25.1123563,12.0535714 25.4698276,10.7142857 L27.5252874,4.46428571 L28.4189655,1.25 C29.7594828,1.25 30.8318966,1.25 31.7255747,1.25 C32.7086207,1.25 33.7810345,1.25 35.0321839,1.25 L28.687069,20.3571429 L27.704023,23.6607143 C26.0954023,23.6607143 24.6655172,23.6607143 23.4143678,23.6607143 C22.1632184,23.6607143 20.7333333,23.6607143 19.1247126,23.6607143 L18.7672414,21.4285714 L17.3373563,13.5714286 C17.2479885,13.125 17.1586207,12.5892857 17.1586207,12.1428571 C17.0692529,11.6071429 16.9798851,10.8928571 16.8905172,9.82142857 L16.3543103,12.4107143 C16.1755747,12.9464286 16.0862069,13.5714286 15.9074713,14.1071429 L13.2264368,23.6607143 C11.5284483,23.6607143 10.187931,23.6607143 9.11551724,23.6607143 C7.775,23.75 6.43448276,23.75 4.82586207,23.75 Z" id="Shape"></path>
        <path d="M36.9982759,23.75 C37.2663793,20.8928571 37.4451149,18.5714286 37.6238506,16.6964286 C37.7132184,14.8214286 37.891954,12.2321429 37.9813218,9.10714286 C38.0706897,5.98214286 38.1600575,3.83928571 38.1600575,2.85714286 L38.1600575,1.42857143 C40.7517241,1.42857143 43.8795977,1.42857143 47.5436782,1.42857143 C50.9396552,1.42857143 53.8887931,1.42857143 56.4804598,1.42857143 L56.4804598,1.96428571 C56.4804598,2.05357143 56.4804598,2.58928571 56.391092,3.39285714 L56.3017241,5.17857143 C56.3017241,5.53571429 56.3017241,5.98214286 56.3017241,6.33928571 C54.1568966,6.25 52.3695402,6.25 50.9396552,6.25 C49.3310345,6.25 48.2586207,6.25 47.7224138,6.25 C47.1862069,6.25 46.2925287,6.25 45.1307471,6.33928571 L44.9520115,10.0892857 C46.2031609,10.0892857 47.7224138,10.1785714 49.5097701,10.1785714 C50.1353448,10.1785714 51.7439655,10.1785714 54.425,10.0892857 C54.3356322,11.5178571 54.2462644,13.125 54.1568966,15.0892857 C52.2801724,15.0892857 50.7609195,15.0892857 49.7778736,15.0892857 C48.2586207,15.0892857 46.5606322,15.0892857 44.683908,15.1785714 L44.5051724,19.1964286 L46.3818966,19.1964286 C46.9181034,19.1964286 48.0798851,19.1964286 49.8672414,19.1071429 L53.2632184,19.0178571 C53.7994253,19.0178571 54.6037356,18.9285714 55.7655172,18.9285714 C55.6761494,20.5357143 55.4974138,22.2321429 55.408046,23.9285714 C52.7270115,23.9285714 49.7778736,23.9285714 46.65,23.9285714 L39.4112069,23.9285714 L36.9982759,23.75 Z" id="Shape"></path>
        <path d="M72.387931,10.625 C73.9071839,10.625 75.337069,10.625 76.6775862,10.625 C79.0011494,10.625 80.7885057,10.625 82.129023,10.625 C81.9502874,12.1428571 81.8609195,14.2857143 81.6821839,16.9642857 C81.5034483,19.7321429 81.4140805,21.7857143 81.4140805,23.2142857 C80.162931,23.4821429 79.0905172,23.5714286 78.2862069,23.75 C77.4818966,23.8392857 76.4988506,23.9285714 75.337069,24.0178571 C74.1752874,24.1071429 73.1028736,24.1071429 72.2091954,24.1071429 C70.6899425,24.1071429 69.2600575,24.0178571 67.8301724,23.75 C66.4002874,23.4821429 65.1491379,23.125 63.9873563,22.5892857 C62.8255747,22.0535714 61.9318966,21.3392857 61.1275862,20.4464286 C60.4126437,19.5535714 59.787069,18.3928571 59.3402299,17.1428571 C58.8933908,15.8928571 58.7146552,14.5535714 58.7146552,13.2142857 C58.7146552,10.9821429 59.2508621,8.92857143 60.4126437,7.05357143 C61.4850575,5.17857143 63.0936782,3.66071429 65.1491379,2.5 C67.2045977,1.42857143 69.8856322,0.803571429 73.1922414,0.803571429 C75.6051724,0.803571429 78.2862069,1.07142857 81.145977,1.69642857 C81.145977,3.30357143 81.2353448,5.08928571 81.3247126,7.05357143 C80.5204023,6.78571429 79.8948276,6.60714286 79.4479885,6.42857143 C79.0011494,6.33928571 78.4649425,6.25 77.75,6.16071429 C77.1244253,6.07142857 76.4988506,5.98214286 75.8732759,5.89285714 C75.2477011,5.80357143 74.8008621,5.80357143 74.2646552,5.80357143 C73.1028736,5.80357143 71.941092,5.98214286 70.8686782,6.33928571 C69.7962644,6.69642857 68.9025862,7.23214286 68.0982759,7.94642857 C67.2939655,8.66071429 66.7577586,9.55357143 66.4002874,10.5357143 C66.0428161,11.5178571 65.8640805,12.5892857 65.8640805,13.6607143 C65.8640805,14.8214286 66.0428161,15.8035714 66.4896552,16.6964286 C66.9364943,17.5892857 67.6514368,18.2142857 68.5451149,18.75 C69.5281609,19.1964286 70.6005747,19.4642857 71.7623563,19.4642857 C72.7454023,19.4642857 73.8178161,19.2857143 74.9795977,19.0178571 L75.1583333,15.4464286 C74.4433908,15.4464286 73.9965517,15.3571429 73.9071839,15.3571429 L72.1198276,15.3571429 L72.2091954,13.3035714 C72.2091954,13.125 72.2091954,12.7678571 72.2985632,12.3214286 C72.387931,11.9642857 72.387931,11.3392857 72.387931,10.625 Z" id="Shape"></path>
        <path d="M82.4864943,23.75 L83.8270115,21.4285714 L92.4063218,5.35714286 L93.3,3.57142857 C93.5681034,3.03571429 93.9255747,2.32142857 94.3724138,1.33928571 C96.3385057,1.33928571 97.679023,1.33928571 98.5727011,1.33928571 C100.091954,1.33928571 101.521839,1.33928571 102.862356,1.33928571 L105.275287,8.21428571 L110.190517,21.4285714 L111.173563,23.8392857 C109.296839,23.8392857 108.135057,23.8392857 107.688218,23.8392857 C106.79454,23.8392857 105.454023,23.8392857 103.666667,23.8392857 C103.219828,22.0535714 102.504885,19.9107143 101.611207,17.5 L93.3,17.5 C92.316954,19.4642857 91.333908,21.5178571 90.3508621,23.8392857 C88.2954023,23.8392857 87.0442529,23.8392857 86.5974138,23.8392857 C85.7037356,23.75 84.3632184,23.75 82.4864943,23.75 Z M95.266092,12.5892857 L100.360057,12.5892857 C99.108908,8.75 98.3939655,6.60714286 98.3045977,6.25 C97.5896552,7.85714286 96.9640805,9.19642857 96.4278736,10.1785714 L95.266092,12.5892857 Z" id="Shape"></path>
        <path d="M112.51408,23.75 L112.96092,20.4464286 L113.854598,8.92857143 L114.390805,1.33928571 C116.446264,1.33928571 117.965517,1.33928571 119.127299,1.33928571 C120.110345,1.33928571 121.54023,1.33928571 123.506322,1.33928571 C123.685057,2.32142857 123.774425,3.03571429 123.863793,3.48214286 C123.953161,3.92857143 124.221264,4.91071429 124.578736,6.33928571 C124.936207,7.76785714 125.293678,9.01785714 125.472414,10 C125.740517,11.0714286 126.097989,12.7678571 126.544828,15.3571429 C126.991667,13.6607143 127.438506,12.1428571 127.885345,10.8928571 C128.242816,9.64285714 128.779023,8.21428571 129.404598,6.69642857 C130.030172,5.08928571 130.387644,4.10714286 130.566379,3.57142857 C130.745115,3.125 130.923851,2.32142857 131.191954,1.33928571 C132.800575,1.33928571 134.409195,1.33928571 136.017816,1.33928571 C137.09023,1.33928571 138.609483,1.33928571 140.486207,1.33928571 C140.307471,5 140.128736,8.21428571 140.039368,10.8928571 C139.860632,16.0714286 139.860632,19.6428571 139.860632,21.6071429 C139.860632,22.0535714 139.860632,22.7678571 139.860632,23.8392857 C138.430747,23.8392857 137.358333,23.8392857 136.822126,23.8392857 C136.017816,23.8392857 134.945402,23.8392857 133.694253,23.8392857 C133.783621,22.8571429 133.872989,20.5357143 134.051724,16.7857143 C134.23046,13.0357143 134.23046,10.7142857 134.23046,9.64285714 C134.23046,9.19642857 134.23046,8.57142857 134.23046,7.76785714 L132.085632,14.4642857 L128.957759,23.75 C127.527874,23.75 126.544828,23.75 126.008621,23.75 C125.293678,23.75 124.310632,23.75 122.880747,23.75 L120.825287,14.7321429 L119.663506,9.91071429 C119.663506,9.73214286 119.574138,9.46428571 119.48477,9.19642857 C119.395402,8.92857143 119.306034,8.48214286 119.216667,7.76785714 L118.769828,12.3214286 L118.233621,21.6071429 L118.144253,23.75 C116.625,23.75 115.641954,23.75 115.284483,23.75 C114.837644,23.75 113.854598,23.75 112.51408,23.75 Z" id="Shape"></path>
        <path d="M143.882184,23.75 C144.150287,20.8928571 144.329023,18.5714286 144.507759,16.6964286 C144.597126,14.8214286 144.775862,12.2321429 144.86523,9.10714286 C144.954598,5.98214286 145.043966,3.83928571 145.043966,2.85714286 L145.043966,1.42857143 C147.635632,1.42857143 150.763506,1.42857143 154.427586,1.42857143 C157.823563,1.42857143 160.772701,1.42857143 163.364368,1.42857143 L163.364368,1.96428571 C163.364368,2.05357143 163.364368,2.58928571 163.275,3.39285714 L163.185632,5.17857143 C163.185632,5.53571429 163.185632,5.98214286 163.185632,6.33928571 C161.040805,6.25 159.253448,6.25 157.823563,6.25 C156.214943,6.25 155.142529,6.25 154.606322,6.25 C154.070115,6.25 153.176437,6.25 152.014655,6.33928571 L151.83592,10.0892857 C153.087069,10.0892857 154.606322,10.1785714 156.393678,10.1785714 C157.019253,10.1785714 158.627874,10.1785714 161.308908,10.0892857 C161.21954,11.5178571 161.130172,13.125 161.040805,15.0892857 C159.16408,15.0892857 157.644828,15.0892857 156.661782,15.0892857 C155.142529,15.0892857 153.44454,15.0892857 151.567816,15.1785714 L151.38908,19.1964286 L153.265805,19.1964286 C153.802011,19.1964286 154.963793,19.1964286 156.751149,19.1071429 L160.147126,19.0178571 C160.683333,19.0178571 161.487644,18.9285714 162.649425,18.9285714 C162.560057,20.5357143 162.381322,22.2321429 162.291954,23.9285714 C159.61092,23.9285714 156.661782,23.9285714 153.533908,23.9285714 L146.295115,23.9285714 L143.882184,23.75 Z" id="Shape"></path>
        <path d="M166.045402,23.75 C166.224138,21.7857143 166.402874,20.0892857 166.581609,18.5714286 C166.670977,17.0535714 166.849713,15.2678571 166.93908,13.2142857 C167.028448,11.1607143 167.117816,9.01785714 167.117816,6.78571429 C167.117816,4.55357143 167.207184,2.76785714 167.207184,1.42857143 C168.547701,1.42857143 169.709483,1.51785714 170.513793,1.51785714 C171.407471,1.51785714 172.479885,1.51785714 173.731034,1.42857143 C174.982184,1.33928571 176.233333,1.33928571 177.395115,1.33928571 C178.825,1.33928571 180.076149,1.42857143 181.148563,1.51785714 C181.952874,1.60714286 182.757184,1.78571429 183.382759,1.96428571 C184.097701,2.23214286 184.633908,2.5 185.080747,2.85714286 C185.527586,3.21428571 185.885057,3.57142857 186.242529,4.01785714 C186.510632,4.46428571 186.778736,4.91071429 186.957471,5.53571429 C187.136207,6.07142857 187.225575,6.69642857 187.225575,7.41071429 C187.225575,8.125 187.136207,8.83928571 186.957471,9.46428571 C186.778736,10.0892857 186.510632,10.7142857 186.063793,11.25 C185.706322,11.7857143 185.170115,12.3214286 184.54454,12.6785714 C183.918966,13.125 183.114655,13.4821429 181.952874,13.9285714 L182.846552,15.9821429 C183.114655,16.6071429 183.382759,17.1428571 183.650862,17.7678571 L185.885057,22.5892857 C185.974425,22.7678571 186.153161,23.2142857 186.421264,23.8392857 C184.633908,23.8392857 183.382759,23.8392857 182.757184,23.8392857 C181.952874,23.8392857 180.701724,23.8392857 178.914368,23.8392857 C178.735632,23.3035714 178.378161,22.2321429 177.931322,20.625 C177.752586,20 177.573851,19.4642857 177.484483,19.1071429 C177.216379,18.3035714 176.858908,17.2321429 176.322701,15.8035714 L174.624713,11.1607143 C175.250287,11.25 175.786494,11.3392857 176.412069,11.3392857 C177.216379,11.3392857 177.931322,11.25 178.556897,10.9821429 C179.182471,10.7142857 179.718678,10.3571429 180.076149,9.82142857 C180.433621,9.28571429 180.612356,8.75 180.612356,8.21428571 C180.612356,7.76785714 180.522989,7.32142857 180.254885,6.96428571 C179.986782,6.60714286 179.62931,6.33928571 179.093103,6.16071429 C178.556897,5.98214286 177.752586,5.89285714 176.590805,5.89285714 C176.233333,5.89285714 175.786494,5.89285714 175.429023,5.89285714 C174.982184,5.89285714 174.535345,5.89285714 173.999138,5.89285714 C173.820402,8.125 173.731034,10.8928571 173.641667,14.1071429 C173.552299,17.3214286 173.462931,20.5357143 173.462931,23.6607143 C171.675575,23.6607143 170.424425,23.6607143 169.888218,23.6607143 C168.815805,23.75 167.654023,23.75 166.045402,23.75 Z" id="Shape"></path>
        <path d="M189.45977,23.3928571 C189.281034,21.0714286 189.191667,19.1964286 188.923563,17.7678571 C190.174713,18.3035714 191.247126,18.6607143 192.230172,18.9285714 C193.213218,19.1071429 194.017529,19.2857143 194.732471,19.2857143 C195.715517,19.2857143 196.43046,19.1071429 197.056034,18.8392857 C197.592241,18.5714286 197.860345,18.125 197.860345,17.5892857 C197.860345,17.4107143 197.860345,17.2321429 197.770977,17.0535714 C197.681609,16.875 197.592241,16.6964286 197.502874,16.5178571 C197.324138,16.3392857 197.145402,16.0714286 196.877299,15.8035714 L193.749425,13.125 C193.034483,12.5 192.498276,12.0535714 192.230172,11.7857143 C191.604598,11.25 191.157759,10.7142857 190.889655,10.2678571 C190.532184,9.82142857 190.353448,9.28571429 190.174713,8.83928571 C189.995977,8.30357143 189.995977,7.85714286 189.995977,7.23214286 C189.995977,6.60714286 190.085345,5.89285714 190.353448,5.26785714 C190.621552,4.64285714 190.979023,4.01785714 191.425862,3.48214286 C191.872701,2.94642857 192.498276,2.41071429 193.302586,2.05357143 C194.106897,1.60714286 194.911207,1.33928571 195.804885,1.25 C196.698563,1.07142857 197.592241,1.07142857 198.575287,1.07142857 C200.452011,1.07142857 202.418103,1.25 204.652299,1.69642857 C204.652299,2.41071429 204.741667,3.125 204.741667,3.75 C204.741667,4.375 204.920402,5.44642857 205.00977,7.05357143 C204.026724,6.60714286 203.043678,6.33928571 202.239368,6.25 C201.435057,6.07142857 200.720115,5.98214286 200.09454,5.98214286 C199.200862,5.98214286 198.48592,6.16071429 197.949713,6.42857143 C197.413506,6.78571429 197.145402,7.14285714 197.145402,7.58928571 C197.145402,7.76785714 197.145402,8.03571429 197.23477,8.21428571 C197.324138,8.39285714 197.502874,8.66071429 197.770977,8.92857143 C198.03908,9.19642857 198.307184,9.55357143 198.754023,9.82142857 C199.111494,10.1785714 199.737069,10.625 200.630747,11.3392857 L201.792529,12.2321429 C202.15,12.5 202.507471,12.8571429 202.95431,13.3035714 C203.401149,13.75 203.669253,14.1071429 204.026724,14.4642857 C204.294828,14.8214286 204.562931,15.1785714 204.741667,15.5357143 C204.920402,15.8928571 205.00977,16.1607143 205.099138,16.5178571 C205.188506,16.875 205.188506,17.2321429 205.188506,17.5892857 C205.188506,18.5714286 204.920402,19.5535714 204.473563,20.4464286 C204.026724,21.3392857 203.311782,22.0535714 202.507471,22.6785714 C201.613793,23.2142857 200.720115,23.6607143 199.647701,23.9285714 C198.575287,24.1964286 197.502874,24.2857143 196.341092,24.2857143 C194.375,24.1964286 192.140805,23.9285714 189.45977,23.3928571 Z" id="Shape"></path>
        <path d="M216.538218,23.75 C216.806322,21.1607143 216.985057,19.0178571 217.163793,17.4107143 C217.431897,14.4642857 217.610632,11.4285714 217.7,8.57142857 C217.789368,5.625 217.878736,3.21428571 217.878736,1.33928571 C219.397989,1.33928571 220.649138,1.33928571 221.81092,1.33928571 C222.61523,1.33928571 223.687644,1.33928571 225.206897,1.33928571 L224.849425,7.32142857 L224.313218,16.6071429 L224.223851,18.9285714 C226.100575,18.9285714 227.351724,19.0178571 227.887931,19.0178571 C230.747701,19.0178571 232.981897,19.0178571 234.411782,18.9285714 L234.05431,23.9285714 C231.19454,23.9285714 228.424138,23.9285714 225.832471,23.9285714 C222.257759,23.75 219.129885,23.75 216.538218,23.75 Z" id="Shape"></path>
        <path d="M271.499425,23.75 L270.873851,21.7857143 L266.852299,10.2678571 L263.724425,1.42857143 C265.243678,1.42857143 266.584195,1.42857143 267.656609,1.42857143 C268.371552,1.42857143 269.443966,1.42857143 270.963218,1.42857143 C271.231322,2.41071429 271.410057,3.125 271.588793,3.66071429 C271.767529,4.28571429 272.125,5.53571429 272.750575,7.23214286 L275.163506,15 C275.431609,15.8035714 275.699713,16.875 276.057184,18.2142857 L276.772126,16.3392857 L282.581034,3.57142857 C282.670402,3.30357143 282.75977,3.03571429 282.938506,2.76785714 C283.027874,2.5 283.295977,1.96428571 283.56408,1.25 C285.172701,1.25 286.423851,1.25 287.406897,1.25 C288.032471,1.25 289.194253,1.25 290.981609,1.25 C289.909195,3.30357143 288.568678,5.80357143 287.228161,8.57142857 L281.508621,19.8214286 C280.972414,20.8928571 280.346839,22.2321429 279.631897,23.75 C277.755172,23.75 276.504023,23.75 275.699713,23.75 C274.98477,23.75 273.554885,23.75 271.499425,23.75 Z" id="Shape"></path>
        <path d="M290.892241,23.75 C291.160345,20.8928571 291.33908,18.5714286 291.517816,16.6964286 C291.607184,14.8214286 291.78592,12.2321429 291.875287,9.10714286 C291.964655,5.98214286 292.054023,3.83928571 292.054023,2.85714286 L292.054023,1.42857143 C294.64569,1.42857143 297.773563,1.42857143 301.437644,1.42857143 C304.833621,1.42857143 307.782759,1.42857143 310.374425,1.42857143 L310.374425,1.96428571 C310.374425,2.05357143 310.374425,2.58928571 310.285057,3.39285714 L310.19569,5.17857143 C310.19569,5.53571429 310.19569,5.98214286 310.19569,6.33928571 C308.050862,6.25 306.263506,6.25 304.833621,6.25 C303.225,6.25 302.152586,6.25 301.616379,6.25 C301.080172,6.25 300.186494,6.25 299.024713,6.33928571 L298.845977,10.0892857 C300.097126,10.0892857 301.616379,10.1785714 303.403736,10.1785714 C304.02931,10.1785714 305.637931,10.1785714 308.318966,10.0892857 C308.229598,11.5178571 308.14023,13.125 308.050862,15.0892857 C306.174138,15.0892857 304.654885,15.0892857 303.671839,15.0892857 C302.152586,15.0892857 300.454598,15.0892857 298.577874,15.1785714 L298.399138,19.1964286 L300.275862,19.1964286 C300.812069,19.1964286 301.973851,19.1964286 303.761207,19.1071429 L307.157184,19.0178571 C307.693391,19.0178571 308.497701,18.9285714 309.659483,18.9285714 C309.570115,20.5357143 309.391379,22.2321429 309.302011,23.9285714 C306.620977,23.9285714 303.671839,23.9285714 300.543966,23.9285714 L293.305172,23.9285714 L290.892241,23.75 Z" id="Shape"></path>
        <path d="M262.115805,7.41071429 C261.49023,6.07142857 260.596552,4.91071429 259.345402,3.83928571 C258.094253,2.85714286 256.664368,2.05357143 255.055747,1.60714286 C253.447126,1.16071429 251.749138,0.892857143 249.961782,0.892857143 C247.280747,0.892857143 244.778448,1.42857143 242.544253,2.32142857 C240.399425,3.39285714 238.790805,4.73214286 237.629023,6.60714286 C236.467241,8.48214286 235.931034,10.5357143 235.931034,12.9464286 C235.931034,14.5535714 236.199138,16.0714286 236.735345,17.4107143 C237.271552,18.75 238.16523,20 239.416379,21.0714286 C240.667529,22.1428571 242.186782,22.9464286 243.88477,23.3928571 C245.582759,23.8392857 247.370115,24.1071429 249.246839,24.1071429 C251.123563,24.1071429 253.000287,23.9285714 254.698276,23.3928571 C256.396264,22.9464286 257.915517,22.1428571 259.166667,21.0714286 C260.417816,20 261.400862,18.6607143 262.026437,17.1428571 C262.652011,15.625 263.009483,13.9285714 263.009483,12.0535714 C263.009483,10.2678571 262.741379,8.75 262.115805,7.41071429 Z M257.021839,7.41071429 C255.323851,8.57142857 253.71523,9.82142857 252.017241,10.9821429 C251.927874,10.9821429 251.927874,11.0714286 251.838506,11.1607143 C251.927874,11.1607143 252.017241,11.25 252.017241,11.25 C253.000287,11.6964286 253.983333,12.0535714 254.966379,12.5 C255.055747,12.5 255.145115,12.5892857 255.145115,12.5892857 C255.323851,12.7678571 255.234483,12.9464286 255.055747,13.0357143 C254.608908,13.3035714 254.072701,13.5714286 253.625862,13.75 C249.783046,15.8035714 245.94023,17.7678571 242.186782,19.8214286 C242.097414,19.9107143 242.008046,19.9107143 241.918678,19.9107143 C241.82931,20 241.650575,19.9107143 241.561207,19.8214286 C241.471839,19.7321429 241.471839,19.5535714 241.561207,19.4642857 C241.650575,19.375 241.739943,19.2857143 241.918678,19.1071429 C243.795402,17.2321429 245.672126,15.3571429 247.548851,13.4821429 C247.548851,13.3928571 247.638218,13.3928571 247.727586,13.3035714 C247.638218,13.3035714 247.638218,13.2142857 247.548851,13.2142857 C246.655172,12.8571429 245.850862,12.5 244.957184,12.1428571 C244.599713,11.9642857 244.599713,11.7857143 244.867816,11.5178571 C247.370115,9.375 249.783046,7.14285714 252.285345,5 C252.374713,4.91071429 252.46408,4.91071429 252.553448,4.82142857 C254.162069,5.625 255.681322,6.25 257.200575,6.875 C257.37931,7.14285714 257.289943,7.23214286 257.021839,7.41071429 Z" id="Shape"></path>
      </g>
    </g>
  </g>
</svg>