<?xml version="1.0" encoding="UTF-8"?>
<svg width="1440px" height="799px" viewBox="0 0 1440 799" version="1.1" xmlns="http://www.w3.org/2000/svg" xmlns:xlink="http://www.w3.org/1999/xlink">
    <!-- Generator: Sketch 46.2 (44496) - http://www.bohemiancoding.com/sketch -->
    <title>Cover/bgLines</title>
    <desc>Created with Sketch.</desc>
    <defs></defs>
    <g id="Page-1" stroke="none" stroke-width="1" fill="none" fill-rule="evenodd" fill-opacity="0.1">
        <g id="Desktop/暫時頁面" transform="translate(0.000000, -75.000000)" fill="#D2551B">
            <g id="Section/Cover" transform="translate(0.000000, 75.000000)">
                <g id="Cover/bgLines">
                    <rect id="Rectangle" x="0" y="12.0134228" width="1440" height="6.00671141"></rect>
                    <rect id="Rectangle" x="0" y="0" width="1440" height="6.00671141"></rect>
                    <rect id="Rectangle" x="0" y="36.0402685" width="1440" height="6.00671141"></rect>
                    <rect id="Rectangle" x="0" y="24.0268456" width="1440" height="6.00671141"></rect>
                    <rect id="Rectangle" x="0" y="60.0671141" width="1440" height="6.00671141"></rect>
                    <rect id="Rectangle" x="0" y="48.0536913" width="1440" height="6.00671141"></rect>
                    <rect id="Rectangle" x="0" y="84.0939597" width="1440" height="6.00671141"></rect>
                    <rect id="Rectangle" x="0" y="72.0805369" width="1440" height="6.00671141"></rect>
                    <rect id="Rectangle" x="0" y="108.120805" width="1440" height="6.00671141"></rect>
                    <rect id="Rectangle" x="0" y="96.1073826" width="1440" height="6.00671141"></rect>
                    <rect id="Rectangle" x="0" y="132.147651" width="1440" height="6.00671141"></rect>
                    <rect id="Rectangle" x="0" y="120.134228" width="1440" height="6.00671141"></rect>
                    <rect id="Rectangle" x="0" y="156.174497" width="1440" height="6.00671141"></rect>
                    <rect id="Rectangle" x="0" y="144.161074" width="1440" height="6.00671141"></rect>
                    <rect id="Rectangle" x="0" y="180.201342" width="1440" height="6.00671141"></rect>
                    <rect id="Rectangle" x="0" y="168.187919" width="1440" height="6.00671141"></rect>
                    <rect id="Rectangle" x="0" y="204.228188" width="1440" height="6.00671141"></rect>
                    <rect id="Rectangle" x="0" y="192.214765" width="1440" height="6.00671141"></rect>
                    <rect id="Rectangle" x="0" y="228.255034" width="1440" height="6.00671141"></rect>
                    <rect id="Rectangle" x="0" y="216.241611" width="1440" height="6.00671141"></rect>
                    <rect id="Rectangle" x="0" y="252.281879" width="1440" height="6.00671141"></rect>
                    <rect id="Rectangle" x="0" y="240.268456" width="1440" height="6.00671141"></rect>
                    <rect id="Rectangle" x="0" y="276.308725" width="1440" height="6.00671141"></rect>
                    <rect id="Rectangle" x="0" y="264.295302" width="1440" height="6.00671141"></rect>
                    <rect id="Rectangle" x="0" y="300.33557" width="1440" height="6.00671141"></rect>
                    <rect id="Rectangle" x="0" y="288.322148" width="1440" height="6.00671141"></rect>
                    <rect id="Rectangle" x="0" y="324.362416" width="1440" height="6.00671141"></rect>
                    <rect id="Rectangle" x="0" y="312.348993" width="1440" height="6.00671141"></rect>
                    <rect id="Rectangle" x="0" y="348.389262" width="1440" height="6.00671141"></rect>
                    <rect id="Rectangle" x="0" y="336.375839" width="1440" height="6.00671141"></rect>
                    <rect id="Rectangle" x="0" y="372.416107" width="1440" height="6.00671141"></rect>
                    <rect id="Rectangle" x="0" y="360.402685" width="1440" height="6.00671141"></rect>
                    <rect id="Rectangle" x="0" y="396.442953" width="1440" height="6.00671141"></rect>
                    <rect id="Rectangle" x="0" y="384.42953" width="1440" height="6.00671141"></rect>
                    <rect id="Rectangle" x="0" y="420.469799" width="1440" height="6.00671141"></rect>
                    <rect id="Rectangle" x="0" y="408.456376" width="1440" height="6.00671141"></rect>
                    <rect id="Rectangle" x="0" y="444.496644" width="1440" height="6.00671141"></rect>
                    <rect id="Rectangle" x="0" y="432.483221" width="1440" height="6.00671141"></rect>
                    <rect id="Rectangle" x="0" y="468.52349" width="1440" height="6.00671141"></rect>
                    <rect id="Rectangle" x="0" y="456.510067" width="1440" height="6.00671141"></rect>
                    <rect id="Rectangle" x="0" y="492.550336" width="1440" height="6.00671141"></rect>
                    <rect id="Rectangle" x="0" y="480.536913" width="1440" height="6.00671141"></rect>
                    <rect id="Rectangle" x="0" y="516.577181" width="1440" height="6.00671141"></rect>
                    <rect id="Rectangle" x="0" y="504.563758" width="1440" height="6.00671141"></rect>
                    <rect id="Rectangle" x="0" y="540.604027" width="1440" height="6.00671141"></rect>
                    <rect id="Rectangle" x="0" y="528.590604" width="1440" height="6.00671141"></rect>
                    <rect id="Rectangle" x="0" y="564.630872" width="1440" height="6.00671141"></rect>
                    <rect id="Rectangle" x="0" y="552.61745" width="1440" height="6.00671141"></rect>
                    <rect id="Rectangle" x="0" y="588.657718" width="1440" height="6.00671141"></rect>
                    <rect id="Rectangle" x="0" y="576.644295" width="1440" height="6.00671141"></rect>
                    <rect id="Rectangle" x="0" y="612.684564" width="1440" height="6.00671141"></rect>
                    <rect id="Rectangle" x="0" y="600.671141" width="1440" height="6.00671141"></rect>
                    <rect id="Rectangle" x="0" y="636.711409" width="1440" height="6.00671141"></rect>
                    <rect id="Rectangle" x="0" y="624.697987" width="1440" height="6.00671141"></rect>
                    <rect id="Rectangle" x="0" y="660.738255" width="1440" height="6.00671141"></rect>
                    <rect id="Rectangle" x="0" y="648.724832" width="1440" height="6.00671141"></rect>
                    <rect id="Rectangle" x="0" y="684.765101" width="1440" height="6.00671141"></rect>
                    <rect id="Rectangle" x="0" y="672.751678" width="1440" height="6.00671141"></rect>
                    <rect id="Rectangle" x="0" y="708.791946" width="1440" height="6.00671141"></rect>
                    <rect id="Rectangle" x="0" y="696.778523" width="1440" height="6.00671141"></rect>
                    <rect id="Rectangle" x="0" y="732.818792" width="1440" height="6.00671141"></rect>
                    <rect id="Rectangle" x="0" y="720.805369" width="1440" height="6.00671141"></rect>
                    <rect id="Rectangle" x="0" y="756.845638" width="1440" height="6.00671141"></rect>
                    <rect id="Rectangle" x="0" y="744.832215" width="1440" height="6.00671141"></rect>
                    <rect id="Rectangle" x="0" y="780.872483" width="1440" height="6.00671141"></rect>
                    <rect id="Rectangle" x="0" y="768.85906" width="1440" height="6.00671141"></rect>
                    <rect id="Rectangle" x="0" y="792.885906" width="1440" height="6.00671141"></rect>
                </g>
            </g>
        </g>
    </g>
</svg>